M48
;Layer_Color=9474304
;FILE_FORMAT=4:4
METRIC,LZ
;TYPE=PLATED
T01F00S00C0.3000
T02F00S00C0.5000
T03F00S00C0.7000
T04F00S00C1.0000
T05F00S00C1.2000
T06F00S00C3.0000
T07F00S00C3.2000
T08F00S00C4.2000
%
T01
X0014859Y002286
X0014986Y0038989
X0033015Y00153
X0034285
X0035555
X0036825
X0038095
X0039365
X004064Y0015113
X004318Y0014732
X004191Y00127
X007366Y0038481
X0143009Y004191
X0072517Y0041148
X0068707Y004318
X0025Y0040925
T02
X0003Y0008
X0005Y000725
X0007Y0008
X000775Y001
X0007Y0012
X0005Y001275
X0003Y0012
X000225Y001
X006725
X0068Y0012
X007Y001275
X0072Y0012
X007275Y001
X0072Y0008
X007Y000725
X0068Y0008
Y0053
X007Y005225
X0072Y0053
X007275Y0055
X0072Y0057
X007Y005775
X0068Y0057
X006725Y0055
X000775
X0007Y0057
X0005Y005775
X0003Y0057
X000225Y0055
X0003Y0053
X0005Y005225
X0007Y0053
T03
X008887Y000587
X009141
X009395
X013205
X013459
X013713
Y005413
X013459
X013205
X012951
X012697
X012443
X012189
X011935
X011681
X011427
X011173
X010919
X010665
X010411
X010157
X009903
X009649
X009395
X009141
X008887
T04
X003Y002073
Y002327
Y002873
Y003127
Y003673
Y003927
X0063072Y0036408
Y0033868
Y0030439
Y0027899
Y002447
Y002193
Y0018501
Y0015961
Y0012532
Y0009992
Y0006563
Y0004023
X0150606Y0051181
Y0053721
X0063072Y0053807
Y0051267
Y00486
Y004606
Y0042377
Y0039837
T05
X0009144Y00291
Y00321
Y00351
Y00381
X01535Y003625
X01585
Y002375
X01535
X01705
Y001925
X01755
Y002375
X01875
X01925
Y003625
X01875
X01755
X01705
Y000675
X01755
Y004075
X01705
Y005325
X01755
T06
X0004644Y003134
Y003595
T07
X0005Y001
X007
Y0055
X0005
T08
X0015Y0005
X0185
Y0055
X0015
M30
