G04*
G04 #@! TF.GenerationSoftware,Altium Limited,Altium Designer,23.9.2 (47)*
G04*
G04 Layer_Physical_Order=2*
G04 Layer_Color=16711680*
%FSLAX44Y44*%
%MOMM*%
G71*
G04*
G04 #@! TF.SameCoordinates,693C47A8-3C61-47C9-A59D-3DA452520F73*
G04*
G04*
G04 #@! TF.FilePolarity,Positive*
G04*
G01*
G75*
%ADD10C,0.2000*%
G04:AMPARAMS|DCode=13|XSize=0.65mm|YSize=1.25mm|CornerRadius=0.1625mm|HoleSize=0mm|Usage=FLASHONLY|Rotation=90.000|XOffset=0mm|YOffset=0mm|HoleType=Round|Shape=RoundedRectangle|*
%AMROUNDEDRECTD13*
21,1,0.6500,0.9250,0,0,90.0*
21,1,0.3250,1.2500,0,0,90.0*
1,1,0.3250,0.4625,0.1625*
1,1,0.3250,0.4625,-0.1625*
1,1,0.3250,-0.4625,-0.1625*
1,1,0.3250,-0.4625,0.1625*
%
%ADD13ROUNDEDRECTD13*%
%ADD14R,1.3500X1.1500*%
%ADD15R,1.1500X1.3500*%
%ADD29C,0.5000*%
%ADD31C,7.0000*%
%ADD32C,2.0000*%
G04:AMPARAMS|DCode=33|XSize=2mm|YSize=2mm|CornerRadius=0.5mm|HoleSize=0mm|Usage=FLASHONLY|Rotation=270.000|XOffset=0mm|YOffset=0mm|HoleType=Round|Shape=RoundedRectangle|*
%AMROUNDEDRECTD33*
21,1,2.0000,1.0000,0,0,270.0*
21,1,1.0000,2.0000,0,0,270.0*
1,1,1.0000,-0.5000,-0.5000*
1,1,1.0000,-0.5000,0.5000*
1,1,1.0000,0.5000,0.5000*
1,1,1.0000,0.5000,-0.5000*
%
%ADD33ROUNDEDRECTD33*%
%ADD34C,3.2000*%
%ADD35C,1.2000*%
%ADD36R,1.2000X1.2000*%
%ADD37C,1.5000*%
%ADD38C,1.8000*%
%ADD39C,0.7000*%
G04:AMPARAMS|DCode=40|XSize=1.7mm|YSize=2.5mm|CornerRadius=0.425mm|HoleSize=0mm|Usage=FLASHONLY|Rotation=180.000|XOffset=0mm|YOffset=0mm|HoleType=Round|Shape=RoundedRectangle|*
%AMROUNDEDRECTD40*
21,1,1.7000,1.6500,0,0,180.0*
21,1,0.8500,2.5000,0,0,180.0*
1,1,0.8500,-0.4250,0.8250*
1,1,0.8500,0.4250,0.8250*
1,1,0.8500,0.4250,-0.8250*
1,1,0.8500,-0.4250,-0.8250*
%
%ADD40ROUNDEDRECTD40*%
%ADD41R,0.7400X1.7000*%
%ADD42R,1.7000X0.7400*%
G04:AMPARAMS|DCode=43|XSize=0.65mm|YSize=1.25mm|CornerRadius=0.1625mm|HoleSize=0mm|Usage=FLASHONLY|Rotation=180.000|XOffset=0mm|YOffset=0mm|HoleType=Round|Shape=RoundedRectangle|*
%AMROUNDEDRECTD43*
21,1,0.6500,0.9250,0,0,180.0*
21,1,0.3250,1.2500,0,0,180.0*
1,1,0.3250,-0.1625,0.4625*
1,1,0.3250,0.1625,0.4625*
1,1,0.3250,0.1625,-0.4625*
1,1,0.3250,-0.1625,-0.4625*
%
%ADD43ROUNDEDRECTD43*%
%ADD44R,0.9000X1.3000*%
%ADD45R,1.3000X0.9000*%
G04:AMPARAMS|DCode=46|XSize=1.7mm|YSize=2.5mm|CornerRadius=0.425mm|HoleSize=0mm|Usage=FLASHONLY|Rotation=270.000|XOffset=0mm|YOffset=0mm|HoleType=Round|Shape=RoundedRectangle|*
%AMROUNDEDRECTD46*
21,1,1.7000,1.6500,0,0,270.0*
21,1,0.8500,2.5000,0,0,270.0*
1,1,0.8500,-0.8250,-0.4250*
1,1,0.8500,-0.8250,0.4250*
1,1,0.8500,0.8250,0.4250*
1,1,0.8500,0.8250,-0.4250*
%
%ADD46ROUNDEDRECTD46*%
G36*
X2000000D02*
X0D01*
Y600000D01*
X2000000D01*
Y0D01*
D02*
G37*
%LPC*%
G36*
X936087Y598689D02*
X936087Y598689D01*
X383540D01*
X383540Y598689D01*
X382369Y598456D01*
X381377Y597793D01*
X381377Y597793D01*
X316087Y532503D01*
X315424Y531511D01*
X315191Y530340D01*
X315191Y530340D01*
Y481000D01*
X312550D01*
Y460000D01*
X323950D01*
Y481000D01*
X321309D01*
Y529073D01*
X326621Y534385D01*
X327891Y533859D01*
Y481000D01*
X325250D01*
Y460000D01*
X336650D01*
Y481000D01*
X334009D01*
Y534153D01*
X387574Y587718D01*
X693505D01*
X693605Y586448D01*
X691336Y586089D01*
X685797Y584289D01*
X680608Y581645D01*
X675896Y578222D01*
X674544Y576870D01*
X700000Y551414D01*
X725456Y576870D01*
X724104Y578222D01*
X719392Y581645D01*
X714203Y584289D01*
X708664Y586089D01*
X706395Y586448D01*
X706495Y587718D01*
X934016D01*
X961841Y559893D01*
Y548763D01*
X961812Y548755D01*
X959988Y547702D01*
X958498Y546212D01*
X957445Y544388D01*
X956900Y542353D01*
Y540247D01*
X957445Y538212D01*
X958498Y536388D01*
X959988Y534898D01*
X961812Y533845D01*
X963847Y533300D01*
X965953D01*
X967988Y533845D01*
X969812Y534898D01*
X971302Y536388D01*
X972355Y538212D01*
X972900Y540247D01*
Y542353D01*
X972355Y544388D01*
X971302Y546212D01*
X969812Y547702D01*
X967988Y548755D01*
X967959Y548763D01*
Y557656D01*
X969132Y558142D01*
X982860Y544414D01*
X982845Y544388D01*
X982300Y542353D01*
Y540247D01*
X982845Y538212D01*
X983898Y536388D01*
X985388Y534898D01*
X987212Y533845D01*
X989247Y533300D01*
X991353D01*
X993388Y533845D01*
X995212Y534898D01*
X996702Y536388D01*
X997755Y538212D01*
X998300Y540247D01*
Y542353D01*
X997755Y544388D01*
X996702Y546212D01*
X995212Y547702D01*
X993388Y548755D01*
X991353Y549300D01*
X989247D01*
X987212Y548755D01*
X987186Y548740D01*
X971298Y564628D01*
X971063Y564980D01*
X971063Y564980D01*
X938250Y597793D01*
X938250Y597793D01*
X937257Y598456D01*
X936087Y598689D01*
D02*
G37*
G36*
X1570690Y566910D02*
X1553190D01*
Y561859D01*
X1494310D01*
X1494310Y561859D01*
X1493139Y561626D01*
X1492147Y560963D01*
X1492147Y560963D01*
X1358013Y426829D01*
X610526D01*
X610363Y427437D01*
X609112Y429603D01*
X607343Y431372D01*
X605177Y432623D01*
X602761Y433270D01*
X600259D01*
X597843Y432623D01*
X595677Y431372D01*
X593908Y429603D01*
X592657Y427437D01*
X592010Y425021D01*
Y422519D01*
X592657Y420103D01*
X593908Y417937D01*
X595677Y416168D01*
X597843Y414917D01*
X600259Y414270D01*
X602761D01*
X605177Y414917D01*
X607343Y416168D01*
X609112Y417937D01*
X610363Y420103D01*
X610526Y420711D01*
X1359280D01*
X1359280Y420711D01*
X1360451Y420944D01*
X1361443Y421607D01*
X1495577Y555741D01*
X1553190D01*
Y551410D01*
X1570690D01*
Y566910D01*
D02*
G37*
G36*
X1136980Y576190D02*
X1123980D01*
Y570307D01*
X1120229D01*
X1118473Y569958D01*
X1116985Y568963D01*
X1114056Y566034D01*
X1113061Y564546D01*
X1112712Y562790D01*
Y547889D01*
X1112388Y547702D01*
X1110898Y546212D01*
X1109845Y544388D01*
X1109300Y542353D01*
Y540247D01*
X1109845Y538212D01*
X1110898Y536388D01*
X1112388Y534898D01*
X1112712Y534711D01*
Y495240D01*
X1113061Y493484D01*
X1113820Y492348D01*
Y481720D01*
X1126820D01*
Y498720D01*
X1121888D01*
Y534711D01*
X1122212Y534898D01*
X1123702Y536388D01*
X1124755Y538212D01*
X1125300Y540247D01*
Y542353D01*
X1124755Y544388D01*
X1123702Y546212D01*
X1122212Y547702D01*
X1121888Y547889D01*
Y560890D01*
X1122130Y561131D01*
X1123980D01*
Y559190D01*
X1136980D01*
Y576190D01*
D02*
G37*
G36*
X52912Y587000D02*
X47088D01*
X41336Y586089D01*
X35797Y584289D01*
X30608Y581645D01*
X25896Y578222D01*
X24544Y576870D01*
X50000Y551414D01*
X75456Y576870D01*
X74104Y578222D01*
X69392Y581645D01*
X64203Y584289D01*
X58664Y586089D01*
X52912Y587000D01*
D02*
G37*
G36*
X1616990Y560152D02*
X1608490D01*
X1606051Y559667D01*
X1604832Y558853D01*
X1612740Y550944D01*
X1620648Y558853D01*
X1619429Y559667D01*
X1616990Y560152D01*
D02*
G37*
G36*
X1665940Y557876D02*
X1659604Y551540D01*
X1665940Y545204D01*
Y557876D01*
D02*
G37*
G36*
X1648440Y557876D02*
Y545204D01*
X1654776Y551540D01*
X1648440Y557876D01*
D02*
G37*
G36*
X1664526Y559290D02*
X1649854D01*
X1656897Y552247D01*
X1656190Y551540D01*
X1656897Y550833D01*
X1649854Y543790D01*
X1664526D01*
X1657483Y550833D01*
X1658190Y551540D01*
X1657483Y552247D01*
X1664526Y559290D01*
D02*
G37*
G36*
X1570690Y548410D02*
X1553190D01*
Y543719D01*
X1513028D01*
X1512993Y543712D01*
X1511893Y544812D01*
X1509727Y546063D01*
X1507311Y546710D01*
X1504809D01*
X1502393Y546063D01*
X1500227Y544812D01*
X1498458Y543043D01*
X1497207Y540877D01*
X1496560Y538461D01*
Y535959D01*
X1497207Y533543D01*
X1498458Y531377D01*
X1500227Y529608D01*
X1502393Y528357D01*
X1504809Y527710D01*
X1507311D01*
X1509727Y528357D01*
X1511893Y529608D01*
X1513662Y531377D01*
X1514913Y533543D01*
X1515560Y535959D01*
Y537601D01*
X1553190D01*
Y532910D01*
X1570690D01*
Y548410D01*
D02*
G37*
G36*
X1245353Y549300D02*
X1243247D01*
X1241212Y548755D01*
X1239388Y547702D01*
X1239350Y547664D01*
X1244300Y542714D01*
X1249250Y547664D01*
X1249212Y547702D01*
X1247388Y548755D01*
X1245353Y549300D01*
D02*
G37*
G36*
X1067553D02*
X1065447D01*
X1063412Y548755D01*
X1061588Y547702D01*
X1061550Y547664D01*
X1066500Y542714D01*
X1071450Y547664D01*
X1071412Y547702D01*
X1069588Y548755D01*
X1067553Y549300D01*
D02*
G37*
G36*
X1072864Y546250D02*
X1067914Y541300D01*
X1072864Y536350D01*
X1072902Y536388D01*
X1073955Y538212D01*
X1074500Y540247D01*
Y542353D01*
X1073955Y544388D01*
X1072902Y546212D01*
X1072864Y546250D01*
D02*
G37*
G36*
X1250664D02*
X1245714Y541300D01*
X1250664Y536350D01*
X1250702Y536388D01*
X1251755Y538212D01*
X1252300Y540247D01*
Y542353D01*
X1251755Y544388D01*
X1250702Y546212D01*
X1250664Y546250D01*
D02*
G37*
G36*
X1237936Y546250D02*
X1237898Y546212D01*
X1236845Y544388D01*
X1236300Y542353D01*
Y540247D01*
X1236845Y538212D01*
X1237898Y536388D01*
X1237936Y536350D01*
X1242886Y541300D01*
X1237936Y546250D01*
D02*
G37*
G36*
X1060136D02*
X1060098Y546212D01*
X1059045Y544388D01*
X1058500Y542353D01*
Y540247D01*
X1059045Y538212D01*
X1060098Y536388D01*
X1060136Y536350D01*
X1065086Y541300D01*
X1060136Y546250D01*
D02*
G37*
G36*
X1706448Y543500D02*
X1703552D01*
X1700754Y542750D01*
X1698246Y541302D01*
X1696198Y539254D01*
X1694750Y536746D01*
X1694432Y535559D01*
X1665940D01*
Y540790D01*
X1648440D01*
Y533465D01*
X1647796Y533034D01*
X1625379Y510618D01*
X1623362D01*
Y514280D01*
X1622877Y516719D01*
X1621496Y518786D01*
X1619429Y520167D01*
X1616990Y520653D01*
X1608490D01*
X1606051Y520167D01*
X1603984Y518786D01*
X1602603Y516719D01*
X1602118Y514280D01*
Y497780D01*
X1602603Y495341D01*
X1603984Y493274D01*
X1606051Y491893D01*
X1608490Y491408D01*
X1616990D01*
X1619429Y491893D01*
X1621496Y493274D01*
X1622877Y495341D01*
X1623362Y497780D01*
Y501442D01*
X1627280D01*
X1629036Y501791D01*
X1630524Y502786D01*
X1652861Y525123D01*
X1654131Y525010D01*
Y521967D01*
X1512223Y380059D01*
X566230D01*
X566230Y380059D01*
X565060Y379826D01*
X564067Y379163D01*
X564067Y379163D01*
X557533Y372629D01*
X531000D01*
Y375550D01*
X510000D01*
Y364150D01*
X531000D01*
Y366511D01*
X558800D01*
X558800Y366511D01*
X559971Y366744D01*
X560963Y367407D01*
X567497Y373941D01*
X597050D01*
X597391Y372671D01*
X595677Y371682D01*
X593908Y369913D01*
X592657Y367747D01*
X592010Y365331D01*
Y362829D01*
X592657Y360413D01*
X593908Y358247D01*
X595677Y356478D01*
X596299Y356119D01*
X595959Y354849D01*
X531927D01*
X531000Y355776D01*
Y362850D01*
X510000D01*
Y351450D01*
X525479D01*
X525499Y351420D01*
X524820Y350150D01*
X510000D01*
Y338750D01*
X525479D01*
X525499Y338720D01*
X524820Y337450D01*
X510000D01*
Y326050D01*
X528219D01*
X528239Y326020D01*
X527560Y324750D01*
X510000D01*
Y313350D01*
X528219D01*
X528239Y313320D01*
X527560Y312050D01*
X510000D01*
Y300650D01*
X531000D01*
Y310105D01*
X532173Y310591D01*
X579497Y263267D01*
X579497Y263267D01*
X580489Y262604D01*
X581660Y262371D01*
X615953D01*
X688357Y189967D01*
X689350Y189304D01*
X690520Y189071D01*
X1642090D01*
Y184380D01*
X1659590D01*
Y189071D01*
X1670840D01*
X1672010Y189304D01*
X1672216Y189441D01*
X1694432D01*
X1694750Y188254D01*
X1696198Y185746D01*
X1698246Y183698D01*
X1700754Y182250D01*
X1703552Y181500D01*
X1706448D01*
X1709246Y182250D01*
X1711754Y183698D01*
X1713802Y185746D01*
X1715250Y188254D01*
X1716000Y191052D01*
Y193948D01*
X1715250Y196746D01*
X1713802Y199254D01*
X1711754Y201302D01*
X1709246Y202750D01*
X1706448Y203500D01*
X1703552D01*
X1700754Y202750D01*
X1698246Y201302D01*
X1696198Y199254D01*
X1694750Y196746D01*
X1694432Y195559D01*
X1659590D01*
Y199880D01*
X1642090D01*
Y195189D01*
X691787D01*
X619383Y267593D01*
X618391Y268256D01*
X617220Y268489D01*
X617220Y268489D01*
X603931D01*
X603764Y269759D01*
X605177Y270138D01*
X607343Y271388D01*
X609112Y273157D01*
X610363Y275323D01*
X611010Y277739D01*
Y280241D01*
X610363Y282657D01*
X609112Y284823D01*
X607343Y286592D01*
X605177Y287843D01*
X602761Y288490D01*
X600259D01*
X597843Y287843D01*
X595677Y286592D01*
X593908Y284823D01*
X592657Y282657D01*
X592010Y280241D01*
Y277739D01*
X592657Y275323D01*
X593908Y273157D01*
X595677Y271388D01*
X597843Y270138D01*
X599256Y269759D01*
X599089Y268489D01*
X582927D01*
X531000Y320416D01*
Y322805D01*
X532173Y323291D01*
X536317Y319147D01*
X536317Y319147D01*
X537309Y318484D01*
X538480Y318251D01*
X538480Y318251D01*
X1782280D01*
X1782280Y318251D01*
X1783450Y318484D01*
X1784443Y319147D01*
X1820406Y355110D01*
X1833580D01*
Y359441D01*
X1864432D01*
X1864750Y358254D01*
X1866198Y355746D01*
X1868246Y353698D01*
X1870754Y352250D01*
X1873552Y351500D01*
X1876448D01*
X1879246Y352250D01*
X1881754Y353698D01*
X1883802Y355746D01*
X1885250Y358254D01*
X1886000Y361052D01*
Y363948D01*
X1885250Y366746D01*
X1883802Y369254D01*
X1881754Y371302D01*
X1879246Y372750D01*
X1876448Y373500D01*
X1873552D01*
X1870754Y372750D01*
X1868246Y371302D01*
X1866198Y369254D01*
X1864750Y366746D01*
X1864432Y365559D01*
X1833580D01*
Y370610D01*
X1816080D01*
Y359436D01*
X1781013Y324369D01*
X1722854D01*
X1722368Y325542D01*
X1749690Y352864D01*
X1750754Y352250D01*
X1753552Y351500D01*
X1756448D01*
X1759246Y352250D01*
X1761754Y353698D01*
X1763802Y355746D01*
X1765250Y358254D01*
X1766000Y361052D01*
Y363948D01*
X1765250Y366746D01*
X1763802Y369254D01*
X1761754Y371302D01*
X1759246Y372750D01*
X1756448Y373500D01*
X1753552D01*
X1750754Y372750D01*
X1748246Y371302D01*
X1746198Y369254D01*
X1744750Y366746D01*
X1744000Y363948D01*
Y361052D01*
X1744750Y358254D01*
X1745364Y357190D01*
X1717623Y329449D01*
X607061D01*
X606721Y330719D01*
X607343Y331078D01*
X609112Y332847D01*
X610363Y335013D01*
X611010Y337429D01*
Y339931D01*
X610363Y342347D01*
X609112Y344513D01*
X607343Y346282D01*
X606323Y346871D01*
X605905Y348565D01*
X606009Y348731D01*
X1487013D01*
X1493737Y342007D01*
X1494729Y341344D01*
X1495900Y341111D01*
X1566670D01*
X1566670Y341111D01*
X1567841Y341344D01*
X1568833Y342007D01*
X1579690Y352864D01*
X1580754Y352250D01*
X1583552Y351500D01*
X1586448D01*
X1589246Y352250D01*
X1591754Y353698D01*
X1593802Y355746D01*
X1595250Y358254D01*
X1595568Y359441D01*
X1623040D01*
Y355110D01*
X1640540D01*
Y370610D01*
X1623040D01*
Y365559D01*
X1595568D01*
X1595250Y366746D01*
X1593802Y369254D01*
X1591754Y371302D01*
X1589246Y372750D01*
X1586448Y373500D01*
X1583552D01*
X1580754Y372750D01*
X1578246Y371302D01*
X1576198Y369254D01*
X1574750Y366746D01*
X1574000Y363948D01*
Y361052D01*
X1574750Y358254D01*
X1575364Y357190D01*
X1565403Y347229D01*
X1497167D01*
X1490443Y353953D01*
X1489451Y354616D01*
X1488280Y354849D01*
X1488280Y354849D01*
X607061D01*
X606721Y356119D01*
X607343Y356478D01*
X609112Y358247D01*
X610363Y360413D01*
X611010Y362829D01*
Y365331D01*
X610363Y367747D01*
X609112Y369913D01*
X607343Y371682D01*
X605630Y372671D01*
X605970Y373941D01*
X1513490D01*
X1513490Y373941D01*
X1514660Y374174D01*
X1515653Y374837D01*
X1659353Y518537D01*
X1660016Y519529D01*
X1660249Y520700D01*
X1660249Y520700D01*
Y525290D01*
X1665940D01*
Y529441D01*
X1694432D01*
X1694750Y528254D01*
X1696198Y525746D01*
X1698246Y523698D01*
X1700754Y522250D01*
X1703552Y521500D01*
X1706448D01*
X1709246Y522250D01*
X1711754Y523698D01*
X1713802Y525746D01*
X1715250Y528254D01*
X1716000Y531052D01*
Y533948D01*
X1715250Y536746D01*
X1713802Y539254D01*
X1711754Y541302D01*
X1709246Y542750D01*
X1706448Y543500D01*
D02*
G37*
G36*
X1603418Y557438D02*
X1602603Y556219D01*
X1602118Y553780D01*
Y537280D01*
X1602603Y534841D01*
X1603418Y533622D01*
X1612033Y542237D01*
X1612740Y541530D01*
X1613447Y542237D01*
X1622063Y533622D01*
X1622877Y534841D01*
X1623362Y537280D01*
Y553780D01*
X1622877Y556219D01*
X1622063Y557438D01*
X1613447Y548823D01*
X1612740Y549530D01*
X1612033Y548823D01*
X1603418Y557438D01*
D02*
G37*
G36*
X1244300Y539886D02*
X1239350Y534936D01*
X1239388Y534898D01*
X1241212Y533845D01*
X1243247Y533300D01*
X1245353D01*
X1247388Y533845D01*
X1249212Y534898D01*
X1249250Y534936D01*
X1244300Y539886D01*
D02*
G37*
G36*
X1222020Y578730D02*
X1209020D01*
Y561730D01*
X1210932D01*
Y546574D01*
X1211281Y544818D01*
X1211503Y544487D01*
X1211445Y544388D01*
X1210900Y542353D01*
Y540247D01*
X1211445Y538212D01*
X1212498Y536388D01*
X1213988Y534898D01*
X1215812Y533845D01*
X1217847Y533300D01*
X1219953D01*
X1221988Y533845D01*
X1223812Y534898D01*
X1225302Y536388D01*
X1226355Y538212D01*
X1226900Y540247D01*
Y542353D01*
X1226355Y544388D01*
X1225302Y546212D01*
X1223812Y547702D01*
X1221988Y548755D01*
X1220108Y549258D01*
Y561730D01*
X1222020D01*
Y578730D01*
D02*
G37*
G36*
X1203020D02*
X1190020D01*
Y568102D01*
X1189261Y566966D01*
X1188912Y565210D01*
Y547889D01*
X1188588Y547702D01*
X1187098Y546212D01*
X1186045Y544388D01*
X1185500Y542353D01*
Y540247D01*
X1186045Y538212D01*
X1187098Y536388D01*
X1188588Y534898D01*
X1190412Y533845D01*
X1192447Y533300D01*
X1194553D01*
X1196588Y533845D01*
X1198412Y534898D01*
X1199902Y536388D01*
X1200955Y538212D01*
X1201500Y540247D01*
Y542353D01*
X1200955Y544388D01*
X1199902Y546212D01*
X1198412Y547702D01*
X1198088Y547889D01*
Y561730D01*
X1203020D01*
Y578730D01*
D02*
G37*
G36*
X1155980Y576190D02*
X1142980D01*
Y559190D01*
X1155980D01*
Y563102D01*
X1162209D01*
X1163512Y561800D01*
Y547889D01*
X1163188Y547702D01*
X1161698Y546212D01*
X1160645Y544388D01*
X1160100Y542353D01*
Y540247D01*
X1160645Y538212D01*
X1161698Y536388D01*
X1163188Y534898D01*
X1165012Y533845D01*
X1167047Y533300D01*
X1169153D01*
X1171188Y533845D01*
X1173012Y534898D01*
X1174502Y536388D01*
X1175555Y538212D01*
X1176100Y540247D01*
Y542353D01*
X1175555Y544388D01*
X1174502Y546212D01*
X1173012Y547702D01*
X1172688Y547889D01*
Y563700D01*
X1172339Y565456D01*
X1171344Y566944D01*
X1167354Y570934D01*
X1165866Y571929D01*
X1164110Y572278D01*
X1155980D01*
Y576190D01*
D02*
G37*
G36*
X1066500Y539886D02*
X1061550Y534936D01*
X1061588Y534898D01*
X1063412Y533845D01*
X1065447Y533300D01*
X1067553D01*
X1069588Y533845D01*
X1071412Y534898D01*
X1071450Y534936D01*
X1066500Y539886D01*
D02*
G37*
G36*
X1612740Y540116D02*
X1604832Y532207D01*
X1606051Y531393D01*
X1608490Y530908D01*
X1616990D01*
X1619429Y531393D01*
X1620648Y532207D01*
X1612740Y540116D01*
D02*
G37*
G36*
X602761Y547570D02*
X600259D01*
X597843Y546923D01*
X595677Y545672D01*
X593908Y543903D01*
X592657Y541737D01*
X592010Y539321D01*
Y536819D01*
X592657Y534403D01*
X593908Y532237D01*
X595677Y530468D01*
X597843Y529217D01*
X600259Y528570D01*
X602761D01*
X605177Y529217D01*
X607343Y530468D01*
X609112Y532237D01*
X610363Y534403D01*
X611010Y536819D01*
Y539321D01*
X610363Y541737D01*
X609112Y543903D01*
X607343Y545672D01*
X605177Y546923D01*
X602761Y547570D01*
D02*
G37*
G36*
X1852265Y573000D02*
X1847735D01*
X1843291Y572116D01*
X1839105Y570382D01*
X1835338Y567865D01*
X1832135Y564662D01*
X1829618Y560895D01*
X1827884Y556709D01*
X1827000Y552265D01*
Y547735D01*
X1827884Y543291D01*
X1829618Y539105D01*
X1832135Y535338D01*
X1835338Y532135D01*
X1839105Y529618D01*
X1843291Y527884D01*
X1847735Y527000D01*
X1852265D01*
X1856709Y527884D01*
X1860895Y529618D01*
X1864662Y532135D01*
X1867865Y535338D01*
X1870382Y539105D01*
X1872116Y543291D01*
X1873000Y547735D01*
Y552265D01*
X1872116Y556709D01*
X1870382Y560895D01*
X1867865Y564662D01*
X1864662Y567865D01*
X1860895Y570382D01*
X1856709Y572116D01*
X1852265Y573000D01*
D02*
G37*
G36*
X152265D02*
X147735D01*
X143291Y572116D01*
X139105Y570382D01*
X135338Y567865D01*
X132135Y564662D01*
X129618Y560895D01*
X127884Y556709D01*
X127000Y552265D01*
Y547735D01*
X127884Y543291D01*
X129618Y539105D01*
X132135Y535338D01*
X135338Y532135D01*
X139105Y529618D01*
X143291Y527884D01*
X147735Y527000D01*
X152265D01*
X156709Y527884D01*
X160895Y529618D01*
X164662Y532135D01*
X167865Y535338D01*
X170382Y539105D01*
X172116Y543291D01*
X173000Y547735D01*
Y552265D01*
X172116Y556709D01*
X170382Y560895D01*
X167865Y564662D01*
X164662Y567865D01*
X160895Y570382D01*
X156709Y572116D01*
X152265Y573000D01*
D02*
G37*
G36*
X726870Y575456D02*
X701414Y550000D01*
X726870Y524544D01*
X728222Y525896D01*
X731645Y530608D01*
X734289Y535797D01*
X736089Y541336D01*
X737000Y547088D01*
Y552912D01*
X736089Y558664D01*
X734289Y564203D01*
X731645Y569392D01*
X728222Y574104D01*
X726870Y575456D01*
D02*
G37*
G36*
X76870D02*
X51414Y550000D01*
X76870Y524544D01*
X78222Y525896D01*
X81645Y530608D01*
X84289Y535797D01*
X86089Y541336D01*
X87000Y547088D01*
Y552912D01*
X86089Y558664D01*
X84289Y564203D01*
X81645Y569392D01*
X78222Y574104D01*
X76870Y575456D01*
D02*
G37*
G36*
X673130D02*
X671778Y574104D01*
X668355Y569392D01*
X665711Y564203D01*
X663911Y558664D01*
X663000Y552912D01*
Y547088D01*
X663911Y541336D01*
X665711Y535797D01*
X668355Y530608D01*
X671778Y525896D01*
X673130Y524544D01*
X698586Y550000D01*
X673130Y575456D01*
D02*
G37*
G36*
X23130D02*
X21778Y574104D01*
X18355Y569392D01*
X15711Y564203D01*
X13911Y558664D01*
X13000Y552912D01*
Y547088D01*
X13911Y541336D01*
X15711Y535797D01*
X18355Y530608D01*
X21778Y525896D01*
X23130Y524544D01*
X48586Y550000D01*
X23130Y575456D01*
D02*
G37*
G36*
X1700760Y589799D02*
X1700760Y589799D01*
X1086540D01*
X1085369Y589566D01*
X1084377Y588903D01*
X1044214Y548740D01*
X1044188Y548755D01*
X1042153Y549300D01*
X1040047D01*
X1038012Y548755D01*
X1036188Y547702D01*
X1034698Y546212D01*
X1034511Y545888D01*
X1022289D01*
X1022102Y546212D01*
X1020612Y547702D01*
X1018788Y548755D01*
X1016753Y549300D01*
X1014647D01*
X1012612Y548755D01*
X1010788Y547702D01*
X1009298Y546212D01*
X1008245Y544388D01*
X1007700Y542353D01*
Y540247D01*
X1008245Y538212D01*
X1008260Y538186D01*
X915233Y445159D01*
X876114D01*
X875628Y446332D01*
X941663Y512367D01*
X941663Y512367D01*
X942326Y513359D01*
X942559Y514530D01*
Y533837D01*
X942588Y533845D01*
X944412Y534898D01*
X945902Y536388D01*
X946955Y538212D01*
X947500Y540247D01*
Y542353D01*
X946955Y544388D01*
X945902Y546212D01*
X944412Y547702D01*
X942588Y548755D01*
X940553Y549300D01*
X938447D01*
X936412Y548755D01*
X934588Y547702D01*
X933098Y546212D01*
X932045Y544388D01*
X931500Y542353D01*
Y540247D01*
X932045Y538212D01*
X933098Y536388D01*
X934588Y534898D01*
X936412Y533845D01*
X936441Y533837D01*
Y515797D01*
X869803Y449159D01*
X854714D01*
X854228Y450332D01*
X916263Y512367D01*
X916926Y513359D01*
X917159Y514530D01*
X917159Y514530D01*
Y533837D01*
X917188Y533845D01*
X919012Y534898D01*
X920502Y536388D01*
X921555Y538212D01*
X922100Y540247D01*
Y542353D01*
X921555Y544388D01*
X920502Y546212D01*
X919012Y547702D01*
X917188Y548755D01*
X915153Y549300D01*
X913047D01*
X911012Y548755D01*
X909188Y547702D01*
X907698Y546212D01*
X906645Y544388D01*
X906100Y542353D01*
Y540247D01*
X906645Y538212D01*
X907698Y536388D01*
X909188Y534898D01*
X911012Y533845D01*
X911041Y533837D01*
Y515797D01*
X848403Y453159D01*
X609163D01*
X608677Y454332D01*
X609112Y454767D01*
X610363Y456933D01*
X611010Y459349D01*
Y461851D01*
X610363Y464267D01*
X609112Y466433D01*
X607343Y468202D01*
X605177Y469453D01*
X602761Y470100D01*
X600259D01*
X597843Y469453D01*
X595677Y468202D01*
X593908Y466433D01*
X592657Y464267D01*
X592010Y461851D01*
Y459349D01*
X592657Y456933D01*
X593908Y454767D01*
X594343Y454332D01*
X593857Y453159D01*
X365237D01*
X359666Y458730D01*
X360029Y460000D01*
X362050D01*
Y481000D01*
X350650D01*
Y460000D01*
X353291D01*
Y457720D01*
X353291Y457720D01*
X353524Y456549D01*
X354187Y455557D01*
X359412Y450332D01*
X358926Y449159D01*
X355167D01*
X346709Y457617D01*
Y460000D01*
X349350D01*
Y481000D01*
X337950D01*
Y460000D01*
X340591D01*
Y456350D01*
X340591Y456350D01*
X340824Y455179D01*
X341487Y454187D01*
X351737Y443937D01*
X351737Y443937D01*
X352729Y443274D01*
X353900Y443041D01*
X353900Y443041D01*
X578026D01*
X578512Y441868D01*
X569203Y432559D01*
X438250D01*
Y440000D01*
X426850D01*
Y419000D01*
X438250D01*
Y426441D01*
X570470D01*
X570470Y426441D01*
X571641Y426674D01*
X572633Y427337D01*
X584337Y439041D01*
X916500D01*
X916500Y439041D01*
X917671Y439274D01*
X918663Y439937D01*
X1012586Y533860D01*
X1012612Y533845D01*
X1014647Y533300D01*
X1016753D01*
X1018788Y533845D01*
X1020612Y534898D01*
X1022102Y536388D01*
X1022289Y536712D01*
X1034511D01*
X1034698Y536388D01*
X1036188Y534898D01*
X1038012Y533845D01*
X1040047Y533300D01*
X1042153D01*
X1044188Y533845D01*
X1046012Y534898D01*
X1047502Y536388D01*
X1048555Y538212D01*
X1049100Y540247D01*
Y542353D01*
X1048555Y544388D01*
X1048540Y544414D01*
X1087807Y583681D01*
X1699493D01*
X1745364Y537810D01*
X1744750Y536746D01*
X1744000Y533948D01*
Y531052D01*
X1744750Y528254D01*
X1746198Y525746D01*
X1748246Y523698D01*
X1750754Y522250D01*
X1753552Y521500D01*
X1756448D01*
X1759246Y522250D01*
X1761754Y523698D01*
X1763802Y525746D01*
X1765250Y528254D01*
X1766000Y531052D01*
Y533948D01*
X1765250Y536746D01*
X1763802Y539254D01*
X1761754Y541302D01*
X1759246Y542750D01*
X1756448Y543500D01*
X1753552D01*
X1750754Y542750D01*
X1749690Y542136D01*
X1702923Y588903D01*
X1701931Y589566D01*
X1700760Y589799D01*
D02*
G37*
G36*
X700000Y548586D02*
X674544Y523130D01*
X675896Y521778D01*
X680608Y518355D01*
X685797Y515711D01*
X691336Y513911D01*
X697088Y513000D01*
X702912D01*
X708664Y513911D01*
X714203Y515711D01*
X719392Y518355D01*
X724104Y521778D01*
X725456Y523130D01*
X700000Y548586D01*
D02*
G37*
G36*
X50000D02*
X24544Y523130D01*
X25896Y521778D01*
X30608Y518355D01*
X35797Y515711D01*
X41336Y513911D01*
X47088Y513000D01*
X52912D01*
X58664Y513911D01*
X64203Y515711D01*
X69392Y518355D01*
X74104Y521778D01*
X75456Y523130D01*
X50000Y548586D01*
D02*
G37*
G36*
X889753Y549300D02*
X887647D01*
X885612Y548755D01*
X883788Y547702D01*
X882298Y546212D01*
X881245Y544388D01*
X880700Y542353D01*
Y540247D01*
X881245Y538212D01*
X882298Y536388D01*
X883788Y534898D01*
X885612Y533845D01*
X885641Y533837D01*
Y524687D01*
X865028Y504074D01*
X608008D01*
X607619Y505344D01*
X609112Y506837D01*
X610363Y509003D01*
X611010Y511419D01*
Y513921D01*
X610363Y516337D01*
X609112Y518503D01*
X607343Y520272D01*
X605177Y521523D01*
X602761Y522170D01*
X600259D01*
X597843Y521523D01*
X595677Y520272D01*
X593908Y518503D01*
X592657Y516337D01*
X592010Y513921D01*
Y511419D01*
X592657Y509003D01*
X593908Y506837D01*
X595401Y505344D01*
X595011Y504074D01*
X379095D01*
X377924Y503841D01*
X376932Y503178D01*
X376932Y503178D01*
X366887Y493133D01*
X366224Y492141D01*
X365991Y490970D01*
X365991Y490970D01*
Y481000D01*
X363350D01*
Y460000D01*
X374750D01*
Y481000D01*
X372109D01*
Y489703D01*
X380362Y497956D01*
X866295D01*
X866295Y497956D01*
X867466Y498189D01*
X868458Y498852D01*
X890863Y521257D01*
X890863Y521257D01*
X891526Y522249D01*
X891759Y523420D01*
Y533837D01*
X891788Y533845D01*
X893612Y534898D01*
X895102Y536388D01*
X896155Y538212D01*
X896700Y540247D01*
Y542353D01*
X896155Y544388D01*
X895102Y546212D01*
X893612Y547702D01*
X891788Y548755D01*
X889753Y549300D01*
D02*
G37*
G36*
X1092953D02*
X1090847D01*
X1088812Y548755D01*
X1086988Y547702D01*
X1085498Y546212D01*
X1084445Y544388D01*
X1083900Y542353D01*
Y540247D01*
X1084445Y538212D01*
X1085498Y536388D01*
X1086988Y534898D01*
X1087222Y534763D01*
Y496060D01*
X1083220D01*
Y483060D01*
X1100220D01*
Y496060D01*
X1096398D01*
Y534659D01*
X1096812Y534898D01*
X1098302Y536388D01*
X1099355Y538212D01*
X1099900Y540247D01*
Y542353D01*
X1099355Y544388D01*
X1098302Y546212D01*
X1096812Y547702D01*
X1094988Y548755D01*
X1092953Y549300D01*
D02*
G37*
G36*
X1143753D02*
X1141647D01*
X1139612Y548755D01*
X1137788Y547702D01*
X1136298Y546212D01*
X1135245Y544388D01*
X1134700Y542353D01*
Y540247D01*
X1135245Y538212D01*
X1136298Y536388D01*
X1137788Y534898D01*
X1139202Y534082D01*
Y498720D01*
X1132820D01*
Y481720D01*
X1145820D01*
Y492231D01*
X1147034Y493446D01*
X1148029Y494934D01*
X1148378Y496690D01*
Y535664D01*
X1149102Y536388D01*
X1150155Y538212D01*
X1150700Y540247D01*
Y542353D01*
X1150155Y544388D01*
X1149102Y546212D01*
X1147612Y547702D01*
X1145788Y548755D01*
X1143753Y549300D01*
D02*
G37*
G36*
X1372353D02*
X1370247D01*
X1368212Y548755D01*
X1366388Y547702D01*
X1364898Y546212D01*
X1363845Y544388D01*
X1363300Y542353D01*
Y540247D01*
X1363845Y538212D01*
X1364898Y536388D01*
X1366388Y534898D01*
X1366622Y534763D01*
Y493520D01*
X1362620D01*
Y480520D01*
X1379620D01*
Y493520D01*
X1375798D01*
Y534659D01*
X1376212Y534898D01*
X1377702Y536388D01*
X1378755Y538212D01*
X1379300Y540247D01*
Y542353D01*
X1378755Y544388D01*
X1377702Y546212D01*
X1376212Y547702D01*
X1374388Y548755D01*
X1372353Y549300D01*
D02*
G37*
G36*
X1346953D02*
X1344847D01*
X1342812Y548755D01*
X1340988Y547702D01*
X1339498Y546212D01*
X1338445Y544388D01*
X1337900Y542353D01*
Y540247D01*
X1338445Y538212D01*
X1339498Y536388D01*
X1340988Y534898D01*
X1341222Y534763D01*
Y493520D01*
X1337220D01*
Y480520D01*
X1354220D01*
Y493520D01*
X1350398D01*
Y534659D01*
X1350812Y534898D01*
X1352302Y536388D01*
X1353355Y538212D01*
X1353900Y540247D01*
Y542353D01*
X1353355Y544388D01*
X1352302Y546212D01*
X1350812Y547702D01*
X1348988Y548755D01*
X1346953Y549300D01*
D02*
G37*
G36*
X1321553D02*
X1319447D01*
X1317412Y548755D01*
X1315588Y547702D01*
X1314098Y546212D01*
X1313045Y544388D01*
X1312500Y542353D01*
Y540247D01*
X1313045Y538212D01*
X1314098Y536388D01*
X1315588Y534898D01*
X1315822Y534763D01*
Y493520D01*
X1311820D01*
Y480520D01*
X1328820D01*
Y493520D01*
X1324998D01*
Y534659D01*
X1325412Y534898D01*
X1326902Y536388D01*
X1327955Y538212D01*
X1328500Y540247D01*
Y542353D01*
X1327955Y544388D01*
X1326902Y546212D01*
X1325412Y547702D01*
X1323588Y548755D01*
X1321553Y549300D01*
D02*
G37*
G36*
X1296153D02*
X1294047D01*
X1292012Y548755D01*
X1290188Y547702D01*
X1288698Y546212D01*
X1287645Y544388D01*
X1287100Y542353D01*
Y540247D01*
X1287645Y538212D01*
X1288698Y536388D01*
X1290188Y534898D01*
X1290422Y534763D01*
Y493520D01*
X1286420D01*
Y480520D01*
X1303420D01*
Y493520D01*
X1299598D01*
Y534659D01*
X1300012Y534898D01*
X1301502Y536388D01*
X1302555Y538212D01*
X1303100Y540247D01*
Y542353D01*
X1302555Y544388D01*
X1301502Y546212D01*
X1300012Y547702D01*
X1298188Y548755D01*
X1296153Y549300D01*
D02*
G37*
G36*
X1270753D02*
X1268647D01*
X1266612Y548755D01*
X1264788Y547702D01*
X1263298Y546212D01*
X1262245Y544388D01*
X1261700Y542353D01*
Y540247D01*
X1262245Y538212D01*
X1263298Y536388D01*
X1264788Y534898D01*
X1265022Y534763D01*
Y493520D01*
X1261020D01*
Y480520D01*
X1278020D01*
Y493520D01*
X1274198D01*
Y534659D01*
X1274612Y534898D01*
X1276102Y536388D01*
X1277155Y538212D01*
X1277700Y540247D01*
Y542353D01*
X1277155Y544388D01*
X1276102Y546212D01*
X1274612Y547702D01*
X1272788Y548755D01*
X1270753Y549300D01*
D02*
G37*
G36*
X602761Y495500D02*
X600259D01*
X597843Y494853D01*
X595677Y493602D01*
X593908Y491833D01*
X592657Y489667D01*
X592010Y487251D01*
Y484749D01*
X592657Y482333D01*
X593908Y480167D01*
X595677Y478398D01*
X597843Y477147D01*
X600259Y476500D01*
X602761D01*
X605177Y477147D01*
X607343Y478398D01*
X609112Y480167D01*
X610363Y482333D01*
X611010Y484749D01*
Y487251D01*
X610363Y489667D01*
X609112Y491833D01*
X607343Y493602D01*
X605177Y494853D01*
X602761Y495500D01*
D02*
G37*
G36*
X1083220Y475646D02*
Y465474D01*
X1088306Y470560D01*
X1083220Y475646D01*
D02*
G37*
G36*
X1100220Y475646D02*
X1095134Y470560D01*
X1100220Y465474D01*
Y475646D01*
D02*
G37*
G36*
X1098806Y477060D02*
X1084634D01*
X1090427Y471267D01*
X1089720Y470560D01*
X1090427Y469853D01*
X1084634Y464060D01*
X1098806D01*
X1093013Y469853D01*
X1093720Y470560D01*
X1093013Y471267D01*
X1098806Y477060D01*
D02*
G37*
G36*
X1362620Y473106D02*
Y462934D01*
X1367706Y468020D01*
X1362620Y473106D01*
D02*
G37*
G36*
X1311820D02*
Y462934D01*
X1316906Y468020D01*
X1311820Y473106D01*
D02*
G37*
G36*
X1286420D02*
Y462934D01*
X1291506Y468020D01*
X1286420Y473106D01*
D02*
G37*
G36*
X1261020D02*
Y462934D01*
X1266106Y468020D01*
X1261020Y473106D01*
D02*
G37*
G36*
X1337220D02*
Y462934D01*
X1342306Y468020D01*
X1337220Y473106D01*
D02*
G37*
G36*
X1354220Y473106D02*
X1349134Y468020D01*
X1354220Y462934D01*
Y473106D01*
D02*
G37*
G36*
X1278020D02*
X1272934Y468020D01*
X1278020Y462934D01*
Y473106D01*
D02*
G37*
G36*
X1379620D02*
X1374534Y468020D01*
X1379620Y462934D01*
Y473106D01*
D02*
G37*
G36*
X1328820D02*
X1323734Y468020D01*
X1328820Y462934D01*
Y473106D01*
D02*
G37*
G36*
X1303420D02*
X1298334Y468020D01*
X1303420Y462934D01*
Y473106D01*
D02*
G37*
G36*
X1378206Y474520D02*
X1364034D01*
X1369827Y468727D01*
X1369120Y468020D01*
X1369827Y467313D01*
X1364034Y461520D01*
X1378206D01*
X1372413Y467313D01*
X1373120Y468020D01*
X1372413Y468727D01*
X1378206Y474520D01*
D02*
G37*
G36*
X1352806D02*
X1338634D01*
X1344427Y468727D01*
X1343720Y468020D01*
X1344427Y467313D01*
X1338634Y461520D01*
X1352806D01*
X1347013Y467313D01*
X1347720Y468020D01*
X1347013Y468727D01*
X1352806Y474520D01*
D02*
G37*
G36*
X1327406D02*
X1313234D01*
X1319027Y468727D01*
X1318320Y468020D01*
X1319027Y467313D01*
X1313234Y461520D01*
X1327406D01*
X1321613Y467313D01*
X1322320Y468020D01*
X1321613Y468727D01*
X1327406Y474520D01*
D02*
G37*
G36*
X1302006D02*
X1287834D01*
X1293627Y468727D01*
X1292920Y468020D01*
X1293627Y467313D01*
X1287834Y461520D01*
X1302006D01*
X1296213Y467313D01*
X1296920Y468020D01*
X1296213Y468727D01*
X1302006Y474520D01*
D02*
G37*
G36*
X1276606D02*
X1262434D01*
X1268227Y468727D01*
X1267520Y468020D01*
X1268227Y467313D01*
X1262434Y461520D01*
X1276606D01*
X1270813Y467313D01*
X1271520Y468020D01*
X1270813Y468727D01*
X1276606Y474520D01*
D02*
G37*
G36*
X438250Y481000D02*
X426850D01*
Y460000D01*
X438250D01*
Y481000D01*
D02*
G37*
G36*
X425550D02*
X414150D01*
Y460000D01*
X425550D01*
Y481000D01*
D02*
G37*
G36*
X412850D02*
X401450D01*
Y460000D01*
X412850D01*
Y481000D01*
D02*
G37*
G36*
X400150D02*
X388750D01*
Y460000D01*
X400150D01*
Y481000D01*
D02*
G37*
G36*
X387450D02*
X376050D01*
Y460000D01*
X387450D01*
Y481000D01*
D02*
G37*
G36*
X311250D02*
X299850D01*
Y460000D01*
X311250D01*
Y481000D01*
D02*
G37*
G36*
X298550D02*
X287150D01*
Y460000D01*
X298550D01*
Y481000D01*
D02*
G37*
G36*
X285850D02*
X274450D01*
Y460000D01*
X285850D01*
Y481000D01*
D02*
G37*
G36*
X273150D02*
X261750D01*
Y460000D01*
X273150D01*
Y481000D01*
D02*
G37*
G36*
X1484005Y442151D02*
X1483770Y441799D01*
X1483489Y440385D01*
Y437135D01*
X1483770Y435721D01*
X1484005Y435369D01*
X1487396Y438760D01*
X1484005Y442151D01*
D02*
G37*
G36*
X1499615Y442151D02*
X1496224Y438760D01*
X1499615Y435369D01*
X1499850Y435721D01*
X1500131Y437135D01*
Y440385D01*
X1499850Y441799D01*
X1499615Y442151D01*
D02*
G37*
G36*
X298550Y440000D02*
X287150D01*
Y434088D01*
X285850D01*
Y440000D01*
X274450D01*
Y434088D01*
X273150D01*
Y440000D01*
X261750D01*
Y433947D01*
X259179D01*
X257423Y433598D01*
X255935Y432603D01*
X246756Y423424D01*
X245761Y421936D01*
X245699Y421624D01*
X244484Y421255D01*
X231964Y433774D01*
X230476Y434769D01*
X228720Y435118D01*
X161780D01*
Y439280D01*
X146280D01*
Y421780D01*
X161780D01*
Y425942D01*
X226819D01*
X244500Y408261D01*
Y408156D01*
X245337Y406134D01*
X246884Y404587D01*
X248906Y403750D01*
X251094D01*
X253116Y404587D01*
X254663Y406134D01*
X255500Y408156D01*
Y410344D01*
X254663Y412365D01*
X254588Y412440D01*
Y418279D01*
X260387Y424079D01*
X261600Y423775D01*
X261750Y423645D01*
Y419000D01*
X273150D01*
Y424912D01*
X274450D01*
Y419000D01*
X285850D01*
Y424912D01*
X287150D01*
Y419000D01*
X298550D01*
Y440000D01*
D02*
G37*
G36*
X1496435Y444081D02*
X1487185D01*
X1485771Y443800D01*
X1485419Y443565D01*
X1489517Y439467D01*
X1488810Y438760D01*
X1489517Y438053D01*
X1485419Y433955D01*
X1485771Y433720D01*
X1487185Y433439D01*
X1496435D01*
X1497849Y433720D01*
X1498201Y433955D01*
X1494103Y438053D01*
X1494810Y438760D01*
X1494103Y439467D01*
X1498201Y443565D01*
X1497849Y443800D01*
X1496435Y444081D01*
D02*
G37*
G36*
X1478140Y443576D02*
X1471804Y437240D01*
X1478140Y430904D01*
Y443576D01*
D02*
G37*
G36*
X1460640Y443576D02*
Y430904D01*
X1466976Y437240D01*
X1460640Y443576D01*
D02*
G37*
G36*
X1476726Y444990D02*
X1462054D01*
X1469097Y437947D01*
X1468390Y437240D01*
X1469097Y436533D01*
X1462054Y429490D01*
X1476726D01*
X1469683Y436533D01*
X1470390Y437240D01*
X1469683Y437947D01*
X1476726Y444990D01*
D02*
G37*
G36*
X1507311Y521310D02*
X1504809D01*
X1502393Y520663D01*
X1500227Y519412D01*
X1498458Y517643D01*
X1497207Y515477D01*
X1496560Y513061D01*
Y510559D01*
X1497207Y508143D01*
X1498458Y505977D01*
X1500227Y504208D01*
X1502393Y502957D01*
X1504809Y502310D01*
X1507311D01*
X1509727Y502957D01*
X1510272Y503272D01*
X1516806Y496738D01*
Y434581D01*
X1515685D01*
X1514271Y434300D01*
X1513071Y433498D01*
X1512270Y432299D01*
X1511989Y430885D01*
Y427635D01*
X1512270Y426221D01*
X1513071Y425022D01*
X1514271Y424220D01*
X1515685Y423939D01*
X1524935D01*
X1526349Y424220D01*
X1527549Y425022D01*
X1528350Y426221D01*
X1528631Y427635D01*
Y430885D01*
X1528350Y432299D01*
X1527549Y433498D01*
X1526349Y434300D01*
X1524935Y434581D01*
X1522924D01*
Y498005D01*
X1522924Y498005D01*
X1522691Y499175D01*
X1522028Y500168D01*
X1522028Y500168D01*
X1514598Y507598D01*
X1514913Y508143D01*
X1515560Y510559D01*
Y513061D01*
X1514913Y515477D01*
X1513662Y517643D01*
X1511893Y519412D01*
X1509727Y520663D01*
X1507311Y521310D01*
D02*
G37*
G36*
X425550Y440000D02*
X414150D01*
Y419000D01*
X425550D01*
Y440000D01*
D02*
G37*
G36*
X412850D02*
X401450D01*
Y419000D01*
X412850D01*
Y440000D01*
D02*
G37*
G36*
X400150D02*
X388750D01*
Y419000D01*
X400150D01*
Y440000D01*
D02*
G37*
G36*
X387450D02*
X376050D01*
Y419000D01*
X387450D01*
Y440000D01*
D02*
G37*
G36*
X374750D02*
X363350D01*
Y419000D01*
X374750D01*
Y440000D01*
D02*
G37*
G36*
X362050D02*
X350650D01*
Y419000D01*
X362050D01*
Y440000D01*
D02*
G37*
G36*
X349350D02*
X337950D01*
Y419000D01*
X349350D01*
Y440000D01*
D02*
G37*
G36*
X336650D02*
X325250D01*
Y419000D01*
X336650D01*
Y440000D01*
D02*
G37*
G36*
X323950D02*
X312550D01*
Y419000D01*
X323950D01*
Y440000D01*
D02*
G37*
G36*
X311250D02*
X299850D01*
Y419000D01*
X311250D01*
Y440000D01*
D02*
G37*
G36*
X1456340Y427850D02*
X1440840D01*
Y410350D01*
X1456340D01*
Y416040D01*
X1460640D01*
Y410990D01*
X1478140D01*
Y416701D01*
X1483783D01*
X1484572Y415522D01*
X1485771Y414720D01*
X1487185Y414439D01*
X1496435D01*
X1497849Y414720D01*
X1499048Y415522D01*
X1499850Y416721D01*
X1500131Y418135D01*
Y421385D01*
X1499850Y422799D01*
X1499048Y423998D01*
X1497849Y424800D01*
X1496435Y425081D01*
X1487185D01*
X1485771Y424800D01*
X1484572Y423998D01*
X1483783Y422819D01*
X1478140D01*
Y426490D01*
X1460640D01*
Y422158D01*
X1456340D01*
Y427850D01*
D02*
G37*
G36*
X1437840D02*
X1422340D01*
Y410350D01*
X1437840D01*
Y427850D01*
D02*
G37*
G36*
X1706448Y418500D02*
X1703552D01*
X1700754Y417750D01*
X1698246Y416302D01*
X1696198Y414254D01*
X1694750Y411746D01*
X1694000Y408948D01*
Y406052D01*
X1694750Y403254D01*
X1696198Y400746D01*
X1698246Y398698D01*
X1700754Y397250D01*
X1703552Y396500D01*
X1706448D01*
X1709246Y397250D01*
X1711754Y398698D01*
X1713802Y400746D01*
X1715250Y403254D01*
X1716000Y406052D01*
Y408948D01*
X1715250Y411746D01*
X1713802Y414254D01*
X1711754Y416302D01*
X1709246Y417750D01*
X1706448Y418500D01*
D02*
G37*
G36*
X602761Y407870D02*
X600259D01*
X597843Y407223D01*
X595677Y405972D01*
X593908Y404203D01*
X592657Y402037D01*
X592010Y399621D01*
Y397119D01*
X592657Y394703D01*
X593908Y392537D01*
X595677Y390768D01*
X597843Y389518D01*
X600259Y388870D01*
X602761D01*
X605177Y389518D01*
X607343Y390768D01*
X609112Y392537D01*
X610363Y394703D01*
X611010Y397119D01*
Y399621D01*
X610363Y402037D01*
X609112Y404203D01*
X607343Y405972D01*
X605177Y407223D01*
X602761Y407870D01*
D02*
G37*
G36*
X301251Y402200D02*
X298749D01*
X296333Y401553D01*
X294167Y400302D01*
X292398Y398533D01*
X291147Y396367D01*
X290500Y393951D01*
Y391449D01*
X291147Y389033D01*
X292398Y386867D01*
X294167Y385098D01*
X296333Y383847D01*
X298749Y383200D01*
X301251D01*
X303667Y383847D01*
X305833Y385098D01*
X307602Y386867D01*
X308853Y389033D01*
X309500Y391449D01*
Y393951D01*
X308853Y396367D01*
X307602Y398533D01*
X305833Y400302D01*
X303667Y401553D01*
X301251Y402200D01*
D02*
G37*
G36*
X531000Y388250D02*
X510000D01*
Y376850D01*
X531000D01*
Y388250D01*
D02*
G37*
G36*
X490000D02*
X469000D01*
Y376850D01*
X490000D01*
Y388250D01*
D02*
G37*
G36*
X231000D02*
X210000D01*
Y376850D01*
X231000D01*
Y388250D01*
D02*
G37*
G36*
X190000D02*
X169000D01*
Y376850D01*
X190000D01*
Y388250D01*
D02*
G37*
G36*
X1833580Y387696D02*
X1827244Y381360D01*
X1833580Y375024D01*
Y387696D01*
D02*
G37*
G36*
X1640540D02*
X1634204Y381360D01*
X1640540Y375024D01*
Y387696D01*
D02*
G37*
G36*
X1816080Y387696D02*
Y375024D01*
X1822416Y381360D01*
X1816080Y387696D01*
D02*
G37*
G36*
X1623040D02*
Y375024D01*
X1629376Y381360D01*
X1623040Y387696D01*
D02*
G37*
G36*
X1832166Y389110D02*
X1817494D01*
X1824537Y382067D01*
X1823830Y381360D01*
X1824537Y380653D01*
X1817494Y373610D01*
X1832166D01*
X1825123Y380653D01*
X1825830Y381360D01*
X1825123Y382067D01*
X1832166Y389110D01*
D02*
G37*
G36*
X1639126D02*
X1624454D01*
X1631497Y382067D01*
X1630790Y381360D01*
X1631497Y380653D01*
X1624454Y373610D01*
X1639126D01*
X1632083Y380653D01*
X1632790Y381360D01*
X1632083Y382067D01*
X1639126Y389110D01*
D02*
G37*
G36*
X93020Y393000D02*
X89860D01*
X86808Y392182D01*
X84072Y390602D01*
X81838Y388368D01*
X80258Y385632D01*
X79440Y382580D01*
Y379420D01*
X80258Y376368D01*
X81838Y373632D01*
X84072Y371398D01*
X86808Y369818D01*
X89860Y369000D01*
X93020D01*
X96072Y369818D01*
X98808Y371398D01*
X101042Y373632D01*
X102622Y376368D01*
X103440Y379420D01*
Y382580D01*
X102622Y385632D01*
X101042Y388368D01*
X98808Y390602D01*
X96072Y392182D01*
X93020Y393000D01*
D02*
G37*
G36*
X490000Y375550D02*
X469000D01*
Y364150D01*
X490000D01*
Y375550D01*
D02*
G37*
G36*
X231000D02*
X210000D01*
Y364150D01*
X231000D01*
Y375550D01*
D02*
G37*
G36*
X190000D02*
X169000D01*
Y364150D01*
X190000D01*
Y375550D01*
D02*
G37*
G36*
X301251Y376800D02*
X298749D01*
X296333Y376153D01*
X294167Y374902D01*
X292398Y373133D01*
X291147Y370967D01*
X290500Y368551D01*
Y366049D01*
X291147Y363633D01*
X292398Y361467D01*
X294167Y359698D01*
X296333Y358447D01*
X298749Y357800D01*
X301251D01*
X303667Y358447D01*
X305833Y359698D01*
X307602Y361467D01*
X308853Y363633D01*
X309500Y366049D01*
Y368551D01*
X308853Y370967D01*
X307602Y373133D01*
X305833Y374902D01*
X303667Y376153D01*
X301251Y376800D01*
D02*
G37*
G36*
X469000Y361436D02*
Y352864D01*
X473286Y357150D01*
X469000Y361436D01*
D02*
G37*
G36*
X490000Y361436D02*
X485714Y357150D01*
X490000Y352864D01*
Y361436D01*
D02*
G37*
G36*
X1756448Y418500D02*
X1753552D01*
X1750754Y417750D01*
X1748246Y416302D01*
X1746198Y414254D01*
X1744750Y411746D01*
X1744000Y408948D01*
Y406052D01*
X1744576Y403902D01*
X1711865Y371191D01*
X1711754Y371302D01*
X1709246Y372750D01*
X1706448Y373500D01*
X1703552D01*
X1700754Y372750D01*
X1699690Y372136D01*
X1668343Y403483D01*
X1667350Y404146D01*
X1666180Y404379D01*
X1666180Y404379D01*
X1573820D01*
X1573820Y404379D01*
X1572650Y404146D01*
X1571657Y403483D01*
X1571657Y403483D01*
X1540310Y372136D01*
X1539246Y372750D01*
X1536448Y373500D01*
X1533552D01*
X1530754Y372750D01*
X1528246Y371302D01*
X1526198Y369254D01*
X1524750Y366746D01*
X1524000Y363948D01*
Y361052D01*
X1524750Y358254D01*
X1526198Y355746D01*
X1528246Y353698D01*
X1530754Y352250D01*
X1533552Y351500D01*
X1536448D01*
X1539246Y352250D01*
X1541754Y353698D01*
X1543802Y355746D01*
X1545250Y358254D01*
X1546000Y361052D01*
Y363948D01*
X1545250Y366746D01*
X1544636Y367810D01*
X1575087Y398261D01*
X1664913D01*
X1695364Y367810D01*
X1694750Y366746D01*
X1694000Y363948D01*
Y361052D01*
X1694750Y358254D01*
X1696198Y355746D01*
X1698246Y353698D01*
X1700754Y352250D01*
X1703552Y351500D01*
X1706448D01*
X1709246Y352250D01*
X1711754Y353698D01*
X1713802Y355746D01*
X1715250Y358254D01*
X1716000Y361052D01*
Y363948D01*
X1715424Y366098D01*
X1748135Y398809D01*
X1748246Y398698D01*
X1750754Y397250D01*
X1753552Y396500D01*
X1756448D01*
X1759246Y397250D01*
X1761754Y398698D01*
X1763802Y400746D01*
X1765250Y403254D01*
X1765568Y404441D01*
X1878733D01*
X1915364Y367810D01*
X1914750Y366746D01*
X1914000Y363948D01*
Y361052D01*
X1914750Y358254D01*
X1916198Y355746D01*
X1918246Y353698D01*
X1920754Y352250D01*
X1923552Y351500D01*
X1926448D01*
X1929246Y352250D01*
X1931754Y353698D01*
X1933802Y355746D01*
X1935250Y358254D01*
X1936000Y361052D01*
Y363948D01*
X1935250Y366746D01*
X1933802Y369254D01*
X1931754Y371302D01*
X1929246Y372750D01*
X1926448Y373500D01*
X1923552D01*
X1920754Y372750D01*
X1919690Y372136D01*
X1882163Y409663D01*
X1881171Y410326D01*
X1880000Y410559D01*
X1880000Y410559D01*
X1765568D01*
X1765250Y411746D01*
X1763802Y414254D01*
X1761754Y416302D01*
X1759246Y417750D01*
X1756448Y418500D01*
D02*
G37*
G36*
X488586Y362850D02*
X470414D01*
X475407Y357857D01*
X474700Y357150D01*
X475407Y356443D01*
X470414Y351450D01*
X488586D01*
X483593Y356443D01*
X484300Y357150D01*
X483593Y357857D01*
X488586Y362850D01*
D02*
G37*
G36*
X231000D02*
X210000D01*
Y351450D01*
X231000D01*
Y362850D01*
D02*
G37*
G36*
X190000D02*
X169000D01*
Y351450D01*
X190000D01*
Y362850D01*
D02*
G37*
G36*
X48213Y377500D02*
X44667D01*
X41190Y376808D01*
X37914Y375451D01*
X34966Y373481D01*
X32459Y370974D01*
X30489Y368026D01*
X29132Y364750D01*
X28440Y361273D01*
Y357727D01*
X29132Y354250D01*
X30489Y350974D01*
X32459Y348026D01*
X34966Y345518D01*
X37914Y343549D01*
X41190Y342192D01*
X44667Y341500D01*
X48213D01*
X51690Y342192D01*
X54966Y343549D01*
X57914Y345518D01*
X60422Y348026D01*
X62391Y350974D01*
X63748Y354250D01*
X64440Y357727D01*
Y361273D01*
X63748Y364750D01*
X62391Y368026D01*
X60422Y370974D01*
X57914Y373481D01*
X54966Y375451D01*
X51690Y376808D01*
X48213Y377500D01*
D02*
G37*
G36*
X93020Y363000D02*
X89860D01*
X86808Y362182D01*
X84072Y360602D01*
X81838Y358368D01*
X80258Y355632D01*
X79440Y352580D01*
Y349420D01*
X80258Y346368D01*
X81838Y343632D01*
X84072Y341398D01*
X86808Y339818D01*
X89860Y339000D01*
X93020D01*
X96072Y339818D01*
X98808Y341398D01*
X101042Y343632D01*
X102622Y346368D01*
X103440Y349420D01*
Y352580D01*
X102622Y355632D01*
X101042Y358368D01*
X98808Y360602D01*
X96072Y362182D01*
X93020Y363000D01*
D02*
G37*
G36*
X490000Y350150D02*
X469000D01*
Y338750D01*
X490000D01*
Y350150D01*
D02*
G37*
G36*
X231000D02*
X210000D01*
Y338750D01*
X231000D01*
Y350150D01*
D02*
G37*
G36*
X190000D02*
X169000D01*
Y338750D01*
X190000D01*
Y350150D01*
D02*
G37*
G36*
X490000Y337450D02*
X469000D01*
Y326050D01*
X490000D01*
Y337450D01*
D02*
G37*
G36*
X231000D02*
X210000D01*
Y326050D01*
X231000D01*
Y337450D01*
D02*
G37*
G36*
X190000D02*
X169000D01*
Y326050D01*
X190000D01*
Y337450D01*
D02*
G37*
G36*
X490000Y324750D02*
X469000D01*
Y313350D01*
X490000D01*
Y324750D01*
D02*
G37*
G36*
X231000D02*
X210000D01*
Y313350D01*
X231000D01*
Y324750D01*
D02*
G37*
G36*
X190000D02*
X169000D01*
Y313350D01*
X190000D01*
Y324750D01*
D02*
G37*
G36*
X301251Y322200D02*
X298749D01*
X296333Y321553D01*
X294167Y320302D01*
X292398Y318533D01*
X291147Y316367D01*
X290500Y313951D01*
Y311449D01*
X291147Y309033D01*
X292398Y306867D01*
X294167Y305098D01*
X296333Y303847D01*
X298749Y303200D01*
X301251D01*
X303667Y303847D01*
X305833Y305098D01*
X307602Y306867D01*
X308853Y309033D01*
X309500Y311449D01*
Y313951D01*
X308853Y316367D01*
X307602Y318533D01*
X305833Y320302D01*
X303667Y321553D01*
X301251Y322200D01*
D02*
G37*
G36*
X490000Y312050D02*
X469000D01*
Y300650D01*
X490000D01*
Y312050D01*
D02*
G37*
G36*
X231000D02*
X210000D01*
Y300650D01*
X231000D01*
Y312050D01*
D02*
G37*
G36*
X190000D02*
X169000D01*
Y300650D01*
X190000D01*
Y312050D01*
D02*
G37*
G36*
X48213Y331400D02*
X44667D01*
X41190Y330708D01*
X37914Y329351D01*
X34966Y327382D01*
X32459Y324874D01*
X30489Y321926D01*
X29132Y318650D01*
X28440Y315173D01*
Y311627D01*
X29132Y308150D01*
X30489Y304874D01*
X32459Y301926D01*
X34966Y299419D01*
X37914Y297449D01*
X41190Y296092D01*
X44667Y295400D01*
X48213D01*
X51690Y296092D01*
X54966Y297449D01*
X57914Y299419D01*
X60422Y301926D01*
X62391Y304874D01*
X63748Y308150D01*
X64440Y311627D01*
Y315173D01*
X63748Y318650D01*
X62391Y321926D01*
X60422Y324874D01*
X57914Y327382D01*
X54966Y329351D01*
X51690Y330708D01*
X48213Y331400D01*
D02*
G37*
G36*
X602761Y313890D02*
X600259D01*
X597843Y313243D01*
X595677Y311992D01*
X593908Y310223D01*
X592657Y308057D01*
X592010Y305641D01*
Y303139D01*
X592657Y300723D01*
X593908Y298557D01*
X595677Y296788D01*
X597843Y295537D01*
X600259Y294890D01*
X602761D01*
X605177Y295537D01*
X607343Y296788D01*
X609112Y298557D01*
X610363Y300723D01*
X611010Y303139D01*
Y305641D01*
X610363Y308057D01*
X609112Y310223D01*
X607343Y311992D01*
X605177Y313243D01*
X602761Y313890D01*
D02*
G37*
G36*
X531000Y299350D02*
X510000D01*
Y287950D01*
X531000D01*
Y299350D01*
D02*
G37*
G36*
X490000D02*
X469000D01*
Y287950D01*
X490000D01*
Y299350D01*
D02*
G37*
G36*
X231000D02*
X210000D01*
Y287950D01*
X231000D01*
Y299350D01*
D02*
G37*
G36*
X190000D02*
X169000D01*
Y287950D01*
X190000D01*
Y299350D01*
D02*
G37*
G36*
X301251Y296800D02*
X298749D01*
X296333Y296153D01*
X294167Y294902D01*
X292398Y293133D01*
X291147Y290967D01*
X290500Y288551D01*
Y286049D01*
X291147Y283633D01*
X292398Y281467D01*
X294167Y279698D01*
X296333Y278447D01*
X298749Y277800D01*
X301251D01*
X303667Y278447D01*
X305833Y279698D01*
X307602Y281467D01*
X308853Y283633D01*
X309500Y286049D01*
Y288551D01*
X308853Y290967D01*
X307602Y293133D01*
X305833Y294902D01*
X303667Y296153D01*
X301251Y296800D01*
D02*
G37*
G36*
X531000Y286650D02*
X510000D01*
Y275250D01*
X531000D01*
Y286650D01*
D02*
G37*
G36*
X490000D02*
X469000D01*
Y275250D01*
X490000D01*
Y286650D01*
D02*
G37*
G36*
X231000D02*
X210000D01*
Y275250D01*
X231000D01*
Y286650D01*
D02*
G37*
G36*
X190000D02*
X169000D01*
Y275250D01*
X190000D01*
Y286650D01*
D02*
G37*
G36*
X1859173Y280958D02*
X1851264Y273050D01*
X1859173Y265142D01*
X1859987Y266361D01*
X1860473Y268800D01*
Y277300D01*
X1859987Y279739D01*
X1859173Y280958D01*
D02*
G37*
G36*
X1655972D02*
X1648064Y273050D01*
X1655972Y265142D01*
X1656787Y266361D01*
X1657272Y268800D01*
Y277300D01*
X1656787Y279739D01*
X1655972Y280958D01*
D02*
G37*
G36*
X1629328Y280958D02*
X1628513Y279739D01*
X1628028Y277300D01*
Y268800D01*
X1628513Y266361D01*
X1629328Y265142D01*
X1637236Y273050D01*
X1629328Y280958D01*
D02*
G37*
G36*
X1832528Y280958D02*
X1831713Y279739D01*
X1831228Y277300D01*
Y268800D01*
X1831713Y266361D01*
X1832528Y265142D01*
X1840436Y273050D01*
X1832528Y280958D01*
D02*
G37*
G36*
X531000Y273950D02*
X510000D01*
Y262550D01*
X531000D01*
Y273950D01*
D02*
G37*
G36*
X490000D02*
X469000D01*
Y262550D01*
X490000D01*
Y273950D01*
D02*
G37*
G36*
X231000D02*
X210000D01*
Y262550D01*
X231000D01*
Y273950D01*
D02*
G37*
G36*
X190000D02*
X169000D01*
Y262550D01*
X190000D01*
Y273950D01*
D02*
G37*
G36*
X1854100Y283672D02*
X1837600D01*
X1835161Y283187D01*
X1833942Y282372D01*
X1842557Y273757D01*
X1841850Y273050D01*
X1842557Y272343D01*
X1833942Y263727D01*
X1835161Y262913D01*
X1837600Y262428D01*
X1854100D01*
X1856539Y262913D01*
X1857758Y263728D01*
X1849143Y272343D01*
X1849850Y273050D01*
X1849143Y273757D01*
X1857758Y282372D01*
X1856539Y283187D01*
X1854100Y283672D01*
D02*
G37*
G36*
X1650900D02*
X1634400D01*
X1631961Y283187D01*
X1630742Y282372D01*
X1639357Y273757D01*
X1638650Y273050D01*
X1639357Y272343D01*
X1630742Y263727D01*
X1631961Y262913D01*
X1634400Y262428D01*
X1650900D01*
X1653339Y262913D01*
X1654558Y263727D01*
X1645943Y272343D01*
X1646650Y273050D01*
X1645943Y273757D01*
X1654558Y282372D01*
X1653339Y283187D01*
X1650900Y283672D01*
D02*
G37*
G36*
X531000Y261250D02*
X510000D01*
Y249850D01*
X531000D01*
Y261250D01*
D02*
G37*
G36*
X490000D02*
X469000D01*
Y249850D01*
X490000D01*
Y261250D01*
D02*
G37*
G36*
X231000D02*
X210000D01*
Y249850D01*
X231000D01*
Y261250D01*
D02*
G37*
G36*
X190000D02*
X169000D01*
Y249850D01*
X190000D01*
Y261250D01*
D02*
G37*
G36*
X1611400Y283672D02*
X1594900D01*
X1592461Y283187D01*
X1590394Y281806D01*
X1589013Y279739D01*
X1588528Y277300D01*
Y268800D01*
X1589013Y266361D01*
X1590394Y264294D01*
X1592461Y262913D01*
X1594900Y262428D01*
X1598562D01*
Y257551D01*
X1588864Y247853D01*
X1586448Y248500D01*
X1583552D01*
X1580754Y247750D01*
X1578246Y246302D01*
X1576198Y244254D01*
X1574750Y241746D01*
X1574000Y238948D01*
Y236052D01*
X1574750Y233254D01*
X1576198Y230746D01*
X1578246Y228698D01*
X1580754Y227250D01*
X1583552Y226500D01*
X1586448D01*
X1589246Y227250D01*
X1591754Y228698D01*
X1593802Y230746D01*
X1595250Y233254D01*
X1596000Y236052D01*
Y238948D01*
X1595353Y241364D01*
X1606394Y252406D01*
X1607389Y253894D01*
X1607738Y255650D01*
Y262428D01*
X1611400D01*
X1613839Y262913D01*
X1615906Y264294D01*
X1617287Y266361D01*
X1617773Y268800D01*
Y277300D01*
X1617287Y279739D01*
X1615906Y281806D01*
X1613839Y283187D01*
X1611400Y283672D01*
D02*
G37*
G36*
X1814600D02*
X1798100D01*
X1795661Y283187D01*
X1793594Y281806D01*
X1792213Y279739D01*
X1791728Y277300D01*
Y268800D01*
X1792213Y266361D01*
X1793594Y264294D01*
X1795661Y262913D01*
X1798100Y262428D01*
X1798652D01*
Y245600D01*
X1794490D01*
Y240559D01*
X1765568D01*
X1765250Y241746D01*
X1763802Y244254D01*
X1761754Y246302D01*
X1759246Y247750D01*
X1756448Y248500D01*
X1753552D01*
X1750754Y247750D01*
X1748246Y246302D01*
X1746198Y244254D01*
X1744750Y241746D01*
X1744000Y238948D01*
Y236052D01*
X1744750Y233254D01*
X1746198Y230746D01*
X1748246Y228698D01*
X1750754Y227250D01*
X1753552Y226500D01*
X1756448D01*
X1759246Y227250D01*
X1761754Y228698D01*
X1763802Y230746D01*
X1765250Y233254D01*
X1765568Y234441D01*
X1794490D01*
Y230100D01*
X1811990D01*
Y245600D01*
X1807828D01*
Y262428D01*
X1814600D01*
X1817039Y262913D01*
X1819106Y264294D01*
X1820487Y266361D01*
X1820972Y268800D01*
Y277300D01*
X1820487Y279739D01*
X1819106Y281806D01*
X1817039Y283187D01*
X1814600Y283672D01*
D02*
G37*
G36*
X531000Y248550D02*
X510000D01*
Y237150D01*
X531000D01*
Y248550D01*
D02*
G37*
G36*
X490000D02*
X469000D01*
Y237150D01*
X490000D01*
Y248550D01*
D02*
G37*
G36*
X231000D02*
X210000D01*
Y237150D01*
X231000D01*
Y248550D01*
D02*
G37*
G36*
X190000D02*
X169000D01*
Y237150D01*
X190000D01*
Y248550D01*
D02*
G37*
G36*
X602761Y254200D02*
X600259D01*
X597843Y253553D01*
X595677Y252302D01*
X593908Y250533D01*
X592657Y248367D01*
X592010Y245951D01*
Y243449D01*
X592657Y241033D01*
X593908Y238867D01*
X595677Y237098D01*
X597843Y235847D01*
X600259Y235200D01*
X602761D01*
X605177Y235847D01*
X607343Y237098D01*
X609112Y238867D01*
X610363Y241033D01*
X611010Y243449D01*
Y245951D01*
X610363Y248367D01*
X609112Y250533D01*
X607343Y252302D01*
X605177Y253553D01*
X602761Y254200D01*
D02*
G37*
G36*
X1926448Y248500D02*
X1923552D01*
X1920754Y247750D01*
X1918246Y246302D01*
X1916198Y244254D01*
X1914750Y241746D01*
X1914000Y238948D01*
Y236052D01*
X1914750Y233254D01*
X1916198Y230746D01*
X1918246Y228698D01*
X1920754Y227250D01*
X1923552Y226500D01*
X1926448D01*
X1929246Y227250D01*
X1931754Y228698D01*
X1933802Y230746D01*
X1935250Y233254D01*
X1936000Y236052D01*
Y238948D01*
X1935250Y241746D01*
X1933802Y244254D01*
X1931754Y246302D01*
X1929246Y247750D01*
X1926448Y248500D01*
D02*
G37*
G36*
X1536448D02*
X1533552D01*
X1530754Y247750D01*
X1528246Y246302D01*
X1526198Y244254D01*
X1524750Y241746D01*
X1524000Y238948D01*
Y236052D01*
X1524750Y233254D01*
X1526198Y230746D01*
X1528246Y228698D01*
X1530754Y227250D01*
X1533552Y226500D01*
X1536448D01*
X1539246Y227250D01*
X1541754Y228698D01*
X1543802Y230746D01*
X1545250Y233254D01*
X1546000Y236052D01*
Y238948D01*
X1545250Y241746D01*
X1543802Y244254D01*
X1541754Y246302D01*
X1539246Y247750D01*
X1536448Y248500D01*
D02*
G37*
G36*
X531000Y235850D02*
X510000D01*
Y224450D01*
X531000D01*
Y235850D01*
D02*
G37*
G36*
X490000D02*
X469000D01*
Y224450D01*
X490000D01*
Y235850D01*
D02*
G37*
G36*
X231000D02*
X210000D01*
Y224450D01*
X231000D01*
Y235850D01*
D02*
G37*
G36*
X143280Y439280D02*
X127780D01*
Y421780D01*
X132212D01*
Y364891D01*
X98247Y330926D01*
X96072Y332182D01*
X93020Y333000D01*
X89860D01*
X86808Y332182D01*
X84072Y330602D01*
X81838Y328368D01*
X80258Y325632D01*
X79440Y322580D01*
Y319420D01*
X80258Y316368D01*
X81838Y313632D01*
X84072Y311398D01*
X86808Y309818D01*
X89860Y309000D01*
X93020D01*
X96072Y309818D01*
X98808Y311398D01*
X101042Y313632D01*
X102622Y316368D01*
X103440Y319420D01*
Y322580D01*
X103321Y323023D01*
X140044Y359746D01*
X141039Y361234D01*
X141388Y362990D01*
Y384953D01*
X142658Y385555D01*
X142732Y385494D01*
Y248920D01*
X143081Y247164D01*
X144076Y245676D01*
X162846Y226906D01*
X164334Y225911D01*
X166090Y225562D01*
X169000D01*
Y224450D01*
X190000D01*
Y235850D01*
X169000D01*
Y235367D01*
X167730Y234999D01*
X151908Y250821D01*
Y386700D01*
X151983Y386774D01*
X152820Y388796D01*
Y390984D01*
X151983Y393005D01*
X150435Y394553D01*
X148414Y395390D01*
X146226D01*
X144205Y394553D01*
X142658Y393006D01*
X142653Y393006D01*
X141388Y393260D01*
Y421780D01*
X143280D01*
Y439280D01*
D02*
G37*
G36*
X301251Y242200D02*
X298749D01*
X296333Y241553D01*
X294167Y240302D01*
X292398Y238533D01*
X291147Y236367D01*
X290500Y233951D01*
Y231449D01*
X291147Y229033D01*
X292398Y226867D01*
X294167Y225098D01*
X296333Y223847D01*
X298749Y223200D01*
X301251D01*
X303667Y223847D01*
X305833Y225098D01*
X307602Y226867D01*
X308853Y229033D01*
X309500Y231449D01*
Y233951D01*
X308853Y236367D01*
X307602Y238533D01*
X305833Y240302D01*
X303667Y241553D01*
X301251Y242200D01*
D02*
G37*
G36*
X1811990Y225686D02*
X1805654Y219350D01*
X1811990Y213014D01*
Y225686D01*
D02*
G37*
G36*
X1794490Y225686D02*
Y213014D01*
X1800826Y219350D01*
X1794490Y225686D01*
D02*
G37*
G36*
X531000Y223150D02*
X510000D01*
Y211750D01*
X531000D01*
Y223150D01*
D02*
G37*
G36*
X490000D02*
X469000D01*
Y211750D01*
X490000D01*
Y223150D01*
D02*
G37*
G36*
X149684Y234100D02*
X147496D01*
X145475Y233263D01*
X143927Y231716D01*
X143090Y229694D01*
Y227506D01*
X143927Y225485D01*
X145475Y223937D01*
X147496Y223100D01*
X147601D01*
X156496Y214206D01*
X157984Y213211D01*
X159740Y212862D01*
X169000D01*
Y211750D01*
X190000D01*
Y223150D01*
X169000D01*
Y222038D01*
X161640D01*
X154090Y229589D01*
Y229694D01*
X153253Y231716D01*
X151706Y233263D01*
X149684Y234100D01*
D02*
G37*
G36*
X1810576Y227100D02*
X1795904D01*
X1802947Y220057D01*
X1802240Y219350D01*
X1802947Y218643D01*
X1795904Y211600D01*
X1810576D01*
X1803533Y218643D01*
X1804240Y219350D01*
X1803533Y220057D01*
X1810576Y227100D01*
D02*
G37*
G36*
X602761Y228800D02*
X600259D01*
X597843Y228153D01*
X595677Y226902D01*
X593908Y225133D01*
X592657Y222967D01*
X592010Y220551D01*
Y218049D01*
X592657Y215633D01*
X593908Y213467D01*
X595677Y211698D01*
X597843Y210448D01*
X600259Y209800D01*
X602761D01*
X605177Y210448D01*
X607343Y211698D01*
X609112Y213467D01*
X610363Y215633D01*
X611010Y218049D01*
Y220551D01*
X610363Y222967D01*
X609112Y225133D01*
X607343Y226902D01*
X605177Y228153D01*
X602761Y228800D01*
D02*
G37*
G36*
X301251Y216800D02*
X298749D01*
X296333Y216153D01*
X294167Y214902D01*
X292398Y213133D01*
X291147Y210967D01*
X290500Y208551D01*
Y206049D01*
X291147Y203633D01*
X292398Y201467D01*
X294167Y199698D01*
X296333Y198447D01*
X298749Y197800D01*
X301251D01*
X303667Y198447D01*
X305833Y199698D01*
X307602Y201467D01*
X308853Y203633D01*
X309500Y206049D01*
Y208551D01*
X308853Y210967D01*
X307602Y213133D01*
X305833Y214902D01*
X303667Y216153D01*
X301251Y216800D01*
D02*
G37*
G36*
X1706448Y248500D02*
X1703552D01*
X1700754Y247750D01*
X1698246Y246302D01*
X1696198Y244254D01*
X1694750Y241746D01*
X1694000Y238948D01*
Y236052D01*
X1694750Y233254D01*
X1696198Y230746D01*
X1698246Y228698D01*
X1700754Y227250D01*
X1703552Y226500D01*
X1706448D01*
X1709246Y227250D01*
X1711754Y228698D01*
X1711865Y228809D01*
X1744576Y196098D01*
X1744000Y193948D01*
Y191052D01*
X1744750Y188254D01*
X1746198Y185746D01*
X1748246Y183698D01*
X1750754Y182250D01*
X1753552Y181500D01*
X1756448D01*
X1759246Y182250D01*
X1761754Y183698D01*
X1763802Y185746D01*
X1765250Y188254D01*
X1766000Y191052D01*
Y193948D01*
X1765250Y196746D01*
X1763802Y199254D01*
X1761754Y201302D01*
X1759246Y202750D01*
X1756448Y203500D01*
X1753552D01*
X1750754Y202750D01*
X1748246Y201302D01*
X1748135Y201191D01*
X1715424Y233902D01*
X1716000Y236052D01*
Y238948D01*
X1715250Y241746D01*
X1713802Y244254D01*
X1711754Y246302D01*
X1709246Y247750D01*
X1706448Y248500D01*
D02*
G37*
G36*
X1876448D02*
X1873552D01*
X1870754Y247750D01*
X1868246Y246302D01*
X1866198Y244254D01*
X1864750Y241746D01*
X1864000Y238948D01*
Y236052D01*
X1864750Y233254D01*
X1866198Y230746D01*
X1868246Y228698D01*
X1870412Y227447D01*
Y209632D01*
X1870110D01*
X1867671Y209147D01*
X1865604Y207766D01*
X1864223Y205699D01*
X1863738Y203260D01*
Y186760D01*
X1864223Y184321D01*
X1865604Y182254D01*
X1867671Y180873D01*
X1870110Y180387D01*
X1878610D01*
X1881049Y180873D01*
X1883116Y182254D01*
X1884497Y184321D01*
X1884982Y186760D01*
Y203260D01*
X1884497Y205699D01*
X1883116Y207766D01*
X1881049Y209147D01*
X1879588Y209438D01*
Y227447D01*
X1881754Y228698D01*
X1883802Y230746D01*
X1885250Y233254D01*
X1886000Y236052D01*
Y238948D01*
X1885250Y241746D01*
X1883802Y244254D01*
X1881754Y246302D01*
X1879246Y247750D01*
X1876448Y248500D01*
D02*
G37*
G36*
X602761Y194510D02*
X600259D01*
X597843Y193863D01*
X595677Y192612D01*
X593908Y190843D01*
X592657Y188677D01*
X592010Y186261D01*
Y183759D01*
X592657Y181343D01*
X593908Y179177D01*
X595677Y177408D01*
X597843Y176157D01*
X600259Y175510D01*
X602761D01*
X605177Y176157D01*
X607343Y177408D01*
X609112Y179177D01*
X610363Y181343D01*
X611010Y183759D01*
Y186261D01*
X610363Y188677D01*
X609112Y190843D01*
X607343Y192612D01*
X605177Y193863D01*
X602761Y194510D01*
D02*
G37*
G36*
X226406Y181470D02*
X213734D01*
X220070Y175134D01*
X226406Y181470D01*
D02*
G37*
G36*
X1642090Y179966D02*
Y167294D01*
X1648426Y173630D01*
X1642090Y179966D01*
D02*
G37*
G36*
X1659590Y179966D02*
X1653254Y173630D01*
X1659590Y167294D01*
Y179966D01*
D02*
G37*
G36*
X1658176Y181380D02*
X1643504D01*
X1650547Y174337D01*
X1649840Y173630D01*
X1650547Y172923D01*
X1643504Y165880D01*
X1658176D01*
X1651133Y172923D01*
X1651840Y173630D01*
X1651133Y174337D01*
X1658176Y181380D01*
D02*
G37*
G36*
X212320Y180056D02*
Y165384D01*
X219363Y172427D01*
X220070Y171720D01*
X220777Y172427D01*
X227820Y165384D01*
Y180056D01*
X220777Y173013D01*
X220070Y173720D01*
X219363Y173013D01*
X212320Y180056D01*
D02*
G37*
G36*
X220070Y170306D02*
X213734Y163970D01*
X226406D01*
X220070Y170306D01*
D02*
G37*
G36*
X1878610Y170133D02*
X1870110D01*
X1867671Y169647D01*
X1866452Y168832D01*
X1874360Y160924D01*
X1882268Y168832D01*
X1881049Y169647D01*
X1878610Y170133D01*
D02*
G37*
G36*
X221945Y162271D02*
X218695D01*
X217281Y161990D01*
X216929Y161755D01*
X220320Y158364D01*
X223711Y161755D01*
X223359Y161990D01*
X221945Y162271D01*
D02*
G37*
G36*
X271736Y161000D02*
X263164D01*
X267450Y156714D01*
X271736Y161000D01*
D02*
G37*
G36*
X225125Y160341D02*
X221027Y156243D01*
X220320Y156950D01*
X219613Y156243D01*
X215515Y160341D01*
X215280Y159989D01*
X214999Y158575D01*
Y149325D01*
X215280Y147911D01*
X215515Y147559D01*
X219613Y151657D01*
X220320Y150950D01*
X221027Y151657D01*
X225125Y147559D01*
X225360Y147911D01*
X225641Y149325D01*
Y158575D01*
X225360Y159989D01*
X225125Y160341D01*
D02*
G37*
G36*
X273150Y159586D02*
X268157Y154593D01*
X267450Y155300D01*
X266743Y154593D01*
X261750Y159586D01*
Y141414D01*
X266743Y146407D01*
X267450Y145700D01*
X268157Y146407D01*
X273150Y141414D01*
Y159586D01*
D02*
G37*
G36*
X602761Y169110D02*
X600259D01*
X597843Y168463D01*
X595677Y167212D01*
X593908Y165443D01*
X592657Y163277D01*
X592010Y160861D01*
Y158359D01*
X592657Y155943D01*
X593908Y153777D01*
X595677Y152008D01*
X597843Y150758D01*
X600259Y150110D01*
X602761D01*
X605177Y150758D01*
X607343Y152008D01*
X609112Y153777D01*
X610363Y155943D01*
X611010Y158359D01*
Y160861D01*
X610363Y163277D01*
X609112Y165443D01*
X607343Y167212D01*
X605177Y168463D01*
X602761Y169110D01*
D02*
G37*
G36*
X220320Y149536D02*
X216929Y146145D01*
X217281Y145910D01*
X218695Y145629D01*
X221945D01*
X223359Y145910D01*
X223711Y146145D01*
X220320Y149536D01*
D02*
G37*
G36*
X231000Y223150D02*
X210000D01*
Y213536D01*
X199077Y202613D01*
X198414Y201621D01*
X198181Y200450D01*
X198181Y200450D01*
Y181470D01*
X193820D01*
Y163970D01*
X198181D01*
Y161923D01*
X197082Y161189D01*
X196280Y159989D01*
X195999Y158575D01*
Y149325D01*
X196280Y147911D01*
X197082Y146712D01*
X198281Y145910D01*
X199695Y145629D01*
X202945D01*
X204359Y145910D01*
X205558Y146712D01*
X206360Y147911D01*
X206641Y149325D01*
Y158575D01*
X206360Y159989D01*
X205558Y161189D01*
X204359Y161990D01*
X204299Y162002D01*
Y163970D01*
X209320D01*
Y181470D01*
X204299D01*
Y199183D01*
X216866Y211750D01*
X231000D01*
Y223150D01*
D02*
G37*
G36*
X1865038Y167418D02*
X1864223Y166199D01*
X1863738Y163760D01*
Y147260D01*
X1864223Y144821D01*
X1865038Y143602D01*
X1873653Y152217D01*
X1874360Y151510D01*
X1875067Y152217D01*
X1883683Y143602D01*
X1884497Y144821D01*
X1884982Y147260D01*
Y163760D01*
X1884497Y166199D01*
X1883683Y167418D01*
X1875067Y158803D01*
X1874360Y159510D01*
X1873653Y158803D01*
X1865038Y167418D01*
D02*
G37*
G36*
X1874360Y150096D02*
X1866452Y142188D01*
X1867671Y141373D01*
X1870110Y140888D01*
X1878610D01*
X1881049Y141373D01*
X1882268Y142188D01*
X1874360Y150096D01*
D02*
G37*
G36*
X438250Y161000D02*
X426850D01*
Y140000D01*
X438250D01*
Y161000D01*
D02*
G37*
G36*
X425550D02*
X414150D01*
Y140000D01*
X425550D01*
Y161000D01*
D02*
G37*
G36*
X412850D02*
X401450D01*
Y140000D01*
X412850D01*
Y161000D01*
D02*
G37*
G36*
X400150D02*
X388750D01*
Y140000D01*
X400150D01*
Y161000D01*
D02*
G37*
G36*
X387450D02*
X376050D01*
Y140000D01*
X387450D01*
Y161000D01*
D02*
G37*
G36*
X374750D02*
X363350D01*
Y140000D01*
X374750D01*
Y161000D01*
D02*
G37*
G36*
X362050D02*
X350650D01*
Y140000D01*
X362050D01*
Y161000D01*
D02*
G37*
G36*
X349350D02*
X337950D01*
Y140000D01*
X349350D01*
Y161000D01*
D02*
G37*
G36*
X336650D02*
X325250D01*
Y140000D01*
X336650D01*
Y161000D01*
D02*
G37*
G36*
X323950D02*
X312550D01*
Y140000D01*
X323950D01*
Y161000D01*
D02*
G37*
G36*
X311250D02*
X299850D01*
Y140000D01*
X311250D01*
Y161000D01*
D02*
G37*
G36*
X298550D02*
X287150D01*
Y140000D01*
X298550D01*
Y161000D01*
D02*
G37*
G36*
X285850D02*
X274450D01*
Y140000D01*
X285850D01*
Y161000D01*
D02*
G37*
G36*
X267450Y144286D02*
X263164Y140000D01*
X271736D01*
X267450Y144286D01*
D02*
G37*
G36*
X96440Y303060D02*
X86440D01*
X84613Y302820D01*
X82910Y302115D01*
X81447Y300992D01*
X80325Y299530D01*
X79620Y297827D01*
X79380Y296000D01*
Y286000D01*
X79620Y284173D01*
X80325Y282470D01*
X81447Y281007D01*
X82910Y279886D01*
X84613Y279180D01*
X86440Y278940D01*
X87941D01*
Y208720D01*
X87941Y208720D01*
X88174Y207549D01*
X88837Y206557D01*
X172107Y123287D01*
X172107Y123287D01*
X173099Y122624D01*
X174270Y122391D01*
X174270Y122391D01*
X205499D01*
Y120825D01*
X205780Y119411D01*
X206581Y118211D01*
X207781Y117410D01*
X209195Y117129D01*
X212445D01*
X213859Y117410D01*
X215058Y118211D01*
X215860Y119411D01*
X216141Y120825D01*
Y130075D01*
X215860Y131489D01*
X215058Y132689D01*
X213859Y133490D01*
X212445Y133771D01*
X209195D01*
X207781Y133490D01*
X206581Y132689D01*
X205780Y131489D01*
X205499Y130075D01*
Y128509D01*
X175537D01*
X94059Y209987D01*
Y278940D01*
X96440D01*
X98267Y279180D01*
X99970Y279886D01*
X101433Y281007D01*
X102555Y282470D01*
X103260Y284173D01*
X103500Y286000D01*
Y296000D01*
X103260Y297827D01*
X102555Y299530D01*
X101433Y300992D01*
X99970Y302115D01*
X98267Y302820D01*
X96440Y303060D01*
D02*
G37*
G36*
X845970Y155718D02*
X627320D01*
X625564Y155369D01*
X624076Y154374D01*
X604149Y134448D01*
X602761Y134820D01*
X600259D01*
X597843Y134173D01*
X595677Y132922D01*
X593908Y131153D01*
X592657Y128987D01*
X592010Y126571D01*
Y124069D01*
X592657Y121653D01*
X593908Y119487D01*
X595677Y117718D01*
X597843Y116468D01*
X600259Y115820D01*
X602761D01*
X605177Y116468D01*
X607343Y117718D01*
X609112Y119487D01*
X610363Y121653D01*
X611010Y124069D01*
Y126571D01*
X610638Y127959D01*
X629221Y146542D01*
X844070D01*
X865800Y124811D01*
Y115800D01*
X883300D01*
Y118962D01*
X905170D01*
Y115800D01*
X922670D01*
Y118962D01*
X942000D01*
Y115800D01*
X959500D01*
Y131300D01*
X942000D01*
Y128138D01*
X922670D01*
Y131300D01*
X905170D01*
Y128138D01*
X883300D01*
Y131300D01*
X872289D01*
X849214Y154374D01*
X847726Y155369D01*
X845970Y155718D01*
D02*
G37*
G36*
X1650010Y122002D02*
X1641510D01*
X1639071Y121517D01*
X1637852Y120702D01*
X1645760Y112794D01*
X1653668Y120702D01*
X1652449Y121517D01*
X1650010Y122002D01*
D02*
G37*
G36*
X702912Y137000D02*
X697088D01*
X691336Y136089D01*
X685797Y134289D01*
X680608Y131645D01*
X675896Y128222D01*
X674544Y126870D01*
X700000Y101414D01*
X725456Y126870D01*
X724104Y128222D01*
X719392Y131645D01*
X714203Y134289D01*
X708664Y136089D01*
X702912Y137000D01*
D02*
G37*
G36*
X52912D02*
X47088D01*
X41336Y136089D01*
X35797Y134289D01*
X30608Y131645D01*
X25896Y128222D01*
X24544Y126870D01*
X50000Y101414D01*
X75456Y126870D01*
X74104Y128222D01*
X69392Y131645D01*
X64203Y134289D01*
X58664Y136089D01*
X52912Y137000D01*
D02*
G37*
G36*
X421464Y127420D02*
X419276D01*
X417254Y126583D01*
X415707Y125035D01*
X414870Y123014D01*
Y120826D01*
X414318Y120000D01*
X414150D01*
Y99000D01*
X425550D01*
Y120000D01*
X425550D01*
X425536Y120021D01*
X425870Y120826D01*
Y123014D01*
X425033Y125035D01*
X423485Y126583D01*
X421464Y127420D01*
D02*
G37*
G36*
X412850Y120000D02*
X401450D01*
Y99000D01*
X412850D01*
Y120000D01*
D02*
G37*
G36*
X400150D02*
X388750D01*
Y99000D01*
X400150D01*
Y120000D01*
D02*
G37*
G36*
X387450D02*
X376050D01*
Y99000D01*
X387450D01*
Y120000D01*
D02*
G37*
G36*
X374750D02*
X363350D01*
Y99000D01*
X374750D01*
Y120000D01*
D02*
G37*
G36*
X362050D02*
X350650D01*
Y99000D01*
X362050D01*
Y120000D01*
D02*
G37*
G36*
X349350D02*
X337950D01*
Y99000D01*
X349350D01*
Y120000D01*
D02*
G37*
G36*
X336650D02*
X325250D01*
Y99000D01*
X336650D01*
Y120000D01*
D02*
G37*
G36*
X323950D02*
X312550D01*
Y99000D01*
X323950D01*
Y120000D01*
D02*
G37*
G36*
X311250D02*
X299850D01*
Y99000D01*
X311250D01*
Y120000D01*
D02*
G37*
G36*
X298550D02*
X287150D01*
Y99000D01*
X298550D01*
Y120000D01*
D02*
G37*
G36*
X285850D02*
X274450D01*
Y99000D01*
X285850D01*
Y120000D01*
D02*
G37*
G36*
X273150D02*
X261750D01*
Y99000D01*
X273150D01*
Y120000D01*
D02*
G37*
G36*
X1636438Y119288D02*
X1635623Y118069D01*
X1635138Y115630D01*
Y99130D01*
X1635623Y96691D01*
X1636438Y95472D01*
X1645053Y104087D01*
X1645760Y103380D01*
X1646467Y104087D01*
X1655083Y95472D01*
X1655897Y96691D01*
X1656382Y99130D01*
Y115630D01*
X1655897Y118069D01*
X1655083Y119288D01*
X1646467Y110673D01*
X1645760Y111380D01*
X1645053Y110673D01*
X1636438Y119288D01*
D02*
G37*
G36*
X1645760Y101966D02*
X1637852Y94058D01*
X1639071Y93243D01*
X1641510Y92758D01*
X1650010D01*
X1652449Y93243D01*
X1653668Y94058D01*
X1645760Y101966D01*
D02*
G37*
G36*
X602761Y109420D02*
X600259D01*
X597843Y108773D01*
X595677Y107522D01*
X593908Y105753D01*
X592657Y103587D01*
X592010Y101171D01*
Y98669D01*
X592657Y96253D01*
X593908Y94087D01*
X595677Y92318D01*
X597843Y91067D01*
X600259Y90420D01*
X602761D01*
X605177Y91067D01*
X607343Y92318D01*
X609112Y94087D01*
X610363Y96253D01*
X611010Y98669D01*
Y101171D01*
X610363Y103587D01*
X609112Y105753D01*
X607343Y107522D01*
X605177Y108773D01*
X602761Y109420D01*
D02*
G37*
G36*
X76870Y125456D02*
X51414Y100000D01*
X76870Y74544D01*
X78222Y75896D01*
X81645Y80608D01*
X84289Y85797D01*
X86089Y91336D01*
X87000Y97088D01*
Y102912D01*
X86089Y108664D01*
X84289Y114203D01*
X81645Y119392D01*
X78222Y124104D01*
X76870Y125456D01*
D02*
G37*
G36*
X726870D02*
X701414Y100000D01*
X726870Y74544D01*
X728222Y75896D01*
X731645Y80608D01*
X734289Y85797D01*
X736089Y91336D01*
X737000Y97088D01*
Y102912D01*
X736089Y108664D01*
X734289Y114203D01*
X731645Y119392D01*
X728222Y124104D01*
X726870Y125456D01*
D02*
G37*
G36*
X673130Y125456D02*
X671778Y124104D01*
X668355Y119392D01*
X665711Y114203D01*
X663911Y108664D01*
X663000Y102912D01*
Y97088D01*
X663911Y91336D01*
X665711Y85797D01*
X668355Y80608D01*
X671778Y75896D01*
X673130Y74544D01*
X698586Y100000D01*
X673130Y125456D01*
D02*
G37*
G36*
X23130D02*
X21778Y124104D01*
X18355Y119392D01*
X15711Y114203D01*
X13911Y108664D01*
X13000Y102912D01*
Y97088D01*
X13911Y91336D01*
X15711Y85797D01*
X18355Y80608D01*
X21778Y75896D01*
X23130Y74544D01*
X48586Y100000D01*
X23130Y125456D01*
D02*
G37*
G36*
X438250Y120000D02*
X426850D01*
Y99000D01*
X429491D01*
Y87107D01*
X410213Y67829D01*
X397116D01*
X397093Y67885D01*
X395546Y69433D01*
X393524Y70270D01*
X391336D01*
X389314Y69433D01*
X387767Y67885D01*
X386930Y65864D01*
Y63676D01*
X387767Y61655D01*
X389314Y60107D01*
X391336Y59270D01*
X393524D01*
X395546Y60107D01*
X397093Y61655D01*
X397116Y61711D01*
X411480D01*
X411480Y61711D01*
X412650Y61944D01*
X413643Y62607D01*
X434713Y83677D01*
X434713Y83677D01*
X435376Y84669D01*
X435609Y85840D01*
Y99000D01*
X438250D01*
Y120000D01*
D02*
G37*
G36*
X959500Y112800D02*
X942000D01*
Y97300D01*
X946162D01*
Y71851D01*
X940915Y66603D01*
X940553Y66700D01*
X938447D01*
X936412Y66155D01*
X934588Y65102D01*
X933098Y63612D01*
X932045Y61788D01*
X931500Y59753D01*
Y57647D01*
X932045Y55612D01*
X933098Y53788D01*
X934588Y52298D01*
X936412Y51245D01*
X938447Y50700D01*
X940553D01*
X942588Y51245D01*
X944412Y52298D01*
X945902Y53788D01*
X946955Y55612D01*
X947500Y57647D01*
Y59753D01*
X947403Y60114D01*
X953994Y66706D01*
X954989Y68194D01*
X955338Y69950D01*
Y97300D01*
X959500D01*
Y112800D01*
D02*
G37*
G36*
X700000Y98586D02*
X674544Y73130D01*
X675896Y71778D01*
X680608Y68355D01*
X685797Y65711D01*
X691336Y63911D01*
X697088Y63000D01*
X702912D01*
X708664Y63911D01*
X714203Y65711D01*
X719392Y68355D01*
X724104Y71778D01*
X725456Y73130D01*
X700000Y98586D01*
D02*
G37*
G36*
X50000D02*
X24544Y73130D01*
X25896Y71778D01*
X30608Y68355D01*
X35797Y65711D01*
X41336Y63911D01*
X47088Y63000D01*
X52912D01*
X58664Y63911D01*
X64203Y65711D01*
X69392Y68355D01*
X74104Y71778D01*
X75456Y73130D01*
X50000Y98586D01*
D02*
G37*
G36*
X1372353Y66700D02*
X1370247D01*
X1368212Y66155D01*
X1366388Y65102D01*
X1366350Y65064D01*
X1371300Y60114D01*
X1376250Y65064D01*
X1376212Y65102D01*
X1374388Y66155D01*
X1372353Y66700D01*
D02*
G37*
G36*
X1346953D02*
X1344847D01*
X1342812Y66155D01*
X1340988Y65102D01*
X1340950Y65064D01*
X1345900Y60114D01*
X1350850Y65064D01*
X1350812Y65102D01*
X1348988Y66155D01*
X1346953Y66700D01*
D02*
G37*
G36*
X1321553D02*
X1319447D01*
X1317412Y66155D01*
X1315588Y65102D01*
X1315550Y65064D01*
X1320500Y60114D01*
X1325450Y65064D01*
X1325412Y65102D01*
X1323588Y66155D01*
X1321553Y66700D01*
D02*
G37*
G36*
X1756448Y78500D02*
X1753552D01*
X1750754Y77750D01*
X1748246Y76302D01*
X1746198Y74254D01*
X1744750Y71746D01*
X1744000Y68948D01*
Y66052D01*
X1744750Y63254D01*
X1746198Y60746D01*
X1748246Y58698D01*
X1750754Y57250D01*
X1753552Y56500D01*
X1756448D01*
X1759246Y57250D01*
X1761754Y58698D01*
X1763802Y60746D01*
X1765250Y63254D01*
X1766000Y66052D01*
Y68948D01*
X1765250Y71746D01*
X1763802Y74254D01*
X1761754Y76302D01*
X1759246Y77750D01*
X1756448Y78500D01*
D02*
G37*
G36*
X1650010Y82502D02*
X1641510D01*
X1639071Y82017D01*
X1637004Y80636D01*
X1635623Y78569D01*
X1635138Y76130D01*
Y59630D01*
X1635623Y57191D01*
X1637004Y55124D01*
X1639071Y53743D01*
X1641510Y53258D01*
X1650010D01*
X1652449Y53743D01*
X1654516Y55124D01*
X1655897Y57191D01*
X1656382Y59630D01*
Y63292D01*
X1694740D01*
X1694750Y63254D01*
X1696198Y60746D01*
X1698246Y58698D01*
X1700754Y57250D01*
X1703552Y56500D01*
X1706448D01*
X1709246Y57250D01*
X1711754Y58698D01*
X1713802Y60746D01*
X1715250Y63254D01*
X1716000Y66052D01*
Y68948D01*
X1715250Y71746D01*
X1713802Y74254D01*
X1711754Y76302D01*
X1709246Y77750D01*
X1706448Y78500D01*
X1703552D01*
X1700754Y77750D01*
X1698246Y76302D01*
X1696198Y74254D01*
X1695167Y72468D01*
X1656382D01*
Y76130D01*
X1655897Y78569D01*
X1654516Y80636D01*
X1652449Y82017D01*
X1650010Y82502D01*
D02*
G37*
G36*
X602761Y75130D02*
X600259D01*
X597843Y74483D01*
X595677Y73232D01*
X593908Y71463D01*
X592657Y69297D01*
X592010Y66881D01*
Y64379D01*
X592657Y61963D01*
X593908Y59797D01*
X595677Y58028D01*
X597843Y56778D01*
X600259Y56130D01*
X602761D01*
X605177Y56778D01*
X607343Y58028D01*
X609112Y59797D01*
X610363Y61963D01*
X611010Y64379D01*
Y66881D01*
X610363Y69297D01*
X609112Y71463D01*
X607343Y73232D01*
X605177Y74483D01*
X602761Y75130D01*
D02*
G37*
G36*
X1377664Y63650D02*
X1372714Y58700D01*
X1377664Y53750D01*
X1377702Y53788D01*
X1378755Y55612D01*
X1379300Y57647D01*
Y59753D01*
X1378755Y61788D01*
X1377702Y63612D01*
X1377664Y63650D01*
D02*
G37*
G36*
X1352264D02*
X1347314Y58700D01*
X1352264Y53750D01*
X1352302Y53788D01*
X1353355Y55612D01*
X1353900Y57647D01*
Y59753D01*
X1353355Y61788D01*
X1352302Y63612D01*
X1352264Y63650D01*
D02*
G37*
G36*
X1326864D02*
X1321914Y58700D01*
X1326864Y53750D01*
X1326902Y53788D01*
X1327955Y55612D01*
X1328500Y57647D01*
Y59753D01*
X1327955Y61788D01*
X1326902Y63612D01*
X1326864Y63650D01*
D02*
G37*
G36*
X1364936Y63650D02*
X1364898Y63612D01*
X1363845Y61788D01*
X1363300Y59753D01*
Y57647D01*
X1363845Y55612D01*
X1364898Y53788D01*
X1364936Y53750D01*
X1369886Y58700D01*
X1364936Y63650D01*
D02*
G37*
G36*
X1339536D02*
X1339498Y63612D01*
X1338445Y61788D01*
X1337900Y59753D01*
Y57647D01*
X1338445Y55612D01*
X1339498Y53788D01*
X1339536Y53750D01*
X1344486Y58700D01*
X1339536Y63650D01*
D02*
G37*
G36*
X1314136D02*
X1314098Y63612D01*
X1313045Y61788D01*
X1312500Y59753D01*
Y57647D01*
X1313045Y55612D01*
X1314098Y53788D01*
X1314136Y53750D01*
X1319086Y58700D01*
X1314136Y63650D01*
D02*
G37*
G36*
X152265Y73000D02*
X147735D01*
X143291Y72116D01*
X139105Y70382D01*
X135338Y67865D01*
X134444Y66971D01*
X150000Y51414D01*
X165556Y66971D01*
X164662Y67865D01*
X160895Y70382D01*
X156709Y72116D01*
X152265Y73000D01*
D02*
G37*
G36*
X1371300Y57286D02*
X1366350Y52336D01*
X1366388Y52298D01*
X1368212Y51245D01*
X1370247Y50700D01*
X1372353D01*
X1374388Y51245D01*
X1376212Y52298D01*
X1376250Y52336D01*
X1371300Y57286D01*
D02*
G37*
G36*
X1345900D02*
X1340950Y52336D01*
X1340988Y52298D01*
X1342812Y51245D01*
X1344847Y50700D01*
X1346953D01*
X1348988Y51245D01*
X1350812Y52298D01*
X1350850Y52336D01*
X1345900Y57286D01*
D02*
G37*
G36*
X1320500D02*
X1315550Y52336D01*
X1315588Y52298D01*
X1317412Y51245D01*
X1319447Y50700D01*
X1321553D01*
X1323588Y51245D01*
X1325412Y52298D01*
X1325450Y52336D01*
X1320500Y57286D01*
D02*
G37*
G36*
X922670Y112800D02*
X905170D01*
Y97300D01*
X909422D01*
Y65237D01*
X909188Y65102D01*
X907698Y63612D01*
X906645Y61788D01*
X906100Y59753D01*
Y57647D01*
X906645Y55612D01*
X907698Y53788D01*
X909188Y52298D01*
X911012Y51245D01*
X913047Y50700D01*
X915153D01*
X917188Y51245D01*
X919012Y52298D01*
X920502Y53788D01*
X921555Y55612D01*
X922100Y57647D01*
Y59753D01*
X921555Y61788D01*
X920502Y63612D01*
X919012Y65102D01*
X918598Y65341D01*
Y97300D01*
X922670D01*
Y112800D01*
D02*
G37*
G36*
X883300D02*
X865800D01*
Y97300D01*
X869962D01*
Y72850D01*
X870311Y71094D01*
X871306Y69606D01*
X880700Y60211D01*
Y50700D01*
X896700D01*
Y66700D01*
X887189D01*
X879138Y74750D01*
Y97300D01*
X883300D01*
Y112800D01*
D02*
G37*
G36*
X166971Y65556D02*
X151414Y50000D01*
X166971Y34444D01*
X167865Y35338D01*
X170382Y39105D01*
X172116Y43291D01*
X173000Y47735D01*
Y52265D01*
X172116Y56709D01*
X170382Y60895D01*
X167865Y64662D01*
X166971Y65556D01*
D02*
G37*
G36*
X133029D02*
X132135Y64662D01*
X129618Y60895D01*
X127884Y56709D01*
X127000Y52265D01*
Y47735D01*
X127884Y43291D01*
X129618Y39105D01*
X132135Y35338D01*
X133029Y34444D01*
X148586Y50000D01*
X133029Y65556D01*
D02*
G37*
G36*
X602761Y49730D02*
X600259D01*
X597843Y49083D01*
X595677Y47832D01*
X593908Y46063D01*
X592657Y43897D01*
X592010Y41481D01*
Y38979D01*
X592657Y36563D01*
X593908Y34397D01*
X595677Y32628D01*
X597843Y31377D01*
X600259Y30730D01*
X602761D01*
X605177Y31377D01*
X607343Y32628D01*
X609112Y34397D01*
X610363Y36563D01*
X611010Y38979D01*
Y41481D01*
X610363Y43897D01*
X609112Y46063D01*
X607343Y47832D01*
X605177Y49083D01*
X602761Y49730D01*
D02*
G37*
G36*
X1852265Y73000D02*
X1847735D01*
X1843291Y72116D01*
X1839105Y70382D01*
X1835338Y67865D01*
X1832135Y64662D01*
X1829618Y60895D01*
X1827884Y56709D01*
X1827000Y52265D01*
Y47735D01*
X1827884Y43291D01*
X1829618Y39105D01*
X1832135Y35338D01*
X1835338Y32135D01*
X1839105Y29618D01*
X1843291Y27884D01*
X1847735Y27000D01*
X1852265D01*
X1856709Y27884D01*
X1860895Y29618D01*
X1864662Y32135D01*
X1867865Y35338D01*
X1870382Y39105D01*
X1872116Y43291D01*
X1873000Y47735D01*
Y52265D01*
X1872116Y56709D01*
X1870382Y60895D01*
X1867865Y64662D01*
X1864662Y67865D01*
X1860895Y70382D01*
X1856709Y72116D01*
X1852265Y73000D01*
D02*
G37*
G36*
X150000Y48586D02*
X134444Y33029D01*
X135338Y32135D01*
X139105Y29618D01*
X143291Y27884D01*
X147735Y27000D01*
X152265D01*
X156709Y27884D01*
X160895Y29618D01*
X164662Y32135D01*
X165556Y33029D01*
X150000Y48586D01*
D02*
G37*
%LPD*%
G36*
X597115Y348565D02*
X596697Y346871D01*
X595677Y346282D01*
X593908Y344513D01*
X592657Y342347D01*
X592010Y339931D01*
Y337429D01*
X592657Y335013D01*
X593908Y332847D01*
X595677Y331078D01*
X596299Y330719D01*
X595959Y329449D01*
X544627D01*
X531000Y343076D01*
Y348731D01*
X597011D01*
X597115Y348565D01*
D02*
G37*
D10*
X538480Y321310D02*
X1782280D01*
X1650840Y192130D02*
X1670840D01*
X690520D02*
X1650840D01*
X1428770Y418920D02*
X1428950Y419100D01*
X1468189Y419099D02*
X1468369Y418919D01*
X1469210Y419760D01*
X1491810D01*
X1448591Y419099D02*
X1468189D01*
X566230Y377000D02*
X1513490D01*
X353900Y446100D02*
X871070D01*
X363970Y450100D02*
X849670D01*
X379095Y501015D02*
X866295D01*
X386307Y590777D02*
X935283D01*
X383540Y595630D02*
X936087D01*
X1041100Y541300D02*
X1086540Y586740D01*
X916500Y442100D02*
X1015700Y541300D01*
X939500Y514530D02*
Y541300D01*
X964900D02*
Y561160D01*
X968900Y562700D02*
X990300Y541300D01*
X1494310Y558800D02*
X1561580D01*
X1359280Y423770D02*
X1494310Y558800D01*
X601510Y423770D02*
X1359280D01*
X1513028Y540660D02*
X1561940D01*
X1506060Y511810D02*
X1519865Y498005D01*
X1506060Y537210D02*
X1509578D01*
X1513028Y540660D01*
X1561580Y558800D02*
X1561940Y559160D01*
X1562850Y541020D02*
X1563210Y540660D01*
X1519865Y429705D02*
Y498005D01*
X914100Y514530D02*
Y541300D01*
X866295Y501015D02*
X888700Y523420D01*
X935283Y590777D02*
X964900Y561160D01*
X936087Y595630D02*
X968900Y562817D01*
X888700Y523420D02*
Y541300D01*
X968900Y562700D02*
Y562817D01*
X1566670Y344170D02*
X1585000Y362500D01*
X1631430D01*
X1631790Y362860D01*
X1782280Y321310D02*
X1823830Y362860D01*
X1825190Y362500D02*
X1875000D01*
X1824830Y362860D02*
X1825190Y362500D01*
X1823830Y362860D02*
X1824830D01*
X1874360Y363220D02*
X1875000Y362580D01*
Y362500D02*
Y362580D01*
X1657730Y532500D02*
X1705000D01*
X1657190Y533040D02*
X1657730Y532500D01*
X1657190Y520700D02*
Y533040D01*
X1880000Y407500D02*
X1925000Y362500D01*
X1755000Y407500D02*
X1880000D01*
X1752500D02*
X1755000D01*
X1666180Y401320D02*
X1705000Y362500D01*
X1573820Y401320D02*
X1666180D01*
X1519865Y429705D02*
X1520310Y429260D01*
X1535000Y362500D02*
X1573820Y401320D01*
X1650840Y192130D02*
X1651210Y192500D01*
X1705000D01*
Y237500D02*
X1707500D01*
X1705000Y362500D02*
X1707500D01*
X1718890Y326390D02*
X1755000Y362500D01*
X1707500D02*
X1752500Y407500D01*
Y192500D02*
X1755000D01*
Y237500D02*
X1802890D01*
X1803240Y237850D01*
X1707500Y237500D02*
X1752500Y192500D01*
X849670Y450100D02*
X914100Y514530D01*
X871070Y446100D02*
X939500Y514530D01*
X1495900Y344170D02*
X1566670D01*
X1488280Y351790D02*
X1495900Y344170D01*
X1086540Y586740D02*
X1700760D01*
X1513490Y377000D02*
X1657190Y520700D01*
X1700760Y586740D02*
X1755000Y532500D01*
X174270Y125450D02*
X210820D01*
X91000Y208720D02*
X174270Y125450D01*
X201240Y200450D02*
X218240Y217450D01*
X201240Y152680D02*
Y200450D01*
X419850Y109500D02*
X420370Y110020D01*
Y121920D01*
X91000Y208720D02*
Y287190D01*
X528040Y319050D02*
X581660Y265430D01*
X520500Y319050D02*
X528040D01*
X581660Y265430D02*
X617220D01*
X520500Y331750D02*
X528040D01*
X538480Y321310D01*
X218240Y217450D02*
X220500D01*
X318250Y530340D02*
X383540Y595630D01*
X330950Y535420D02*
X386307Y590777D01*
X330950Y470500D02*
Y535420D01*
X570470Y429500D02*
X583070Y442100D01*
X432550Y429500D02*
X570470D01*
X530660Y351790D02*
X1488280D01*
X525300Y357150D02*
X530660Y351790D01*
X520500Y357150D02*
X525300D01*
X617220Y265430D02*
X690520Y192130D01*
X520500Y369850D02*
X520780Y369570D01*
X558800D01*
X566230Y377000D01*
X543360Y326390D02*
X1718890D01*
X525300Y344450D02*
X543360Y326390D01*
X520500Y344450D02*
X525300D01*
X583070Y442100D02*
X916500D01*
X356350Y457720D02*
X363970Y450100D01*
X356350Y457720D02*
Y470500D01*
X343650Y456350D02*
X353900Y446100D01*
X343650Y456350D02*
Y470500D01*
X369050Y490970D02*
X379095Y501015D01*
X369050Y470500D02*
Y490970D01*
X318250Y470500D02*
Y530340D01*
X411480Y64770D02*
X432550Y85840D01*
X392430Y64770D02*
X411480D01*
X432550Y85840D02*
Y109500D01*
D13*
X1520310Y429260D02*
D03*
X1491810Y438760D02*
D03*
Y419760D02*
D03*
D14*
X1803240Y237850D02*
D03*
Y219350D02*
D03*
X1561940Y540660D02*
D03*
Y559160D02*
D03*
X1631790Y381360D02*
D03*
Y362860D02*
D03*
X1824830Y381360D02*
D03*
Y362860D02*
D03*
X1657190Y551540D02*
D03*
Y533040D02*
D03*
X1650840Y173630D02*
D03*
Y192130D02*
D03*
X950750Y123550D02*
D03*
Y105050D02*
D03*
X1469390Y437240D02*
D03*
Y418740D02*
D03*
X913920Y123550D02*
D03*
Y105050D02*
D03*
X874550Y123550D02*
D03*
Y105050D02*
D03*
D15*
X1448590Y419100D02*
D03*
X1430090D02*
D03*
X220070Y172720D02*
D03*
X201570D02*
D03*
X154030Y430530D02*
D03*
X135530D02*
D03*
D29*
X1469390Y438760D02*
X1491810D01*
X1467635Y437006D02*
X1469390Y438760D01*
X1015700Y541300D02*
X1041100D01*
X1091810Y489650D02*
Y541210D01*
X1117300Y495240D02*
Y541300D01*
X1143790Y496690D02*
Y540210D01*
X1139320Y490220D02*
Y492220D01*
X1091720Y489560D02*
X1091810Y489650D01*
X1120320Y490220D02*
Y492220D01*
X1117300Y495240D02*
X1120320Y492220D01*
X1139320D02*
X1143790Y496690D01*
X1371210Y487110D02*
Y541210D01*
X1371300Y541300D01*
X1345810Y487110D02*
Y541210D01*
X1345900Y541300D01*
X1320410Y487110D02*
Y541210D01*
X1320500Y541300D01*
X1295010Y487110D02*
Y541210D01*
X1295100Y541300D01*
X1269610Y487110D02*
Y541210D01*
X1269700Y541300D01*
X1244300Y491240D02*
X1267520Y468020D01*
X1244300Y491240D02*
Y541300D01*
X1215520Y546574D02*
Y570230D01*
Y546574D02*
X1218900Y543194D01*
X1193500Y541300D02*
Y565210D01*
X1294920Y487020D02*
X1295010Y487110D01*
X1320320Y487020D02*
X1320410Y487110D01*
X1269520Y487020D02*
X1269610Y487110D01*
X1345720Y468020D02*
X1371120D01*
X1269520D02*
X1294920D01*
X1320320D01*
X1345720D01*
X1371120Y487020D02*
X1371210Y487110D01*
X1345720Y487020D02*
X1345810Y487110D01*
X1267520Y468020D02*
X1269520D01*
X1128509Y565719D02*
X1130480Y567690D01*
X1117300Y541300D02*
Y562790D01*
X1120229Y565719D01*
X1128509D01*
X1142700Y541300D02*
X1143790Y540210D01*
X1218900Y541300D02*
Y543194D01*
X1193500Y565210D02*
X1196520Y568230D01*
Y570230D01*
X1168100Y541300D02*
Y563700D01*
X1149480Y567690D02*
X1164110D01*
X1168100Y563700D01*
X1091810Y541210D02*
X1091900Y541300D01*
X1585000Y237500D02*
X1603150Y255650D01*
Y275590D01*
X1653940Y529790D02*
X1657190Y533040D01*
X1651040Y529790D02*
X1653940D01*
X1627280Y506030D02*
X1651040Y529790D01*
X1704620Y67880D02*
X1705000Y67500D01*
X1645760Y67880D02*
X1704620D01*
X1874360Y195010D02*
X1875000Y195650D01*
Y237500D01*
X1612740Y506030D02*
X1627280D01*
X1803240Y269940D02*
X1806350Y273050D01*
X1803240Y237850D02*
Y269940D01*
X913920Y105050D02*
X914010Y104960D01*
X874550Y72850D02*
Y105050D01*
X914010Y58790D02*
X914100Y58700D01*
X939500D02*
X950750Y69950D01*
X874550Y72850D02*
X888700Y58700D01*
X914010Y58790D02*
Y104960D01*
X950750Y69950D02*
Y105050D01*
X1345900Y58700D02*
X1371300D01*
X1428590Y419100D02*
X1428770Y418920D01*
X1320500Y58700D02*
X1345900D01*
X1469210Y418920D02*
X1469390Y418740D01*
X913920Y123550D02*
X950750D01*
X845970Y151130D02*
X873550Y123550D01*
X874550D01*
X913920D01*
X154030Y430530D02*
X228720D01*
X135530D02*
X136800Y429260D01*
Y362990D02*
Y429260D01*
X220070Y172720D02*
X220320Y172470D01*
Y153950D02*
Y172470D01*
X250000Y420180D02*
X259179Y429359D01*
X250000Y409250D02*
Y420180D01*
X259179Y429359D02*
X267309D01*
X267450Y429500D01*
X228720Y430530D02*
X250000Y409250D01*
X267450Y426672D02*
Y429500D01*
X266036Y425257D02*
X267450Y426672D01*
Y429500D02*
X280150D01*
X91000Y317190D02*
X136800Y362990D01*
X280150Y429500D02*
X292850D01*
X159740Y217450D02*
X179500D01*
X148590Y228600D02*
X159740Y217450D01*
X147320Y248920D02*
X166090Y230150D01*
X147320Y248920D02*
Y389890D01*
X166090Y230150D02*
X179500D01*
X601510Y125320D02*
X627320Y151130D01*
X845970D01*
D31*
X700000Y550000D02*
D03*
Y100000D02*
D03*
X50000Y550000D02*
D03*
Y100000D02*
D03*
D32*
X91440Y381000D02*
D03*
Y351000D02*
D03*
Y321000D02*
D03*
D33*
Y291000D02*
D03*
D34*
X46440Y313400D02*
D03*
Y359500D02*
D03*
D35*
X1371300Y541300D02*
D03*
X1345900D02*
D03*
X1320500D02*
D03*
X1295100D02*
D03*
X1269700D02*
D03*
X1244300D02*
D03*
X1218900D02*
D03*
X1193500D02*
D03*
X1168100D02*
D03*
X1142700D02*
D03*
X1117300D02*
D03*
X1091900D02*
D03*
X1066500D02*
D03*
X1041100D02*
D03*
X1015700D02*
D03*
X990300D02*
D03*
X964900D02*
D03*
X939500D02*
D03*
X914100D02*
D03*
X888700D02*
D03*
X1371300Y58700D02*
D03*
X1345900D02*
D03*
X1320500D02*
D03*
X939500D02*
D03*
X914100D02*
D03*
D36*
X888700D02*
D03*
D37*
X1506060Y537210D02*
D03*
Y511810D02*
D03*
X601510Y125320D02*
D03*
Y99920D02*
D03*
Y65630D02*
D03*
Y40230D02*
D03*
Y185010D02*
D03*
Y159610D02*
D03*
Y244700D02*
D03*
Y219300D02*
D03*
Y304390D02*
D03*
Y278990D02*
D03*
Y364080D02*
D03*
Y338680D02*
D03*
Y423770D02*
D03*
Y398370D02*
D03*
Y538070D02*
D03*
Y512670D02*
D03*
Y486000D02*
D03*
Y460600D02*
D03*
X300000Y207300D02*
D03*
Y232700D02*
D03*
Y287300D02*
D03*
Y312700D02*
D03*
Y367300D02*
D03*
Y392700D02*
D03*
D38*
X1925000Y362500D02*
D03*
Y237500D02*
D03*
X1875000Y362500D02*
D03*
Y237500D02*
D03*
X1535000D02*
D03*
Y362500D02*
D03*
X1585000Y237500D02*
D03*
Y362500D02*
D03*
X1705000Y237500D02*
D03*
Y362500D02*
D03*
X1755000Y237500D02*
D03*
Y362500D02*
D03*
Y192500D02*
D03*
Y67500D02*
D03*
X1705000Y192500D02*
D03*
Y67500D02*
D03*
X1755000Y532500D02*
D03*
Y407500D02*
D03*
X1705000Y532500D02*
D03*
Y407500D02*
D03*
D39*
X1430090Y419100D02*
D03*
X700000Y577500D02*
D03*
X720000Y570000D02*
D03*
X727500Y550000D02*
D03*
X720000Y530000D02*
D03*
X700000Y522500D02*
D03*
X680000Y530000D02*
D03*
X672500Y550000D02*
D03*
X680000Y570000D02*
D03*
Y120000D02*
D03*
X672500Y100000D02*
D03*
X680000Y80000D02*
D03*
X700000Y72500D02*
D03*
X720000Y80000D02*
D03*
X727500Y100000D02*
D03*
X720000Y120000D02*
D03*
X700000Y127500D02*
D03*
X148590Y228600D02*
D03*
X147320Y389890D02*
D03*
X50000Y577500D02*
D03*
X70000Y570000D02*
D03*
X77500Y550000D02*
D03*
X70000Y530000D02*
D03*
X50000Y522500D02*
D03*
X30000Y530000D02*
D03*
X22500Y550000D02*
D03*
X30000Y570000D02*
D03*
X250000Y409250D02*
D03*
X420370Y121920D02*
D03*
X407150Y109500D02*
D03*
X392430Y64770D02*
D03*
X394450Y109500D02*
D03*
X381750D02*
D03*
X369050D02*
D03*
X356350D02*
D03*
X343650D02*
D03*
X330950D02*
D03*
X50000Y127500D02*
D03*
X70000Y120000D02*
D03*
X77500Y100000D02*
D03*
X70000Y80000D02*
D03*
X50000Y72500D02*
D03*
X30000Y80000D02*
D03*
X22500Y100000D02*
D03*
X30000Y120000D02*
D03*
D40*
X1874360Y195010D02*
D03*
Y155510D02*
D03*
X1645760Y107380D02*
D03*
Y67880D02*
D03*
X1612740Y545530D02*
D03*
Y506030D02*
D03*
D41*
X330950Y470500D02*
D03*
X343650D02*
D03*
X330950Y429500D02*
D03*
X343650D02*
D03*
X356350Y470500D02*
D03*
Y429500D02*
D03*
X394450Y470500D02*
D03*
Y429500D02*
D03*
X432550Y470500D02*
D03*
Y429500D02*
D03*
X419850D02*
D03*
X407150D02*
D03*
X419850Y470500D02*
D03*
X407150D02*
D03*
X381750Y429500D02*
D03*
X369050D02*
D03*
X381750Y470500D02*
D03*
X369050D02*
D03*
X318250Y429500D02*
D03*
X305550D02*
D03*
X292850D02*
D03*
X280150D02*
D03*
X267450D02*
D03*
X318250Y470500D02*
D03*
X305550D02*
D03*
X292850D02*
D03*
X280150D02*
D03*
X267450D02*
D03*
X330950Y150500D02*
D03*
X343650D02*
D03*
X330950Y109500D02*
D03*
X343650D02*
D03*
X356350Y150500D02*
D03*
Y109500D02*
D03*
X394450Y150500D02*
D03*
Y109500D02*
D03*
X432550Y150500D02*
D03*
Y109500D02*
D03*
X419850D02*
D03*
X407150D02*
D03*
X419850Y150500D02*
D03*
X407150D02*
D03*
X381750Y109500D02*
D03*
X369050D02*
D03*
X381750Y150500D02*
D03*
X369050D02*
D03*
X318250Y109500D02*
D03*
X305550D02*
D03*
X292850D02*
D03*
X280150D02*
D03*
X267450D02*
D03*
X318250Y150500D02*
D03*
X305550D02*
D03*
X292850D02*
D03*
X280150D02*
D03*
X267450D02*
D03*
D42*
X520500Y319050D02*
D03*
Y306350D02*
D03*
X479500Y319050D02*
D03*
Y306350D02*
D03*
X520500Y293650D02*
D03*
X479500D02*
D03*
X520500Y255550D02*
D03*
X479500D02*
D03*
X520500Y217450D02*
D03*
X479500D02*
D03*
Y230150D02*
D03*
Y242850D02*
D03*
X520500Y230150D02*
D03*
Y242850D02*
D03*
X479500Y268250D02*
D03*
Y280950D02*
D03*
X520500Y268250D02*
D03*
Y280950D02*
D03*
X479500Y331750D02*
D03*
Y344450D02*
D03*
Y357150D02*
D03*
Y369850D02*
D03*
Y382550D02*
D03*
X520500Y331750D02*
D03*
Y344450D02*
D03*
Y357150D02*
D03*
Y369850D02*
D03*
Y382550D02*
D03*
X220500D02*
D03*
Y369850D02*
D03*
Y357150D02*
D03*
Y344450D02*
D03*
Y331750D02*
D03*
X179500Y382550D02*
D03*
Y369850D02*
D03*
Y357150D02*
D03*
Y344450D02*
D03*
Y331750D02*
D03*
X220500Y280950D02*
D03*
Y268250D02*
D03*
X179500Y280950D02*
D03*
Y268250D02*
D03*
X220500Y242850D02*
D03*
Y230150D02*
D03*
X179500Y242850D02*
D03*
Y230150D02*
D03*
Y217450D02*
D03*
X220500D02*
D03*
X179500Y255550D02*
D03*
X220500D02*
D03*
X179500Y293650D02*
D03*
X220500D02*
D03*
X179500Y306350D02*
D03*
Y319050D02*
D03*
X220500Y306350D02*
D03*
Y319050D02*
D03*
D43*
X201320Y153950D02*
D03*
X220320D02*
D03*
X210820Y125450D02*
D03*
D44*
X1139320Y490220D02*
D03*
X1120320D02*
D03*
X1196520Y570230D02*
D03*
X1215520D02*
D03*
X1149480Y567690D02*
D03*
X1130480D02*
D03*
D45*
X1091720Y470560D02*
D03*
Y489560D02*
D03*
X1320320Y468020D02*
D03*
Y487020D02*
D03*
X1345720Y468020D02*
D03*
Y487020D02*
D03*
X1371120Y468020D02*
D03*
Y487020D02*
D03*
X1269520Y468020D02*
D03*
Y487020D02*
D03*
X1294920Y468020D02*
D03*
Y487020D02*
D03*
D46*
X1642650Y273050D02*
D03*
X1603150D02*
D03*
X1845850D02*
D03*
X1806350D02*
D03*
M02*
