G04*
G04 #@! TF.GenerationSoftware,Altium Limited,Altium Designer,23.9.2 (47)*
G04*
G04 Layer_Color=128*
%FSLAX44Y44*%
%MOMM*%
G71*
G04*
G04 #@! TF.SameCoordinates,693C47A8-3C61-47C9-A59D-3DA452520F73*
G04*
G04*
G04 #@! TF.FilePolarity,Positive*
G04*
G01*
G75*
G04:AMPARAMS|DCode=13|XSize=0.65mm|YSize=1.25mm|CornerRadius=0.1625mm|HoleSize=0mm|Usage=FLASHONLY|Rotation=90.000|XOffset=0mm|YOffset=0mm|HoleType=Round|Shape=RoundedRectangle|*
%AMROUNDEDRECTD13*
21,1,0.6500,0.9250,0,0,90.0*
21,1,0.3250,1.2500,0,0,90.0*
1,1,0.3250,0.4625,0.1625*
1,1,0.3250,0.4625,-0.1625*
1,1,0.3250,-0.4625,-0.1625*
1,1,0.3250,-0.4625,0.1625*
%
%ADD13ROUNDEDRECTD13*%
%ADD14R,1.3500X1.1500*%
%ADD15R,1.1500X1.3500*%
G04:AMPARAMS|DCode=40|XSize=1.7mm|YSize=2.5mm|CornerRadius=0.425mm|HoleSize=0mm|Usage=FLASHONLY|Rotation=180.000|XOffset=0mm|YOffset=0mm|HoleType=Round|Shape=RoundedRectangle|*
%AMROUNDEDRECTD40*
21,1,1.7000,1.6500,0,0,180.0*
21,1,0.8500,2.5000,0,0,180.0*
1,1,0.8500,-0.4250,0.8250*
1,1,0.8500,0.4250,0.8250*
1,1,0.8500,0.4250,-0.8250*
1,1,0.8500,-0.4250,-0.8250*
%
%ADD40ROUNDEDRECTD40*%
%ADD41R,0.7400X1.7000*%
%ADD42R,1.7000X0.7400*%
G04:AMPARAMS|DCode=43|XSize=0.65mm|YSize=1.25mm|CornerRadius=0.1625mm|HoleSize=0mm|Usage=FLASHONLY|Rotation=180.000|XOffset=0mm|YOffset=0mm|HoleType=Round|Shape=RoundedRectangle|*
%AMROUNDEDRECTD43*
21,1,0.6500,0.9250,0,0,180.0*
21,1,0.3250,1.2500,0,0,180.0*
1,1,0.3250,-0.1625,0.4625*
1,1,0.3250,0.1625,0.4625*
1,1,0.3250,0.1625,-0.4625*
1,1,0.3250,-0.1625,-0.4625*
%
%ADD43ROUNDEDRECTD43*%
%ADD44R,0.9000X1.3000*%
%ADD45R,1.3000X0.9000*%
G04:AMPARAMS|DCode=46|XSize=1.7mm|YSize=2.5mm|CornerRadius=0.425mm|HoleSize=0mm|Usage=FLASHONLY|Rotation=270.000|XOffset=0mm|YOffset=0mm|HoleType=Round|Shape=RoundedRectangle|*
%AMROUNDEDRECTD46*
21,1,1.7000,1.6500,0,0,270.0*
21,1,0.8500,2.5000,0,0,270.0*
1,1,0.8500,-0.8250,-0.4250*
1,1,0.8500,-0.8250,0.4250*
1,1,0.8500,0.8250,0.4250*
1,1,0.8500,0.8250,-0.4250*
%
%ADD46ROUNDEDRECTD46*%
D13*
X1520310Y429260D02*
D03*
X1491810Y438760D02*
D03*
Y419760D02*
D03*
D14*
X1803240Y237850D02*
D03*
Y219350D02*
D03*
X1561940Y540660D02*
D03*
Y559160D02*
D03*
X1631790Y381360D02*
D03*
Y362860D02*
D03*
X1824830Y381360D02*
D03*
Y362860D02*
D03*
X1657190Y551540D02*
D03*
Y533040D02*
D03*
X1650840Y173630D02*
D03*
Y192130D02*
D03*
X950750Y123550D02*
D03*
Y105050D02*
D03*
X1469390Y437240D02*
D03*
Y418740D02*
D03*
X913920Y123550D02*
D03*
Y105050D02*
D03*
X874550Y123550D02*
D03*
Y105050D02*
D03*
D15*
X1448590Y419100D02*
D03*
X1430090D02*
D03*
X220070Y172720D02*
D03*
X201570D02*
D03*
X154030Y430530D02*
D03*
X135530D02*
D03*
D40*
X1874360Y195010D02*
D03*
Y155510D02*
D03*
X1645760Y107380D02*
D03*
Y67880D02*
D03*
X1612740Y545530D02*
D03*
Y506030D02*
D03*
D41*
X330950Y470500D02*
D03*
X343650D02*
D03*
X330950Y429500D02*
D03*
X343650D02*
D03*
X356350Y470500D02*
D03*
Y429500D02*
D03*
X394450Y470500D02*
D03*
Y429500D02*
D03*
X432550Y470500D02*
D03*
Y429500D02*
D03*
X419850D02*
D03*
X407150D02*
D03*
X419850Y470500D02*
D03*
X407150D02*
D03*
X381750Y429500D02*
D03*
X369050D02*
D03*
X381750Y470500D02*
D03*
X369050D02*
D03*
X318250Y429500D02*
D03*
X305550D02*
D03*
X292850D02*
D03*
X280150D02*
D03*
X267450D02*
D03*
X318250Y470500D02*
D03*
X305550D02*
D03*
X292850D02*
D03*
X280150D02*
D03*
X267450D02*
D03*
X330950Y150500D02*
D03*
X343650D02*
D03*
X330950Y109500D02*
D03*
X343650D02*
D03*
X356350Y150500D02*
D03*
Y109500D02*
D03*
X394450Y150500D02*
D03*
Y109500D02*
D03*
X432550Y150500D02*
D03*
Y109500D02*
D03*
X419850D02*
D03*
X407150D02*
D03*
X419850Y150500D02*
D03*
X407150D02*
D03*
X381750Y109500D02*
D03*
X369050D02*
D03*
X381750Y150500D02*
D03*
X369050D02*
D03*
X318250Y109500D02*
D03*
X305550D02*
D03*
X292850D02*
D03*
X280150D02*
D03*
X267450D02*
D03*
X318250Y150500D02*
D03*
X305550D02*
D03*
X292850D02*
D03*
X280150D02*
D03*
X267450D02*
D03*
D42*
X520500Y319050D02*
D03*
Y306350D02*
D03*
X479500Y319050D02*
D03*
Y306350D02*
D03*
X520500Y293650D02*
D03*
X479500D02*
D03*
X520500Y255550D02*
D03*
X479500D02*
D03*
X520500Y217450D02*
D03*
X479500D02*
D03*
Y230150D02*
D03*
Y242850D02*
D03*
X520500Y230150D02*
D03*
Y242850D02*
D03*
X479500Y268250D02*
D03*
Y280950D02*
D03*
X520500Y268250D02*
D03*
Y280950D02*
D03*
X479500Y331750D02*
D03*
Y344450D02*
D03*
Y357150D02*
D03*
Y369850D02*
D03*
Y382550D02*
D03*
X520500Y331750D02*
D03*
Y344450D02*
D03*
Y357150D02*
D03*
Y369850D02*
D03*
Y382550D02*
D03*
X220500D02*
D03*
Y369850D02*
D03*
Y357150D02*
D03*
Y344450D02*
D03*
Y331750D02*
D03*
X179500Y382550D02*
D03*
Y369850D02*
D03*
Y357150D02*
D03*
Y344450D02*
D03*
Y331750D02*
D03*
X220500Y280950D02*
D03*
Y268250D02*
D03*
X179500Y280950D02*
D03*
Y268250D02*
D03*
X220500Y242850D02*
D03*
Y230150D02*
D03*
X179500Y242850D02*
D03*
Y230150D02*
D03*
Y217450D02*
D03*
X220500D02*
D03*
X179500Y255550D02*
D03*
X220500D02*
D03*
X179500Y293650D02*
D03*
X220500D02*
D03*
X179500Y306350D02*
D03*
Y319050D02*
D03*
X220500Y306350D02*
D03*
Y319050D02*
D03*
D43*
X201320Y153950D02*
D03*
X220320D02*
D03*
X210820Y125450D02*
D03*
D44*
X1139320Y490220D02*
D03*
X1120320D02*
D03*
X1196520Y570230D02*
D03*
X1215520D02*
D03*
X1149480Y567690D02*
D03*
X1130480D02*
D03*
D45*
X1091720Y470560D02*
D03*
Y489560D02*
D03*
X1320320Y468020D02*
D03*
Y487020D02*
D03*
X1345720Y468020D02*
D03*
Y487020D02*
D03*
X1371120Y468020D02*
D03*
Y487020D02*
D03*
X1269520Y468020D02*
D03*
Y487020D02*
D03*
X1294920Y468020D02*
D03*
Y487020D02*
D03*
D46*
X1642650Y273050D02*
D03*
X1603150D02*
D03*
X1845850D02*
D03*
X1806350D02*
D03*
M02*
