G04*
G04 #@! TF.GenerationSoftware,Altium Limited,Altium Designer,19.1.7 (138)*
G04*
G04 Layer_Color=2752767*
%FSLAX44Y44*%
%MOMM*%
G71*
G01*
G75*
%ADD12C,0.0500*%
%ADD94C,0.0508*%
%ADD95C,0.0677*%
D12*
X738400Y790000D02*
Y821000D01*
X1258150D01*
Y790000D01*
X738400D01*
D94*
X316968Y314000D02*
X319000Y316032D01*
X321032Y314000D01*
X319000Y311968D01*
X316968Y314000D01*
X389871Y355984D02*
X393935D01*
X391903Y351920D01*
X389871Y355984D01*
X436871D02*
X440935D01*
X438903Y351920D01*
X436871Y355984D01*
X470567Y343782D02*
X474631D01*
Y339718D01*
X470567D01*
Y343782D01*
X471583Y342766D02*
X473615D01*
Y340734D01*
X471583D01*
Y342766D01*
X487567Y365718D02*
Y369782D01*
X491631D01*
Y365718D01*
X487567D01*
X488583Y366734D02*
Y368766D01*
X490615D01*
Y366734D01*
X488583D01*
X513968Y344032D02*
X518032D01*
Y339968D01*
X513968D01*
Y344032D01*
X514984Y343016D02*
X517016D01*
Y340984D01*
X514984D01*
Y343016D01*
X522968Y315489D02*
X527032D01*
Y311425D01*
X522968D01*
Y315489D01*
X523984Y314473D02*
X526016D01*
Y312441D01*
X523984D01*
Y314473D01*
X546968Y286989D02*
X551032D01*
Y282925D01*
X546968D01*
Y286989D01*
X547984Y285973D02*
X550016D01*
Y283941D01*
X547984D01*
Y285973D01*
X578067Y276718D02*
Y280782D01*
X582131D01*
Y276718D01*
X578067D01*
X579083Y277734D02*
Y279766D01*
X581115D01*
Y277734D01*
X579083D01*
X607468Y277116D02*
X608484Y276100D01*
X607468Y275084D01*
X608484D01*
X609500Y274068D01*
X610516Y275084D01*
X611532D01*
X610516Y276100D01*
X611532Y277116D01*
X610516D01*
X609500Y278132D01*
X608484Y277116D01*
X607468D01*
X632468D02*
X633484Y276100D01*
X632468Y275084D01*
X633484D01*
X634500Y274068D01*
X635516Y275084D01*
X636532D01*
X635516Y276100D01*
X636532Y277116D01*
X635516D01*
X634500Y278132D01*
X633484Y277116D01*
X632468D01*
X582631Y297718D02*
X578567D01*
Y301782D01*
X582631D01*
Y297718D01*
X581615Y298734D02*
X579583D01*
Y300766D01*
X581615D01*
Y298734D01*
X551032Y320925D02*
X546968D01*
Y324989D01*
X551032D01*
Y320925D01*
X550016Y321941D02*
X547984D01*
Y323973D01*
X550016D01*
Y321941D01*
X551032Y356925D02*
X546968D01*
Y360989D01*
X551032D01*
Y356925D01*
X550016Y357941D02*
X547984D01*
Y359973D01*
X550016D01*
Y357941D01*
X607468Y349932D02*
X609500Y348916D01*
X611532Y349932D01*
X610516Y347900D01*
X611532Y345868D01*
X609500Y346884D01*
X607468Y345868D01*
X608484Y347900D01*
X607468Y349932D01*
X632468D02*
X634500Y348916D01*
X636532Y349932D01*
X635516Y347900D01*
X636532Y345868D01*
X634500Y346884D01*
X632468Y345868D01*
X633484Y347900D01*
X632468Y349932D01*
X736968Y397968D02*
Y402032D01*
X741032D01*
Y397968D01*
X736968D01*
X737984Y398984D02*
Y401016D01*
X740016D01*
Y398984D01*
X737984D01*
X750174Y411535D02*
Y415599D01*
X754238D01*
Y411535D01*
X750174D01*
X751190Y412551D02*
Y414583D01*
X753222D01*
Y412551D01*
X751190D01*
X796968Y459468D02*
Y463532D01*
X801032D01*
Y459468D01*
X796968D01*
X797984Y460484D02*
Y462516D01*
X800016D01*
Y460484D01*
X797984D01*
X867984Y445016D02*
X870016D01*
Y442984D01*
X867984D01*
Y445016D01*
X866968Y441968D02*
Y446032D01*
X871032D01*
Y441968D01*
X866968D01*
X876968Y426032D02*
X881032D01*
Y421968D01*
X876968D01*
Y426032D01*
X877984Y425016D02*
X880016D01*
Y422984D01*
X877984D01*
Y425016D01*
X906266Y417894D02*
Y421958D01*
X910330D01*
Y417894D01*
X906266D01*
X920101Y420984D02*
Y423016D01*
X922133D01*
Y420984D01*
X920101D01*
X923149Y419968D02*
X919085D01*
Y424032D01*
X923149D01*
Y419968D01*
X921032Y431968D02*
X916968D01*
Y436032D01*
X921032D01*
Y431968D01*
X920016Y432984D02*
X917984D01*
Y435016D01*
X920016D01*
Y432984D01*
X909314Y420942D02*
Y418910D01*
X907282D01*
Y420942D01*
X909314D01*
X896684Y419309D02*
X892620D01*
Y423373D01*
X896684D01*
Y419309D01*
X895668Y420325D02*
X893636D01*
Y422357D01*
X895668D01*
Y420325D01*
X808432Y324432D02*
Y320368D01*
X804368D01*
Y324432D01*
X808432D01*
X783032D02*
Y320368D01*
X778968D01*
Y324432D01*
X783032D01*
X757632D02*
Y320368D01*
X753568D01*
Y324432D01*
X757632D01*
X917168Y277968D02*
X918184D01*
X919200Y278984D01*
X920216Y277968D01*
X921232D01*
Y278984D01*
X920216Y280000D01*
X921232Y281016D01*
Y282032D01*
X920216D01*
X919200Y281016D01*
X918184Y282032D01*
X917168D01*
Y281016D01*
X918184Y280000D01*
X917168Y278984D01*
Y277968D01*
X967968D02*
X968984D01*
X970000Y278984D01*
X971016Y277968D01*
X972032D01*
Y278984D01*
X971016Y280000D01*
X972032Y281016D01*
Y282032D01*
X971016D01*
X970000Y281016D01*
X968984Y282032D01*
X967968D01*
Y281016D01*
X968984Y280000D01*
X967968Y278984D01*
Y277968D01*
X1185368Y320368D02*
Y324432D01*
X1189432D01*
Y320368D01*
X1185368D01*
X1210768D02*
Y324432D01*
X1214832D01*
Y320368D01*
X1210768D01*
X1236168D02*
Y324432D01*
X1240232D01*
Y320368D01*
X1236168D01*
X1311968Y344468D02*
Y348532D01*
X1316032D01*
Y344468D01*
X1311968D01*
X1312984Y345484D02*
Y347516D01*
X1315016D01*
Y345484D01*
X1312984D01*
X1355968Y314000D02*
X1358000Y316032D01*
X1360032Y314000D01*
X1358000Y311968D01*
X1355968Y314000D01*
X1356768Y448968D02*
X1357784Y451000D01*
X1356768Y453032D01*
X1358800Y452016D01*
X1360832Y453032D01*
X1359816Y451000D01*
X1360832Y448968D01*
X1358800Y449984D01*
X1356768Y448968D01*
Y523968D02*
X1357784Y526000D01*
X1356768Y528032D01*
X1358800Y527016D01*
X1360832Y528032D01*
X1359816Y526000D01*
X1360832Y523968D01*
X1358800Y524984D01*
X1356768Y523968D01*
X1281830Y542777D02*
X1277766D01*
Y546841D01*
X1281830D01*
Y542777D01*
X1284968Y527016D02*
X1285984Y526000D01*
X1284968Y524984D01*
X1285984D01*
X1287000Y523968D01*
X1288016Y524984D01*
X1289032D01*
X1288016Y526000D01*
X1289032Y527016D01*
X1288016D01*
X1287000Y528032D01*
X1285984Y527016D01*
X1284968D01*
Y502016D02*
X1285984Y501000D01*
X1284968Y499984D01*
X1285984D01*
X1287000Y498968D01*
X1288016Y499984D01*
X1289032D01*
X1288016Y501000D01*
X1289032Y502016D01*
X1288016D01*
X1287000Y503032D01*
X1285984Y502016D01*
X1284968D01*
Y477016D02*
X1285984Y476000D01*
X1284968Y474984D01*
X1285984D01*
X1287000Y473968D01*
X1288016Y474984D01*
X1289032D01*
X1288016Y476000D01*
X1289032Y477016D01*
X1288016D01*
X1287000Y478032D01*
X1285984Y477016D01*
X1284968D01*
Y452016D02*
X1285984Y451000D01*
X1284968Y449984D01*
X1285984D01*
X1287000Y448968D01*
X1288016Y449984D01*
X1289032D01*
X1288016Y451000D01*
X1289032Y452016D01*
X1288016D01*
X1287000Y453032D01*
X1285984Y452016D01*
X1284968D01*
X1264032Y474984D02*
X1263016Y476000D01*
X1264032Y477016D01*
X1263016D01*
X1262000Y478032D01*
X1260984Y477016D01*
X1259968D01*
X1260984Y476000D01*
X1259968Y474984D01*
X1260984D01*
X1262000Y473968D01*
X1263016Y474984D01*
X1264032D01*
Y499984D02*
X1263016Y501000D01*
X1264032Y502016D01*
X1263016D01*
X1262000Y503032D01*
X1260984Y502016D01*
X1259968D01*
X1260984Y501000D01*
X1259968Y499984D01*
X1260984D01*
X1262000Y498968D01*
X1263016Y499984D01*
X1264032D01*
Y452016D02*
X1263016D01*
X1262000Y453032D01*
X1260984Y452016D01*
X1259968D01*
X1260984Y451000D01*
X1259968Y449984D01*
X1260984D01*
X1262000Y448968D01*
X1263016Y449984D01*
X1264032D01*
X1263016Y451000D01*
X1264032Y452016D01*
Y524984D02*
X1263016Y526000D01*
X1264032Y527016D01*
X1263016D01*
X1262000Y528032D01*
X1260984Y527016D01*
X1259968D01*
X1260984Y526000D01*
X1259968Y524984D01*
X1260984D01*
X1262000Y523968D01*
X1263016Y524984D01*
X1264032D01*
X1278782Y543793D02*
Y545825D01*
X1280814D01*
Y543793D01*
X1278782D01*
X1221032Y531032D02*
Y526968D01*
X1216968D01*
Y531032D01*
X1221032D01*
X1220016Y530016D02*
Y527984D01*
X1217984D01*
Y530016D01*
X1220016D01*
X1208532Y503532D02*
Y499468D01*
X1204468D01*
Y503532D01*
X1208532D01*
X1207516Y502516D02*
Y500484D01*
X1205484D01*
Y502516D01*
X1207516D01*
X1211968Y495032D02*
X1216032D01*
Y490968D01*
X1211968D01*
Y495032D01*
X1212984Y494016D02*
X1215016D01*
Y491984D01*
X1212984D01*
Y494016D01*
X1196032Y510968D02*
X1191968D01*
Y515032D01*
X1196032D01*
Y510968D01*
X1195016Y511984D02*
X1192984D01*
Y514016D01*
X1195016D01*
Y511984D01*
X1196032Y526968D02*
X1191968D01*
Y531032D01*
X1196032D01*
Y526968D01*
X1195016Y527984D02*
X1192984D01*
Y530016D01*
X1195016D01*
Y527984D01*
X1183032Y486032D02*
Y481968D01*
X1178968D01*
Y486032D01*
X1183032D01*
X1182016Y485016D02*
Y482984D01*
X1179984D01*
Y485016D01*
X1182016D01*
X1169532Y478532D02*
Y474468D01*
X1165468D01*
Y478532D01*
X1169532D01*
X1168516Y477516D02*
Y475484D01*
X1166484D01*
Y477516D01*
X1168516D01*
X1128032Y511968D02*
X1123968D01*
Y516032D01*
X1128032D01*
Y511968D01*
X1127016Y512984D02*
X1124984D01*
Y515016D01*
X1127016D01*
Y512984D01*
X1136968Y525968D02*
Y530032D01*
X1141032D01*
Y525968D01*
X1136968D01*
X1137984Y526984D02*
Y529016D01*
X1140016D01*
Y526984D01*
X1137984D01*
X1114032Y521032D02*
Y516968D01*
X1109968D01*
Y521032D01*
X1114032D01*
X1113016Y520016D02*
Y517984D01*
X1110984D01*
Y520016D01*
X1113016D01*
X1038032Y513032D02*
Y508968D01*
X1033968D01*
Y513032D01*
X1038032D01*
X1037016Y512016D02*
Y509984D01*
X1034984D01*
Y512016D01*
X1037016D01*
X981032Y602968D02*
X976968D01*
Y607032D01*
X981032D01*
Y602968D01*
X980016Y603984D02*
X977984D01*
Y606016D01*
X980016D01*
Y603984D01*
X954032Y554032D02*
Y549968D01*
X949968D01*
Y554032D01*
X954032D01*
X953016Y553016D02*
Y550984D01*
X950984D01*
Y553016D01*
X953016D01*
X926032Y578968D02*
X921968D01*
Y583032D01*
X926032D01*
Y578968D01*
X925016Y579984D02*
X922984D01*
Y582016D01*
X925016D01*
Y579984D01*
X926032Y589968D02*
X921968D01*
Y594032D01*
X926032D01*
Y589968D01*
X925016Y590984D02*
X922984D01*
Y593016D01*
X925016D01*
Y590984D01*
X976032Y656968D02*
X971968D01*
Y661032D01*
X976032D01*
Y656968D01*
X975016Y657984D02*
X972984D01*
Y660016D01*
X975016D01*
Y657984D01*
X946032Y656968D02*
X941968D01*
Y661032D01*
X946032D01*
Y656968D01*
X945016Y657984D02*
X942984D01*
Y660016D01*
X945016D01*
Y657984D01*
X908532Y656968D02*
X904468D01*
Y661032D01*
X908532D01*
Y656968D01*
X907516Y657984D02*
X905484D01*
Y660016D01*
X907516D01*
Y657984D01*
X881792Y640542D02*
Y636478D01*
X877728D01*
Y640542D01*
X881792D01*
X880776Y639526D02*
Y637494D01*
X878744D01*
Y639526D01*
X880776D01*
X881657Y606657D02*
Y602593D01*
X877593D01*
Y606657D01*
X881657D01*
X880641Y605641D02*
Y603609D01*
X878609D01*
Y605641D01*
X880641D01*
X871032Y606032D02*
Y601968D01*
X866968D01*
Y606032D01*
X871032D01*
X870016Y605016D02*
Y602984D01*
X867984D01*
Y605016D01*
X870016D01*
X857032Y605032D02*
Y600968D01*
X852968D01*
Y605032D01*
X857032D01*
X856016Y604016D02*
Y601984D01*
X853984D01*
Y604016D01*
X856016D01*
X846032Y606032D02*
Y601968D01*
X841968D01*
Y606032D01*
X846032D01*
X845016Y605016D02*
Y602984D01*
X842984D01*
Y605016D01*
X845016D01*
X819032Y629968D02*
X814968D01*
Y634032D01*
X819032D01*
Y629968D01*
X818016Y630984D02*
X815984D01*
Y633016D01*
X818016D01*
Y630984D01*
X829468Y606032D02*
X833532D01*
Y601968D01*
X829468D01*
Y606032D01*
X830484Y605016D02*
X832516D01*
Y602984D01*
X830484D01*
Y605016D01*
X801032Y644468D02*
X796968D01*
Y648532D01*
X801032D01*
Y644468D01*
X800016Y645484D02*
X797984D01*
Y647516D01*
X800016D01*
Y645484D01*
X808532Y716968D02*
X804468D01*
Y721032D01*
X808532D01*
Y716968D01*
X807516Y717984D02*
X805484D01*
Y720016D01*
X807516D01*
Y717984D01*
X808532Y771968D02*
X804468D01*
Y776032D01*
X808532D01*
Y771968D01*
X855168Y802968D02*
Y807032D01*
X859232D01*
Y802968D01*
X855168D01*
X880568D02*
Y807032D01*
X884632D01*
Y802968D01*
X880568D01*
X905968D02*
Y807032D01*
X910032D01*
Y802968D01*
X905968D01*
X931368D02*
Y807032D01*
X935432D01*
Y802968D01*
X931368D01*
X956768D02*
Y807032D01*
X960832D01*
Y802968D01*
X956768D01*
X982168D02*
Y807032D01*
X986232D01*
Y802968D01*
X982168D01*
X1007568D02*
Y807032D01*
X1011632D01*
Y802968D01*
X1007568D01*
X1032968D02*
Y807032D01*
X1037032D01*
Y802968D01*
X1032968D01*
X1058368D02*
Y807032D01*
X1062432D01*
Y802968D01*
X1058368D01*
X1083768D02*
Y807032D01*
X1087832D01*
Y802968D01*
X1083768D01*
X1109168D02*
Y807032D01*
X1113232D01*
Y802968D01*
X1109168D01*
X1134568D02*
Y807032D01*
X1138632D01*
Y802968D01*
X1134568D01*
X1159968D02*
Y807032D01*
X1164032D01*
Y802968D01*
X1159968D01*
X1185368D02*
Y807032D01*
X1189432D01*
Y802968D01*
X1185368D01*
X1210768D02*
Y807032D01*
X1214832D01*
Y802968D01*
X1210768D01*
X1236168D02*
Y807032D01*
X1240232D01*
Y802968D01*
X1236168D01*
X1178532Y836968D02*
X1174468D01*
Y841032D01*
X1178532D01*
Y836968D01*
X1177516Y837984D02*
X1175484D01*
Y840016D01*
X1177516D01*
Y837984D01*
X1108532Y831032D02*
Y826968D01*
X1104468D01*
Y831032D01*
X1108532D01*
X1107516Y830016D02*
Y827984D01*
X1105484D01*
Y830016D01*
X1107516D01*
X1086032Y836968D02*
X1081968D01*
Y841032D01*
X1086032D01*
Y836968D01*
X1085016Y837984D02*
X1082984D01*
Y840016D01*
X1085016D01*
Y837984D01*
X1075532Y831532D02*
Y827468D01*
X1071468D01*
Y831532D01*
X1075532D01*
X1074516Y830516D02*
Y828484D01*
X1072484D01*
Y830516D01*
X1074516D01*
X1069282Y869218D02*
X1065218D01*
Y873282D01*
X1069282D01*
Y869218D01*
X1068266Y870234D02*
X1066234D01*
Y872266D01*
X1068266D01*
Y870234D01*
X1014282Y869218D02*
X1010218D01*
Y873282D01*
X1014282D01*
Y869218D01*
X1013266Y870234D02*
X1011234D01*
Y872266D01*
X1013266D01*
Y870234D01*
X959282Y869218D02*
X955218D01*
Y873282D01*
X959282D01*
Y869218D01*
X958266Y870234D02*
X956234D01*
Y872266D01*
X958266D01*
Y870234D01*
X903532Y863532D02*
Y859468D01*
X899468D01*
Y863532D01*
X903532D01*
X902516Y862516D02*
Y860484D01*
X900484D01*
Y862516D01*
X902516D01*
X846032Y911968D02*
X841968D01*
Y916032D01*
X846032D01*
Y911968D01*
X845016Y912984D02*
X842984D01*
Y915016D01*
X845016D01*
Y912984D01*
X778968Y807032D02*
X783032D01*
Y802968D01*
X778968D01*
Y807032D01*
X757632D02*
Y802968D01*
X753568D01*
Y807032D01*
X757632D01*
X768218Y774407D02*
X772282D01*
Y770343D01*
X768218D01*
Y774407D01*
X769234Y773391D02*
X771266D01*
Y771359D01*
X769234D01*
Y773391D01*
X805484Y772984D02*
Y775016D01*
X807516D01*
Y772984D01*
X805484D01*
X808432Y802968D02*
X804368D01*
Y807032D01*
X808432D01*
Y802968D01*
X829768D02*
Y807032D01*
X833832D01*
Y802968D01*
X829768D01*
X916968Y711032D02*
X921032D01*
Y706968D01*
X916968D01*
Y711032D01*
X917984Y710016D02*
X920016D01*
Y707984D01*
X917984D01*
Y710016D01*
X929468Y709468D02*
Y713532D01*
X933532D01*
Y709468D01*
X929468D01*
X930484Y710484D02*
Y712516D01*
X932516D01*
Y710484D01*
X930484D01*
X729782Y628532D02*
Y624468D01*
X725718D01*
Y628532D01*
X729782D01*
X728766Y627516D02*
Y625484D01*
X726734D01*
Y627516D01*
X728766D01*
X703532Y661968D02*
X699468D01*
Y666032D01*
X703532D01*
Y661968D01*
X702516Y662984D02*
X700484D01*
Y665016D01*
X702516D01*
Y662984D01*
X711968Y669968D02*
Y674032D01*
X716032D01*
Y669968D01*
X711968D01*
X712984Y670984D02*
Y673016D01*
X715016D01*
Y670984D01*
X712984D01*
X686032Y684468D02*
X681968D01*
Y688532D01*
X686032D01*
Y684468D01*
X685016Y685484D02*
X682984D01*
Y687516D01*
X685016D01*
Y685484D01*
X646032Y721968D02*
X641968D01*
Y726032D01*
X646032D01*
Y721968D01*
X645016Y722984D02*
X642984D01*
Y725016D01*
X645016D01*
Y722984D01*
X680968Y726968D02*
Y731032D01*
X685032D01*
Y726968D01*
X680968D01*
X681984Y727984D02*
Y730016D01*
X684016D01*
Y727984D01*
X681984D01*
X646032Y761968D02*
X641968D01*
Y766032D01*
X646032D01*
Y761968D01*
X645016Y762984D02*
X642984D01*
Y765016D01*
X645016D01*
Y762984D01*
X695968Y783968D02*
Y788032D01*
X700032D01*
Y783968D01*
X695968D01*
X696984Y784984D02*
Y787016D01*
X699016D01*
Y784984D01*
X696984D01*
X713968Y802968D02*
Y807032D01*
X718032D01*
Y802968D01*
X713968D01*
X714984Y803984D02*
Y806016D01*
X717016D01*
Y803984D01*
X714984D01*
X653532Y846968D02*
X649468D01*
Y851032D01*
X653532D01*
Y846968D01*
X652516Y847984D02*
X650484D01*
Y850016D01*
X652516D01*
Y847984D01*
X653532Y859468D02*
X649468D01*
Y863532D01*
X653532D01*
Y859468D01*
X652516Y860484D02*
X650484D01*
Y862516D01*
X652516D01*
Y860484D01*
X653532Y869468D02*
X649468D01*
Y873532D01*
X653532D01*
Y869468D01*
X652516Y870484D02*
X650484D01*
Y872516D01*
X652516D01*
Y870484D01*
X653532Y879468D02*
X649468D01*
Y883532D01*
X653532D01*
Y879468D01*
X652516Y880484D02*
X650484D01*
Y882516D01*
X652516D01*
Y880484D01*
X653532Y889468D02*
X649468D01*
Y893532D01*
X653532D01*
Y889468D01*
X652516Y890484D02*
X650484D01*
Y892516D01*
X652516D01*
Y890484D01*
X541032Y848532D02*
Y844468D01*
X536968D01*
Y848532D01*
X541032D01*
X540016Y847516D02*
Y845484D01*
X537984D01*
Y847516D01*
X540016D01*
X463532Y876968D02*
X459468D01*
Y881032D01*
X463532D01*
Y876968D01*
X462516Y877984D02*
X460484D01*
Y880016D01*
X462516D01*
Y877984D01*
X423532Y894468D02*
X419468D01*
Y898532D01*
X423532D01*
Y894468D01*
X422516Y895484D02*
X420484D01*
Y897516D01*
X422516D01*
Y895484D01*
X393532Y911968D02*
X389468D01*
Y916032D01*
X393532D01*
Y911968D01*
X392516Y912984D02*
X390484D01*
Y915016D01*
X392516D01*
Y912984D01*
X406968Y881032D02*
X411032D01*
Y876968D01*
X406968D01*
Y881032D01*
X407984Y880016D02*
X410016D01*
Y877984D01*
X407984D01*
Y880016D01*
X384032Y804032D02*
Y799968D01*
X379968D01*
Y804032D01*
X384032D01*
X383016Y803016D02*
Y800984D01*
X380984D01*
Y803016D01*
X383016D01*
X341982Y727982D02*
Y723918D01*
X337918D01*
Y727982D01*
X341982D01*
X340966Y726966D02*
Y724934D01*
X338934D01*
Y726966D01*
X340966D01*
X362968Y723968D02*
Y728032D01*
X367032D01*
Y723968D01*
X362968D01*
X388968Y722968D02*
Y727032D01*
X393032D01*
Y722968D01*
X388968D01*
X389984Y723984D02*
Y726016D01*
X392016D01*
Y723984D01*
X389984D01*
X411968Y696032D02*
X416032D01*
Y691968D01*
X411968D01*
Y696032D01*
X412984Y695016D02*
X415016D01*
Y692984D01*
X412984D01*
Y695016D01*
X424968Y722968D02*
Y727032D01*
X429032D01*
Y722968D01*
X424968D01*
X425984Y723984D02*
Y726016D01*
X428016D01*
Y723984D01*
X425984D01*
X450968Y722968D02*
Y727032D01*
X455032D01*
Y722968D01*
X450968D01*
X451984Y723984D02*
Y726016D01*
X454016D01*
Y723984D01*
X451984D01*
X475968Y722968D02*
Y727032D01*
X480032D01*
Y722968D01*
X475968D01*
X476984Y723984D02*
Y726016D01*
X479016D01*
Y723984D01*
X476984D01*
X500968Y722968D02*
Y727032D01*
X505032D01*
Y722968D01*
X500968D01*
X501984Y723984D02*
Y726016D01*
X504016D01*
Y723984D01*
X501984D01*
X534968Y722968D02*
Y727032D01*
X539032D01*
Y722968D01*
X534968D01*
X535984Y723984D02*
Y726016D01*
X538016D01*
Y723984D01*
X535984D01*
X559968Y722968D02*
Y727032D01*
X564032D01*
Y722968D01*
X559968D01*
X560984Y723984D02*
Y726016D01*
X563016D01*
Y723984D01*
X560984D01*
X585968Y722968D02*
Y727032D01*
X590032D01*
Y722968D01*
X585968D01*
X586984Y723984D02*
Y726016D01*
X589016D01*
Y723984D01*
X586984D01*
X610968Y722968D02*
Y727032D01*
X615032D01*
Y722968D01*
X610968D01*
X611984Y723984D02*
Y726016D01*
X614016D01*
Y723984D01*
X611984D01*
X664468Y646032D02*
X668532D01*
Y641968D01*
X664468D01*
Y646032D01*
X665484Y645016D02*
X667516D01*
Y642984D01*
X665484D01*
Y645016D01*
X681968Y628532D02*
X686032D01*
Y624468D01*
X681968D01*
Y628532D01*
X682984Y627516D02*
X685016D01*
Y625484D01*
X682984D01*
Y627516D01*
X558532Y631968D02*
X554468D01*
Y636032D01*
X558532D01*
Y631968D01*
X557516Y632984D02*
X555484D01*
Y635016D01*
X557516D01*
Y632984D01*
X569468Y611032D02*
X573532D01*
Y606968D01*
X569468D01*
Y611032D01*
X570484Y610016D02*
X572516D01*
Y607984D01*
X570484D01*
Y610016D01*
X538532Y616968D02*
X534468D01*
Y621032D01*
X538532D01*
Y616968D01*
X537516Y617984D02*
X535484D01*
Y620016D01*
X537516D01*
Y617984D01*
X541968Y561032D02*
X546032D01*
Y556968D01*
X541968D01*
Y561032D01*
X542984Y560016D02*
X545016D01*
Y557984D01*
X542984D01*
Y560016D01*
X544468Y523532D02*
X548532D01*
Y519468D01*
X544468D01*
Y523532D01*
X545484Y522516D02*
X547516D01*
Y520484D01*
X545484D01*
Y522516D01*
X544468Y471032D02*
X548532D01*
Y466968D01*
X544468D01*
Y471032D01*
X545484Y470016D02*
X547516D01*
Y467984D01*
X545484D01*
Y470016D01*
X544468Y456032D02*
X548532D01*
Y451968D01*
X544468D01*
Y456032D01*
X545484Y455016D02*
X547516D01*
Y452984D01*
X545484D01*
Y455016D01*
X699468Y476968D02*
Y481032D01*
X703532D01*
Y476968D01*
X699468D01*
X700484Y477984D02*
Y480016D01*
X702516D01*
Y477984D01*
X700484D01*
X711968Y486968D02*
Y491032D01*
X716032D01*
Y486968D01*
X711968D01*
X712984Y487984D02*
Y490016D01*
X715016D01*
Y487984D01*
X712984D01*
X525032Y278032D02*
Y273968D01*
X520968D01*
Y278032D01*
X525032D01*
X524016Y277016D02*
Y274984D01*
X521984D01*
Y277016D01*
X524016D01*
X311032Y451968D02*
X306968D01*
Y456032D01*
X311032D01*
Y451968D01*
X310016Y452984D02*
X307984D01*
Y455016D01*
X310016D01*
Y452984D01*
X311032Y479468D02*
X306968D01*
Y483532D01*
X311032D01*
Y479468D01*
X310016Y480484D02*
X307984D01*
Y482516D01*
X310016D01*
Y480484D01*
X311032Y499468D02*
X306968D01*
Y503532D01*
X311032D01*
Y499468D01*
X310016Y500484D02*
X307984D01*
Y502516D01*
X310016D01*
Y500484D01*
X338968Y523718D02*
Y527782D01*
X343032D01*
Y523718D01*
X338968D01*
X339984Y524734D02*
Y526766D01*
X342016D01*
Y524734D01*
X339984D01*
X313532Y576968D02*
X309468D01*
Y581032D01*
X313532D01*
Y576968D01*
X312516Y577984D02*
X310484D01*
Y580016D01*
X312516D01*
Y577984D01*
X311032Y598422D02*
X306968D01*
Y602486D01*
X311032D01*
Y598422D01*
X310016Y599438D02*
X307984D01*
Y601470D01*
X310016D01*
Y599438D01*
X326968Y631967D02*
Y636031D01*
X331032D01*
Y631967D01*
X326968D01*
X327984Y632983D02*
Y635015D01*
X330016D01*
Y632983D01*
X327984D01*
X363984Y724984D02*
Y727016D01*
X366016D01*
Y724984D01*
X363984D01*
X313532Y724468D02*
X309468D01*
Y728532D01*
X313532D01*
Y724468D01*
X312516Y725484D02*
X310484D01*
Y727516D01*
X312516D01*
Y725484D01*
X316968Y859000D02*
X319000Y861032D01*
X321032Y859000D01*
X319000Y856968D01*
X316968Y859000D01*
X1262168Y660016D02*
X1263184Y659000D01*
X1262168Y657984D01*
X1263184D01*
X1264200Y656968D01*
X1265216Y657984D01*
X1266232D01*
X1265216Y659000D01*
X1266232Y660016D01*
X1265216D01*
X1264200Y661032D01*
X1263184Y660016D01*
X1262168D01*
X1287168D02*
X1288184Y659000D01*
X1287168Y657984D01*
X1288184D01*
X1289200Y656968D01*
X1290216Y657984D01*
X1291232D01*
X1290216Y659000D01*
X1291232Y660016D01*
X1290216D01*
X1289200Y661032D01*
X1288184Y660016D01*
X1287168D01*
Y682984D02*
X1288184D01*
X1289200Y681968D01*
X1290216Y682984D01*
X1291232D01*
X1290216Y684000D01*
X1291232Y685016D01*
X1290216D01*
X1289200Y686032D01*
X1288184Y685016D01*
X1287168D01*
X1288184Y684000D01*
X1287168Y682984D01*
X1311968Y719468D02*
Y723532D01*
X1316032D01*
Y719468D01*
X1311968D01*
X1312984Y720484D02*
Y722516D01*
X1315016D01*
Y720484D01*
X1312984D01*
X1359984Y686032D02*
Y685016D01*
X1358968D01*
Y682984D01*
X1359984D01*
Y681968D01*
X1362016D01*
Y682984D01*
X1363032D01*
Y685016D01*
X1362016D01*
Y686032D01*
X1359984D01*
Y661032D02*
Y660016D01*
X1358968D01*
Y657984D01*
X1359984D01*
Y656968D01*
X1362016D01*
Y657984D01*
X1363032D01*
Y660016D01*
X1362016D01*
Y661032D01*
X1359984D01*
X1266232Y682984D02*
X1265216Y684000D01*
X1266232Y685016D01*
X1265216D01*
X1264200Y686032D01*
X1263184Y685016D01*
X1262168D01*
X1263184Y684000D01*
X1262168Y682984D01*
X1263184D01*
X1264200Y681968D01*
X1265216Y682984D01*
X1266232D01*
X1357250Y796968D02*
X1355218Y801032D01*
X1359282D01*
X1357250Y796968D01*
X1358000Y856968D02*
X1355968Y859000D01*
X1358000Y861032D01*
X1360032Y859000D01*
X1358000Y856968D01*
X1319282Y871718D02*
X1315218D01*
Y875782D01*
X1319282D01*
Y871718D01*
X1318266Y872734D02*
X1316234D01*
Y874766D01*
X1318266D01*
Y872734D01*
X1289282Y871718D02*
X1285218D01*
Y875782D01*
X1289282D01*
Y871718D01*
X1288266Y872734D02*
X1286234D01*
Y874766D01*
X1288266D01*
Y872734D01*
D95*
X372335Y280752D02*
G03*
X372335Y280752I-2032J0D01*
G01*
X402335D02*
G03*
X402335Y280752I-2032J0D01*
G01*
X432335D02*
G03*
X432335Y280752I-2032J0D01*
G01*
X462335D02*
G03*
X462335Y280752I-2032J0D01*
G01*
Y310752D02*
G03*
X462335Y310752I-2032J0D01*
G01*
X432335D02*
G03*
X432335Y310752I-2032J0D01*
G01*
X402335D02*
G03*
X402335Y310752I-2032J0D01*
G01*
X372335D02*
G03*
X372335Y310752I-2032J0D01*
G01*
X686032Y277000D02*
G03*
X686032Y277000I-2032J0D01*
G01*
X711432D02*
G03*
X711432Y277000I-2032J0D01*
G01*
X1039232Y280000D02*
G03*
X1039232Y280000I-2032J0D01*
G01*
X1064632D02*
G03*
X1064632Y280000I-2032J0D01*
G01*
X1090032D02*
G03*
X1090032Y280000I-2032J0D01*
G01*
X1115432D02*
G03*
X1115432Y280000I-2032J0D01*
G01*
X1140832D02*
G03*
X1140832Y280000I-2032J0D01*
G01*
X1363032Y595600D02*
G03*
X1363032Y595600I-2032J0D01*
G01*
Y621000D02*
G03*
X1363032Y621000I-2032J0D01*
G01*
X1364032Y721600D02*
G03*
X1364032Y721600I-2032J0D01*
G01*
Y747000D02*
G03*
X1364032Y747000I-2032J0D01*
G01*
X1316032Y799000D02*
G03*
X1316032Y799000I-2032J0D01*
G01*
X1286032D02*
G03*
X1286032Y799000I-2032J0D01*
G01*
M02*
