G04*
G04 #@! TF.GenerationSoftware,Altium Limited,Altium Designer,19.1.7 (138)*
G04*
G04 Layer_Physical_Order=2*
G04 Layer_Color=16711680*
%FSLAX44Y44*%
%MOMM*%
G71*
G01*
G75*
%ADD12C,0.0500*%
%ADD16R,1.4000X1.9000*%
%ADD17R,1.9000X1.4000*%
%ADD44C,0.5000*%
%ADD45R,1.6500X1.6500*%
%ADD46C,1.6500*%
%ADD47R,1.7000X2.0000*%
%ADD48O,1.7000X2.0000*%
%ADD49R,2.0000X1.7000*%
%ADD50O,2.0000X1.7000*%
%ADD51C,1.2000*%
%ADD52O,2.0000X1.2000*%
%ADD53R,2.0000X1.2000*%
%ADD54C,1.5000*%
%ADD55O,1.2000X2.0000*%
%ADD56R,1.2000X2.0000*%
%ADD57R,1.6000X2.0000*%
%ADD58O,1.6000X2.0000*%
%ADD59C,1.6510*%
%ADD60C,1.5240*%
%ADD61C,0.6000*%
%ADD62R,1.9500X1.6000*%
%ADD63R,1.5500X0.6000*%
%ADD64R,3.0000X2.0000*%
%ADD65R,9.0000X11.0000*%
%ADD66R,1.4000X0.6000*%
%ADD67R,0.9000X0.8000*%
%ADD68R,1.6800X2.7000*%
%ADD69R,0.6000X1.5500*%
%ADD70R,1.8000X1.4000*%
%ADD71R,1.6000X1.9500*%
%ADD72R,1.5200X0.6000*%
%ADD73R,2.0000X0.4500*%
%ADD74R,0.4500X2.0000*%
G36*
X1384000Y254000D02*
X254000D01*
Y924000D01*
X1384000D01*
Y254000D01*
D02*
G37*
%LPC*%
G36*
X844000Y920117D02*
X841659Y919652D01*
X841593Y919608D01*
X393907D01*
X393841Y919652D01*
X391500Y920117D01*
X389159Y919652D01*
X387174Y918326D01*
X385848Y916341D01*
X385382Y914000D01*
X385848Y911659D01*
X387174Y909674D01*
X389159Y908348D01*
X391500Y907883D01*
X393841Y908348D01*
X393907Y908392D01*
X841593D01*
X841659Y908348D01*
X844000Y907883D01*
X846341Y908348D01*
X848326Y909674D01*
X849652Y911659D01*
X850117Y914000D01*
X849652Y916341D01*
X848326Y918326D01*
X846341Y919652D01*
X844000Y920117D01*
D02*
G37*
G36*
X422770Y901896D02*
Y897770D01*
X426896D01*
X426719Y898662D01*
X425494Y900494D01*
X423662Y901719D01*
X422770Y901896D01*
D02*
G37*
G36*
X420230D02*
X419338Y901719D01*
X417506Y900494D01*
X416281Y898662D01*
X416104Y897770D01*
X420230D01*
Y901896D01*
D02*
G37*
G36*
X426896Y895230D02*
X422770D01*
Y891104D01*
X423662Y891282D01*
X425494Y892506D01*
X426719Y894338D01*
X426896Y895230D01*
D02*
G37*
G36*
X420230D02*
X416104D01*
X416281Y894338D01*
X417506Y892506D01*
X419338Y891282D01*
X420230Y891104D01*
Y895230D01*
D02*
G37*
G36*
X392290Y877640D02*
X383270D01*
Y873370D01*
X392290D01*
Y877640D01*
D02*
G37*
G36*
X380730D02*
X371710D01*
Y873370D01*
X380730D01*
Y877640D01*
D02*
G37*
G36*
X651500Y897617D02*
X649159Y897152D01*
X647174Y895826D01*
X645848Y893841D01*
X645383Y891500D01*
X645848Y889159D01*
X647092Y887298D01*
X647233Y886862D01*
Y886138D01*
X647092Y885702D01*
X645848Y883841D01*
X645383Y881500D01*
X645848Y879159D01*
X647092Y877298D01*
X647233Y876862D01*
Y876138D01*
X647092Y875702D01*
X645848Y873841D01*
X645383Y871500D01*
X645848Y869159D01*
X647092Y867298D01*
X647233Y866862D01*
Y866138D01*
X647092Y865702D01*
X645848Y863841D01*
X645383Y861500D01*
X645848Y859159D01*
X647174Y857174D01*
X649045Y855924D01*
X649105Y855250D01*
X649045Y854576D01*
X647174Y853326D01*
X645848Y851341D01*
X645383Y849000D01*
X645848Y846659D01*
X647174Y844674D01*
X649159Y843348D01*
X651500Y842883D01*
X653841Y843348D01*
X653907Y843392D01*
X1078191D01*
X1078870Y842122D01*
X1078348Y841341D01*
X1077883Y839000D01*
X1078348Y836659D01*
X1078636Y836228D01*
X1078037Y835108D01*
X1075907D01*
X1075841Y835152D01*
X1073500Y835618D01*
X1071159Y835152D01*
X1069174Y833826D01*
X1067848Y831841D01*
X1067383Y829500D01*
X1067848Y827159D01*
X1069174Y825174D01*
X1071159Y823848D01*
X1073500Y823382D01*
X1075841Y823848D01*
X1075907Y823892D01*
X1103345D01*
X1104159Y823348D01*
X1106500Y822883D01*
X1108841Y823348D01*
X1110826Y824674D01*
X1112152Y826659D01*
X1112617Y829000D01*
X1112152Y831341D01*
X1111630Y832122D01*
X1112309Y833392D01*
X1174093D01*
X1174159Y833348D01*
X1176500Y832883D01*
X1178841Y833348D01*
X1180826Y834674D01*
X1182152Y836659D01*
X1182617Y839000D01*
X1182152Y841341D01*
X1181630Y842122D01*
X1182309Y843392D01*
X1276500D01*
X1278646Y843819D01*
X1280465Y845035D01*
X1290465Y855035D01*
X1291681Y856854D01*
X1292108Y859000D01*
Y870220D01*
X1292902Y871409D01*
X1293367Y873750D01*
X1292902Y876091D01*
X1291576Y878076D01*
X1289591Y879402D01*
X1287250Y879867D01*
X1284909Y879402D01*
X1282924Y878076D01*
X1282803Y877895D01*
X1282535Y877715D01*
X1281319Y875896D01*
X1280892Y873750D01*
Y861323D01*
X1274177Y854608D01*
X904101D01*
X903865Y855782D01*
X903885Y855878D01*
X905826Y857174D01*
X907152Y859159D01*
X907617Y861500D01*
X907295Y863122D01*
X908195Y864392D01*
X957250D01*
X959396Y864819D01*
X961215Y866035D01*
X962431Y867854D01*
X962530Y868352D01*
X962902Y868909D01*
X963367Y871250D01*
X962902Y873591D01*
X962213Y874622D01*
X962892Y875892D01*
X999677D01*
X1006583Y868987D01*
X1006598Y868909D01*
X1007924Y866924D01*
X1009909Y865598D01*
X1012250Y865133D01*
X1014591Y865598D01*
X1016576Y866924D01*
X1017902Y868909D01*
X1018367Y871250D01*
X1017902Y873591D01*
X1016576Y875576D01*
X1014591Y876902D01*
X1014513Y876917D01*
X1006808Y884622D01*
X1007334Y885892D01*
X1044608D01*
X1061612Y868888D01*
X1062924Y866924D01*
X1064909Y865598D01*
X1067250Y865133D01*
X1069591Y865598D01*
X1071576Y866924D01*
X1072902Y868909D01*
X1073367Y871250D01*
X1072902Y873591D01*
X1071576Y875576D01*
X1069591Y876902D01*
X1069426Y876935D01*
X1050896Y895465D01*
X1049077Y896681D01*
X1046930Y897108D01*
X653907D01*
X653841Y897152D01*
X651500Y897617D01*
D02*
G37*
G36*
X540270Y851896D02*
Y847770D01*
X544396D01*
X544218Y848662D01*
X542994Y850494D01*
X541162Y851719D01*
X540270Y851896D01*
D02*
G37*
G36*
X537730D02*
X536838Y851719D01*
X535006Y850494D01*
X533781Y848662D01*
X533604Y847770D01*
X537730D01*
Y851896D01*
D02*
G37*
G36*
X544396Y845230D02*
X540270D01*
Y841104D01*
X541162Y841282D01*
X542994Y842506D01*
X544218Y844338D01*
X544396Y845230D01*
D02*
G37*
G36*
X537730D02*
X533604D01*
X533781Y844338D01*
X535006Y842506D01*
X536838Y841282D01*
X537730Y841104D01*
Y845230D01*
D02*
G37*
G36*
X1317250Y879867D02*
X1314909Y879402D01*
X1312924Y878076D01*
X1311598Y876091D01*
X1311133Y873750D01*
X1311598Y871409D01*
X1311834Y871057D01*
Y868059D01*
X1312260Y865913D01*
X1313476Y864093D01*
X1328392Y849177D01*
Y786323D01*
X1319177Y777108D01*
X1289000D01*
X1286854Y776681D01*
X1285035Y775465D01*
X1283069Y773500D01*
X1280542D01*
X1280000Y773608D01*
X1279458Y773500D01*
X1268600D01*
Y754608D01*
X1266500D01*
X1264354Y754181D01*
X1262535Y752965D01*
X1252560Y742990D01*
X1251290Y743517D01*
X1251290Y743563D01*
X1251290Y743563D01*
X1251290Y743646D01*
Y751980D01*
X1240270D01*
Y742710D01*
X1250354Y742710D01*
X1250437D01*
D01*
X1250483Y742710D01*
X1250548Y742554D01*
X1251010Y741440D01*
X1211500Y701930D01*
X1177965Y735465D01*
X1176146Y736681D01*
X1174000Y737108D01*
X994000D01*
X991854Y736681D01*
X990035Y735465D01*
X980250Y725680D01*
X971965Y733965D01*
X970146Y735181D01*
X968000Y735608D01*
X684000D01*
X681854Y735181D01*
X681233Y734766D01*
X680659Y734652D01*
X678674Y733326D01*
X677348Y731341D01*
X676882Y729000D01*
X677348Y726659D01*
X678674Y724674D01*
X680659Y723348D01*
X683000Y722883D01*
X685341Y723348D01*
X686904Y724392D01*
X802312D01*
X802698Y723122D01*
X802506Y722994D01*
X801282Y721162D01*
X801104Y720270D01*
X806500D01*
Y717730D01*
X801104D01*
X801282Y716838D01*
X801923Y715878D01*
X801245Y714608D01*
X794000D01*
X791854Y714181D01*
X790035Y712965D01*
X782535Y705465D01*
X781723Y704250D01*
X771500D01*
Y684250D01*
X795440D01*
X796500Y684250D01*
X796710Y683067D01*
Y681710D01*
X807730D01*
Y692250D01*
X810270D01*
Y681710D01*
X821290D01*
Y683067D01*
X821500Y684250D01*
X822560Y684250D01*
X846500D01*
Y703392D01*
X899950D01*
Y682250D01*
X911950D01*
Y682250D01*
X912650D01*
Y682250D01*
X924650D01*
Y682250D01*
X925350D01*
Y682250D01*
X937350D01*
Y682445D01*
X938510Y682710D01*
X938620Y682710D01*
X942780D01*
Y693000D01*
Y703290D01*
X938620D01*
X938510Y703290D01*
X937350Y703556D01*
Y703750D01*
X937033D01*
Y708981D01*
X937152Y709159D01*
X937617Y711500D01*
X937152Y713841D01*
X935826Y715826D01*
X933841Y717152D01*
X933763Y717167D01*
X928041Y722890D01*
X927693Y723122D01*
X928078Y724392D01*
X965677D01*
X975892Y714177D01*
Y686323D01*
X969177Y679608D01*
X931500D01*
X929354Y679181D01*
X927535Y677965D01*
X914685Y665115D01*
X913469Y663296D01*
X913214Y662014D01*
X911869Y661764D01*
X910826Y663326D01*
X908841Y664652D01*
X906500Y665117D01*
X904159Y664652D01*
X902174Y663326D01*
X900848Y661341D01*
X900383Y659000D01*
X900848Y656659D01*
X900892Y656593D01*
Y649750D01*
X899950D01*
Y630108D01*
X891750D01*
Y649750D01*
X866250D01*
Y644118D01*
X844313D01*
X837965Y650465D01*
X836146Y651681D01*
X834000Y652108D01*
X801407D01*
X801341Y652152D01*
X799000Y652617D01*
X796659Y652152D01*
X794674Y650826D01*
X793348Y648841D01*
X792883Y646500D01*
X793294Y644433D01*
X792375Y643740D01*
X792246Y643684D01*
X787965Y647965D01*
X786146Y649181D01*
X784000Y649608D01*
X668907D01*
X668841Y649652D01*
X666500Y650117D01*
X664159Y649652D01*
X662174Y648326D01*
X660848Y646341D01*
X660382Y644000D01*
X660848Y641659D01*
X662174Y639674D01*
X664159Y638348D01*
X666500Y637882D01*
X668841Y638348D01*
X668907Y638392D01*
X781677D01*
X808010Y612060D01*
X809829Y610844D01*
X811975Y610417D01*
X828018D01*
X828404Y609147D01*
X827174Y608326D01*
X825848Y606341D01*
X825382Y604000D01*
X825848Y601659D01*
X825892Y601593D01*
Y594436D01*
X826319Y592290D01*
X827535Y590471D01*
X830833Y587173D01*
X830346Y586000D01*
X825750D01*
Y563250D01*
X821948D01*
X821407Y563358D01*
X821319D01*
X821210Y563431D01*
X819064Y563858D01*
X814073D01*
X747465Y630465D01*
X745646Y631681D01*
X743500Y632108D01*
X730157D01*
X730091Y632152D01*
X727750Y632617D01*
X725409Y632152D01*
X723424Y630826D01*
X722098Y628841D01*
X721633Y626500D01*
X722098Y624159D01*
X723424Y622174D01*
X725409Y620848D01*
X727750Y620382D01*
X730091Y620848D01*
X730157Y620892D01*
X741177D01*
X752016Y610053D01*
X751390Y608883D01*
X750512Y609058D01*
X749250D01*
Y609450D01*
X727750D01*
Y598020D01*
X727750Y597450D01*
X727750D01*
Y596750D01*
X727750D01*
Y585428D01*
X727750Y584750D01*
X726725Y584158D01*
X725573D01*
X702815Y606915D01*
X700996Y608131D01*
X698850Y608558D01*
X695250D01*
Y609450D01*
X689608D01*
Y624093D01*
X689652Y624159D01*
X690117Y626500D01*
X689652Y628841D01*
X688326Y630826D01*
X686341Y632152D01*
X684000Y632617D01*
X681659Y632152D01*
X679674Y630826D01*
X678348Y628841D01*
X677883Y626500D01*
X678348Y624159D01*
X678392Y624093D01*
Y609450D01*
X673750D01*
X673297Y610532D01*
Y617339D01*
X672870Y619485D01*
X671654Y621304D01*
X657180Y635779D01*
X656341Y636339D01*
X654250Y638430D01*
Y655500D01*
X634250D01*
Y630500D01*
X645407D01*
X645561Y630270D01*
X644882Y629000D01*
X634250D01*
Y604000D01*
X646319D01*
X647646Y602673D01*
X647160Y601500D01*
X634250D01*
Y577770D01*
X634250Y576500D01*
X634250D01*
Y576500D01*
X634250D01*
Y551500D01*
X654250D01*
Y553892D01*
X658502D01*
X663710Y548685D01*
X665529Y547469D01*
X667675Y547042D01*
X672171D01*
X672600Y546300D01*
X672171Y545558D01*
X654250D01*
Y546500D01*
X634250D01*
Y521500D01*
X634250D01*
X634250Y520230D01*
Y496500D01*
X634250D01*
X634250Y496500D01*
X634250Y495230D01*
Y471500D01*
X654250D01*
Y485392D01*
X656200D01*
X658346Y485819D01*
X660165Y487035D01*
X681681Y508550D01*
X695250D01*
Y520550D01*
X695250Y520550D01*
Y521250D01*
X695250D01*
X695250Y521820D01*
Y533250D01*
X695250D01*
Y533950D01*
X695250D01*
Y545380D01*
X695250Y546300D01*
X695250Y547220D01*
Y558650D01*
X695250D01*
Y559350D01*
X695250D01*
Y570780D01*
X695250Y571350D01*
X695250D01*
Y572050D01*
X695250D01*
Y583480D01*
X695250Y584050D01*
X695250D01*
Y584750D01*
X695250D01*
Y596750D01*
X696275Y597342D01*
X696527D01*
X719285Y574585D01*
X721104Y573369D01*
X723250Y572942D01*
X726850D01*
X727750Y572050D01*
Y571350D01*
X727750D01*
Y559350D01*
X727750D01*
Y558650D01*
X727750D01*
Y547220D01*
X727750Y546300D01*
X727750Y545380D01*
Y533950D01*
X727750D01*
Y533250D01*
X727750D01*
Y521250D01*
X727944D01*
X728210Y520090D01*
X728210Y519980D01*
Y515820D01*
X738500D01*
X748790D01*
Y519980D01*
X748790Y520090D01*
X749055Y521250D01*
X749250D01*
Y521892D01*
X780988D01*
X781474Y520719D01*
X755363Y494608D01*
X716407D01*
X716341Y494652D01*
X714000Y495118D01*
X711659Y494652D01*
X709674Y493326D01*
X708348Y491341D01*
X707883Y489000D01*
X708348Y486659D01*
X708870Y485878D01*
X708191Y484608D01*
X703907D01*
X703841Y484652D01*
X701500Y485117D01*
X699159Y484652D01*
X697174Y483326D01*
X695848Y481341D01*
X695383Y479000D01*
X695848Y476659D01*
X697174Y474674D01*
X699159Y473348D01*
X701500Y472882D01*
X703841Y473348D01*
X703907Y473392D01*
X756643D01*
X757136Y472222D01*
X727216Y441608D01*
X509323D01*
X506608Y444323D01*
Y533000D01*
X506181Y535146D01*
X504965Y536965D01*
X498015Y543915D01*
X496196Y545131D01*
X494050Y545558D01*
X487179D01*
X486750Y546650D01*
X486750Y547220D01*
Y558650D01*
X486750D01*
Y559350D01*
X486750D01*
Y571350D01*
X486750D01*
Y572050D01*
X486750D01*
Y583480D01*
X486750Y584050D01*
X486750D01*
Y584750D01*
X486750D01*
Y588819D01*
X487417Y589487D01*
X488010Y589605D01*
X489829Y590820D01*
X493215Y594207D01*
X494431Y596026D01*
X494858Y598172D01*
Y633805D01*
X507687Y646634D01*
X508860Y646148D01*
Y641960D01*
X517730D01*
Y647500D01*
Y653040D01*
X515752D01*
X515266Y654213D01*
X519445Y658392D01*
X699093D01*
X699159Y658348D01*
X701500Y657883D01*
X703841Y658348D01*
X705826Y659674D01*
X707152Y661659D01*
X707617Y664000D01*
X707195Y666122D01*
X707861Y667392D01*
X710096D01*
X711659Y666348D01*
X714000Y665882D01*
X716341Y666348D01*
X718326Y667674D01*
X719652Y669659D01*
X720117Y672000D01*
X719652Y674341D01*
X718326Y676326D01*
X716341Y677652D01*
X715767Y677766D01*
X715146Y678181D01*
X713000Y678608D01*
X512884D01*
X512398Y679781D01*
X513509Y680892D01*
X681593D01*
X681659Y680848D01*
X684000Y680383D01*
X686341Y680848D01*
X688326Y682174D01*
X689652Y684159D01*
X690117Y686500D01*
X689652Y688841D01*
X688326Y690826D01*
X686341Y692152D01*
X684000Y692617D01*
X681659Y692152D01*
X681593Y692108D01*
X511186D01*
X509040Y691681D01*
X507221Y690465D01*
X467035Y650279D01*
X465819Y648460D01*
X465392Y646314D01*
Y635823D01*
X438627Y609058D01*
X432750D01*
Y609450D01*
X414358D01*
Y626278D01*
X413931Y628424D01*
X412715Y630243D01*
X396750Y646209D01*
Y661500D01*
X376750D01*
Y637770D01*
X376750Y636500D01*
X376750D01*
Y636500D01*
X376750D01*
Y611500D01*
X388819D01*
X390146Y610173D01*
X389660Y609000D01*
X376750D01*
Y584000D01*
X389591D01*
X390918Y582673D01*
X390432Y581500D01*
X376750D01*
Y556500D01*
X391319D01*
X392646Y555173D01*
X392160Y554000D01*
X376750D01*
Y529000D01*
X376750D01*
X376750Y529000D01*
X376750Y527730D01*
Y504000D01*
X389660D01*
X390146Y502827D01*
X388819Y501500D01*
X376750D01*
Y476500D01*
X396750D01*
Y493569D01*
X411623Y508442D01*
X421500D01*
X422042Y508550D01*
X432750D01*
Y520550D01*
X432750Y520550D01*
Y521250D01*
X432750D01*
X432750Y521820D01*
Y533250D01*
X432750D01*
Y533950D01*
X432750D01*
Y545950D01*
X432750D01*
Y546650D01*
X432750D01*
Y558650D01*
X432750D01*
Y559350D01*
X432750D01*
Y570780D01*
X432750Y571350D01*
X432750D01*
Y572050D01*
X432750D01*
Y583480D01*
X432750Y584050D01*
X432750D01*
Y584750D01*
X432750D01*
Y596750D01*
X433775Y597342D01*
X440227D01*
X462985Y574585D01*
X464804Y573369D01*
X465250Y573280D01*
Y572050D01*
X465250D01*
Y571350D01*
X465250D01*
Y559350D01*
X465250D01*
Y558650D01*
X465250D01*
Y547220D01*
X465250Y546300D01*
X465250Y545380D01*
Y533950D01*
X465250D01*
Y533250D01*
X465250D01*
Y521250D01*
X465444D01*
X465710Y520090D01*
X465710D01*
Y515820D01*
X476000D01*
Y514550D01*
X477270D01*
Y509010D01*
X486290D01*
Y509010D01*
X487392Y508605D01*
Y438686D01*
X487819Y436540D01*
X489035Y434721D01*
X499878Y423878D01*
X501697Y422662D01*
X503843Y422235D01*
X728959D01*
X729445Y421062D01*
X637991Y329608D01*
X625349D01*
X623203Y329181D01*
X621384Y327965D01*
X577836Y284417D01*
X577758Y284402D01*
X575773Y283076D01*
X574447Y281091D01*
X573982Y278750D01*
X574447Y276409D01*
X575773Y274424D01*
X577758Y273098D01*
X580099Y272633D01*
X582440Y273098D01*
X584425Y274424D01*
X585751Y276409D01*
X585767Y276487D01*
X595327Y286047D01*
X596500Y285561D01*
Y264600D01*
X614569D01*
X621635Y257535D01*
X623454Y256319D01*
X625600Y255892D01*
X697900D01*
X700046Y256319D01*
X701865Y257535D01*
X708331Y264000D01*
X712358D01*
X712900Y263892D01*
X741500D01*
Y258750D01*
X766500D01*
Y258750D01*
X767500D01*
Y258750D01*
X792500D01*
Y263142D01*
X794000D01*
Y258750D01*
X819000D01*
Y263142D01*
X820500D01*
Y258750D01*
X845500D01*
Y278750D01*
X820500D01*
Y274358D01*
X819000D01*
Y278750D01*
X794000D01*
Y274358D01*
X792500D01*
Y278750D01*
X767500D01*
Y278750D01*
X766500D01*
Y278750D01*
X741500D01*
Y275108D01*
X718400D01*
Y290000D01*
X700400D01*
Y271931D01*
X695577Y267108D01*
X692259D01*
X691697Y268247D01*
X691861Y268461D01*
X692768Y270651D01*
X693078Y273000D01*
Y281000D01*
X692768Y283349D01*
X691861Y285539D01*
X690419Y287419D01*
X688539Y288862D01*
X686349Y289768D01*
X684000Y290078D01*
X681650Y289768D01*
X679461Y288862D01*
X677581Y287419D01*
X676139Y285539D01*
X675232Y283349D01*
X675075Y282158D01*
X645847D01*
X644202Y284302D01*
X641800Y286145D01*
X639002Y287304D01*
X636000Y287699D01*
X633000D01*
X629998Y287304D01*
X627200Y286145D01*
X624798Y284302D01*
X623770Y282962D01*
X622500Y283393D01*
Y287600D01*
X598539D01*
X598053Y288773D01*
X627672Y318392D01*
X640314D01*
X642460Y318819D01*
X644279Y320035D01*
X801827Y477583D01*
X803000Y477096D01*
Y472750D01*
X825750D01*
Y450000D01*
X828438D01*
X828924Y448827D01*
X785705Y405608D01*
X741407D01*
X741341Y405652D01*
X739000Y406118D01*
X736659Y405652D01*
X734674Y404326D01*
X733348Y402341D01*
X732883Y400000D01*
X733348Y397659D01*
X734674Y395674D01*
X736659Y394348D01*
X739000Y393882D01*
X741341Y394348D01*
X741407Y394392D01*
X788028D01*
X790174Y394819D01*
X791993Y396035D01*
X840219Y444260D01*
X841392Y443774D01*
Y376000D01*
X841819Y373854D01*
X843035Y372035D01*
X902285Y312785D01*
X904104Y311569D01*
X906250Y311142D01*
Y308750D01*
X913592D01*
Y289860D01*
X913524Y289831D01*
X911173Y288027D01*
X909369Y285676D01*
X908235Y282938D01*
X907848Y280000D01*
X908235Y277062D01*
X909369Y274324D01*
X911173Y271973D01*
X913524Y270169D01*
X916262Y269035D01*
X919200Y268648D01*
X922138Y269035D01*
X924876Y270169D01*
X927227Y271973D01*
X929031Y274324D01*
X930165Y277062D01*
X930552Y280000D01*
X930165Y282938D01*
X929031Y285676D01*
X927227Y288027D01*
X924876Y289831D01*
X924808Y289860D01*
Y308750D01*
X931750D01*
Y330750D01*
X906250D01*
Y326340D01*
X905077Y325854D01*
X871712Y359219D01*
X872198Y360392D01*
X933677D01*
X940392Y353677D01*
Y335000D01*
X940819Y332854D01*
X942035Y331035D01*
X954035Y319035D01*
X955854Y317819D01*
X957250Y317542D01*
Y309750D01*
X964392D01*
Y289860D01*
X964324Y289831D01*
X961973Y288027D01*
X960169Y285676D01*
X959035Y282938D01*
X958648Y280000D01*
X959035Y277062D01*
X960169Y274324D01*
X961973Y271973D01*
X964324Y270169D01*
X967062Y269035D01*
X970000Y268648D01*
X972938Y269035D01*
X975676Y270169D01*
X978027Y271973D01*
X979831Y274324D01*
X980965Y277062D01*
X981352Y280000D01*
X980965Y282938D01*
X979831Y285676D01*
X978027Y288027D01*
X975676Y289831D01*
X975608Y289860D01*
Y309750D01*
X982750D01*
Y331750D01*
X957250D01*
X957250Y331750D01*
Y331750D01*
X956370Y332560D01*
X951608Y337323D01*
Y356000D01*
X951181Y358146D01*
X949965Y359965D01*
X939965Y369965D01*
X938146Y371181D01*
X936000Y371608D01*
X871823D01*
X860608Y382823D01*
Y450460D01*
X861730D01*
Y463000D01*
Y475540D01*
X860250D01*
Y476000D01*
X829000D01*
Y480750D01*
Y488750D01*
Y496750D01*
Y504750D01*
Y512750D01*
Y520750D01*
Y528750D01*
Y536750D01*
Y544750D01*
Y552750D01*
Y560000D01*
X868250D01*
Y560460D01*
X869730D01*
Y573000D01*
X872270D01*
Y560460D01*
X873750D01*
Y560000D01*
X913000D01*
Y552750D01*
Y544750D01*
Y536750D01*
Y528750D01*
Y520750D01*
Y512750D01*
Y504750D01*
Y496750D01*
Y488750D01*
Y480750D01*
Y476000D01*
X865750D01*
Y475540D01*
X864270D01*
Y463000D01*
Y450460D01*
X865142D01*
Y448638D01*
X864674Y448326D01*
X863348Y446341D01*
X862882Y444000D01*
X863348Y441659D01*
X864674Y439674D01*
X866659Y438348D01*
X869000Y437882D01*
X871341Y438348D01*
X872122Y438870D01*
X873392Y438191D01*
Y426407D01*
X873348Y426341D01*
X872883Y424000D01*
X873348Y421659D01*
X874674Y419674D01*
X876659Y418348D01*
X879000Y417882D01*
X881341Y418348D01*
X883326Y419674D01*
X884634Y421632D01*
X884768Y421822D01*
X886022Y422040D01*
X888985Y419078D01*
X889000Y419000D01*
X890326Y417015D01*
X892311Y415689D01*
X894652Y415224D01*
X896993Y415689D01*
X898978Y417015D01*
X900304Y419000D01*
X900319Y419078D01*
X901665Y419584D01*
X902341Y419117D01*
X902646Y417585D01*
X903972Y415600D01*
X905957Y414274D01*
X908298Y413808D01*
X910639Y414274D01*
X912624Y415600D01*
X913837Y417416D01*
X914280Y417649D01*
X915296Y417846D01*
X916833Y416819D01*
X918596Y416468D01*
X918776Y416348D01*
X921117Y415882D01*
X923459Y416348D01*
X925443Y417674D01*
X926769Y419659D01*
X927235Y422000D01*
X926769Y424341D01*
X925443Y426326D01*
X923459Y427652D01*
X922785Y427786D01*
X922517Y429134D01*
X923326Y429674D01*
X924652Y431659D01*
X925117Y434000D01*
X924652Y436341D01*
X924476Y436605D01*
X924181Y438087D01*
X922965Y439906D01*
X916608Y446264D01*
Y463000D01*
X916250Y464799D01*
Y472750D01*
X924202D01*
X926000Y472392D01*
X1163029D01*
X1163174Y472174D01*
X1165159Y470848D01*
X1167500Y470382D01*
X1169841Y470848D01*
X1171826Y472174D01*
X1173152Y474159D01*
X1173617Y476500D01*
X1173152Y478841D01*
X1172864Y479272D01*
X1173463Y480392D01*
X1176195D01*
X1176674Y479674D01*
X1178659Y478348D01*
X1181000Y477882D01*
X1183341Y478348D01*
X1185326Y479674D01*
X1186652Y481659D01*
X1187117Y484000D01*
X1186652Y486341D01*
X1186130Y487122D01*
X1186809Y488392D01*
X1199976D01*
X1200833Y487819D01*
X1202979Y487392D01*
X1211593D01*
X1211659Y487348D01*
X1212222Y487236D01*
X1212590Y486021D01*
X1166035Y439465D01*
X1164819Y437646D01*
X1164392Y435500D01*
Y407250D01*
X1157500D01*
Y387250D01*
X1182500D01*
Y407250D01*
X1175608D01*
Y433177D01*
X1248974Y506544D01*
X1250051Y505824D01*
X1249296Y504002D01*
X1248901Y501000D01*
X1249296Y497998D01*
X1249376Y497806D01*
X1195035Y443465D01*
X1193819Y441646D01*
X1193392Y439500D01*
Y407250D01*
X1186500D01*
Y387250D01*
X1211500D01*
Y407250D01*
X1204608D01*
Y437177D01*
X1248974Y481544D01*
X1250051Y480824D01*
X1249296Y479002D01*
X1248901Y476000D01*
X1249296Y472998D01*
X1249376Y472806D01*
X1225035Y448465D01*
X1223819Y446646D01*
X1223392Y444500D01*
Y407250D01*
X1216500D01*
Y387250D01*
X1241500D01*
Y407250D01*
X1234608D01*
Y442177D01*
X1248974Y456544D01*
X1250051Y455824D01*
X1249296Y454002D01*
X1248901Y451000D01*
X1249296Y447998D01*
X1250455Y445200D01*
X1252298Y442798D01*
X1254700Y440955D01*
X1256392Y440254D01*
Y407250D01*
X1245500D01*
Y387250D01*
X1270500D01*
Y407250D01*
X1267608D01*
Y440254D01*
X1269300Y440955D01*
X1271702Y442798D01*
X1273545Y445200D01*
X1273865Y445972D01*
X1275135D01*
X1275455Y445200D01*
X1277298Y442798D01*
X1279700Y440955D01*
X1281392Y440254D01*
Y407250D01*
X1274500D01*
Y387250D01*
X1299500D01*
Y407250D01*
X1292608D01*
Y440254D01*
X1294300Y440955D01*
X1296702Y442798D01*
X1298545Y445200D01*
X1299704Y447998D01*
X1300099Y451000D01*
X1299704Y454002D01*
X1298545Y456800D01*
X1296702Y459202D01*
X1294300Y461045D01*
X1291502Y462204D01*
X1288500Y462599D01*
X1285500D01*
X1282498Y462204D01*
X1279700Y461045D01*
X1277298Y459202D01*
X1275455Y456800D01*
X1275135Y456028D01*
X1273865D01*
X1273545Y456800D01*
X1271702Y459202D01*
X1269300Y461045D01*
X1266502Y462204D01*
X1263500Y462599D01*
X1260500D01*
X1257498Y462204D01*
X1255676Y461449D01*
X1254957Y462526D01*
X1257306Y464875D01*
X1257498Y464796D01*
X1260500Y464401D01*
X1263500D01*
X1266502Y464796D01*
X1269300Y465955D01*
X1271702Y467798D01*
X1273545Y470200D01*
X1273865Y470972D01*
X1275135D01*
X1275455Y470200D01*
X1277298Y467798D01*
X1279700Y465955D01*
X1282498Y464796D01*
X1285500Y464401D01*
X1288500D01*
X1291502Y464796D01*
X1294300Y465955D01*
X1296702Y467798D01*
X1298545Y470200D01*
X1299704Y472998D01*
X1300099Y476000D01*
X1299704Y479002D01*
X1298949Y480824D01*
X1300026Y481544D01*
X1311392Y470177D01*
Y407250D01*
X1304500D01*
Y387250D01*
X1329500D01*
Y407250D01*
X1322608D01*
Y472500D01*
X1322181Y474646D01*
X1320965Y476465D01*
X1299624Y497806D01*
X1299704Y497998D01*
X1300099Y501000D01*
X1299704Y504002D01*
X1298949Y505824D01*
X1300026Y506544D01*
X1339692Y466877D01*
Y407250D01*
X1333500D01*
Y387250D01*
X1358500D01*
Y407250D01*
X1350908D01*
Y441590D01*
X1352178Y442216D01*
X1353253Y441391D01*
X1355928Y440283D01*
X1358800Y439905D01*
X1361672Y440283D01*
X1364347Y441391D01*
X1366645Y443155D01*
X1368409Y445453D01*
X1369517Y448128D01*
X1369895Y451000D01*
X1369517Y453872D01*
X1368409Y456547D01*
X1366645Y458845D01*
X1364347Y460608D01*
X1361672Y461717D01*
X1358800Y462095D01*
X1355928Y461717D01*
X1353253Y460608D01*
X1352178Y459784D01*
X1350908Y460410D01*
Y469200D01*
X1350481Y471346D01*
X1349265Y473165D01*
X1300000Y522430D01*
Y537500D01*
X1282730D01*
X1282400Y537920D01*
X1282362Y538101D01*
X1282705Y539535D01*
X1284124Y540483D01*
X1285450Y542468D01*
X1285916Y544809D01*
X1285450Y547150D01*
X1284124Y549134D01*
X1282139Y550461D01*
X1282061Y550476D01*
X1269258Y563279D01*
X1267439Y564495D01*
X1265293Y564921D01*
X987509D01*
X974712Y577719D01*
X975198Y578892D01*
X1226250D01*
Y575750D01*
X1251750D01*
Y581142D01*
X1267600D01*
Y568500D01*
X1290400D01*
Y590392D01*
X1300000D01*
Y586000D01*
X1324000D01*
Y590192D01*
X1349805D01*
X1350581Y589181D01*
X1352461Y587739D01*
X1354651Y586832D01*
X1357000Y586522D01*
X1365000D01*
X1367350Y586832D01*
X1369539Y587739D01*
X1371419Y589181D01*
X1372861Y591061D01*
X1373768Y593251D01*
X1374078Y595600D01*
X1373768Y597949D01*
X1372861Y600139D01*
X1371419Y602019D01*
X1369539Y603461D01*
X1367350Y604368D01*
X1365000Y604678D01*
X1357000D01*
X1354651Y604368D01*
X1352461Y603461D01*
X1350581Y602019D01*
X1350112Y601408D01*
X1324000D01*
Y606000D01*
X1300000D01*
Y601608D01*
X1289940D01*
Y616230D01*
X1268060D01*
Y601500D01*
X1267600D01*
Y592358D01*
X1251750D01*
Y597750D01*
X1226250D01*
Y590108D01*
X973852D01*
X946741Y617219D01*
X947227Y618392D01*
X994000D01*
Y601000D01*
X1090000D01*
Y653392D01*
X1093500D01*
Y646000D01*
X1129500D01*
Y653392D01*
X1134750D01*
Y646250D01*
X1156750D01*
Y671750D01*
X1134750D01*
Y664608D01*
X1129500D01*
Y672000D01*
X1093500D01*
Y664608D01*
X1090000D01*
Y717000D01*
X994000D01*
Y629608D01*
X950050D01*
Y649750D01*
X949608D01*
Y656593D01*
X949652Y656659D01*
X950117Y659000D01*
X949652Y661341D01*
X948326Y663326D01*
X946341Y664652D01*
X944000Y665117D01*
X941659Y664652D01*
X939674Y663326D01*
X938348Y661341D01*
X937883Y659000D01*
X938348Y656659D01*
X938392Y656593D01*
Y649750D01*
X938050D01*
Y649556D01*
X936890Y649290D01*
Y649290D01*
X932620D01*
Y639000D01*
X930080D01*
Y649290D01*
X925810D01*
Y649290D01*
X924650Y649556D01*
Y649750D01*
X924258D01*
Y658827D01*
X933823Y668392D01*
X971500D01*
X973646Y668819D01*
X975465Y670035D01*
X985465Y680035D01*
X986681Y681854D01*
X987108Y684000D01*
Y716677D01*
X996323Y725892D01*
X1171677D01*
X1205892Y691677D01*
Y618823D01*
X1193927Y606858D01*
X1164073D01*
X1153604Y617327D01*
X1154090Y618500D01*
X1156500D01*
Y644000D01*
X1134500D01*
Y636708D01*
X1129500D01*
Y644100D01*
X1093500D01*
Y618100D01*
X1129500D01*
Y625492D01*
X1134500D01*
Y618500D01*
X1137691D01*
X1137819Y617854D01*
X1139035Y616035D01*
X1157785Y597285D01*
X1159604Y596069D01*
X1161750Y595642D01*
X1196250D01*
X1198396Y596069D01*
X1200215Y597285D01*
X1215465Y612535D01*
X1216681Y614354D01*
X1217108Y616500D01*
Y689372D01*
X1217931Y690604D01*
X1218358Y692750D01*
X1218328Y692898D01*
X1267427Y741996D01*
X1268600Y741510D01*
Y740500D01*
X1269060D01*
Y725770D01*
X1280000D01*
X1290940D01*
Y740500D01*
X1291400D01*
Y742392D01*
X1303000D01*
Y738000D01*
X1327000D01*
Y741892D01*
X1349000D01*
Y738000D01*
X1375000D01*
Y756000D01*
X1349000D01*
Y753108D01*
X1327000D01*
Y758000D01*
X1303000D01*
Y753608D01*
X1291400D01*
Y765892D01*
X1321500D01*
X1323646Y766319D01*
X1325465Y767535D01*
X1337965Y780035D01*
X1339181Y781854D01*
X1339608Y784000D01*
Y791128D01*
X1340878Y791446D01*
X1342211Y788951D01*
X1344460Y786210D01*
X1347201Y783961D01*
X1350328Y782290D01*
X1353721Y781261D01*
X1357250Y780913D01*
X1360779Y781261D01*
X1364172Y782290D01*
X1367299Y783961D01*
X1370040Y786210D01*
X1372289Y788951D01*
X1373960Y792078D01*
X1374989Y795471D01*
X1375337Y799000D01*
X1374989Y802529D01*
X1373960Y805922D01*
X1372289Y809049D01*
X1370040Y811789D01*
X1367299Y814039D01*
X1364172Y815710D01*
X1360779Y816740D01*
X1357250Y817087D01*
X1353721Y816740D01*
X1350328Y815710D01*
X1347201Y814039D01*
X1344460Y811789D01*
X1342211Y809049D01*
X1340878Y806554D01*
X1339608Y806872D01*
Y850410D01*
X1340878Y850728D01*
X1342126Y848393D01*
X1344500Y845500D01*
X1347393Y843126D01*
X1350694Y841361D01*
X1354275Y840275D01*
X1358000Y839908D01*
X1361725Y840275D01*
X1365306Y841361D01*
X1368607Y843126D01*
X1371500Y845500D01*
X1373874Y848393D01*
X1375639Y851694D01*
X1376725Y855275D01*
X1377092Y859000D01*
X1376725Y862725D01*
X1375639Y866306D01*
X1373874Y869607D01*
X1371500Y872500D01*
X1368607Y874874D01*
X1365306Y876639D01*
X1361725Y877725D01*
X1358000Y878092D01*
X1354275Y877725D01*
X1350694Y876639D01*
X1347393Y874874D01*
X1344500Y872500D01*
X1342126Y869607D01*
X1340361Y866306D01*
X1339275Y862725D01*
X1338908Y859000D01*
X1339215Y855880D01*
X1337983Y855439D01*
X1337965Y855465D01*
X1323049Y870381D01*
Y872149D01*
X1323367Y873750D01*
X1322902Y876091D01*
X1321576Y878076D01*
X1319591Y879402D01*
X1317250Y879867D01*
D02*
G37*
G36*
X319000Y878092D02*
X315275Y877725D01*
X311694Y876639D01*
X308393Y874874D01*
X305500Y872500D01*
X303126Y869607D01*
X301361Y866306D01*
X300275Y862725D01*
X299908Y859000D01*
X300275Y855275D01*
X301361Y851694D01*
X303126Y848393D01*
X305500Y845500D01*
X308393Y843126D01*
X311694Y841361D01*
X315275Y840275D01*
X319000Y839908D01*
X322725Y840275D01*
X326306Y841361D01*
X329607Y843126D01*
X332500Y845500D01*
X334874Y848393D01*
X336639Y851694D01*
X337725Y855275D01*
X338092Y859000D01*
X337725Y862725D01*
X336639Y866306D01*
X334874Y869607D01*
X332500Y872500D01*
X329607Y874874D01*
X326306Y876639D01*
X322725Y877725D01*
X319000Y878092D01*
D02*
G37*
G36*
X1112470Y815716D02*
Y806270D01*
X1121916D01*
X1121712Y807817D01*
X1120625Y810442D01*
X1118895Y812695D01*
X1116642Y814425D01*
X1114017Y815512D01*
X1112470Y815716D01*
D02*
G37*
G36*
X1109930D02*
X1108383Y815512D01*
X1105759Y814425D01*
X1103504Y812695D01*
X1101775Y810442D01*
X1100688Y807817D01*
X1100484Y806270D01*
X1109930D01*
Y815716D01*
D02*
G37*
G36*
X934670D02*
Y806270D01*
X944116D01*
X943912Y807817D01*
X942825Y810442D01*
X941096Y812695D01*
X938842Y814425D01*
X936217Y815512D01*
X934670Y815716D01*
D02*
G37*
G36*
X932130D02*
X930583Y815512D01*
X927959Y814425D01*
X925704Y812695D01*
X923975Y810442D01*
X922888Y807817D01*
X922684Y806270D01*
X932130D01*
Y815716D01*
D02*
G37*
G36*
X1121916Y803730D02*
X1112470D01*
Y794284D01*
X1114017Y794488D01*
X1116642Y795575D01*
X1118895Y797305D01*
X1120625Y799558D01*
X1121712Y802183D01*
X1121916Y803730D01*
D02*
G37*
G36*
X1109930D02*
X1100484D01*
X1100688Y802183D01*
X1101775Y799558D01*
X1103504Y797305D01*
X1105759Y795575D01*
X1108383Y794488D01*
X1109930Y794284D01*
Y803730D01*
D02*
G37*
G36*
X944116D02*
X934670D01*
Y794284D01*
X936217Y794488D01*
X938842Y795575D01*
X941096Y797305D01*
X942825Y799558D01*
X943912Y802183D01*
X944116Y803730D01*
D02*
G37*
G36*
X932130D02*
X922684D01*
X922888Y802183D01*
X923975Y799558D01*
X925704Y797305D01*
X927959Y795575D01*
X930583Y794488D01*
X932130Y794284D01*
Y803730D01*
D02*
G37*
G36*
X766850Y816250D02*
X744350D01*
Y793750D01*
X766850D01*
Y816250D01*
D02*
G37*
G36*
X831800Y816347D02*
X828863Y815960D01*
X826126Y814827D01*
X823776Y813024D01*
X821973Y810674D01*
X820840Y807937D01*
X820453Y805000D01*
X820840Y802063D01*
X821973Y799326D01*
X823776Y796976D01*
X826126Y795173D01*
X828863Y794040D01*
X831800Y793653D01*
X834737Y794040D01*
X837474Y795173D01*
X839824Y796976D01*
X841627Y799326D01*
X842760Y802063D01*
X843147Y805000D01*
X842760Y807937D01*
X841627Y810674D01*
X839824Y813024D01*
X837474Y814827D01*
X834737Y815960D01*
X831800Y816347D01*
D02*
G37*
G36*
X806400D02*
X803463Y815960D01*
X800726Y814827D01*
X798376Y813024D01*
X796573Y810674D01*
X795440Y807937D01*
X795053Y805000D01*
X795440Y802063D01*
X796573Y799326D01*
X798376Y796976D01*
X800726Y795173D01*
X803463Y794040D01*
X806400Y793653D01*
X809337Y794040D01*
X812074Y795173D01*
X814424Y796976D01*
X816227Y799326D01*
X817360Y802063D01*
X817747Y805000D01*
X817360Y807937D01*
X816227Y810674D01*
X814424Y813024D01*
X812074Y814827D01*
X809337Y815960D01*
X806400Y816347D01*
D02*
G37*
G36*
X781000D02*
X778063Y815960D01*
X775327Y814827D01*
X772976Y813024D01*
X771173Y810674D01*
X770040Y807937D01*
X769653Y805000D01*
X770040Y802063D01*
X771173Y799326D01*
X772976Y796976D01*
X775327Y795173D01*
X778063Y794040D01*
X781000Y793653D01*
X783937Y794040D01*
X786674Y795173D01*
X789024Y796976D01*
X790827Y799326D01*
X791960Y802063D01*
X792347Y805000D01*
X791960Y807937D01*
X790827Y810674D01*
X789024Y813024D01*
X786674Y814827D01*
X783937Y815960D01*
X781000Y816347D01*
D02*
G37*
G36*
X575814Y907108D02*
X446872D01*
X444726Y906681D01*
X442907Y905465D01*
X418785Y881343D01*
X417569Y879524D01*
X417142Y877378D01*
Y866822D01*
X417569Y864676D01*
X418785Y862857D01*
X422171Y859470D01*
X423990Y858255D01*
X424583Y858137D01*
X425250Y857469D01*
Y853970D01*
X425250Y853400D01*
X425250D01*
Y852700D01*
X425250D01*
Y841270D01*
X425250Y840700D01*
X425250D01*
Y840000D01*
X425250D01*
Y828570D01*
X425250Y828000D01*
X425250D01*
Y827300D01*
X425250D01*
Y815870D01*
X425250Y815300D01*
X425250D01*
Y814600D01*
X425250D01*
Y810412D01*
X424077Y809926D01*
X414608Y819395D01*
Y876593D01*
X414652Y876659D01*
X415117Y879000D01*
X414652Y881341D01*
X413326Y883326D01*
X411341Y884652D01*
X409000Y885117D01*
X406659Y884652D01*
X404674Y883326D01*
X403348Y881341D01*
X402882Y879000D01*
X403348Y876659D01*
X403392Y876593D01*
Y817072D01*
X403819Y814926D01*
X405035Y813107D01*
X421882Y796259D01*
X422135Y794715D01*
X405035Y777615D01*
X403819Y775796D01*
X403392Y773650D01*
Y752472D01*
X403819Y750326D01*
X405035Y748507D01*
X413507Y740035D01*
X413644Y739943D01*
X414000Y738750D01*
X414000Y738750D01*
X414000Y738750D01*
Y718750D01*
X437730D01*
X439000Y718750D01*
Y718750D01*
X439000D01*
Y718750D01*
X462730D01*
X464000Y718750D01*
Y718750D01*
X464000D01*
Y718750D01*
X489000D01*
Y738392D01*
X491500D01*
Y718750D01*
X516500D01*
Y738392D01*
X519000D01*
Y718750D01*
X544000D01*
Y738392D01*
X549000D01*
Y718750D01*
X574000D01*
X574000Y718500D01*
X599000D01*
Y738392D01*
X601500D01*
Y718750D01*
X626500D01*
Y738392D01*
X821600D01*
X823746Y738819D01*
X825565Y740035D01*
X879597Y794067D01*
X879663Y794040D01*
X882600Y793653D01*
X885537Y794040D01*
X888274Y795173D01*
X890624Y796976D01*
X892427Y799326D01*
X892454Y799392D01*
X898146D01*
X898173Y799326D01*
X899976Y796976D01*
X902327Y795173D01*
X905063Y794040D01*
X908000Y793653D01*
X910937Y794040D01*
X913674Y795173D01*
X916024Y796976D01*
X917827Y799326D01*
X918960Y802063D01*
X919347Y805000D01*
X918960Y807937D01*
X917827Y810674D01*
X916024Y813024D01*
X913674Y814827D01*
X910937Y815960D01*
X908000Y816347D01*
X905063Y815960D01*
X902327Y814827D01*
X899976Y813024D01*
X898173Y810674D01*
X898146Y810608D01*
X892454D01*
X892427Y810674D01*
X890624Y813024D01*
X888274Y814827D01*
X885537Y815960D01*
X882600Y816347D01*
X879663Y815960D01*
X876926Y814827D01*
X874576Y813024D01*
X872773Y810674D01*
X871640Y807937D01*
X871253Y805000D01*
X871640Y802063D01*
X871667Y801997D01*
X867413Y797744D01*
X866456Y798583D01*
X867027Y799326D01*
X868160Y802063D01*
X868547Y805000D01*
X868160Y807937D01*
X867027Y810674D01*
X865224Y813024D01*
X862874Y814827D01*
X860137Y815960D01*
X857200Y816347D01*
X854263Y815960D01*
X851526Y814827D01*
X849176Y813024D01*
X847373Y810674D01*
X846240Y807937D01*
X845853Y805000D01*
X846240Y802063D01*
X847373Y799326D01*
X849176Y796976D01*
X851526Y795173D01*
X854263Y794040D01*
X857200Y793653D01*
X860137Y794040D01*
X862874Y795173D01*
X863617Y795744D01*
X864456Y794787D01*
X819277Y749608D01*
X626500D01*
Y769250D01*
X612608D01*
Y813750D01*
X612256Y815517D01*
X613427Y816143D01*
X661160Y768410D01*
X662979Y767194D01*
X665125Y766767D01*
X767843D01*
X767909Y766723D01*
X770250Y766257D01*
X772591Y766723D01*
X774576Y768049D01*
X775902Y770034D01*
X776367Y772375D01*
X775902Y774716D01*
X774576Y776701D01*
X772591Y778027D01*
X770250Y778493D01*
X767909Y778027D01*
X767843Y777983D01*
X667448D01*
X582065Y863365D01*
X580246Y864581D01*
X578100Y865008D01*
X569679D01*
X569250Y866100D01*
X569250Y866100D01*
X569250D01*
X569250Y866100D01*
Y878100D01*
X547750D01*
Y866100D01*
X547750D01*
Y865400D01*
X547750D01*
Y853970D01*
X547750Y853050D01*
X547750Y852130D01*
Y841270D01*
X547750Y840700D01*
X547750D01*
Y840000D01*
X547750D01*
Y828570D01*
X547750Y828000D01*
X547750D01*
Y827300D01*
X547750D01*
Y815870D01*
X547750Y815300D01*
X547750D01*
Y814600D01*
X547750D01*
Y802600D01*
X547944D01*
X548210Y801440D01*
X548210D01*
Y797170D01*
X558500D01*
Y795900D01*
X559770D01*
Y790360D01*
X565520D01*
X566006Y789187D01*
X561927Y785108D01*
X549250D01*
X547104Y784681D01*
X545285Y783465D01*
X531069Y769250D01*
X519000D01*
Y749608D01*
X516500D01*
Y769250D01*
X509608D01*
Y771500D01*
X509181Y773646D01*
X507965Y775465D01*
X494800Y788630D01*
X495327Y789900D01*
X515250D01*
Y793969D01*
X516082Y794801D01*
X516674Y794919D01*
X518493Y796135D01*
X529465Y807107D01*
X530681Y808926D01*
X531108Y811072D01*
Y880677D01*
X538323Y887892D01*
X570177D01*
X657035Y801035D01*
X658854Y799819D01*
X661000Y799392D01*
X713593D01*
X713659Y799348D01*
X716000Y798883D01*
X718341Y799348D01*
X720326Y800674D01*
X721652Y802659D01*
X722117Y805000D01*
X721681Y807193D01*
X721795Y807613D01*
X722249Y808463D01*
X724606D01*
X730392Y802677D01*
Y797323D01*
X724677Y791608D01*
X700407D01*
X700341Y791652D01*
X698000Y792117D01*
X695659Y791652D01*
X693674Y790326D01*
X692348Y788341D01*
X691882Y786000D01*
X692348Y783659D01*
X693674Y781674D01*
X695659Y780348D01*
X698000Y779883D01*
X700341Y780348D01*
X700407Y780392D01*
X727000D01*
X729146Y780819D01*
X730965Y782035D01*
X739965Y791035D01*
X741181Y792854D01*
X741608Y795000D01*
Y805000D01*
X741181Y807146D01*
X739965Y808965D01*
X730894Y818036D01*
X729075Y819252D01*
X726929Y819679D01*
X665565D01*
X579779Y905465D01*
X577960Y906681D01*
X575814Y907108D01*
D02*
G37*
G36*
X1060400Y816347D02*
X1057463Y815960D01*
X1054726Y814827D01*
X1052376Y813024D01*
X1050573Y810674D01*
X1049440Y807937D01*
X1049053Y805000D01*
X1049440Y802063D01*
X1050573Y799326D01*
X1052376Y796976D01*
X1054726Y795173D01*
X1054792Y795146D01*
Y790750D01*
X1047750D01*
Y791000D01*
X1040608D01*
Y795146D01*
X1040674Y795173D01*
X1043024Y796976D01*
X1044827Y799326D01*
X1045960Y802063D01*
X1046347Y805000D01*
X1045960Y807937D01*
X1044827Y810674D01*
X1043024Y813024D01*
X1040674Y814827D01*
X1037937Y815960D01*
X1035000Y816347D01*
X1032063Y815960D01*
X1029326Y814827D01*
X1026976Y813024D01*
X1025173Y810674D01*
X1024040Y807937D01*
X1023653Y805000D01*
X1024040Y802063D01*
X1025173Y799326D01*
X1026976Y796976D01*
X1029326Y795173D01*
X1029392Y795146D01*
Y791000D01*
X1022250D01*
Y769000D01*
X1047500D01*
Y768750D01*
X1073000D01*
Y790750D01*
X1066008D01*
Y795146D01*
X1066074Y795173D01*
X1068424Y796976D01*
X1070227Y799326D01*
X1071360Y802063D01*
X1071747Y805000D01*
X1071360Y807937D01*
X1070227Y810674D01*
X1068424Y813024D01*
X1066074Y814827D01*
X1063337Y815960D01*
X1060400Y816347D01*
D02*
G37*
G36*
X557230Y794630D02*
X548210D01*
Y790360D01*
X557230D01*
Y794630D01*
D02*
G37*
G36*
X1325500Y812000D02*
X1302500D01*
Y786000D01*
X1325500D01*
Y812000D01*
D02*
G37*
G36*
X1284000Y812099D02*
X1280998Y811704D01*
X1278200Y810545D01*
X1275798Y808702D01*
X1273955Y806300D01*
X1272796Y803502D01*
X1272401Y800500D01*
Y797500D01*
X1272796Y794498D01*
X1273955Y791700D01*
X1275798Y789298D01*
X1278200Y787455D01*
X1280998Y786296D01*
X1284000Y785901D01*
X1287002Y786296D01*
X1289800Y787455D01*
X1292202Y789298D01*
X1294045Y791700D01*
X1295204Y794498D01*
X1295599Y797500D01*
Y800500D01*
X1295204Y803502D01*
X1294045Y806300D01*
X1292202Y808702D01*
X1289800Y810545D01*
X1287002Y811704D01*
X1284000Y812099D01*
D02*
G37*
G36*
X1162000Y816347D02*
X1159063Y815960D01*
X1156327Y814827D01*
X1153976Y813024D01*
X1152173Y810674D01*
X1151040Y807937D01*
X1150653Y805000D01*
X1151040Y802063D01*
X1152173Y799326D01*
X1153976Y796976D01*
X1156327Y795173D01*
X1156392Y795146D01*
Y790750D01*
X1143750D01*
Y781017D01*
X1142480Y780892D01*
X1142208Y782261D01*
Y795146D01*
X1142274Y795173D01*
X1144624Y796976D01*
X1146427Y799326D01*
X1147560Y802063D01*
X1147947Y805000D01*
X1147560Y807937D01*
X1146427Y810674D01*
X1144624Y813024D01*
X1142274Y814827D01*
X1139537Y815960D01*
X1136600Y816347D01*
X1133663Y815960D01*
X1130927Y814827D01*
X1128576Y813024D01*
X1126773Y810674D01*
X1125640Y807937D01*
X1125253Y805000D01*
X1125640Y802063D01*
X1126773Y799326D01*
X1128576Y796976D01*
X1130927Y795173D01*
X1130992Y795146D01*
Y790750D01*
X1116250D01*
Y768750D01*
X1141750D01*
Y777459D01*
X1142181Y778104D01*
X1142480Y779608D01*
X1143750Y779483D01*
Y768750D01*
X1169250D01*
Y790750D01*
X1167608D01*
Y795146D01*
X1167674Y795173D01*
X1170024Y796976D01*
X1171827Y799326D01*
X1172960Y802063D01*
X1173347Y805000D01*
X1172960Y807937D01*
X1171827Y810674D01*
X1170024Y813024D01*
X1167674Y814827D01*
X1164937Y815960D01*
X1162000Y816347D01*
D02*
G37*
G36*
X807770Y779396D02*
Y775270D01*
X811896D01*
X811719Y776162D01*
X810494Y777994D01*
X808662Y779219D01*
X807770Y779396D01*
D02*
G37*
G36*
X805230D02*
X804338Y779219D01*
X802506Y777994D01*
X801282Y776162D01*
X801104Y775270D01*
X805230D01*
Y779396D01*
D02*
G37*
G36*
X1238200Y816347D02*
X1235263Y815960D01*
X1232526Y814827D01*
X1230176Y813024D01*
X1228373Y810674D01*
X1227240Y807937D01*
X1226853Y805000D01*
X1227240Y802063D01*
X1228373Y799326D01*
X1230176Y796976D01*
X1232526Y795173D01*
X1232592Y795146D01*
Y790750D01*
X1226250D01*
Y768750D01*
X1251750D01*
Y790750D01*
X1243808D01*
Y795146D01*
X1243874Y795173D01*
X1246224Y796976D01*
X1248027Y799326D01*
X1249160Y802063D01*
X1249547Y805000D01*
X1249160Y807937D01*
X1248027Y810674D01*
X1246224Y813024D01*
X1243874Y814827D01*
X1241137Y815960D01*
X1238200Y816347D01*
D02*
G37*
G36*
X1212800D02*
X1209863Y815960D01*
X1207126Y814827D01*
X1204776Y813024D01*
X1202973Y810674D01*
X1201840Y807937D01*
X1201453Y805000D01*
X1201840Y802063D01*
X1202973Y799326D01*
X1204776Y796976D01*
X1207126Y795173D01*
X1207192Y795146D01*
Y790750D01*
X1198750D01*
Y768750D01*
X1224250D01*
Y790750D01*
X1218408D01*
Y795146D01*
X1218474Y795173D01*
X1220824Y796976D01*
X1222627Y799326D01*
X1223760Y802063D01*
X1224147Y805000D01*
X1223760Y807937D01*
X1222627Y810674D01*
X1220824Y813024D01*
X1218474Y814827D01*
X1215737Y815960D01*
X1212800Y816347D01*
D02*
G37*
G36*
X1187400D02*
X1184463Y815960D01*
X1181727Y814827D01*
X1179376Y813024D01*
X1177573Y810674D01*
X1176440Y807937D01*
X1176053Y805000D01*
X1176440Y802063D01*
X1177573Y799326D01*
X1179376Y796976D01*
X1181727Y795173D01*
X1181792Y795146D01*
Y790750D01*
X1171250D01*
Y768750D01*
X1196750D01*
Y790750D01*
X1193008D01*
Y795146D01*
X1193074Y795173D01*
X1195424Y796976D01*
X1197227Y799326D01*
X1198360Y802063D01*
X1198747Y805000D01*
X1198360Y807937D01*
X1197227Y810674D01*
X1195424Y813024D01*
X1193074Y814827D01*
X1190337Y815960D01*
X1187400Y816347D01*
D02*
G37*
G36*
X984200D02*
X981263Y815960D01*
X978527Y814827D01*
X976176Y813024D01*
X974373Y810674D01*
X973240Y807937D01*
X972853Y805000D01*
X973240Y802063D01*
X974373Y799326D01*
X976176Y796976D01*
X978527Y795173D01*
X978592Y795146D01*
Y790750D01*
X971250D01*
Y768750D01*
X996750D01*
Y790750D01*
X989808D01*
Y795146D01*
X989874Y795173D01*
X992224Y796976D01*
X994027Y799326D01*
X995160Y802063D01*
X995547Y805000D01*
X995160Y807937D01*
X994027Y810674D01*
X992224Y813024D01*
X989874Y814827D01*
X987137Y815960D01*
X984200Y816347D01*
D02*
G37*
G36*
X958800D02*
X955863Y815960D01*
X953127Y814827D01*
X950776Y813024D01*
X948973Y810674D01*
X947840Y807937D01*
X947453Y805000D01*
X947840Y802063D01*
X948973Y799326D01*
X950776Y796976D01*
X953127Y795173D01*
X953192Y795146D01*
Y790750D01*
X943750D01*
Y768750D01*
X969250D01*
Y790750D01*
X964408D01*
Y795146D01*
X964474Y795173D01*
X966824Y796976D01*
X968627Y799326D01*
X969760Y802063D01*
X970147Y805000D01*
X969760Y807937D01*
X968627Y810674D01*
X966824Y813024D01*
X964474Y814827D01*
X961737Y815960D01*
X958800Y816347D01*
D02*
G37*
G36*
X811896Y772730D02*
X807770D01*
Y768604D01*
X808662Y768781D01*
X810494Y770006D01*
X811719Y771838D01*
X811896Y772730D01*
D02*
G37*
G36*
X805230D02*
X801104D01*
X801282Y771838D01*
X802506Y770006D01*
X804338Y768781D01*
X805230Y768604D01*
Y772730D01*
D02*
G37*
G36*
X645270Y769396D02*
Y765270D01*
X649396D01*
X649219Y766162D01*
X647994Y767994D01*
X646162Y769219D01*
X645270Y769396D01*
D02*
G37*
G36*
X642730D02*
X641838Y769219D01*
X640006Y767994D01*
X638782Y766162D01*
X638604Y765270D01*
X642730D01*
Y769396D01*
D02*
G37*
G36*
X1085800Y816347D02*
X1082863Y815960D01*
X1080126Y814827D01*
X1077776Y813024D01*
X1075973Y810674D01*
X1074840Y807937D01*
X1074453Y805000D01*
X1074840Y802063D01*
X1075973Y799326D01*
X1077776Y796976D01*
X1080126Y795173D01*
X1080192Y795146D01*
Y766123D01*
X1074173Y760104D01*
X1073000Y760590D01*
Y764250D01*
X1047750D01*
Y764500D01*
X1022250D01*
Y760840D01*
X1021077Y760354D01*
X1015208Y766223D01*
Y795146D01*
X1015274Y795173D01*
X1017624Y796976D01*
X1019427Y799326D01*
X1020560Y802063D01*
X1020947Y805000D01*
X1020560Y807937D01*
X1019427Y810674D01*
X1017624Y813024D01*
X1015274Y814827D01*
X1012537Y815960D01*
X1009600Y816347D01*
X1006663Y815960D01*
X1003926Y814827D01*
X1001576Y813024D01*
X999773Y810674D01*
X998640Y807937D01*
X998253Y805000D01*
X998640Y802063D01*
X999773Y799326D01*
X1001576Y796976D01*
X1003926Y795173D01*
X1003992Y795146D01*
Y767923D01*
X997923Y761854D01*
X996750Y762340D01*
Y764250D01*
X971250D01*
Y742250D01*
X996750D01*
Y747892D01*
X997500D01*
X999646Y748319D01*
X1001465Y749535D01*
X1008750Y756820D01*
X1016035Y749535D01*
X1017854Y748319D01*
X1020000Y747892D01*
X1022250D01*
Y742500D01*
X1047500D01*
Y742250D01*
X1073000D01*
Y747642D01*
X1075250D01*
X1077396Y748069D01*
X1079215Y749285D01*
X1089765Y759835D01*
X1090981Y761654D01*
X1091408Y763800D01*
Y795146D01*
X1091474Y795173D01*
X1093824Y796976D01*
X1095627Y799326D01*
X1096760Y802063D01*
X1097147Y805000D01*
X1096760Y807937D01*
X1095627Y810674D01*
X1093824Y813024D01*
X1091474Y814827D01*
X1088737Y815960D01*
X1085800Y816347D01*
D02*
G37*
G36*
X649396Y762730D02*
X645270D01*
Y758604D01*
X646162Y758781D01*
X647994Y760006D01*
X649219Y761838D01*
X649396Y762730D01*
D02*
G37*
G36*
X642730D02*
X638604D01*
X638782Y761838D01*
X640006Y760006D01*
X641838Y758781D01*
X642730Y758604D01*
Y762730D01*
D02*
G37*
G36*
X1141290Y763790D02*
X1130270D01*
Y754520D01*
X1141290D01*
Y763790D01*
D02*
G37*
G36*
X1168790D02*
X1157770D01*
Y754520D01*
X1168790D01*
Y763790D01*
D02*
G37*
G36*
X1251290D02*
X1240270D01*
Y754520D01*
X1251290D01*
Y763790D01*
D02*
G37*
G36*
X968790D02*
X957770D01*
Y754520D01*
X968790D01*
Y763790D01*
D02*
G37*
G36*
X1196290D02*
X1185270D01*
Y754520D01*
X1196290D01*
Y763790D01*
D02*
G37*
G36*
X1223790D02*
X1212770D01*
Y754520D01*
X1223790D01*
Y763790D01*
D02*
G37*
G36*
X1210230D02*
X1199210D01*
Y754520D01*
X1210230D01*
Y763790D01*
D02*
G37*
G36*
X1182730D02*
X1171710D01*
Y754520D01*
X1182730D01*
Y763790D01*
D02*
G37*
G36*
X1155230D02*
X1144210D01*
Y754520D01*
X1155230D01*
Y763790D01*
D02*
G37*
G36*
X1237730D02*
X1226710D01*
Y754520D01*
X1237730D01*
Y763790D01*
D02*
G37*
G36*
X955230D02*
X944210D01*
Y754520D01*
X955230D01*
Y763790D01*
D02*
G37*
G36*
X1127730D02*
X1116710D01*
Y754520D01*
X1127730D01*
Y763790D01*
D02*
G37*
G36*
X392290Y870830D02*
X382000D01*
X371710D01*
Y866670D01*
X371710Y866560D01*
X371445Y865400D01*
X371250D01*
Y864508D01*
X363900D01*
X361754Y864081D01*
X359935Y862865D01*
X302535Y805465D01*
X301319Y803646D01*
X300892Y801500D01*
Y769250D01*
X294000D01*
Y749250D01*
X319000D01*
Y756833D01*
X319181Y757104D01*
X319608Y759250D01*
X319181Y761396D01*
X319000Y761667D01*
Y769250D01*
X312108D01*
Y799177D01*
X327258Y814327D01*
X328392Y813666D01*
Y769250D01*
X321500D01*
Y749250D01*
X346500D01*
Y759333D01*
X346681Y759604D01*
X347108Y761750D01*
X346681Y763896D01*
X346500Y764167D01*
Y769250D01*
X339608D01*
Y811677D01*
X354758Y826827D01*
X355892Y826166D01*
Y769250D01*
X349000D01*
Y749250D01*
X374000D01*
Y769250D01*
X367108D01*
Y824177D01*
X369980Y827049D01*
X371250Y826523D01*
Y815870D01*
X371250Y815300D01*
X371250D01*
Y814600D01*
X371250D01*
Y802600D01*
X371250Y802600D01*
Y801900D01*
X371250D01*
X371250Y801330D01*
Y789900D01*
X390892D01*
Y769250D01*
X376500D01*
Y749250D01*
X401500D01*
Y762583D01*
X401681Y762854D01*
X402108Y765000D01*
Y812628D01*
X401681Y814774D01*
X400465Y816593D01*
X395993Y821065D01*
X394174Y822281D01*
X393582Y822399D01*
X392750Y823231D01*
X392750Y827650D01*
X392750Y828570D01*
Y840000D01*
X392750Y840000D01*
Y840700D01*
X392750D01*
X392750Y841270D01*
Y852700D01*
X392750Y852700D01*
Y853400D01*
X392750D01*
X392750Y853970D01*
Y865400D01*
X392556D01*
X392290Y866560D01*
X392290Y866670D01*
Y870830D01*
D02*
G37*
G36*
X1223790Y751980D02*
X1212770D01*
Y742710D01*
X1223790D01*
Y751980D01*
D02*
G37*
G36*
X1210230D02*
X1199210D01*
Y742710D01*
X1210230D01*
Y751980D01*
D02*
G37*
G36*
X1196290D02*
X1185270D01*
Y742710D01*
X1196290D01*
Y751980D01*
D02*
G37*
G36*
X1182730D02*
X1171710D01*
Y742710D01*
X1182730D01*
Y751980D01*
D02*
G37*
G36*
X1168790D02*
X1157770D01*
Y742710D01*
X1168790D01*
Y751980D01*
D02*
G37*
G36*
X1155230D02*
X1144210D01*
Y742710D01*
X1155230D01*
Y751980D01*
D02*
G37*
G36*
X1141290D02*
X1130270D01*
Y742710D01*
X1141290D01*
Y751980D01*
D02*
G37*
G36*
X1127730D02*
X1116710D01*
Y742710D01*
X1127730D01*
Y751980D01*
D02*
G37*
G36*
X968790D02*
X957770D01*
Y742710D01*
X968790D01*
Y751980D01*
D02*
G37*
G36*
X955230D02*
X944210D01*
Y742710D01*
X955230D01*
Y751980D01*
D02*
G37*
G36*
X1237730D02*
X1226710D01*
Y742710D01*
X1237730D01*
Y751980D01*
D02*
G37*
G36*
X645270Y729396D02*
Y725270D01*
X649396D01*
X649219Y726162D01*
X647994Y727994D01*
X646162Y729219D01*
X645270Y729396D01*
D02*
G37*
G36*
X642730D02*
X641838Y729219D01*
X640006Y727994D01*
X638782Y726162D01*
X638604Y725270D01*
X642730D01*
Y729396D01*
D02*
G37*
G36*
X401500Y738750D02*
X376500D01*
Y718750D01*
X401500D01*
Y738750D01*
D02*
G37*
G36*
X374000D02*
X349000D01*
Y718750D01*
X374000D01*
Y738750D01*
D02*
G37*
G36*
X346500D02*
X321500D01*
Y718750D01*
X346500D01*
Y738750D01*
D02*
G37*
G36*
X319000D02*
X294000D01*
Y718750D01*
X319000D01*
Y738750D01*
D02*
G37*
G36*
X649396Y722730D02*
X645270D01*
Y718604D01*
X646162Y718781D01*
X647994Y720006D01*
X649219Y721838D01*
X649396Y722730D01*
D02*
G37*
G36*
X642730D02*
X638604D01*
X638782Y721838D01*
X640006Y720006D01*
X641838Y718781D01*
X642730Y718604D01*
Y722730D01*
D02*
G37*
G36*
X1327000Y732000D02*
X1303000D01*
Y712000D01*
X1327000D01*
Y716192D01*
X1350805D01*
X1351581Y715181D01*
X1353461Y713739D01*
X1355650Y712832D01*
X1358000Y712522D01*
X1366000D01*
X1368349Y712832D01*
X1370539Y713739D01*
X1372419Y715181D01*
X1373862Y717061D01*
X1374768Y719250D01*
X1375078Y721600D01*
X1374768Y723950D01*
X1373862Y726139D01*
X1372419Y728019D01*
X1370539Y729462D01*
X1368349Y730368D01*
X1366000Y730678D01*
X1358000D01*
X1355650Y730368D01*
X1353461Y729462D01*
X1351581Y728019D01*
X1351112Y727408D01*
X1327000D01*
Y732000D01*
D02*
G37*
G36*
X1290940Y723230D02*
X1281270D01*
Y708460D01*
X1290940D01*
Y723230D01*
D02*
G37*
G36*
X1278730D02*
X1269060D01*
Y708460D01*
X1278730D01*
Y723230D01*
D02*
G37*
G36*
X415270Y699396D02*
Y695270D01*
X419396D01*
X419219Y696162D01*
X417994Y697994D01*
X416162Y699219D01*
X415270Y699396D01*
D02*
G37*
G36*
X412730D02*
X411838Y699219D01*
X410006Y697994D01*
X408782Y696162D01*
X408604Y695270D01*
X412730D01*
Y699396D01*
D02*
G37*
G36*
X945320Y703290D02*
Y694270D01*
X949590D01*
Y703290D01*
X945320D01*
D02*
G37*
G36*
X419396Y692730D02*
X415270D01*
Y688604D01*
X416162Y688782D01*
X417994Y690006D01*
X419219Y691838D01*
X419396Y692730D01*
D02*
G37*
G36*
X412730D02*
X408604D01*
X408782Y691838D01*
X410006Y690006D01*
X411838Y688782D01*
X412730Y688604D01*
Y692730D01*
D02*
G37*
G36*
X1129040Y699440D02*
X1112770D01*
Y688170D01*
X1129040D01*
Y699440D01*
D02*
G37*
G36*
X1110230D02*
X1093960D01*
Y688170D01*
X1110230D01*
Y699440D01*
D02*
G37*
G36*
X1301740Y695040D02*
X1290470D01*
Y685270D01*
X1301740D01*
Y695040D01*
D02*
G37*
G36*
X949590Y691730D02*
X945320D01*
Y682710D01*
X949590D01*
Y691730D01*
D02*
G37*
G36*
X1129040Y685630D02*
X1112770D01*
Y674360D01*
X1129040D01*
Y685630D01*
D02*
G37*
G36*
X1110230D02*
X1093960D01*
Y674360D01*
X1110230D01*
Y685630D01*
D02*
G37*
G36*
X1301740Y682730D02*
X1290470D01*
Y672960D01*
X1301740D01*
Y682730D01*
D02*
G37*
G36*
X1265700Y695599D02*
X1262700D01*
X1259698Y695204D01*
X1256900Y694045D01*
X1254498Y692202D01*
X1252655Y689800D01*
X1251496Y687002D01*
X1251101Y684000D01*
X1251496Y680998D01*
X1252655Y678200D01*
X1254498Y675798D01*
X1256900Y673955D01*
X1259698Y672796D01*
X1262700Y672401D01*
X1265700D01*
X1268702Y672796D01*
X1271500Y673955D01*
X1273902Y675798D01*
X1275390Y677737D01*
X1276660Y677306D01*
Y672960D01*
X1287930D01*
Y684000D01*
Y695040D01*
X1276660D01*
Y690694D01*
X1275390Y690263D01*
X1273902Y692202D01*
X1271500Y694045D01*
X1268702Y695204D01*
X1265700Y695599D01*
D02*
G37*
G36*
X1361000D02*
X1357998Y695204D01*
X1355200Y694045D01*
X1352798Y692202D01*
X1350955Y689800D01*
X1349796Y687002D01*
X1349401Y684000D01*
X1349796Y680998D01*
X1350955Y678200D01*
X1352798Y675798D01*
X1355200Y673955D01*
X1357998Y672796D01*
X1361000Y672401D01*
X1364002Y672796D01*
X1366800Y673955D01*
X1369202Y675798D01*
X1371045Y678200D01*
X1372204Y680998D01*
X1372599Y684000D01*
X1372204Y687002D01*
X1371045Y689800D01*
X1369202Y692202D01*
X1366800Y694045D01*
X1364002Y695204D01*
X1361000Y695599D01*
D02*
G37*
G36*
X891290Y675790D02*
X880270D01*
Y666520D01*
X891290D01*
Y675790D01*
D02*
G37*
G36*
X877730D02*
X866710D01*
Y666520D01*
X877730D01*
Y675790D01*
D02*
G37*
G36*
X1290700Y670599D02*
X1287700D01*
X1284698Y670204D01*
X1281900Y669045D01*
X1279498Y667202D01*
X1277655Y664800D01*
X1277335Y664028D01*
X1276065D01*
X1275745Y664800D01*
X1273902Y667202D01*
X1271500Y669045D01*
X1268702Y670204D01*
X1265700Y670599D01*
X1262700D01*
X1259698Y670204D01*
X1256900Y669045D01*
X1254498Y667202D01*
X1252655Y664800D01*
X1251496Y662002D01*
X1251101Y659000D01*
X1251496Y655998D01*
X1252655Y653200D01*
X1254498Y650798D01*
X1256900Y648955D01*
X1259698Y647796D01*
X1262700Y647401D01*
X1265700D01*
X1268702Y647796D01*
X1271500Y648955D01*
X1273902Y650798D01*
X1275745Y653200D01*
X1276065Y653972D01*
X1277335D01*
X1277655Y653200D01*
X1279498Y650798D01*
X1281900Y648955D01*
X1284698Y647796D01*
X1287700Y647401D01*
X1290700D01*
X1293702Y647796D01*
X1296227Y648842D01*
X1306392Y638677D01*
Y632000D01*
X1300000D01*
Y612000D01*
X1324000D01*
Y615892D01*
X1348000D01*
Y612000D01*
X1374000D01*
Y630000D01*
X1348000D01*
Y627108D01*
X1324000D01*
Y632000D01*
X1317608D01*
Y641000D01*
X1317181Y643146D01*
X1315965Y644965D01*
X1302256Y658674D01*
X1302299Y659000D01*
X1301904Y662002D01*
X1300745Y664800D01*
X1298902Y667202D01*
X1296500Y669045D01*
X1293702Y670204D01*
X1290700Y670599D01*
D02*
G37*
G36*
X975270Y664396D02*
Y660270D01*
X979396D01*
X979219Y661162D01*
X977994Y662994D01*
X976162Y664219D01*
X975270Y664396D01*
D02*
G37*
G36*
X972730D02*
X971838Y664219D01*
X970006Y662994D01*
X968782Y661162D01*
X968604Y660270D01*
X972730D01*
Y664396D01*
D02*
G37*
G36*
X1182790Y671290D02*
X1173520D01*
Y660270D01*
X1182790D01*
Y671290D01*
D02*
G37*
G36*
X1170980D02*
X1161710D01*
Y660270D01*
X1170980D01*
Y671290D01*
D02*
G37*
G36*
X891290Y663980D02*
X880270D01*
Y654710D01*
X891290D01*
Y663980D01*
D02*
G37*
G36*
X877730D02*
X866710D01*
Y654710D01*
X877730D01*
Y663980D01*
D02*
G37*
G36*
X366250Y661500D02*
X346250D01*
Y654058D01*
X339600D01*
Y654450D01*
X318400D01*
Y643020D01*
X318400Y642100D01*
X318400Y641180D01*
Y630320D01*
X318400Y629750D01*
X318400D01*
Y629050D01*
X318400D01*
Y617620D01*
X318400Y617050D01*
X317971Y615958D01*
X305350D01*
X303204Y615531D01*
X301385Y614315D01*
X291535Y604465D01*
X290319Y602646D01*
X289892Y600500D01*
Y495000D01*
X290319Y492854D01*
X291535Y491035D01*
X303333Y479237D01*
X303348Y479159D01*
X304674Y477174D01*
X306659Y475848D01*
X309000Y475382D01*
X311341Y475848D01*
X313326Y477174D01*
X314652Y479159D01*
X315117Y481500D01*
X314652Y483841D01*
X313326Y485826D01*
X311341Y487152D01*
X311263Y487167D01*
X301108Y497323D01*
Y598177D01*
X302013Y599083D01*
X303228Y598714D01*
X303348Y598113D01*
X303739Y597528D01*
X303819Y597126D01*
X305035Y595307D01*
X314808Y585533D01*
X313999Y584547D01*
X313841Y584652D01*
X311500Y585117D01*
X309159Y584652D01*
X307174Y583326D01*
X305848Y581341D01*
X305382Y579000D01*
X305848Y576659D01*
X306084Y576306D01*
Y571180D01*
X306511Y569035D01*
X307726Y567215D01*
X315157Y559785D01*
X316976Y558569D01*
X317568Y558451D01*
X318400Y557619D01*
Y553550D01*
X339600D01*
Y565550D01*
X339600Y565550D01*
X340029Y566642D01*
X346250D01*
Y556500D01*
X366250D01*
Y581500D01*
X346250D01*
Y577858D01*
X340029D01*
X339600Y578950D01*
X339600Y579520D01*
Y590950D01*
X339600Y590950D01*
X340029Y592042D01*
X346250D01*
Y584000D01*
X366250D01*
Y609000D01*
X346250D01*
Y603258D01*
X340029D01*
X339600Y604350D01*
X339600Y604350D01*
X339600D01*
X339600Y604350D01*
Y615780D01*
X339600Y616350D01*
X340029Y617442D01*
X346250D01*
Y611500D01*
X366250D01*
Y635230D01*
X366250Y636500D01*
X366250Y637770D01*
Y661500D01*
D02*
G37*
G36*
X821750Y676750D02*
X796250D01*
Y673750D01*
X771500D01*
Y653750D01*
X796500D01*
Y654750D01*
X821500D01*
Y653750D01*
X846500D01*
Y673750D01*
X821750D01*
Y676750D01*
D02*
G37*
G36*
X979396Y657730D02*
X975270D01*
Y653604D01*
X976162Y653781D01*
X977994Y655006D01*
X979219Y656838D01*
X979396Y657730D01*
D02*
G37*
G36*
X972730D02*
X968604D01*
X968782Y656838D01*
X970006Y655006D01*
X971838Y653781D01*
X972730Y653604D01*
Y657730D01*
D02*
G37*
G36*
X623750Y655500D02*
X603750D01*
Y653108D01*
X584600D01*
Y653500D01*
X563400D01*
Y642070D01*
X563400Y641500D01*
X562971Y640408D01*
X557571D01*
X555425Y639981D01*
X555260Y639871D01*
X554159Y639652D01*
X552174Y638326D01*
X550848Y636341D01*
X550382Y634000D01*
X550848Y631659D01*
X552174Y629674D01*
X554159Y628348D01*
X556500Y627882D01*
X558841Y628348D01*
X560104Y629192D01*
X562971D01*
X563400Y628100D01*
X563400Y627530D01*
Y616670D01*
X563400Y615750D01*
X563400Y614830D01*
Y603970D01*
X563400Y603050D01*
X563400Y602130D01*
Y598512D01*
X562227Y598026D01*
X542391Y617861D01*
X542617Y619000D01*
X542152Y621341D01*
X540826Y623326D01*
X538841Y624652D01*
X536500Y625117D01*
X534159Y624652D01*
X532174Y623326D01*
X530848Y621341D01*
X530410Y619138D01*
X529140Y619263D01*
Y620830D01*
X520270D01*
Y616560D01*
X529140D01*
Y618737D01*
X530410Y618862D01*
X530588Y617966D01*
X530848Y616659D01*
X530892Y616593D01*
Y615822D01*
X531319Y613676D01*
X532535Y611856D01*
X560157Y584235D01*
X561976Y583019D01*
X562568Y582901D01*
X563400Y582069D01*
Y578000D01*
X563400D01*
Y577300D01*
X563400D01*
Y565870D01*
X563400Y565300D01*
X562496Y564416D01*
X546693D01*
X546341Y564652D01*
X544000Y565117D01*
X541659Y564652D01*
X539674Y563326D01*
X538348Y561341D01*
X537882Y559000D01*
X538348Y556659D01*
X539674Y554674D01*
X541659Y553348D01*
X544000Y552882D01*
X545601Y553201D01*
X563400D01*
Y552600D01*
X584600D01*
Y564030D01*
X584600Y564600D01*
X585029Y565692D01*
X603750D01*
Y551500D01*
X623750D01*
Y575230D01*
X623750Y576500D01*
X623750D01*
Y576500D01*
X623750D01*
Y601500D01*
X611966D01*
X611396Y601881D01*
X609250Y602308D01*
X585029D01*
X584600Y603400D01*
X584600Y603970D01*
Y614830D01*
X584600Y615400D01*
X585029Y616492D01*
X603750D01*
Y604000D01*
X623750D01*
Y629000D01*
X603750D01*
Y627708D01*
X585029D01*
X584600Y628800D01*
X584600Y629370D01*
Y640230D01*
X584600Y640800D01*
X585029Y641892D01*
X603750D01*
Y630500D01*
X623750D01*
Y655500D01*
D02*
G37*
G36*
X284140Y653990D02*
X275270D01*
Y649720D01*
X284140D01*
Y653990D01*
D02*
G37*
G36*
X272730D02*
X263860D01*
Y649720D01*
X272730D01*
Y653990D01*
D02*
G37*
G36*
X529140Y653040D02*
X520270D01*
Y648770D01*
X529140D01*
Y653040D01*
D02*
G37*
G36*
X1361000Y670599D02*
X1357998Y670204D01*
X1355200Y669045D01*
X1352798Y667202D01*
X1350955Y664800D01*
X1349796Y662002D01*
X1349401Y659000D01*
X1349796Y655998D01*
X1350955Y653200D01*
X1352798Y650798D01*
X1355200Y648955D01*
X1357998Y647796D01*
X1361000Y647401D01*
X1364002Y647796D01*
X1366800Y648955D01*
X1369202Y650798D01*
X1371045Y653200D01*
X1372204Y655998D01*
X1372599Y659000D01*
X1372204Y662002D01*
X1371045Y664800D01*
X1369202Y667202D01*
X1366800Y669045D01*
X1364002Y670204D01*
X1361000Y670599D01*
D02*
G37*
G36*
X1182790Y657730D02*
X1173520D01*
Y646710D01*
X1182790D01*
Y657730D01*
D02*
G37*
G36*
X1170980D02*
X1161710D01*
Y646710D01*
X1170980D01*
Y657730D01*
D02*
G37*
G36*
X284140Y647180D02*
X275270D01*
Y642910D01*
X284140D01*
Y647180D01*
D02*
G37*
G36*
X272730D02*
X263860D01*
Y642910D01*
X272730D01*
Y647180D01*
D02*
G37*
G36*
X529140Y646230D02*
X520270D01*
Y641960D01*
X529140D01*
Y646230D01*
D02*
G37*
G36*
X284140Y641290D02*
X275270D01*
Y637020D01*
X284140D01*
Y641290D01*
D02*
G37*
G36*
X272730D02*
X263860D01*
Y637020D01*
X272730D01*
Y641290D01*
D02*
G37*
G36*
X529140Y640340D02*
X520270D01*
Y636070D01*
X529140D01*
Y640340D01*
D02*
G37*
G36*
X517730D02*
X508860D01*
Y636070D01*
X517730D01*
Y640340D01*
D02*
G37*
G36*
X1182540Y643540D02*
X1173270D01*
Y632520D01*
X1182540D01*
Y643540D01*
D02*
G37*
G36*
X1170730D02*
X1161460D01*
Y632520D01*
X1170730D01*
Y643540D01*
D02*
G37*
G36*
X284140Y634480D02*
X275270D01*
Y630210D01*
X284140D01*
Y634480D01*
D02*
G37*
G36*
X272730D02*
X263860D01*
Y630210D01*
X272730D01*
Y634480D01*
D02*
G37*
G36*
X529140Y633530D02*
X520270D01*
Y629260D01*
X529140D01*
Y633530D01*
D02*
G37*
G36*
X517730D02*
X508860D01*
Y629260D01*
X517730D01*
Y633530D01*
D02*
G37*
G36*
X284140Y628590D02*
X275270D01*
Y624320D01*
X284140D01*
Y628590D01*
D02*
G37*
G36*
X272730D02*
X263860D01*
Y624320D01*
X272730D01*
Y628590D01*
D02*
G37*
G36*
X529140Y627640D02*
X520270D01*
Y623370D01*
X529140D01*
Y627640D01*
D02*
G37*
G36*
X517730D02*
X508860D01*
Y623370D01*
X517730D01*
Y627640D01*
D02*
G37*
G36*
X1182540Y629980D02*
X1173270D01*
Y618960D01*
X1182540D01*
Y629980D01*
D02*
G37*
G36*
X1170730D02*
X1161460D01*
Y618960D01*
X1170730D01*
Y629980D01*
D02*
G37*
G36*
X1289940Y633540D02*
X1280270D01*
Y618770D01*
X1289940D01*
Y633540D01*
D02*
G37*
G36*
X1277730D02*
X1268060D01*
Y618770D01*
X1277730D01*
Y633540D01*
D02*
G37*
G36*
X284140Y621780D02*
X275270D01*
Y617510D01*
X284140D01*
Y621780D01*
D02*
G37*
G36*
X272730D02*
X263860D01*
Y617510D01*
X272730D01*
Y621780D01*
D02*
G37*
G36*
X517730Y620830D02*
X508860D01*
Y616560D01*
X517730D01*
Y620830D01*
D02*
G37*
G36*
X1251290Y623790D02*
X1240270D01*
Y614520D01*
X1251290D01*
Y623790D01*
D02*
G37*
G36*
X1237730D02*
X1226710D01*
Y614520D01*
X1237730D01*
Y623790D01*
D02*
G37*
G36*
X284140Y615890D02*
X275270D01*
Y611620D01*
X284140D01*
Y615890D01*
D02*
G37*
G36*
X272730D02*
X263860D01*
Y611620D01*
X272730D01*
Y615890D01*
D02*
G37*
G36*
X529140Y614940D02*
X520270D01*
Y610670D01*
X529140D01*
Y614940D01*
D02*
G37*
G36*
X517730D02*
X508860D01*
Y610670D01*
X517730D01*
Y614940D01*
D02*
G37*
G36*
X980270Y610396D02*
Y606270D01*
X984396D01*
X984219Y607162D01*
X982994Y608994D01*
X981162Y610219D01*
X980270Y610396D01*
D02*
G37*
G36*
X977730D02*
X976838Y610219D01*
X975006Y608994D01*
X973781Y607162D01*
X973604Y606270D01*
X977730D01*
Y610396D01*
D02*
G37*
G36*
X284140Y609080D02*
X275270D01*
Y604810D01*
X284140D01*
Y609080D01*
D02*
G37*
G36*
X272730D02*
X263860D01*
Y604810D01*
X272730D01*
Y609080D01*
D02*
G37*
G36*
X529140Y608130D02*
X520270D01*
Y603860D01*
X529140D01*
Y608130D01*
D02*
G37*
G36*
X517730D02*
X508860D01*
Y603860D01*
X517730D01*
Y608130D01*
D02*
G37*
G36*
X1251290Y611980D02*
X1240270D01*
Y602710D01*
X1251290D01*
Y611980D01*
D02*
G37*
G36*
X1237730D02*
X1226710D01*
Y602710D01*
X1237730D01*
Y611980D01*
D02*
G37*
G36*
X984396Y603730D02*
X980270D01*
Y599604D01*
X981162Y599781D01*
X982994Y601006D01*
X984219Y602838D01*
X984396Y603730D01*
D02*
G37*
G36*
X977730D02*
X973604D01*
X973781Y602838D01*
X975006Y601006D01*
X976838Y599781D01*
X977730Y599604D01*
Y603730D01*
D02*
G37*
G36*
X284140Y603190D02*
X275270D01*
Y598920D01*
X284140D01*
Y603190D01*
D02*
G37*
G36*
X272730D02*
X263860D01*
Y598920D01*
X272730D01*
Y603190D01*
D02*
G37*
G36*
X529140Y602240D02*
X520270D01*
Y597970D01*
X529140D01*
Y602240D01*
D02*
G37*
G36*
X517730D02*
X508860D01*
Y597970D01*
X517730D01*
Y602240D01*
D02*
G37*
G36*
X284140Y596380D02*
X275270D01*
Y592110D01*
X284140D01*
Y596380D01*
D02*
G37*
G36*
X272730D02*
X263860D01*
Y592110D01*
X272730D01*
Y596380D01*
D02*
G37*
G36*
X529140Y595430D02*
X520270D01*
Y591160D01*
X529140D01*
Y595430D01*
D02*
G37*
G36*
X517730D02*
X508860D01*
Y591160D01*
X517730D01*
Y595430D01*
D02*
G37*
G36*
X284140Y590490D02*
X275270D01*
Y586220D01*
X284140D01*
Y590490D01*
D02*
G37*
G36*
X272730D02*
X263860D01*
Y586220D01*
X272730D01*
Y590490D01*
D02*
G37*
G36*
X529140Y589540D02*
X520270D01*
Y585270D01*
X529140D01*
Y589540D01*
D02*
G37*
G36*
X517730D02*
X508860D01*
Y585270D01*
X517730D01*
Y589540D01*
D02*
G37*
G36*
X284140Y583680D02*
X275270D01*
Y579410D01*
X284140D01*
Y583680D01*
D02*
G37*
G36*
X272730D02*
X263860D01*
Y579410D01*
X272730D01*
Y583680D01*
D02*
G37*
G36*
X529140Y582730D02*
X520270D01*
Y578460D01*
X529140D01*
Y582730D01*
D02*
G37*
G36*
X517730D02*
X508860D01*
Y578460D01*
X517730D01*
Y582730D01*
D02*
G37*
G36*
X284140Y577790D02*
X275270D01*
Y573520D01*
X284140D01*
Y577790D01*
D02*
G37*
G36*
X272730D02*
X263860D01*
Y573520D01*
X272730D01*
Y577790D01*
D02*
G37*
G36*
X529140Y576840D02*
X520270D01*
Y572570D01*
X529140D01*
Y576840D01*
D02*
G37*
G36*
X517730D02*
X508860D01*
Y572570D01*
X517730D01*
Y576840D01*
D02*
G37*
G36*
X284140Y570980D02*
X275270D01*
Y566710D01*
X284140D01*
Y570980D01*
D02*
G37*
G36*
X272730D02*
X263860D01*
Y566710D01*
X272730D01*
Y570980D01*
D02*
G37*
G36*
X529140Y570030D02*
X520270D01*
Y565760D01*
X529140D01*
Y570030D01*
D02*
G37*
G36*
X517730D02*
X508860D01*
Y565760D01*
X517730D01*
Y570030D01*
D02*
G37*
G36*
X284140Y565090D02*
X275270D01*
Y560820D01*
X284140D01*
Y565090D01*
D02*
G37*
G36*
X272730D02*
X263860D01*
Y560820D01*
X272730D01*
Y565090D01*
D02*
G37*
G36*
X529140Y564140D02*
X520270D01*
Y559870D01*
X529140D01*
Y564140D01*
D02*
G37*
G36*
X517730D02*
X508860D01*
Y559870D01*
X517730D01*
Y564140D01*
D02*
G37*
G36*
X284140Y558280D02*
X275270D01*
Y554010D01*
X284140D01*
Y558280D01*
D02*
G37*
G36*
X272730D02*
X263860D01*
Y554010D01*
X272730D01*
Y558280D01*
D02*
G37*
G36*
X529140Y557330D02*
X520270D01*
Y553060D01*
X529140D01*
Y557330D01*
D02*
G37*
G36*
X517730D02*
X508860D01*
Y553060D01*
X517730D01*
Y557330D01*
D02*
G37*
G36*
X366250Y554000D02*
X346250D01*
Y546558D01*
X339600D01*
Y546950D01*
X318400D01*
Y535520D01*
X318400Y534600D01*
X318400Y533680D01*
Y522820D01*
X318400Y522250D01*
X318400D01*
Y521550D01*
X318400D01*
Y510120D01*
X318400Y509550D01*
X317971Y508458D01*
X310621D01*
X308475Y508031D01*
X307371Y507294D01*
X306659Y507152D01*
X304674Y505826D01*
X303348Y503841D01*
X302882Y501500D01*
X303348Y499159D01*
X304674Y497174D01*
X306659Y495848D01*
X309000Y495382D01*
X311341Y495848D01*
X313326Y497174D01*
X313371Y497242D01*
X317971D01*
X318400Y496150D01*
X318400Y495580D01*
Y484720D01*
X318400Y483800D01*
X318400Y482880D01*
Y479381D01*
X317568Y478549D01*
X316976Y478431D01*
X315157Y477215D01*
X305226Y467285D01*
X304010Y465465D01*
X303584Y463319D01*
Y456693D01*
X303348Y456341D01*
X302882Y454000D01*
X303348Y451659D01*
X304674Y449674D01*
X306659Y448348D01*
X309000Y447882D01*
X311341Y448348D01*
X313326Y449674D01*
X314652Y451659D01*
X315117Y454000D01*
X314799Y455601D01*
Y460997D01*
X317227Y463424D01*
X318400Y462938D01*
X318400Y458400D01*
X318400Y457480D01*
Y446050D01*
X339600D01*
Y457480D01*
X339600Y458400D01*
X339600Y459320D01*
Y470750D01*
X339600D01*
Y471450D01*
X339600D01*
Y482880D01*
X339600Y483450D01*
X340029Y484542D01*
X346250D01*
Y476500D01*
X366250D01*
Y501500D01*
X346250D01*
Y495758D01*
X340029D01*
X339600Y496850D01*
X339600Y497420D01*
Y508280D01*
X339600Y508850D01*
X340029Y509942D01*
X346250D01*
Y504000D01*
X366250D01*
Y527730D01*
X366250Y529000D01*
X366250Y530270D01*
Y554000D01*
D02*
G37*
G36*
X623750Y546500D02*
X603750D01*
Y545008D01*
X584600D01*
Y545400D01*
X563400D01*
Y533970D01*
X563400Y533400D01*
X563212Y532208D01*
X551600D01*
X549454Y531781D01*
X547635Y530565D01*
X544237Y527167D01*
X544159Y527152D01*
X542174Y525826D01*
X540848Y523841D01*
X540382Y521500D01*
X540848Y519159D01*
X542174Y517174D01*
X544159Y515848D01*
X546500Y515382D01*
X548841Y515848D01*
X550826Y517174D01*
X552152Y519159D01*
X552167Y519237D01*
X553923Y520992D01*
X562729D01*
X563400Y520000D01*
X563400Y519430D01*
Y508570D01*
X563400Y507650D01*
X563400Y506730D01*
Y503231D01*
X562568Y502399D01*
X561976Y502281D01*
X560157Y501065D01*
X542557Y483465D01*
X541341Y481646D01*
X540914Y479500D01*
Y471440D01*
X540848Y471341D01*
X540382Y469000D01*
X540848Y466659D01*
X542174Y464674D01*
X544159Y463348D01*
X545731Y463036D01*
X546149Y461657D01*
X544112Y459620D01*
X542174Y458326D01*
X540848Y456341D01*
X540382Y454000D01*
X540848Y451659D01*
X542174Y449674D01*
X544159Y448348D01*
X546500Y447882D01*
X548841Y448348D01*
X550826Y449674D01*
X552152Y451659D01*
X552187Y451834D01*
X562227Y461874D01*
X563400Y461388D01*
X563400Y456850D01*
X563400Y455930D01*
Y444500D01*
X584600D01*
Y455930D01*
X584600Y456850D01*
X584600Y457770D01*
Y469200D01*
X584600Y469200D01*
Y469900D01*
X584600D01*
X584600Y470470D01*
Y481900D01*
X584600Y481900D01*
X585029Y482992D01*
X603750D01*
Y471500D01*
X623750D01*
Y495230D01*
X623750Y496500D01*
X623750Y497770D01*
Y520230D01*
X623750Y521500D01*
X623750Y522770D01*
Y546500D01*
D02*
G37*
G36*
X284140Y546490D02*
X275270D01*
Y542220D01*
X284140D01*
Y546490D01*
D02*
G37*
G36*
X272730D02*
X263860D01*
Y542220D01*
X272730D01*
Y546490D01*
D02*
G37*
G36*
X529140Y544940D02*
X520270D01*
Y540670D01*
X529140D01*
Y544940D01*
D02*
G37*
G36*
X517730D02*
X508860D01*
Y540670D01*
X517730D01*
Y544940D01*
D02*
G37*
G36*
X284140Y539680D02*
X275270D01*
Y535410D01*
X284140D01*
Y539680D01*
D02*
G37*
G36*
X272730D02*
X263860D01*
Y535410D01*
X272730D01*
Y539680D01*
D02*
G37*
G36*
X529140Y538130D02*
X520270D01*
Y533860D01*
X529140D01*
Y538130D01*
D02*
G37*
G36*
X517730D02*
X508860D01*
Y533860D01*
X517730D01*
Y538130D01*
D02*
G37*
G36*
X284140Y533790D02*
X275270D01*
Y529520D01*
X284140D01*
Y533790D01*
D02*
G37*
G36*
X272730D02*
X263860D01*
Y529520D01*
X272730D01*
Y533790D01*
D02*
G37*
G36*
X529140Y532240D02*
X520270D01*
Y527970D01*
X529140D01*
Y532240D01*
D02*
G37*
G36*
X517730D02*
X508860D01*
Y527970D01*
X517730D01*
Y532240D01*
D02*
G37*
G36*
X284140Y526980D02*
X275270D01*
Y522710D01*
X284140D01*
Y526980D01*
D02*
G37*
G36*
X272730D02*
X263860D01*
Y522710D01*
X272730D01*
Y526980D01*
D02*
G37*
G36*
X529140Y525430D02*
X520270D01*
Y521160D01*
X529140D01*
Y525430D01*
D02*
G37*
G36*
X517730D02*
X508860D01*
Y521160D01*
X517730D01*
Y525430D01*
D02*
G37*
G36*
X284140Y521090D02*
X275270D01*
Y516820D01*
X284140D01*
Y521090D01*
D02*
G37*
G36*
X272730D02*
X263860D01*
Y516820D01*
X272730D01*
Y521090D01*
D02*
G37*
G36*
X529140Y519540D02*
X520270D01*
Y515270D01*
X529140D01*
Y519540D01*
D02*
G37*
G36*
X517730D02*
X508860D01*
Y515270D01*
X517730D01*
Y519540D01*
D02*
G37*
G36*
X1358800Y537095D02*
X1355928Y536717D01*
X1353253Y535608D01*
X1350955Y533845D01*
X1349191Y531547D01*
X1348083Y528872D01*
X1347705Y526000D01*
X1348083Y523128D01*
X1349191Y520453D01*
X1350955Y518155D01*
X1353253Y516391D01*
X1355928Y515283D01*
X1358800Y514905D01*
X1361672Y515283D01*
X1364347Y516391D01*
X1366645Y518155D01*
X1368409Y520453D01*
X1369517Y523128D01*
X1369895Y526000D01*
X1369517Y528872D01*
X1368409Y531547D01*
X1366645Y533845D01*
X1364347Y535608D01*
X1361672Y536717D01*
X1358800Y537095D01*
D02*
G37*
G36*
X284140Y514280D02*
X275270D01*
Y510010D01*
X284140D01*
Y514280D01*
D02*
G37*
G36*
X272730D02*
X263860D01*
Y510010D01*
X272730D01*
Y514280D01*
D02*
G37*
G36*
X748790Y513280D02*
X739770D01*
Y509010D01*
X748790D01*
Y513280D01*
D02*
G37*
G36*
X737230D02*
X728210D01*
Y509010D01*
X737230D01*
Y513280D01*
D02*
G37*
G36*
X474730Y513280D02*
X465710D01*
Y509010D01*
X474730D01*
Y513280D01*
D02*
G37*
G36*
X529140Y512730D02*
X520270D01*
Y508460D01*
X529140D01*
Y512730D01*
D02*
G37*
G36*
X517730D02*
X508860D01*
Y508460D01*
X517730D01*
Y512730D01*
D02*
G37*
G36*
X284140Y508390D02*
X275270D01*
Y504120D01*
X284140D01*
Y508390D01*
D02*
G37*
G36*
X272730D02*
X263860D01*
Y504120D01*
X272730D01*
Y508390D01*
D02*
G37*
G36*
X529140Y506840D02*
X520270D01*
Y502570D01*
X529140D01*
Y506840D01*
D02*
G37*
G36*
X517730D02*
X508860D01*
Y502570D01*
X517730D01*
Y506840D01*
D02*
G37*
G36*
X284140Y501580D02*
X275270D01*
Y497310D01*
X284140D01*
Y501580D01*
D02*
G37*
G36*
X272730D02*
X263860D01*
Y497310D01*
X272730D01*
Y501580D01*
D02*
G37*
G36*
X529140Y500030D02*
X520270D01*
Y495760D01*
X529140D01*
Y500030D01*
D02*
G37*
G36*
X517730D02*
X508860D01*
Y495760D01*
X517730D01*
Y500030D01*
D02*
G37*
G36*
X284140Y495690D02*
X275270D01*
Y491420D01*
X284140D01*
Y495690D01*
D02*
G37*
G36*
X272730D02*
X263860D01*
Y491420D01*
X272730D01*
Y495690D01*
D02*
G37*
G36*
X529140Y494140D02*
X520270D01*
Y489870D01*
X529140D01*
Y494140D01*
D02*
G37*
G36*
X517730D02*
X508860D01*
Y489870D01*
X517730D01*
Y494140D01*
D02*
G37*
G36*
X284140Y488880D02*
X275270D01*
Y484610D01*
X284140D01*
Y488880D01*
D02*
G37*
G36*
X272730D02*
X263860D01*
Y484610D01*
X272730D01*
Y488880D01*
D02*
G37*
G36*
X529140Y487330D02*
X520270D01*
Y483060D01*
X529140D01*
Y487330D01*
D02*
G37*
G36*
X517730D02*
X508860D01*
Y483060D01*
X517730D01*
Y487330D01*
D02*
G37*
G36*
X284140Y482990D02*
X275270D01*
Y478720D01*
X284140D01*
Y482990D01*
D02*
G37*
G36*
X272730D02*
X263860D01*
Y478720D01*
X272730D01*
Y482990D01*
D02*
G37*
G36*
X529140Y481440D02*
X520270D01*
Y477170D01*
X529140D01*
Y481440D01*
D02*
G37*
G36*
X517730D02*
X508860D01*
Y477170D01*
X517730D01*
Y481440D01*
D02*
G37*
G36*
X284140Y476180D02*
X275270D01*
Y471910D01*
X284140D01*
Y476180D01*
D02*
G37*
G36*
X272730D02*
X263860D01*
Y471910D01*
X272730D01*
Y476180D01*
D02*
G37*
G36*
X529140Y474630D02*
X520270D01*
Y470360D01*
X529140D01*
Y474630D01*
D02*
G37*
G36*
X517730D02*
X508860D01*
Y470360D01*
X517730D01*
Y474630D01*
D02*
G37*
G36*
X284140Y470290D02*
X275270D01*
Y466020D01*
X284140D01*
Y470290D01*
D02*
G37*
G36*
X272730D02*
X263860D01*
Y466020D01*
X272730D01*
Y470290D01*
D02*
G37*
G36*
X529140Y468740D02*
X520270D01*
Y464470D01*
X529140D01*
Y468740D01*
D02*
G37*
G36*
X517730D02*
X508860D01*
Y464470D01*
X517730D01*
Y468740D01*
D02*
G37*
G36*
X284140Y463480D02*
X275270D01*
Y459210D01*
X284140D01*
Y463480D01*
D02*
G37*
G36*
X272730D02*
X263860D01*
Y459210D01*
X272730D01*
Y463480D01*
D02*
G37*
G36*
X529140Y461930D02*
X520270D01*
Y457660D01*
X529140D01*
Y461930D01*
D02*
G37*
G36*
X517730D02*
X508860D01*
Y457660D01*
X517730D01*
Y461930D01*
D02*
G37*
G36*
X284140Y457590D02*
X275270D01*
Y453320D01*
X284140D01*
Y457590D01*
D02*
G37*
G36*
X272730D02*
X263860D01*
Y453320D01*
X272730D01*
Y457590D01*
D02*
G37*
G36*
X529140Y456040D02*
X520270D01*
Y451770D01*
X529140D01*
Y456040D01*
D02*
G37*
G36*
X517730D02*
X508860D01*
Y451770D01*
X517730D01*
Y456040D01*
D02*
G37*
G36*
X284140Y450780D02*
X275270D01*
Y446510D01*
X284140D01*
Y450780D01*
D02*
G37*
G36*
X272730D02*
X263860D01*
Y446510D01*
X272730D01*
Y450780D01*
D02*
G37*
G36*
X529140Y449230D02*
X520270D01*
Y444960D01*
X529140D01*
Y449230D01*
D02*
G37*
G36*
X517730D02*
X508860D01*
Y444960D01*
X517730D01*
Y449230D01*
D02*
G37*
G36*
X799000Y467617D02*
X796659Y467152D01*
X794674Y465826D01*
X793348Y463841D01*
X793050Y462341D01*
X749943Y419234D01*
X749865Y419219D01*
X747881Y417893D01*
X746554Y415908D01*
X746089Y413567D01*
X746554Y411226D01*
X747881Y409241D01*
X749865Y407915D01*
X752206Y407449D01*
X754548Y407915D01*
X756532Y409241D01*
X757858Y411226D01*
X757874Y411304D01*
X802965Y456395D01*
X804181Y458215D01*
X804249Y458555D01*
X804652Y459159D01*
X805118Y461500D01*
X804652Y463841D01*
X803326Y465826D01*
X801341Y467152D01*
X799000Y467617D01*
D02*
G37*
G36*
X558540Y382497D02*
X550270D01*
Y378227D01*
X558540D01*
Y382497D01*
D02*
G37*
G36*
X547730D02*
X539460D01*
Y378227D01*
X547730D01*
Y382497D01*
D02*
G37*
G36*
X558540Y375687D02*
X550270D01*
Y371417D01*
X558540D01*
Y375687D01*
D02*
G37*
G36*
X547730D02*
X539460D01*
Y371417D01*
X547730D01*
Y375687D01*
D02*
G37*
G36*
X1358040Y376290D02*
X1347270D01*
Y368020D01*
X1358040D01*
Y376290D01*
D02*
G37*
G36*
X1344730D02*
X1333960D01*
Y368020D01*
X1344730D01*
Y376290D01*
D02*
G37*
G36*
X1329040D02*
X1318270D01*
Y368020D01*
X1329040D01*
Y376290D01*
D02*
G37*
G36*
X1315730D02*
X1304960D01*
Y368020D01*
X1315730D01*
Y376290D01*
D02*
G37*
G36*
X1299040D02*
X1288270D01*
Y368020D01*
X1299040D01*
Y376290D01*
D02*
G37*
G36*
X1285730D02*
X1274960D01*
Y368020D01*
X1285730D01*
Y376290D01*
D02*
G37*
G36*
X1270040D02*
X1259270D01*
Y368020D01*
X1270040D01*
Y376290D01*
D02*
G37*
G36*
X1256730D02*
X1245960D01*
Y368020D01*
X1256730D01*
Y376290D01*
D02*
G37*
G36*
X1241040D02*
X1230270D01*
Y368020D01*
X1241040D01*
Y376290D01*
D02*
G37*
G36*
X1227730D02*
X1216960D01*
Y368020D01*
X1227730D01*
Y376290D01*
D02*
G37*
G36*
X1211040D02*
X1200270D01*
Y368020D01*
X1211040D01*
Y376290D01*
D02*
G37*
G36*
X1197730D02*
X1186960D01*
Y368020D01*
X1197730D01*
Y376290D01*
D02*
G37*
G36*
X1182040D02*
X1171270D01*
Y368020D01*
X1182040D01*
Y376290D01*
D02*
G37*
G36*
X1168730D02*
X1157960D01*
Y368020D01*
X1168730D01*
Y376290D01*
D02*
G37*
G36*
X1358040Y365480D02*
X1347270D01*
Y357210D01*
X1358040D01*
Y365480D01*
D02*
G37*
G36*
X1344730D02*
X1333960D01*
Y357210D01*
X1344730D01*
Y365480D01*
D02*
G37*
G36*
X1329040D02*
X1318270D01*
Y357210D01*
X1329040D01*
Y365480D01*
D02*
G37*
G36*
X1315730D02*
X1304960D01*
Y357210D01*
X1315730D01*
Y365480D01*
D02*
G37*
G36*
X1299040D02*
X1288270D01*
Y357210D01*
X1299040D01*
Y365480D01*
D02*
G37*
G36*
X1285730D02*
X1274960D01*
Y357210D01*
X1285730D01*
Y365480D01*
D02*
G37*
G36*
X1270040D02*
X1259270D01*
Y357210D01*
X1270040D01*
Y365480D01*
D02*
G37*
G36*
X1256730D02*
X1245960D01*
Y357210D01*
X1256730D01*
Y365480D01*
D02*
G37*
G36*
X1241040D02*
X1230270D01*
Y357210D01*
X1241040D01*
Y365480D01*
D02*
G37*
G36*
X1227730D02*
X1216960D01*
Y357210D01*
X1227730D01*
Y365480D01*
D02*
G37*
G36*
X1211040D02*
X1200270D01*
Y357210D01*
X1211040D01*
Y365480D01*
D02*
G37*
G36*
X1197730D02*
X1186960D01*
Y357210D01*
X1197730D01*
Y365480D01*
D02*
G37*
G36*
X1182040D02*
X1171270D01*
Y357210D01*
X1182040D01*
Y365480D01*
D02*
G37*
G36*
X1168730D02*
X1157960D01*
Y357210D01*
X1168730D01*
Y365480D01*
D02*
G37*
G36*
X550500Y366064D02*
X549958Y365956D01*
X541500D01*
Y351957D01*
X556500D01*
Y365956D01*
X551042D01*
X550500Y366064D01*
D02*
G37*
G36*
X982290Y357790D02*
X971270D01*
Y348520D01*
X982290D01*
Y357790D01*
D02*
G37*
G36*
X968730D02*
X957710D01*
Y348520D01*
X968730D01*
Y357790D01*
D02*
G37*
G36*
X931290Y356790D02*
X920270D01*
Y347520D01*
X931290D01*
Y356790D01*
D02*
G37*
G36*
X917730D02*
X906710D01*
Y347520D01*
X917730D01*
Y356790D01*
D02*
G37*
G36*
X556040Y346497D02*
X550270D01*
Y341227D01*
X556040D01*
Y346497D01*
D02*
G37*
G36*
X547730D02*
X541960D01*
Y341227D01*
X547730D01*
Y346497D01*
D02*
G37*
G36*
X1314000Y352617D02*
X1311659Y352152D01*
X1311593Y352108D01*
X1127100D01*
X1124954Y351681D01*
X1123135Y350465D01*
X1065396Y292727D01*
X1062600Y293095D01*
X1059728Y292717D01*
X1057053Y291609D01*
X1054755Y289845D01*
X1052991Y287547D01*
X1051883Y284872D01*
X1051505Y282000D01*
Y278000D01*
X1051883Y275128D01*
X1052991Y272453D01*
X1054755Y270155D01*
X1057053Y268391D01*
X1059728Y267283D01*
X1062600Y266905D01*
X1065472Y267283D01*
X1068148Y268391D01*
X1070445Y270155D01*
X1072208Y272453D01*
X1073317Y275128D01*
X1073695Y278000D01*
Y282000D01*
X1073327Y284796D01*
X1129423Y340892D01*
X1311593D01*
X1311659Y340848D01*
X1314000Y340382D01*
X1316341Y340848D01*
X1318326Y342174D01*
X1319652Y344159D01*
X1320117Y346500D01*
X1319652Y348841D01*
X1318326Y350826D01*
X1316341Y352152D01*
X1314000Y352617D01*
D02*
G37*
G36*
X634500Y358995D02*
X631628Y358617D01*
X628953Y357509D01*
X626655Y355745D01*
X624892Y353447D01*
X623783Y350772D01*
X623405Y347900D01*
X623783Y345028D01*
X624892Y342353D01*
X626655Y340055D01*
X628953Y338292D01*
X631628Y337183D01*
X634500Y336805D01*
X637372Y337183D01*
X640047Y338292D01*
X642345Y340055D01*
X644109Y342353D01*
X645217Y345028D01*
X645595Y347900D01*
X645217Y350772D01*
X644109Y353447D01*
X642345Y355745D01*
X640047Y357509D01*
X637372Y358617D01*
X634500Y358995D01*
D02*
G37*
G36*
X609500D02*
X606628Y358617D01*
X603953Y357509D01*
X601655Y355745D01*
X599892Y353447D01*
X598783Y350772D01*
X598405Y347900D01*
X598783Y345028D01*
X599892Y342353D01*
X601655Y340055D01*
X603953Y338292D01*
X606628Y337183D01*
X609500Y336805D01*
X612372Y337183D01*
X615047Y338292D01*
X617345Y340055D01*
X619109Y342353D01*
X620217Y345028D01*
X620595Y347900D01*
X620217Y350772D01*
X619109Y353447D01*
X617345Y355745D01*
X615047Y357509D01*
X612372Y358617D01*
X609500Y358995D01*
D02*
G37*
G36*
X982290Y345980D02*
X971270D01*
Y336710D01*
X982290D01*
Y345980D01*
D02*
G37*
G36*
X968730D02*
X957710D01*
Y336710D01*
X968730D01*
Y345980D01*
D02*
G37*
G36*
X438903Y372039D02*
X435375Y371692D01*
X431982Y370662D01*
X428855Y368991D01*
X426114Y366742D01*
X423864Y364001D01*
X422193Y360874D01*
X421164Y357481D01*
X420816Y353952D01*
X421164Y350424D01*
X422193Y347030D01*
X423864Y343904D01*
X426114Y341163D01*
X428855Y338913D01*
X431982Y337242D01*
X435375Y336213D01*
X438903Y335865D01*
X442432Y336213D01*
X445825Y337242D01*
X448952Y338913D01*
X451693Y341163D01*
X453942Y343904D01*
X455614Y347030D01*
X456643Y350424D01*
X456990Y353952D01*
X456643Y357481D01*
X455614Y360874D01*
X453942Y364001D01*
X451693Y366742D01*
X448952Y368991D01*
X445825Y370662D01*
X442432Y371692D01*
X438903Y372039D01*
D02*
G37*
G36*
X391903D02*
X388375Y371692D01*
X384982Y370662D01*
X381855Y368991D01*
X379114Y366742D01*
X376864Y364001D01*
X375193Y360874D01*
X374164Y357481D01*
X373816Y353952D01*
X374164Y350424D01*
X375193Y347030D01*
X376864Y343904D01*
X379114Y341163D01*
X381855Y338913D01*
X384982Y337242D01*
X388375Y336213D01*
X391903Y335865D01*
X395432Y336213D01*
X398825Y337242D01*
X401952Y338913D01*
X404693Y341163D01*
X406942Y343904D01*
X408614Y347030D01*
X409643Y350424D01*
X409990Y353952D01*
X409643Y357481D01*
X408614Y360874D01*
X406942Y364001D01*
X404693Y366742D01*
X401952Y368991D01*
X398825Y370662D01*
X395432Y371692D01*
X391903Y372039D01*
D02*
G37*
G36*
X931290Y344980D02*
X920270D01*
Y335710D01*
X931290D01*
Y344980D01*
D02*
G37*
G36*
X917730D02*
X906710D01*
Y335710D01*
X917730D01*
Y344980D01*
D02*
G37*
G36*
X556040Y338687D02*
X550270D01*
Y333417D01*
X556040D01*
Y338687D01*
D02*
G37*
G36*
X547730D02*
X541960D01*
Y333417D01*
X547730D01*
Y338687D01*
D02*
G37*
G36*
X549000Y329074D02*
X548409Y328957D01*
X539000D01*
Y316957D01*
X548409D01*
X549000Y316839D01*
X549591Y316957D01*
X559000D01*
Y328957D01*
X549591D01*
X549000Y329074D01*
D02*
G37*
G36*
X1238200Y333747D02*
X1235263Y333360D01*
X1232526Y332227D01*
X1230176Y330424D01*
X1228373Y328074D01*
X1227240Y325337D01*
X1226853Y322400D01*
X1227240Y319463D01*
X1228373Y316726D01*
X1230176Y314376D01*
X1232526Y312573D01*
X1232592Y312546D01*
Y309250D01*
X1226500Y309250D01*
X1225230Y309250D01*
X1218408D01*
Y312546D01*
X1218474Y312573D01*
X1220824Y314376D01*
X1222627Y316726D01*
X1223760Y319463D01*
X1224147Y322400D01*
X1223760Y325337D01*
X1222627Y328074D01*
X1220824Y330424D01*
X1218474Y332227D01*
X1215737Y333360D01*
X1212800Y333747D01*
X1209863Y333360D01*
X1207126Y332227D01*
X1204776Y330424D01*
X1202973Y328074D01*
X1201840Y325337D01*
X1201453Y322400D01*
X1201840Y319463D01*
X1202973Y316726D01*
X1204776Y314376D01*
X1207126Y312573D01*
X1207192Y312546D01*
Y309250D01*
X1201500D01*
Y289250D01*
X1225230D01*
X1226500Y289250D01*
X1227770Y289250D01*
X1251500D01*
Y309250D01*
X1243808D01*
Y312546D01*
X1243874Y312573D01*
X1246224Y314376D01*
X1248027Y316726D01*
X1249160Y319463D01*
X1249547Y322400D01*
X1249160Y325337D01*
X1248027Y328074D01*
X1246224Y330424D01*
X1243874Y332227D01*
X1241137Y333360D01*
X1238200Y333747D01*
D02*
G37*
G36*
X781000D02*
X778063Y333360D01*
X775327Y332227D01*
X772976Y330424D01*
X771173Y328074D01*
X770040Y325337D01*
X769653Y322400D01*
X770040Y319463D01*
X771173Y316726D01*
X772976Y314376D01*
X775327Y312573D01*
X775392Y312546D01*
Y309250D01*
X767770D01*
X767500Y309250D01*
X766500D01*
X766230Y309250D01*
X761208D01*
Y312546D01*
X761274Y312573D01*
X763624Y314376D01*
X765427Y316726D01*
X766560Y319463D01*
X766947Y322400D01*
X766560Y325337D01*
X765427Y328074D01*
X763624Y330424D01*
X761274Y332227D01*
X758537Y333360D01*
X755600Y333747D01*
X752663Y333360D01*
X749927Y332227D01*
X747576Y330424D01*
X745773Y328074D01*
X744640Y325337D01*
X744253Y322400D01*
X744640Y319463D01*
X745773Y316726D01*
X747576Y314376D01*
X749927Y312573D01*
X749992Y312546D01*
Y309250D01*
X741500D01*
Y289250D01*
X766230D01*
X766500Y289250D01*
X767500D01*
X767770Y289250D01*
X792500D01*
Y309250D01*
X786608D01*
Y312546D01*
X786674Y312573D01*
X789024Y314376D01*
X790827Y316726D01*
X791960Y319463D01*
X792347Y322400D01*
X791960Y325337D01*
X790827Y328074D01*
X789024Y330424D01*
X786674Y332227D01*
X783937Y333360D01*
X781000Y333747D01*
D02*
G37*
G36*
X525000Y319574D02*
X524409Y319457D01*
X515000D01*
Y307457D01*
X524409D01*
X525000Y307339D01*
X525591Y307457D01*
X535000D01*
Y319457D01*
X525591D01*
X525000Y319574D01*
D02*
G37*
G36*
X558540Y309497D02*
X550270D01*
Y305227D01*
X558540D01*
Y309497D01*
D02*
G37*
G36*
X547730D02*
X539460D01*
Y305227D01*
X547730D01*
Y309497D01*
D02*
G37*
G36*
X845040Y308790D02*
X834270D01*
Y300520D01*
X845040D01*
Y308790D01*
D02*
G37*
G36*
X831730D02*
X820960D01*
Y300520D01*
X831730D01*
Y308790D01*
D02*
G37*
G36*
X558540Y302687D02*
X550270D01*
Y298417D01*
X558540D01*
Y302687D01*
D02*
G37*
G36*
X547730D02*
X539460D01*
Y298417D01*
X547730D01*
Y302687D01*
D02*
G37*
G36*
X430303Y323851D02*
X427301Y323456D01*
X424504Y322297D01*
X422101Y320454D01*
X420258Y318052D01*
X419099Y315254D01*
X418704Y312252D01*
Y309252D01*
X419099Y306250D01*
X420258Y303452D01*
X422101Y301050D01*
X424504Y299207D01*
X427301Y298048D01*
X430303Y297653D01*
X433305Y298048D01*
X436103Y299207D01*
X438505Y301050D01*
X440348Y303452D01*
X441507Y306250D01*
X441902Y309252D01*
Y312252D01*
X441507Y315254D01*
X440348Y318052D01*
X438505Y320454D01*
X436103Y322297D01*
X433305Y323456D01*
X430303Y323851D01*
D02*
G37*
G36*
X400303D02*
X397301Y323456D01*
X394504Y322297D01*
X392101Y320454D01*
X390258Y318052D01*
X389099Y315254D01*
X388704Y312252D01*
Y309252D01*
X389099Y306250D01*
X390258Y303452D01*
X392101Y301050D01*
X394504Y299207D01*
X397301Y298048D01*
X400303Y297653D01*
X403305Y298048D01*
X406103Y299207D01*
X408505Y301050D01*
X410349Y303452D01*
X411507Y306250D01*
X411903Y309252D01*
Y312252D01*
X411507Y315254D01*
X410349Y318052D01*
X408505Y320454D01*
X406103Y322297D01*
X403305Y323456D01*
X400303Y323851D01*
D02*
G37*
G36*
X1358000Y333092D02*
X1354275Y332725D01*
X1350694Y331639D01*
X1347393Y329874D01*
X1344500Y327500D01*
X1342126Y324607D01*
X1340361Y321306D01*
X1339275Y317725D01*
X1338908Y314000D01*
X1339275Y310275D01*
X1340361Y306694D01*
X1342126Y303393D01*
X1344500Y300500D01*
X1347393Y298126D01*
X1350694Y296361D01*
X1354275Y295275D01*
X1358000Y294908D01*
X1361725Y295275D01*
X1365306Y296361D01*
X1368607Y298126D01*
X1371500Y300500D01*
X1373874Y303393D01*
X1375639Y306694D01*
X1376725Y310275D01*
X1377092Y314000D01*
X1376725Y317725D01*
X1375639Y321306D01*
X1373874Y324607D01*
X1371500Y327500D01*
X1368607Y329874D01*
X1365306Y331639D01*
X1361725Y332725D01*
X1358000Y333092D01*
D02*
G37*
G36*
X319000D02*
X315275Y332725D01*
X311694Y331639D01*
X308393Y329874D01*
X305500Y327500D01*
X303126Y324607D01*
X301361Y321306D01*
X300275Y317725D01*
X299908Y314000D01*
X300275Y310275D01*
X301361Y306694D01*
X303126Y303393D01*
X305500Y300500D01*
X308393Y298126D01*
X311694Y296361D01*
X315275Y295275D01*
X319000Y294908D01*
X322725Y295275D01*
X326306Y296361D01*
X329607Y298126D01*
X332500Y300500D01*
X334874Y303393D01*
X336639Y306694D01*
X337725Y310275D01*
X338092Y314000D01*
X337725Y317725D01*
X336639Y321306D01*
X334874Y324607D01*
X332500Y327500D01*
X329607Y329874D01*
X326306Y331639D01*
X322725Y332725D01*
X319000Y333092D01*
D02*
G37*
G36*
X556500Y417108D02*
X381929D01*
X379783Y416681D01*
X377964Y415465D01*
X350035Y387536D01*
X348819Y385717D01*
X348392Y383571D01*
Y327055D01*
X348819Y324909D01*
X350035Y323090D01*
X358803Y314322D01*
Y297752D01*
X381803D01*
Y323752D01*
X365234D01*
X359608Y329378D01*
Y381248D01*
X384252Y405892D01*
X554177D01*
X556940Y403130D01*
X556454Y401956D01*
X539000D01*
Y401108D01*
X506500D01*
X504354Y400681D01*
X502535Y399465D01*
X486035Y382965D01*
X484819Y381146D01*
X484392Y379000D01*
Y370757D01*
X483947Y370091D01*
X483482Y367750D01*
X483947Y365409D01*
X484392Y364743D01*
Y318415D01*
X472873Y306896D01*
X471670Y307489D01*
X471902Y309252D01*
Y312252D01*
X471507Y315254D01*
X470348Y318052D01*
X468505Y320454D01*
X466608Y321910D01*
Y327828D01*
X474862Y336083D01*
X474940Y336098D01*
X476925Y337424D01*
X478251Y339409D01*
X478717Y341750D01*
X478251Y344091D01*
X476925Y346076D01*
X474940Y347402D01*
X472599Y347868D01*
X470258Y347402D01*
X468274Y346076D01*
X466947Y344091D01*
X466932Y344013D01*
X457035Y334116D01*
X455819Y332297D01*
X455392Y330151D01*
Y322665D01*
X454504Y322297D01*
X452101Y320454D01*
X450258Y318052D01*
X449099Y315254D01*
X448704Y312252D01*
Y309252D01*
X449099Y306250D01*
X450258Y303452D01*
X452101Y301050D01*
X454504Y299207D01*
X457301Y298048D01*
X460303Y297653D01*
X462067Y297885D01*
X462660Y296682D01*
X459757Y293780D01*
X457301Y293456D01*
X454504Y292297D01*
X452101Y290454D01*
X450258Y288052D01*
X449099Y285254D01*
X448704Y282252D01*
Y279252D01*
X449099Y276250D01*
X450258Y273452D01*
X452101Y271050D01*
X454504Y269207D01*
X456505Y268378D01*
X456253Y267108D01*
X434354D01*
X434101Y268378D01*
X436103Y269207D01*
X438505Y271050D01*
X440348Y273452D01*
X441507Y276250D01*
X441902Y279252D01*
Y282252D01*
X441507Y285254D01*
X440348Y288052D01*
X438505Y290454D01*
X436103Y292297D01*
X433305Y293456D01*
X430303Y293851D01*
X427301Y293456D01*
X424504Y292297D01*
X422101Y290454D01*
X420258Y288052D01*
X419099Y285254D01*
X418704Y282252D01*
Y279252D01*
X419099Y276250D01*
X420258Y273452D01*
X422101Y271050D01*
X424504Y269207D01*
X426505Y268378D01*
X426253Y267108D01*
X420823D01*
X411527Y276403D01*
X411903Y279252D01*
Y282252D01*
X411507Y285254D01*
X410349Y288052D01*
X408505Y290454D01*
X406103Y292297D01*
X403305Y293456D01*
X400303Y293851D01*
X397301Y293456D01*
X394504Y292297D01*
X392101Y290454D01*
X390258Y288052D01*
X389099Y285254D01*
X388704Y282252D01*
Y279252D01*
X389099Y276250D01*
X390258Y273452D01*
X392101Y271050D01*
X394504Y269207D01*
X397301Y268048D01*
X400303Y267653D01*
X403305Y268048D01*
X403812Y268258D01*
X414535Y257535D01*
X416354Y256319D01*
X418500Y255892D01*
X469431D01*
X471577Y256319D01*
X473396Y257535D01*
X488965Y273104D01*
X490181Y274923D01*
X490608Y277069D01*
Y297455D01*
X516545Y323392D01*
X523543D01*
X525689Y323819D01*
X527509Y325035D01*
X532965Y330491D01*
X534181Y332311D01*
X534608Y334457D01*
Y342457D01*
X536500D01*
Y356456D01*
X521500D01*
Y346682D01*
X521478Y346675D01*
X520230Y346390D01*
X518341Y347652D01*
X518263Y347667D01*
X508608Y357323D01*
Y372677D01*
X516323Y380392D01*
X519000D01*
X519323Y380457D01*
X535000D01*
Y389892D01*
X540000D01*
X540323Y389957D01*
X559000D01*
Y399410D01*
X560173Y399896D01*
X575392Y384677D01*
Y302757D01*
X574947Y302091D01*
X574482Y299750D01*
X574947Y297409D01*
X576273Y295424D01*
X578258Y294098D01*
X578512Y294048D01*
X578854Y293819D01*
X581000Y293392D01*
X583146Y293819D01*
X584965Y295035D01*
X586181Y296854D01*
X586608Y299000D01*
Y299202D01*
X586717Y299750D01*
X586608Y300298D01*
Y387000D01*
X586181Y389146D01*
X584965Y390965D01*
X560465Y415465D01*
X558646Y416681D01*
X556500Y417108D01*
D02*
G37*
G36*
X845040Y297980D02*
X834270D01*
Y289710D01*
X845040D01*
Y297980D01*
D02*
G37*
G36*
X831730D02*
X820960D01*
Y289710D01*
X831730D01*
Y297980D01*
D02*
G37*
G36*
X1187400Y333747D02*
X1184463Y333360D01*
X1181727Y332227D01*
X1179376Y330424D01*
X1177573Y328074D01*
X1176440Y325337D01*
X1176053Y322400D01*
X1176440Y319463D01*
X1177573Y316726D01*
X1179376Y314376D01*
X1181727Y312573D01*
X1181792Y312546D01*
Y309250D01*
X1174000D01*
Y289250D01*
X1199000D01*
Y309250D01*
X1193008D01*
Y312546D01*
X1193074Y312573D01*
X1195424Y314376D01*
X1197227Y316726D01*
X1198360Y319463D01*
X1198747Y322400D01*
X1198360Y325337D01*
X1197227Y328074D01*
X1195424Y330424D01*
X1193074Y332227D01*
X1190337Y333360D01*
X1187400Y333747D01*
D02*
G37*
G36*
X806400D02*
X803463Y333360D01*
X800726Y332227D01*
X798376Y330424D01*
X796573Y328074D01*
X795440Y325337D01*
X795053Y322400D01*
X795440Y319463D01*
X796573Y316726D01*
X798376Y314376D01*
X800726Y312573D01*
X800792Y312546D01*
Y309250D01*
X794000D01*
Y289250D01*
X819000D01*
Y309250D01*
X812008D01*
Y312546D01*
X812074Y312573D01*
X814424Y314376D01*
X816227Y316726D01*
X817360Y319463D01*
X817747Y322400D01*
X817360Y325337D01*
X816227Y328074D01*
X814424Y330424D01*
X812074Y332227D01*
X809337Y333360D01*
X806400Y333747D01*
D02*
G37*
G36*
X1089270Y292464D02*
Y281270D01*
X1098631D01*
Y282000D01*
X1098269Y284751D01*
X1097207Y287316D01*
X1095517Y289517D01*
X1093316Y291207D01*
X1090751Y292269D01*
X1089270Y292464D01*
D02*
G37*
G36*
X1086730Y292464D02*
X1085248Y292269D01*
X1082685Y291207D01*
X1080483Y289517D01*
X1078793Y287316D01*
X1077731Y284751D01*
X1077369Y282000D01*
Y281270D01*
X1086730D01*
Y292464D01*
D02*
G37*
G36*
X549000Y291074D02*
X548409Y290957D01*
X539000D01*
Y278957D01*
X548409D01*
X549000Y278839D01*
X549275Y278894D01*
X549500Y278849D01*
X550042Y278957D01*
X559000D01*
Y290957D01*
X549591D01*
X549000Y291074D01*
D02*
G37*
G36*
X1198540Y278290D02*
X1187770D01*
Y270020D01*
X1198540D01*
Y278290D01*
D02*
G37*
G36*
X1240270D02*
Y270020D01*
X1251040D01*
Y278290D01*
X1240270D01*
D02*
G37*
G36*
X1212730D02*
X1201960D01*
Y270020D01*
X1212730D01*
Y278290D01*
D02*
G37*
G36*
X1185230D02*
X1174460D01*
Y270020D01*
X1185230D01*
Y278290D01*
D02*
G37*
G36*
X523000Y282118D02*
X520659Y281652D01*
X520367Y281457D01*
X515000D01*
Y269457D01*
X535000D01*
Y281457D01*
X525633D01*
X525341Y281652D01*
X523000Y282118D01*
D02*
G37*
G36*
X370303Y293851D02*
X367301Y293456D01*
X364504Y292297D01*
X362101Y290454D01*
X360258Y288052D01*
X359099Y285254D01*
X358704Y282252D01*
Y279252D01*
X359099Y276250D01*
X360258Y273452D01*
X362101Y271050D01*
X364504Y269207D01*
X367301Y268048D01*
X370303Y267653D01*
X373305Y268048D01*
X376103Y269207D01*
X378505Y271050D01*
X380349Y273452D01*
X381507Y276250D01*
X381903Y279252D01*
Y282252D01*
X381507Y285254D01*
X380349Y288052D01*
X378505Y290454D01*
X376103Y292297D01*
X373305Y293456D01*
X370303Y293851D01*
D02*
G37*
G36*
X1098631Y278730D02*
X1089270D01*
Y267536D01*
X1090751Y267731D01*
X1093316Y268793D01*
X1095517Y270483D01*
X1097207Y272684D01*
X1098269Y275249D01*
X1098631Y278000D01*
Y278730D01*
D02*
G37*
G36*
X1086730D02*
X1077369D01*
Y278000D01*
X1077731Y275249D01*
X1078793Y272684D01*
X1080483Y270483D01*
X1082685Y268793D01*
X1085248Y267731D01*
X1086730Y267536D01*
Y278730D01*
D02*
G37*
G36*
X558540Y271497D02*
X550270D01*
Y267227D01*
X558540D01*
Y271497D01*
D02*
G37*
G36*
X547730D02*
X539460D01*
Y267227D01*
X547730D01*
Y271497D01*
D02*
G37*
G36*
X1048200Y293000D02*
X1026200D01*
Y267000D01*
X1048200D01*
Y293000D01*
D02*
G37*
G36*
X1138800Y293095D02*
X1135928Y292717D01*
X1133252Y291609D01*
X1130955Y289845D01*
X1129192Y287547D01*
X1128083Y284872D01*
X1127705Y282000D01*
Y278000D01*
X1128083Y275128D01*
X1129192Y272453D01*
X1130955Y270155D01*
X1133252Y268391D01*
X1135928Y267283D01*
X1138800Y266905D01*
X1141672Y267283D01*
X1144348Y268391D01*
X1146645Y270155D01*
X1148409Y272453D01*
X1149517Y275128D01*
X1149895Y278000D01*
Y282000D01*
X1149517Y284872D01*
X1148409Y287547D01*
X1146645Y289845D01*
X1144348Y291609D01*
X1141672Y292717D01*
X1138800Y293095D01*
D02*
G37*
G36*
X1113400D02*
X1110528Y292717D01*
X1107852Y291609D01*
X1105555Y289845D01*
X1103792Y287547D01*
X1102683Y284872D01*
X1102305Y282000D01*
Y278000D01*
X1102683Y275128D01*
X1103792Y272453D01*
X1105555Y270155D01*
X1107852Y268391D01*
X1110528Y267283D01*
X1113400Y266905D01*
X1116272Y267283D01*
X1118948Y268391D01*
X1121245Y270155D01*
X1123008Y272453D01*
X1124117Y275128D01*
X1124495Y278000D01*
Y282000D01*
X1124117Y284872D01*
X1123008Y287547D01*
X1121245Y289845D01*
X1118948Y291609D01*
X1116272Y292717D01*
X1113400Y293095D01*
D02*
G37*
G36*
X558540Y264687D02*
X550270D01*
Y260417D01*
X558540D01*
Y264687D01*
D02*
G37*
G36*
X547730D02*
X539460D01*
Y260417D01*
X547730D01*
Y264687D01*
D02*
G37*
G36*
X1251040Y267480D02*
X1240270D01*
Y259210D01*
X1251040D01*
Y267480D01*
D02*
G37*
G36*
X1198540D02*
X1187770D01*
Y259210D01*
X1198540D01*
Y267480D01*
D02*
G37*
G36*
X1185230D02*
X1174460D01*
Y259210D01*
X1185230D01*
Y267480D01*
D02*
G37*
G36*
X1212730D02*
X1201960D01*
Y259210D01*
X1212730D01*
Y267480D01*
D02*
G37*
G36*
X1226960Y278290D02*
X1226040D01*
X1225690Y278290D01*
X1215270D01*
Y268750D01*
Y259210D01*
X1225690D01*
X1226040Y259210D01*
X1226960D01*
X1227310Y259210D01*
X1237730D01*
Y268750D01*
Y278290D01*
X1227310D01*
X1226960Y278290D01*
D02*
G37*
%LPD*%
G36*
X838024Y634545D02*
X839844Y633329D01*
X841990Y632903D01*
X866250D01*
Y627750D01*
X874891D01*
X875035Y627535D01*
X879763Y622806D01*
X879277Y621633D01*
X814298D01*
X796184Y639746D01*
X796240Y639875D01*
X796933Y640794D01*
X799000Y640383D01*
X801341Y640848D01*
X801407Y640892D01*
X831677D01*
X838024Y634545D01*
D02*
G37*
G36*
X980035Y545035D02*
X981854Y543819D01*
X984000Y543392D01*
X1011021D01*
X1011778Y542215D01*
X1011766Y542122D01*
X1010035Y540965D01*
X1008677Y539608D01*
X939000D01*
Y544750D01*
Y552750D01*
Y563250D01*
X916250D01*
Y571201D01*
X916608Y573000D01*
Y575392D01*
X921593D01*
X921659Y575348D01*
X924000Y574883D01*
X926341Y575348D01*
X928326Y576674D01*
X929652Y578659D01*
X930117Y581000D01*
X929652Y583341D01*
X928326Y585326D01*
X927519Y585865D01*
Y587135D01*
X928326Y587674D01*
X929652Y589659D01*
X930117Y592000D01*
X929831Y593443D01*
X931001Y594068D01*
X980035Y545035D01*
D02*
G37*
G36*
X787987Y546731D02*
X787501Y545558D01*
X749679D01*
X749250Y546650D01*
X749250Y547220D01*
Y558650D01*
X749250D01*
Y559350D01*
X749250D01*
Y571350D01*
X749250D01*
Y572050D01*
X749250D01*
X749250Y583671D01*
X750416Y584302D01*
X787987Y546731D01*
D02*
G37*
G36*
X1264948Y538622D02*
X1264386Y537482D01*
X1263500Y537599D01*
X1260500D01*
X1257498Y537204D01*
X1254700Y536045D01*
X1252298Y534202D01*
X1250455Y531800D01*
X1249296Y529002D01*
X1248901Y526000D01*
X1249296Y522998D01*
X1249376Y522806D01*
X1220979Y494410D01*
X1219764Y494778D01*
X1219652Y495341D01*
X1218326Y497326D01*
X1216341Y498652D01*
X1214000Y499118D01*
X1213415Y499001D01*
X1212335Y500081D01*
X1212617Y501500D01*
X1212152Y503841D01*
X1210826Y505826D01*
X1208841Y507152D01*
X1206500Y507617D01*
X1206225Y507563D01*
X1206000Y507608D01*
X1198841D01*
X1198462Y508878D01*
X1199652Y510659D01*
X1200117Y513000D01*
X1199652Y515341D01*
X1198326Y517326D01*
X1196341Y518652D01*
X1194000Y519118D01*
X1191659Y518652D01*
X1191593Y518608D01*
X1171323D01*
X1148965Y540965D01*
X1147234Y542122D01*
X1147222Y542215D01*
X1147979Y543392D01*
X1260177D01*
X1264948Y538622D01*
D02*
G37*
G36*
X1165035Y509035D02*
X1165270Y508878D01*
X1164884Y507608D01*
X1129249D01*
X1129054Y507851D01*
X1129318Y509554D01*
X1129994Y510006D01*
X1131219Y511838D01*
X1131396Y512730D01*
X1120604D01*
X1120781Y511838D01*
X1122006Y510006D01*
X1122682Y509554D01*
X1122946Y507851D01*
X1122751Y507608D01*
X1042361D01*
X1041695Y508878D01*
X1042117Y511000D01*
X1041795Y512622D01*
X1042695Y513892D01*
X1108845D01*
X1109659Y513348D01*
X1112000Y512882D01*
X1114341Y513348D01*
X1116326Y514674D01*
X1117652Y516659D01*
X1118118Y519000D01*
X1117695Y521122D01*
X1118361Y522392D01*
X1136593D01*
X1136659Y522348D01*
X1139000Y521883D01*
X1141341Y522348D01*
X1143326Y523674D01*
X1144652Y525659D01*
X1144977Y527296D01*
X1146356Y527714D01*
X1165035Y509035D01*
D02*
G37*
%LPC*%
G36*
X818270Y637396D02*
Y633270D01*
X822396D01*
X822218Y634162D01*
X820994Y635994D01*
X819162Y637219D01*
X818270Y637396D01*
D02*
G37*
G36*
X815730D02*
X814838Y637219D01*
X813006Y635994D01*
X811781Y634162D01*
X811604Y633270D01*
X815730D01*
Y637396D01*
D02*
G37*
G36*
X822396Y630730D02*
X818270D01*
Y626604D01*
X819162Y626781D01*
X820994Y628006D01*
X822218Y629838D01*
X822396Y630730D01*
D02*
G37*
G36*
X815730D02*
X811604D01*
X811781Y629838D01*
X813006Y628006D01*
X814838Y626781D01*
X815730Y626604D01*
Y630730D01*
D02*
G37*
G36*
X953270Y557396D02*
Y553270D01*
X957396D01*
X957219Y554162D01*
X955994Y555994D01*
X954162Y557219D01*
X953270Y557396D01*
D02*
G37*
G36*
X950730D02*
X949838Y557219D01*
X948006Y555994D01*
X946781Y554162D01*
X946604Y553270D01*
X950730D01*
Y557396D01*
D02*
G37*
G36*
X957396Y550730D02*
X953270D01*
Y546604D01*
X954162Y546781D01*
X955994Y548006D01*
X957219Y549838D01*
X957396Y550730D01*
D02*
G37*
G36*
X950730D02*
X946604D01*
X946781Y549838D01*
X948006Y548006D01*
X949838Y546781D01*
X950730Y546604D01*
Y550730D01*
D02*
G37*
G36*
X1220270Y534396D02*
Y530270D01*
X1224396D01*
X1224219Y531162D01*
X1222994Y532994D01*
X1221162Y534219D01*
X1220270Y534396D01*
D02*
G37*
G36*
X1217730D02*
X1216838Y534219D01*
X1215006Y532994D01*
X1213781Y531162D01*
X1213604Y530270D01*
X1217730D01*
Y534396D01*
D02*
G37*
G36*
X1195270D02*
Y530270D01*
X1199396D01*
X1199219Y531162D01*
X1197994Y532994D01*
X1196162Y534219D01*
X1195270Y534396D01*
D02*
G37*
G36*
X1192730D02*
X1191838Y534219D01*
X1190006Y532994D01*
X1188781Y531162D01*
X1188604Y530270D01*
X1192730D01*
Y534396D01*
D02*
G37*
G36*
X1224396Y527730D02*
X1220270D01*
Y523604D01*
X1221162Y523782D01*
X1222994Y525006D01*
X1224219Y526838D01*
X1224396Y527730D01*
D02*
G37*
G36*
X1217730D02*
X1213604D01*
X1213781Y526838D01*
X1215006Y525006D01*
X1216838Y523782D01*
X1217730Y523604D01*
Y527730D01*
D02*
G37*
G36*
X1199396D02*
X1195270D01*
Y523604D01*
X1196162Y523782D01*
X1197994Y525006D01*
X1199219Y526838D01*
X1199396Y527730D01*
D02*
G37*
G36*
X1192730D02*
X1188604D01*
X1188781Y526838D01*
X1190006Y525006D01*
X1191838Y523782D01*
X1192730Y523604D01*
Y527730D01*
D02*
G37*
G36*
X1127270Y519396D02*
Y515270D01*
X1131396D01*
X1131219Y516162D01*
X1129994Y517994D01*
X1128162Y519218D01*
X1127270Y519396D01*
D02*
G37*
G36*
X1124730D02*
X1123838Y519218D01*
X1122006Y517994D01*
X1120781Y516162D01*
X1120604Y515270D01*
X1124730D01*
Y519396D01*
D02*
G37*
%LPD*%
G36*
X519892Y880177D02*
Y813395D01*
X516423Y809926D01*
X515250Y810412D01*
Y814030D01*
X515250Y814600D01*
X515250D01*
Y815300D01*
X515250D01*
Y826730D01*
X515250Y827650D01*
X515250Y828570D01*
Y839430D01*
X515250Y840350D01*
X515250Y841270D01*
Y852130D01*
X515250Y853050D01*
X515250Y853970D01*
Y864830D01*
X515250Y865750D01*
X515250Y866670D01*
Y878100D01*
X493750D01*
Y878100D01*
X492583Y878348D01*
X487965Y882965D01*
X486146Y884181D01*
X484000Y884608D01*
X463907D01*
X463841Y884652D01*
X461500Y885117D01*
X459159Y884652D01*
X457174Y883326D01*
X455848Y881341D01*
X455382Y879000D01*
X455848Y876659D01*
X457174Y874674D01*
X459159Y873348D01*
X461500Y872883D01*
X463841Y873348D01*
X463907Y873392D01*
X481677D01*
X486935Y868135D01*
X488754Y866919D01*
X490900Y866492D01*
X493321D01*
X493750Y865400D01*
X493750Y864830D01*
Y853970D01*
X493750Y853050D01*
X493750Y852130D01*
Y841270D01*
X493750Y840350D01*
X493750Y839430D01*
Y828570D01*
X493750Y827650D01*
X493750Y826730D01*
Y818840D01*
X492577Y818354D01*
X489608Y821323D01*
Y841500D01*
X489181Y843646D01*
X487965Y845465D01*
X470565Y862865D01*
X468746Y864081D01*
X466600Y864508D01*
X447650D01*
X446750Y865400D01*
Y866100D01*
X446750D01*
Y874920D01*
X459723Y887892D01*
X512177D01*
X519892Y880177D01*
D02*
G37*
D12*
X738400Y790000D02*
Y821000D01*
X1258150D01*
Y790000D01*
X738400D01*
D16*
X386750Y489000D02*
D03*
Y516500D02*
D03*
Y541500D02*
D03*
Y569000D02*
D03*
Y596500D02*
D03*
Y624000D02*
D03*
Y649000D02*
D03*
X356250D02*
D03*
Y624000D02*
D03*
Y596500D02*
D03*
Y569000D02*
D03*
Y541500D02*
D03*
Y516500D02*
D03*
Y489000D02*
D03*
X613750Y484000D02*
D03*
X644250D02*
D03*
Y509000D02*
D03*
Y534000D02*
D03*
Y564000D02*
D03*
Y589000D02*
D03*
X644250Y616500D02*
D03*
Y643000D02*
D03*
X613750D02*
D03*
Y616500D02*
D03*
X613750Y589000D02*
D03*
Y564000D02*
D03*
Y534000D02*
D03*
Y509000D02*
D03*
D17*
X614000Y728750D02*
D03*
Y759250D02*
D03*
X586500Y759000D02*
D03*
Y728500D02*
D03*
X561500Y759250D02*
D03*
Y728750D02*
D03*
X531500Y759250D02*
D03*
Y728750D02*
D03*
X504000Y759250D02*
D03*
Y728750D02*
D03*
X476500Y759250D02*
D03*
Y728750D02*
D03*
X451500Y759250D02*
D03*
Y728750D02*
D03*
X426500Y759250D02*
D03*
Y728750D02*
D03*
X389000Y759250D02*
D03*
Y728750D02*
D03*
X361500Y759250D02*
D03*
Y728750D02*
D03*
X334000Y759250D02*
D03*
X306500D02*
D03*
Y728750D02*
D03*
X334000D02*
D03*
X754000Y299250D02*
D03*
X780000D02*
D03*
Y268750D02*
D03*
X754000D02*
D03*
X806500D02*
D03*
X833000D02*
D03*
Y299250D02*
D03*
X806500D02*
D03*
X1170000Y366750D02*
D03*
Y397250D02*
D03*
X1199000Y366750D02*
D03*
X1229000D02*
D03*
X1258000D02*
D03*
X1287000D02*
D03*
X1317000D02*
D03*
X1346000D02*
D03*
Y397250D02*
D03*
X1317000D02*
D03*
X1287000D02*
D03*
X1258000D02*
D03*
X1229000D02*
D03*
X1199000D02*
D03*
X1186500Y299250D02*
D03*
Y268750D02*
D03*
X1214000D02*
D03*
X1239000D02*
D03*
Y299250D02*
D03*
X1214000D02*
D03*
X834000Y694250D02*
D03*
Y663750D02*
D03*
X784000Y694250D02*
D03*
Y663750D02*
D03*
D44*
X354000Y327055D02*
X370303Y310752D01*
X399998Y280002D02*
X418500Y261500D01*
X469431D01*
X485000Y277069D01*
Y299778D01*
X514222Y329000D01*
X523543D01*
X529000Y334457D01*
Y349457D01*
X516000Y342000D02*
X503000Y355000D01*
Y375000D01*
X514000Y386000D01*
X519000D01*
X519500Y386500D01*
X524957D01*
X525000Y386457D01*
X549000Y358957D02*
X550500Y360457D01*
X581000Y387000D02*
Y299000D01*
X580099Y278750D02*
X625349Y324000D01*
X640314D01*
X802064Y485750D01*
X815750D01*
X816000Y486000D01*
Y494000D02*
X797500D01*
X732843Y427843D01*
X503843D01*
X493000Y438686D01*
Y516078D01*
X486028Y523050D01*
X484950D01*
X480750Y527250D01*
X476000D01*
Y539950D02*
X494050D01*
X501000Y533000D01*
Y442000D01*
X507000Y436000D01*
X729576D01*
X729577Y436001D01*
X779521Y487103D01*
X779521D01*
X779497Y487127D02*
Y487224D01*
X785773Y493500D01*
X789500Y497314D01*
X794186Y502000D01*
X816000D01*
Y510000D02*
X789999D01*
X758999Y479000D01*
X701500D01*
X714000Y489000D02*
X757686D01*
X786686Y518000D01*
X816000D01*
X816000Y518000D01*
Y526000D02*
X794021D01*
X792521Y527500D01*
X738750D01*
X738500Y527250D01*
Y539950D02*
X791384D01*
X797334Y534000D01*
X816000D01*
Y542000D02*
X800648D01*
X752398Y590250D01*
X739000D01*
X738500Y590750D01*
Y603450D02*
X750512D01*
X803712Y550250D01*
X815750D01*
X816000Y550000D01*
X838750Y580500D02*
Y587186D01*
X831500Y594436D01*
Y604000D01*
X821407Y557750D02*
X819564D01*
X819064Y558250D01*
X811750D01*
X743500Y626500D01*
X727750D01*
X701500Y664000D02*
X517122D01*
X489250Y636128D01*
Y598172D01*
X485864Y594785D01*
X484785D01*
X480750Y590750D01*
X476000D01*
Y603450D02*
X480750D01*
X479000Y605200D01*
Y643000D01*
X509000Y673000D01*
X713000D01*
X714000Y672000D01*
X684000Y686500D02*
X511186D01*
X471000Y646314D01*
Y633500D01*
X440950Y603450D01*
X422000D01*
X422500Y602950D01*
X442550D01*
X466950Y578550D01*
X475500D01*
X476000Y578050D01*
Y565350D01*
Y552650D01*
X546522Y479500D02*
X564122Y497100D01*
X565200D01*
X569400Y501300D01*
X574000D01*
Y488600D02*
X609250D01*
X613750Y484100D01*
Y484000D01*
X644250D02*
Y486500D01*
X648750Y491000D01*
X656200D01*
X679750Y514550D01*
X684500D01*
X684000Y526750D02*
X684500Y527250D01*
X684000Y526750D02*
X669250D01*
X658500Y516000D01*
X648750D01*
X644250Y511500D01*
Y509000D01*
X684500Y539950D02*
X648750D01*
X644250Y535450D01*
Y534000D01*
X667675Y552650D02*
X684500D01*
X723250Y578550D02*
X738000D01*
X738500Y578050D01*
Y565350D01*
Y552650D01*
X723250Y578550D02*
X698850Y602950D01*
X685000D01*
X684500Y603450D01*
X684000Y603950D01*
Y626500D01*
Y591250D02*
X684500Y590750D01*
X684000Y591250D02*
X678172D01*
X667689Y601733D01*
Y617339D01*
X653214Y631814D01*
X652936D01*
X644250Y640500D01*
Y643000D01*
X666500Y644000D02*
X784000D01*
X811975Y616025D01*
X910848D01*
X911323Y616500D01*
X939529D01*
X971529Y584500D01*
X1236750D01*
X1239000Y586750D01*
X1277250D01*
X1279000Y585000D01*
Y590100D01*
X1284900Y596000D01*
X1312000D01*
X1312200Y595800D01*
X1360800D01*
X1361000Y595600D01*
Y621000D02*
X1360500Y621500D01*
X1312500D01*
X1312000Y622000D01*
Y641000D01*
X1294000Y659000D01*
X1289200D01*
X1361800Y721800D02*
X1362000Y721600D01*
X1361800Y721800D02*
X1315200D01*
X1361500Y747500D02*
X1362000Y747000D01*
X1361500Y747500D02*
X1315500D01*
X1315000Y748000D01*
X1285900D01*
X1280000Y753900D01*
Y757000D01*
Y768000D01*
X1282750Y765250D01*
X1289000Y771500D01*
X1321500D01*
X1334000Y784000D01*
Y851500D01*
X1317441Y868059D01*
Y873559D01*
X1317250Y873750D01*
X1286500D02*
Y859000D01*
X1276500Y849000D01*
X651500D01*
Y861500D02*
X901500D01*
X882600Y805000D02*
X908000D01*
X882600D02*
X821600Y744000D01*
X417472D01*
X409000Y752472D01*
Y773650D01*
X431250Y795900D01*
X427215Y799936D01*
X426136D01*
X409000Y817072D01*
Y879000D01*
X426136Y863436D02*
X427215D01*
X431250Y859400D01*
X436000D01*
X436500Y858900D01*
X466600D01*
X484000Y841500D01*
Y819000D01*
X494400Y808600D01*
X504500D01*
X525500Y811072D02*
Y883000D01*
X536000Y893500D01*
X572500D01*
X661000Y805000D01*
X716000D01*
X698000Y786000D02*
X727000D01*
X736000Y795000D01*
Y805000D01*
X726929Y814071D01*
X663243D01*
X575814Y901500D01*
X446872D01*
X422750Y877378D01*
Y866822D01*
X426136Y863436D01*
X436000Y846700D02*
X436500Y846200D01*
X461800D01*
X476000Y832000D01*
Y815686D01*
X486500Y805186D01*
Y789000D01*
X504000Y771500D01*
Y759250D01*
X531750Y759250D02*
Y762000D01*
X549250Y779500D01*
X564250D01*
X576000Y791250D01*
Y801421D01*
X568821Y808600D01*
X558500D01*
X558000Y808100D01*
X559000Y820800D02*
X573450D01*
X584250Y810000D01*
Y784500D01*
X564000Y764250D01*
X569000Y759250D01*
X561500D01*
X586500Y759000D02*
Y753500D01*
X593500Y760500D01*
Y813500D01*
X573500Y833500D01*
X559000D01*
X558500Y834000D01*
Y821300D02*
X559000Y820800D01*
X607000Y813750D02*
Y763750D01*
X611500Y759250D01*
X614000D01*
X665125Y772375D02*
X770250D01*
X786500Y701500D02*
X794000Y709000D01*
X819000D01*
X828925Y718925D01*
X924075D01*
X931500Y711500D01*
X931578D02*
X931425Y711347D01*
Y693075D01*
X931350Y693000D01*
X931500Y674000D02*
X971500D01*
X981500Y684000D01*
Y716500D01*
Y719000D01*
X994000Y731500D01*
X1174000D01*
X1211500Y694000D01*
X1212750Y692750D01*
X1211500Y694000D02*
X1266500Y749000D01*
X1277600D01*
X1280000Y751400D01*
Y753900D01*
X1239000Y780250D02*
X1239200Y780450D01*
X1238200D02*
Y805000D01*
X1212800D02*
Y781050D01*
X1209050Y780550D02*
X1208250Y779750D01*
X1188000Y780250D02*
X1187400Y780850D01*
Y805000D01*
X1162000D02*
Y780250D01*
X1162000Y780250D01*
X1137000D02*
X1136600Y780650D01*
Y805000D01*
X1106500Y829000D02*
X1106000Y829500D01*
X1073500D01*
X1085800Y805000D02*
Y763800D01*
X1075250Y753250D01*
X1060250D01*
Y779750D02*
X1060400Y779900D01*
Y805000D01*
X1035000D02*
Y780000D01*
X1035000Y780000D01*
Y753500D02*
X1020000D01*
X1009600Y763900D01*
Y765600D01*
Y805000D01*
Y765600D02*
X997500Y753500D01*
X984250D01*
X984000Y753250D01*
Y779750D02*
X984200Y779950D01*
Y805000D01*
X958800D02*
Y779950D01*
X959000Y779750D01*
X968000Y730000D02*
X981500Y716500D01*
X968000Y730000D02*
X684000D01*
X683000Y729000D01*
X665125Y772375D02*
X578100Y859400D01*
X558500D01*
Y872100D01*
Y846700D02*
X559000Y846200D01*
X574550D01*
X607000Y813750D01*
X653000Y870000D02*
X957250D01*
X1002000Y881500D02*
X1012250Y871250D01*
X1046930Y891500D02*
X1067215Y871215D01*
X1084000Y839000D02*
X1176500D01*
X1046930Y891500D02*
X651500D01*
Y881500D02*
X1002000D01*
X844000Y914000D02*
X391500D01*
X436000Y872100D02*
X457400Y893500D01*
X514500D01*
X525250Y882750D01*
X504500Y872100D02*
X490900D01*
X484000Y879000D01*
X461500D01*
X436500Y833500D02*
X459500D01*
X466500Y826500D01*
Y813873D01*
X476500Y803873D01*
Y761750D01*
X474000Y759250D01*
X476500D01*
X504500Y795900D02*
X509250D01*
X513450Y800100D01*
X514528D01*
X525500Y811072D01*
X447400Y808100D02*
X454000Y801500D01*
Y794000D01*
X426500Y766500D01*
Y761750D01*
X429000Y759250D01*
X426500D01*
X422750Y763000D01*
X451500Y759250D02*
Y769000D01*
X464000Y781500D01*
Y804000D01*
X446700Y821300D01*
X436000D01*
Y808600D02*
X436500Y808100D01*
X447400D01*
X436000Y808600D02*
X431250D01*
X436000Y834000D02*
X436500Y833500D01*
X392028Y817100D02*
X396500Y812628D01*
Y765000D01*
X390750Y759250D01*
X389000D01*
X364000D02*
X361500Y761750D01*
Y826500D01*
X369000Y834000D01*
X382000D01*
Y821300D02*
X386750D01*
X390950Y817100D01*
X392028D01*
X381500Y846200D02*
X382000Y846700D01*
X381500Y846200D02*
X366200D01*
X334000Y814000D01*
Y761750D01*
X341500D01*
X382000Y795900D02*
Y808600D01*
X381500Y858900D02*
X382000Y859400D01*
X381500Y858900D02*
X363900D01*
X306500Y801500D01*
Y759250D01*
X314000D01*
X329000Y648450D02*
X355700D01*
X356250Y649000D01*
Y624000D02*
X355300Y623050D01*
X329000D01*
Y610350D02*
X305350D01*
X295500Y600500D01*
Y495000D01*
X309000Y481500D01*
X324400Y477450D02*
X329000D01*
X324400D02*
X320200Y473250D01*
X319122D01*
X309191Y463319D01*
Y454191D01*
X309000Y454000D01*
X355100Y490150D02*
X356250Y489000D01*
X355100Y490150D02*
X329000D01*
X337250Y527750D02*
X339250Y525750D01*
X341000D01*
X337250Y527750D02*
X330000D01*
X329250Y528500D01*
X329000Y515550D02*
X355300D01*
X356250Y516500D01*
X386750Y491500D02*
X409300Y514050D01*
X421500D01*
X422000Y514550D01*
Y527250D02*
X417250D01*
X413500Y523500D01*
X391250D01*
X386750Y519000D01*
Y516500D01*
Y491500D02*
Y489000D01*
X422000Y539950D02*
X388300D01*
X386750Y541500D01*
X403100Y552650D02*
X422000D01*
Y565350D02*
X421500Y565850D01*
X415672D01*
X385886Y595636D01*
X386750Y571500D02*
Y569000D01*
X403100Y552650D01*
X421500Y578550D02*
X422000Y578050D01*
X421500Y578550D02*
X415672D01*
X400750Y593472D01*
Y607500D01*
X386750Y621500D01*
X408750Y598172D02*
X411972Y594950D01*
X413050D01*
X417250Y590750D01*
X422000D01*
X408750Y626278D02*
Y598172D01*
Y626278D02*
X387639Y647389D01*
X386750Y646500D02*
Y649000D01*
X355100Y597650D02*
X356250Y596500D01*
X355100Y597650D02*
X329000D01*
X320200Y589150D02*
X324400Y584950D01*
X329000D01*
Y572250D02*
X355500D01*
X356250Y571500D01*
Y541500D02*
X355700Y540950D01*
X329000D01*
Y502850D02*
X310621D01*
X309271Y501500D01*
X309000D01*
X311691Y571180D02*
Y578809D01*
X311500Y579000D01*
X311691Y571180D02*
X319122Y563750D01*
X320200D01*
X324400Y559550D01*
X329000D01*
X320200Y589150D02*
X319122D01*
X309000Y599272D01*
Y600454D01*
X381929Y411500D02*
X556500D01*
X581000Y387000D01*
X540000Y395500D02*
X506500D01*
X490000Y379000D01*
Y367750D01*
Y316092D01*
X463500Y289592D01*
Y278000D01*
X461000Y310002D02*
Y330151D01*
X472599Y341750D01*
X549000Y284957D02*
X549500Y284457D01*
X609500Y276100D02*
X611000D01*
X625600Y261500D01*
X697900D01*
X709400Y273000D01*
Y277000D01*
Y273000D02*
X712900Y269500D01*
X753250D01*
X754000Y268750D01*
X780000D01*
X806500D01*
X833000D01*
X806500Y299250D02*
X806400Y299350D01*
Y322400D01*
X781000D02*
Y300250D01*
X780000Y299250D01*
X755600Y300850D02*
Y322400D01*
Y300850D02*
X754000Y299250D01*
X847000Y376000D02*
Y463000D01*
X839000D02*
X838750Y462750D01*
Y450722D01*
X788028Y400000D01*
X739000D01*
X752206Y413567D02*
X799000Y460361D01*
Y461500D01*
X855000Y463000D02*
Y380500D01*
X869500Y366000D01*
X936000D01*
X946000Y356000D01*
Y335000D01*
X958000Y323000D01*
X970000D01*
Y320750D01*
Y280000D01*
X919200Y316550D02*
Y280000D01*
Y316550D02*
X919000Y316750D01*
X906250D01*
X847000Y376000D01*
X894652Y421341D02*
X887000Y428993D01*
Y463000D01*
X879000D02*
X879000Y463000D01*
Y424000D01*
X870750Y445750D02*
Y462750D01*
X871000Y463000D01*
X870750Y445750D02*
X869000Y444000D01*
X895000Y434665D02*
X908298Y421368D01*
Y419926D01*
X918979Y422000D02*
X921117D01*
X911000Y463000D02*
Y443941D01*
X919000Y435941D01*
Y434000D01*
X918979Y422000D02*
X903000Y437979D01*
Y463000D01*
X895000D02*
Y434665D01*
X926000Y478000D02*
X1166000D01*
X1167500Y476500D01*
X1179000Y486000D02*
X1181000Y484000D01*
X1179000Y486000D02*
X926000D01*
X926250Y494000D02*
X1201979D01*
X1202979Y493000D01*
X1214000D01*
X1206500Y501500D02*
X1206000Y502000D01*
X926000D01*
Y510000D02*
X1034729D01*
X1035729Y511000D01*
X1036000D01*
X1014000Y537000D02*
X1145000D01*
X1169000Y513000D01*
X1194000D01*
X1139000Y528000D02*
X1021000D01*
X1019000Y526000D01*
X926000D01*
Y518000D02*
X1025000D01*
X1026500Y519500D01*
X1111500D01*
X1112000Y519000D01*
X1170000Y435500D02*
X1260500Y526000D01*
X1262000D01*
Y501000D02*
X1260500D01*
X1199000Y439500D01*
Y397250D01*
X1229000D02*
Y444500D01*
X1260500Y476000D01*
X1262000D01*
Y451000D02*
Y401250D01*
X1258000Y397250D01*
X1287000D02*
Y451000D01*
X1317000Y472500D02*
Y397250D01*
X1345300Y397950D02*
Y469200D01*
X1288500Y526000D01*
X1287000D01*
X1285500D01*
X1262500Y549000D01*
X984000D01*
X932500Y600500D01*
X917950D01*
X917476Y600025D01*
X902926D01*
X895000Y592099D01*
Y573000D01*
X903000D02*
Y588786D01*
X906215Y592000D01*
X924000D01*
X936000Y608500D02*
X985186Y559314D01*
X1265293D01*
X1279798Y544809D01*
X1287000Y501000D02*
X1288500D01*
X1317000Y472500D01*
X1345300Y397950D02*
X1346000Y397250D01*
X1314000Y346500D02*
X1127100D01*
X1062600Y282000D01*
Y280000D01*
X1186500Y299250D02*
X1187400Y300150D01*
Y322400D01*
X1212800Y300450D02*
Y322400D01*
Y300450D02*
X1214000Y299250D01*
X1238200Y300050D02*
Y322400D01*
Y300050D02*
X1239000Y299250D01*
X1170000Y397250D02*
Y435500D01*
X1011000Y534000D02*
X1014000Y537000D01*
X1011000Y534000D02*
X926000D01*
X924000Y581000D02*
X911000D01*
Y573000D01*
X936000Y608500D02*
X914637D01*
X914162Y608025D01*
X899612D01*
X887000Y595413D01*
Y573000D01*
X879000D02*
Y603729D01*
X879625Y604354D01*
Y604625D01*
X869000Y604000D02*
X863000Y598000D01*
Y573000D01*
X855000D02*
X855000Y573000D01*
Y603000D01*
X844000Y604000D02*
Y593250D01*
X846750Y590500D01*
Y573250D01*
X847000Y573000D01*
X905975Y638975D02*
X906500Y639500D01*
Y659000D01*
X918650Y661150D02*
X931500Y674000D01*
X944000Y659000D02*
Y639000D01*
X944025Y638975D01*
X944050Y639000D01*
X943343Y624000D02*
X1022500D01*
X1043500Y645000D01*
X1042000Y659000D02*
X1111500D01*
X1145750D01*
X1145350Y631100D02*
X1111500D01*
X1161750Y601250D02*
X1196250D01*
X1211500Y616500D01*
Y694000D01*
X1145350Y631100D02*
X1143000Y628750D01*
Y620000D01*
X1161750Y601250D01*
X943343Y624000D02*
X942843Y624500D01*
X886000D01*
X879000Y631500D01*
Y638510D01*
X879760D01*
X879000D02*
X841990D01*
X834000Y646500D01*
X799000D01*
X807000Y663750D02*
X809000Y665750D01*
X811000Y663750D01*
X836500D01*
X905950Y639000D02*
X905975Y638975D01*
X918650Y639000D02*
X919150Y639500D01*
X918650Y639000D02*
Y661150D01*
Y693000D02*
X919000Y693350D01*
Y709000D01*
X843750D01*
X834000Y699250D01*
X786500Y701500D02*
Y694250D01*
X784000D01*
X781500Y663750D02*
X807000D01*
X684000Y578550D02*
X684500Y578050D01*
X684000Y578550D02*
X678172D01*
X657111Y599611D01*
Y601139D01*
X644250Y614000D01*
Y616500D01*
X643925Y591175D02*
X669250Y565850D01*
X684000D01*
X684500Y565350D01*
X660825Y559500D02*
X667675Y552650D01*
X660825Y559500D02*
X648750D01*
X644250Y564000D01*
Y566500D01*
X613750Y591500D02*
Y592200D01*
X609250Y596700D01*
X574000D01*
X565200Y588200D02*
X569400Y584000D01*
X574000D01*
Y571300D02*
X609250D01*
X613750Y566800D01*
Y566500D01*
X613750Y534900D02*
Y534000D01*
Y534900D02*
X609250Y539400D01*
X574000D01*
Y526700D02*
X573900Y526600D01*
X551600D01*
X546500Y521500D01*
X546522Y479500D02*
Y469022D01*
X546500Y469000D01*
Y454078D02*
X564122Y471700D01*
X565200D01*
X569400Y475900D01*
X574000D01*
X609250Y514000D02*
X613750Y509500D01*
Y509000D01*
X609250Y514000D02*
X574000D01*
X546500Y454078D02*
Y454000D01*
X573791Y558809D02*
X574000Y558600D01*
X573791Y558809D02*
X544191D01*
X544000Y559000D01*
X564122Y588200D02*
X565200D01*
X564122D02*
X536500Y615822D01*
Y619000D01*
X556500Y634000D02*
X556771D01*
X557571Y634800D01*
X574000D01*
Y622100D02*
X609250D01*
X613750Y617600D01*
Y616500D01*
Y643000D02*
X609250Y647500D01*
X574000D01*
X651500Y871500D02*
X653000Y870000D01*
X381929Y411500D02*
X354000Y383571D01*
Y327055D01*
X634950Y276550D02*
X683550D01*
X684000Y277000D01*
X634950Y276550D02*
X634500Y276100D01*
D45*
X755600Y805000D02*
D03*
D46*
X755600Y322400D02*
D03*
X781000D02*
D03*
X806400D02*
D03*
X1187400D02*
D03*
X1212800D02*
D03*
X1238200D02*
D03*
Y805000D02*
D03*
X1212800D02*
D03*
X1187400D02*
D03*
X1162000D02*
D03*
X1136600D02*
D03*
X1111200D02*
D03*
X1085800D02*
D03*
X1060400D02*
D03*
X1035000D02*
D03*
X1009600D02*
D03*
X984200D02*
D03*
X958800D02*
D03*
X933400D02*
D03*
X908000D02*
D03*
X882600D02*
D03*
X857200D02*
D03*
X831800D02*
D03*
X806400D02*
D03*
X781000D02*
D03*
D47*
X370303Y310752D02*
D03*
X1314000Y799000D02*
D03*
D48*
X370303Y280752D02*
D03*
X400303D02*
D03*
X430303D02*
D03*
X460303D02*
D03*
Y310752D02*
D03*
X438903Y353952D02*
D03*
X430303Y310752D02*
D03*
X391903Y353952D02*
D03*
X400303Y310752D02*
D03*
X1284000Y799000D02*
D03*
X1357250D02*
D03*
D49*
X609500Y276100D02*
D03*
X1287000Y526000D02*
D03*
X1289200Y684000D02*
D03*
D50*
X634500Y276100D02*
D03*
X1262000Y451000D02*
D03*
X1287000D02*
D03*
Y476000D02*
D03*
Y501000D02*
D03*
X1262000Y526000D02*
D03*
Y501000D02*
D03*
Y476000D02*
D03*
X1289200Y659000D02*
D03*
X1264200Y684000D02*
D03*
Y659000D02*
D03*
D51*
X609500Y347900D02*
D03*
X634500D02*
D03*
X1358800Y451000D02*
D03*
Y526000D02*
D03*
D52*
X1361000Y595600D02*
D03*
X1362000Y721600D02*
D03*
D53*
X1361000Y621000D02*
D03*
X1362000Y747000D02*
D03*
D54*
X1361000Y659000D02*
D03*
Y684000D02*
D03*
D55*
X684000Y277000D02*
D03*
D56*
X709400Y277000D02*
D03*
D57*
X1037200Y280000D02*
D03*
D58*
X1062600Y280000D02*
D03*
X1088000D02*
D03*
X1113400D02*
D03*
X1138800D02*
D03*
D59*
X919200Y280000D02*
D03*
X970000D02*
D03*
D60*
X319000Y314000D02*
D03*
Y859000D02*
D03*
X1358000Y314000D02*
D03*
Y859000D02*
D03*
D61*
X472599Y341750D02*
D03*
X489599Y367750D02*
D03*
X516000Y342000D02*
D03*
X525000Y313457D02*
D03*
X549000Y284957D02*
D03*
X580099Y278750D02*
D03*
X580599Y299750D02*
D03*
X549000Y322957D02*
D03*
X549000Y358957D02*
D03*
X523000Y276000D02*
D03*
X546500Y454000D02*
D03*
Y469000D02*
D03*
Y521500D02*
D03*
X544000Y559000D02*
D03*
X571500Y609000D02*
D03*
X556500Y634000D02*
D03*
X536500Y619000D02*
D03*
X666500Y644000D02*
D03*
X684000Y626500D02*
D03*
X701500Y664000D02*
D03*
X727750Y626500D02*
D03*
X799000Y646500D02*
D03*
X817000Y632000D02*
D03*
X831500Y604000D02*
D03*
X844000D02*
D03*
X855000Y603000D02*
D03*
X869000Y604000D02*
D03*
X879625Y604625D02*
D03*
X879760Y638510D02*
D03*
X906500Y659000D02*
D03*
X944000D02*
D03*
X974000D02*
D03*
X924000Y592000D02*
D03*
Y581000D02*
D03*
X952000Y552000D02*
D03*
X979000Y605000D02*
D03*
X1036000Y511000D02*
D03*
X1112000Y519000D02*
D03*
X1126000Y514000D02*
D03*
X1139000Y528000D02*
D03*
X1167500Y476500D02*
D03*
X1181000Y484000D02*
D03*
X1214000Y493000D02*
D03*
X1206500Y501500D02*
D03*
X1219000Y529000D02*
D03*
X1194000D02*
D03*
Y513000D02*
D03*
X1279798Y544809D02*
D03*
X1314000Y721500D02*
D03*
X1176500Y839000D02*
D03*
X1106500Y829000D02*
D03*
X1084000Y839000D02*
D03*
X1073500Y829500D02*
D03*
X1067250Y871250D02*
D03*
X1012250D02*
D03*
X957250D02*
D03*
X901500Y861500D02*
D03*
X844000Y914000D02*
D03*
X770250Y772375D02*
D03*
X806500Y774000D02*
D03*
Y719000D02*
D03*
X698000Y786000D02*
D03*
X716000Y805000D02*
D03*
X683000Y729000D02*
D03*
X644000Y764000D02*
D03*
X613000Y725000D02*
D03*
X644000Y724000D02*
D03*
X684000Y686500D02*
D03*
X714000Y672000D02*
D03*
X588000Y725000D02*
D03*
X562000D02*
D03*
X537000D02*
D03*
X503000D02*
D03*
X478000D02*
D03*
X453000D02*
D03*
X427000D02*
D03*
X391000D02*
D03*
X365000Y726000D02*
D03*
X339950Y725950D02*
D03*
X311500Y726500D02*
D03*
X382000Y802000D02*
D03*
X461500Y879000D02*
D03*
X421500Y896500D02*
D03*
X391500Y914000D02*
D03*
X409000Y879000D02*
D03*
X539000Y846500D02*
D03*
X651500Y849000D02*
D03*
Y861500D02*
D03*
Y871500D02*
D03*
Y881500D02*
D03*
Y891500D02*
D03*
X919000Y709000D02*
D03*
X931500Y711500D02*
D03*
X714000Y489000D02*
D03*
X701500Y479000D02*
D03*
X752206Y413567D02*
D03*
X739000Y400000D02*
D03*
X799000Y461500D02*
D03*
X869000Y444000D02*
D03*
X879000Y424000D02*
D03*
X894652Y421341D02*
D03*
X908298Y419926D02*
D03*
X919000Y434000D02*
D03*
X921117Y422000D02*
D03*
X1314000Y346500D02*
D03*
X1317250Y873750D02*
D03*
X1287250D02*
D03*
X414000Y694000D02*
D03*
X329000Y633999D02*
D03*
X309000Y600454D02*
D03*
X311500Y579000D02*
D03*
X309000Y501500D02*
D03*
Y481500D02*
D03*
Y454000D02*
D03*
X341000Y525750D02*
D03*
D62*
X809000Y665750D02*
D03*
Y692250D02*
D03*
X879000Y638750D02*
D03*
Y665250D02*
D03*
X984000Y753250D02*
D03*
Y779750D02*
D03*
X956500D02*
D03*
Y753250D02*
D03*
X1035000Y753500D02*
D03*
Y780000D02*
D03*
X1060250Y779750D02*
D03*
Y753250D02*
D03*
X1129000Y753250D02*
D03*
Y779750D02*
D03*
X1156500D02*
D03*
Y753250D02*
D03*
X1184000D02*
D03*
Y779750D02*
D03*
X1211500D02*
D03*
Y753250D02*
D03*
X1239000D02*
D03*
Y779750D02*
D03*
Y613250D02*
D03*
Y586750D02*
D03*
X970000Y347250D02*
D03*
Y320750D02*
D03*
X919000Y346250D02*
D03*
Y319750D02*
D03*
D63*
X476000Y514550D02*
D03*
Y527250D02*
D03*
Y539950D02*
D03*
Y552650D02*
D03*
Y565350D02*
D03*
Y578050D02*
D03*
Y590750D02*
D03*
Y603450D02*
D03*
X422000D02*
D03*
Y590750D02*
D03*
Y578050D02*
D03*
Y565350D02*
D03*
Y552650D02*
D03*
Y539950D02*
D03*
Y527250D02*
D03*
Y514550D02*
D03*
X684500D02*
D03*
Y527250D02*
D03*
Y539950D02*
D03*
Y552650D02*
D03*
Y565350D02*
D03*
Y578050D02*
D03*
Y590750D02*
D03*
Y603450D02*
D03*
X738500Y552650D02*
D03*
Y539950D02*
D03*
Y527250D02*
D03*
Y514550D02*
D03*
Y565350D02*
D03*
Y578050D02*
D03*
Y590750D02*
D03*
Y603450D02*
D03*
X558500Y795900D02*
D03*
Y808600D02*
D03*
Y821300D02*
D03*
Y834000D02*
D03*
Y846700D02*
D03*
Y859400D02*
D03*
Y872100D02*
D03*
X504500D02*
D03*
Y859400D02*
D03*
Y846700D02*
D03*
Y834000D02*
D03*
Y821300D02*
D03*
Y808600D02*
D03*
Y795900D02*
D03*
X436000Y872100D02*
D03*
Y859400D02*
D03*
Y846700D02*
D03*
Y834000D02*
D03*
Y821300D02*
D03*
Y808600D02*
D03*
Y795900D02*
D03*
X382000Y846700D02*
D03*
Y859400D02*
D03*
Y834000D02*
D03*
Y821300D02*
D03*
Y808600D02*
D03*
Y795900D02*
D03*
Y872100D02*
D03*
D64*
X1111500Y631100D02*
D03*
Y659000D02*
D03*
Y686900D02*
D03*
D65*
X1042000Y659000D02*
D03*
D66*
X525000Y275457D02*
D03*
X549000Y265957D02*
D03*
Y284957D02*
D03*
Y303957D02*
D03*
Y322957D02*
D03*
X525000Y313457D02*
D03*
X549000Y376957D02*
D03*
Y395957D02*
D03*
X525000Y386457D02*
D03*
D67*
X529000Y349457D02*
D03*
X549000Y339957D02*
D03*
Y358957D02*
D03*
D68*
X1279000Y585000D02*
D03*
Y617500D02*
D03*
X1280000Y724500D02*
D03*
Y757000D02*
D03*
D69*
X905950Y639000D02*
D03*
X918650D02*
D03*
X931350D02*
D03*
X944050D02*
D03*
Y693000D02*
D03*
X931350D02*
D03*
X918650D02*
D03*
X905950D02*
D03*
D70*
X1312000Y596000D02*
D03*
Y622000D02*
D03*
X1315000Y722000D02*
D03*
Y748000D02*
D03*
D71*
X1145500Y631250D02*
D03*
X1172000D02*
D03*
X1172250Y659000D02*
D03*
X1145750D02*
D03*
D72*
X329000Y452050D02*
D03*
Y464750D02*
D03*
Y477450D02*
D03*
Y490150D02*
D03*
Y502850D02*
D03*
Y515550D02*
D03*
Y528250D02*
D03*
Y540950D02*
D03*
Y559550D02*
D03*
Y572250D02*
D03*
Y584950D02*
D03*
Y597650D02*
D03*
Y610350D02*
D03*
Y623050D02*
D03*
Y635750D02*
D03*
Y648450D02*
D03*
X274000D02*
D03*
Y635750D02*
D03*
Y623050D02*
D03*
Y610350D02*
D03*
Y597650D02*
D03*
Y584950D02*
D03*
Y572250D02*
D03*
Y559550D02*
D03*
Y540950D02*
D03*
Y528250D02*
D03*
Y515550D02*
D03*
Y502850D02*
D03*
Y490150D02*
D03*
Y477450D02*
D03*
Y464750D02*
D03*
Y452050D02*
D03*
X519000Y450500D02*
D03*
Y463200D02*
D03*
Y475900D02*
D03*
Y488600D02*
D03*
Y501300D02*
D03*
Y514000D02*
D03*
Y526700D02*
D03*
Y539400D02*
D03*
X519000Y558600D02*
D03*
Y571300D02*
D03*
Y584000D02*
D03*
Y596700D02*
D03*
Y609400D02*
D03*
Y622100D02*
D03*
Y634800D02*
D03*
Y647500D02*
D03*
X574000Y609400D02*
D03*
Y596700D02*
D03*
Y584000D02*
D03*
Y571300D02*
D03*
Y558600D02*
D03*
X574000Y539400D02*
D03*
Y526700D02*
D03*
Y514000D02*
D03*
Y501300D02*
D03*
Y488600D02*
D03*
Y475900D02*
D03*
Y463200D02*
D03*
Y450500D02*
D03*
X574000Y622100D02*
D03*
Y634800D02*
D03*
Y647500D02*
D03*
D73*
X816000Y478000D02*
D03*
Y486000D02*
D03*
Y494000D02*
D03*
Y502000D02*
D03*
Y510000D02*
D03*
Y518000D02*
D03*
Y526000D02*
D03*
Y534000D02*
D03*
Y542000D02*
D03*
Y550000D02*
D03*
Y558000D02*
D03*
X926000Y494000D02*
D03*
Y486000D02*
D03*
Y478000D02*
D03*
Y502000D02*
D03*
Y510000D02*
D03*
Y518000D02*
D03*
Y526000D02*
D03*
Y534000D02*
D03*
Y542000D02*
D03*
Y550000D02*
D03*
Y558000D02*
D03*
D74*
X831000Y463000D02*
D03*
X839000D02*
D03*
X847000D02*
D03*
X855000D02*
D03*
X863000D02*
D03*
X871000D02*
D03*
X879000D02*
D03*
X887000D02*
D03*
X895000D02*
D03*
X903000D02*
D03*
X911000D02*
D03*
Y573000D02*
D03*
X903000D02*
D03*
X895000D02*
D03*
X887000D02*
D03*
X879000D02*
D03*
X871000D02*
D03*
X863000D02*
D03*
X855000D02*
D03*
X847000D02*
D03*
X839000D02*
D03*
X831000D02*
D03*
M02*
