G04*
G04 #@! TF.GenerationSoftware,Altium Limited,Altium Designer,19.1.7 (138)*
G04*
G04 Layer_Color=65535*
%FSLAX44Y44*%
%MOMM*%
G71*
G01*
G75*
%ADD10C,0.1000*%
%ADD11C,0.2500*%
%ADD12C,0.0500*%
%ADD13C,0.2000*%
%ADD14C,0.2540*%
G36*
X480408Y287938D02*
X479657D01*
Y290045D01*
X474000D01*
Y290893D01*
X479657D01*
Y293000D01*
X480408D01*
Y287938D01*
D02*
G37*
G36*
X476126Y286543D02*
X476116D01*
X476107D01*
X476048Y286533D01*
X475961Y286514D01*
X475843Y286494D01*
X475717Y286455D01*
X475580Y286416D01*
X475453Y286358D01*
X475326Y286290D01*
X475317Y286280D01*
X475278Y286250D01*
X475219Y286202D01*
X475151Y286124D01*
X475073Y286036D01*
X474985Y285929D01*
X474907Y285792D01*
X474829Y285646D01*
Y285636D01*
X474819Y285626D01*
X474800Y285568D01*
X474771Y285480D01*
X474741Y285353D01*
X474702Y285217D01*
X474673Y285041D01*
X474654Y284856D01*
X474644Y284661D01*
Y284583D01*
X474654Y284485D01*
X474663Y284378D01*
X474673Y284241D01*
X474702Y284105D01*
X474731Y283958D01*
X474780Y283812D01*
X474790Y283793D01*
X474809Y283754D01*
X474839Y283685D01*
X474888Y283607D01*
X474946Y283510D01*
X475014Y283422D01*
X475092Y283334D01*
X475180Y283256D01*
X475190Y283246D01*
X475229Y283227D01*
X475278Y283198D01*
X475346Y283159D01*
X475424Y283129D01*
X475522Y283100D01*
X475619Y283081D01*
X475726Y283071D01*
X475736D01*
X475775D01*
X475834Y283081D01*
X475902Y283090D01*
X475990Y283110D01*
X476077Y283149D01*
X476165Y283188D01*
X476253Y283246D01*
X476263Y283256D01*
X476292Y283276D01*
X476331Y283324D01*
X476390Y283383D01*
X476448Y283461D01*
X476507Y283559D01*
X476575Y283685D01*
X476633Y283822D01*
X476643Y283832D01*
X476653Y283871D01*
X476673Y283949D01*
X476692Y283997D01*
X476712Y284056D01*
X476731Y284134D01*
X476750Y284212D01*
X476780Y284310D01*
X476809Y284407D01*
X476838Y284524D01*
X476868Y284661D01*
X476907Y284807D01*
X476946Y284963D01*
Y284973D01*
X476955Y285002D01*
X476965Y285051D01*
X476985Y285109D01*
X477004Y285178D01*
X477024Y285256D01*
X477072Y285441D01*
X477141Y285646D01*
X477209Y285851D01*
X477277Y286036D01*
X477307Y286124D01*
X477346Y286192D01*
Y286202D01*
X477355Y286211D01*
X477394Y286270D01*
X477443Y286348D01*
X477511Y286446D01*
X477599Y286563D01*
X477697Y286670D01*
X477814Y286777D01*
X477940Y286875D01*
X477960Y286884D01*
X478009Y286914D01*
X478077Y286943D01*
X478175Y286982D01*
X478292Y287031D01*
X478428Y287060D01*
X478584Y287089D01*
X478740Y287099D01*
X478750D01*
X478760D01*
X478789D01*
X478828D01*
X478916Y287080D01*
X479033Y287060D01*
X479179Y287031D01*
X479325Y286982D01*
X479491Y286914D01*
X479647Y286826D01*
X479657D01*
X479667Y286816D01*
X479716Y286777D01*
X479794Y286709D01*
X479891Y286621D01*
X479989Y286514D01*
X480096Y286377D01*
X480203Y286211D01*
X480291Y286026D01*
Y286016D01*
X480301Y286007D01*
X480311Y285977D01*
X480330Y285929D01*
X480340Y285880D01*
X480359Y285821D01*
X480408Y285685D01*
X480447Y285509D01*
X480476Y285314D01*
X480506Y285090D01*
X480515Y284856D01*
Y284739D01*
X480506Y284670D01*
Y284602D01*
X480486Y284436D01*
X480457Y284241D01*
X480418Y284027D01*
X480359Y283812D01*
X480281Y283607D01*
Y283598D01*
X480272Y283588D01*
X480262Y283559D01*
X480242Y283519D01*
X480184Y283422D01*
X480116Y283295D01*
X480018Y283159D01*
X479901Y283022D01*
X479764Y282885D01*
X479608Y282768D01*
X479589Y282759D01*
X479530Y282720D01*
X479433Y282671D01*
X479316Y282622D01*
X479169Y282564D01*
X478994Y282505D01*
X478809Y282466D01*
X478604Y282447D01*
X478545Y283256D01*
X478555D01*
X478574D01*
X478604Y283266D01*
X478643Y283276D01*
X478750Y283295D01*
X478886Y283334D01*
X479033Y283393D01*
X479179Y283471D01*
X479325Y283578D01*
X479452Y283705D01*
X479462Y283724D01*
X479501Y283773D01*
X479550Y283861D01*
X479608Y283978D01*
X479667Y284134D01*
X479716Y284329D01*
X479755Y284553D01*
X479764Y284817D01*
Y284944D01*
X479755Y285002D01*
Y285080D01*
X479725Y285246D01*
X479696Y285431D01*
X479647Y285616D01*
X479579Y285792D01*
X479530Y285870D01*
X479482Y285938D01*
X479472Y285948D01*
X479433Y285987D01*
X479374Y286046D01*
X479286Y286104D01*
X479189Y286173D01*
X479072Y286221D01*
X478945Y286260D01*
X478799Y286280D01*
X478779D01*
X478740D01*
X478672Y286270D01*
X478594Y286250D01*
X478506Y286221D01*
X478409Y286173D01*
X478321Y286114D01*
X478233Y286036D01*
X478223Y286026D01*
X478194Y285977D01*
X478175Y285948D01*
X478145Y285909D01*
X478126Y285851D01*
X478097Y285782D01*
X478058Y285704D01*
X478018Y285616D01*
X477989Y285519D01*
X477950Y285402D01*
X477901Y285265D01*
X477862Y285119D01*
X477823Y284953D01*
X477775Y284768D01*
Y284758D01*
X477765Y284719D01*
X477755Y284670D01*
X477736Y284602D01*
X477716Y284514D01*
X477687Y284417D01*
X477638Y284202D01*
X477570Y283968D01*
X477501Y283734D01*
X477472Y283617D01*
X477433Y283519D01*
X477394Y283422D01*
X477365Y283344D01*
Y283334D01*
X477355Y283315D01*
X477336Y283295D01*
X477316Y283256D01*
X477258Y283159D01*
X477189Y283032D01*
X477092Y282895D01*
X476975Y282759D01*
X476848Y282632D01*
X476712Y282525D01*
X476692Y282515D01*
X476643Y282486D01*
X476565Y282437D01*
X476448Y282388D01*
X476321Y282339D01*
X476165Y282290D01*
X475990Y282261D01*
X475804Y282251D01*
X475795D01*
X475785D01*
X475756D01*
X475717D01*
X475619Y282271D01*
X475492Y282290D01*
X475346Y282320D01*
X475180Y282378D01*
X475005Y282447D01*
X474839Y282544D01*
X474819Y282554D01*
X474761Y282603D01*
X474683Y282661D01*
X474585Y282759D01*
X474468Y282876D01*
X474351Y283022D01*
X474244Y283198D01*
X474137Y283393D01*
Y283403D01*
X474127Y283422D01*
X474117Y283451D01*
X474098Y283490D01*
X474078Y283539D01*
X474058Y283598D01*
X474020Y283754D01*
X473971Y283929D01*
X473932Y284144D01*
X473903Y284368D01*
X473893Y284622D01*
Y284768D01*
X473903Y284836D01*
Y284924D01*
X473912Y285022D01*
X473922Y285129D01*
X473951Y285353D01*
X474000Y285597D01*
X474058Y285841D01*
X474137Y286075D01*
Y286085D01*
X474146Y286104D01*
X474166Y286133D01*
X474185Y286173D01*
X474244Y286280D01*
X474332Y286407D01*
X474439Y286563D01*
X474566Y286709D01*
X474722Y286865D01*
X474897Y287001D01*
X474907D01*
X474917Y287011D01*
X474946Y287031D01*
X474985Y287050D01*
X475034Y287080D01*
X475092Y287109D01*
X475239Y287167D01*
X475405Y287226D01*
X475609Y287284D01*
X475824Y287323D01*
X476058Y287343D01*
X476126Y286543D01*
D02*
G37*
G36*
X472790Y276712D02*
X472225D01*
Y281920D01*
X472790D01*
Y276712D01*
D02*
G37*
G36*
X477267Y276370D02*
X477375D01*
X477511Y276351D01*
X477667Y276331D01*
X477833Y276312D01*
X478028Y276273D01*
X478223Y276224D01*
X478428Y276175D01*
X478633Y276107D01*
X478838Y276019D01*
X479043Y275921D01*
X479247Y275814D01*
X479433Y275678D01*
X479608Y275531D01*
X479618Y275522D01*
X479647Y275492D01*
X479696Y275443D01*
X479755Y275375D01*
X479823Y275287D01*
X479891Y275190D01*
X479979Y275073D01*
X480067Y274936D01*
X480145Y274780D01*
X480233Y274615D01*
X480301Y274429D01*
X480379Y274234D01*
X480428Y274029D01*
X480476Y273805D01*
X480506Y273561D01*
X480515Y273317D01*
Y273230D01*
X480506Y273171D01*
Y273093D01*
X480496Y272995D01*
X480476Y272898D01*
X480467Y272781D01*
X480408Y272537D01*
X480330Y272264D01*
X480233Y271991D01*
X480164Y271854D01*
X480086Y271718D01*
Y271708D01*
X480067Y271688D01*
X480047Y271649D01*
X480008Y271601D01*
X479969Y271542D01*
X479911Y271474D01*
X479784Y271318D01*
X479618Y271142D01*
X479413Y270957D01*
X479179Y270791D01*
X478906Y270635D01*
X478896D01*
X478867Y270616D01*
X478828Y270596D01*
X478769Y270576D01*
X478701Y270547D01*
X478613Y270518D01*
X478516Y270479D01*
X478409Y270440D01*
X478282Y270411D01*
X478155Y270372D01*
X477862Y270313D01*
X477541Y270274D01*
X477189Y270255D01*
X477180D01*
X477150D01*
X477092D01*
X477024Y270264D01*
X476936D01*
X476838Y270274D01*
X476731Y270284D01*
X476604Y270303D01*
X476331Y270352D01*
X476039Y270420D01*
X475736Y270518D01*
X475443Y270655D01*
X475434D01*
X475414Y270674D01*
X475375Y270693D01*
X475317Y270723D01*
X475258Y270772D01*
X475180Y270820D01*
X475014Y270937D01*
X474829Y271093D01*
X474634Y271289D01*
X474449Y271513D01*
X474283Y271766D01*
Y271776D01*
X474263Y271796D01*
X474244Y271835D01*
X474224Y271893D01*
X474195Y271961D01*
X474156Y272040D01*
X474127Y272127D01*
X474088Y272235D01*
X474020Y272459D01*
X473951Y272722D01*
X473912Y273015D01*
X473893Y273317D01*
Y273405D01*
X473903Y273473D01*
Y273551D01*
X473912Y273639D01*
X473932Y273746D01*
X473951Y273863D01*
X474000Y274107D01*
X474078Y274380D01*
X474185Y274663D01*
X474244Y274800D01*
X474322Y274936D01*
X474332Y274946D01*
X474341Y274966D01*
X474371Y275005D01*
X474400Y275053D01*
X474449Y275112D01*
X474497Y275180D01*
X474634Y275336D01*
X474809Y275512D01*
X475005Y275697D01*
X475248Y275863D01*
X475512Y276019D01*
X475522D01*
X475551Y276038D01*
X475590Y276048D01*
X475648Y276077D01*
X475717Y276107D01*
X475795Y276136D01*
X475892Y276165D01*
X475999Y276194D01*
X476116Y276234D01*
X476234Y276263D01*
X476507Y276321D01*
X476799Y276360D01*
X477111Y276380D01*
X477131D01*
X477180D01*
X477267Y276370D01*
D02*
G37*
G36*
X480408Y264802D02*
X479657D01*
Y268275D01*
X477658D01*
Y265271D01*
X476907D01*
Y268275D01*
X474000D01*
Y269123D01*
X480408D01*
Y264802D01*
D02*
G37*
G36*
Y259340D02*
X479657D01*
Y262813D01*
X477658D01*
Y259809D01*
X476907D01*
Y262813D01*
X474000D01*
Y263661D01*
X480408D01*
Y259340D01*
D02*
G37*
G36*
X1236111Y830380D02*
X1236146Y830357D01*
X1236199Y830323D01*
X1236226Y830268D01*
X1236227Y830192D01*
X1235944Y823920D01*
X1235947Y823906D01*
X1235936Y823888D01*
X1235922Y823809D01*
X1235865Y823721D01*
X1235810Y823694D01*
X1235755Y823668D01*
X1234417Y823384D01*
X1234338Y823398D01*
X1234239Y823438D01*
X1234201Y823475D01*
X1234156Y823542D01*
X1231357Y829162D01*
X1231354Y829176D01*
X1231348Y829205D01*
X1231332Y829278D01*
X1231352Y829328D01*
X1231372Y829377D01*
X1231427Y829404D01*
X1231511Y829437D01*
X1232471Y829640D01*
X1232550Y829626D01*
X1232599Y829607D01*
X1232649Y829587D01*
X1232691Y829535D01*
X1232735Y829468D01*
X1234801Y824802D01*
X1234844Y824811D01*
X1234857Y829917D01*
X1234854Y829932D01*
X1234866Y829949D01*
X1234876Y830043D01*
X1234934Y830131D01*
X1234989Y830158D01*
X1235044Y830185D01*
X1236018Y830391D01*
X1236111Y830380D01*
D02*
G37*
G36*
X1239941Y831160D02*
X1240139Y831156D01*
X1240358Y831127D01*
X1240568Y831065D01*
X1240773Y830957D01*
X1240791Y830945D01*
X1240862Y830899D01*
X1240956Y830813D01*
X1241056Y830697D01*
X1241180Y830541D01*
X1241281Y830350D01*
X1241392Y830115D01*
X1241465Y829842D01*
X1242129Y826702D01*
X1242132Y826688D01*
X1242135Y826673D01*
X1242145Y826629D01*
X1242157Y826571D01*
X1242156Y826434D01*
X1242163Y826254D01*
X1242160Y826056D01*
X1242116Y825834D01*
X1242054Y825623D01*
X1241945Y825418D01*
X1241934Y825400D01*
X1241885Y825344D01*
X1241799Y825250D01*
X1241683Y825150D01*
X1241527Y825026D01*
X1241336Y824924D01*
X1241116Y824817D01*
X1240843Y824744D01*
X1239709Y824504D01*
X1239557Y824502D01*
X1239377Y824495D01*
X1239178Y824498D01*
X1238959Y824528D01*
X1238749Y824590D01*
X1238547Y824684D01*
X1238529Y824695D01*
X1238473Y824744D01*
X1238379Y824830D01*
X1238279Y824946D01*
X1238155Y825102D01*
X1238053Y825293D01*
X1237943Y825528D01*
X1237870Y825801D01*
X1237206Y828941D01*
X1237202Y828956D01*
X1237199Y828970D01*
X1237190Y829014D01*
X1237178Y829072D01*
X1237176Y829223D01*
X1237168Y829404D01*
X1237172Y829602D01*
X1237202Y829821D01*
X1237263Y830032D01*
X1237372Y830237D01*
X1237383Y830254D01*
X1237429Y830325D01*
X1237518Y830405D01*
X1237631Y830519D01*
X1237790Y830629D01*
X1237978Y830745D01*
X1238216Y830841D01*
X1238489Y830914D01*
X1239623Y831154D01*
X1239757Y831167D01*
X1239941Y831160D01*
D02*
G37*
G36*
X1249136Y343282D02*
X1249187Y343267D01*
X1249224Y343247D01*
X1249256Y343195D01*
X1249292Y343128D01*
X1249467Y342560D01*
X1249471Y342546D01*
X1249476Y342532D01*
X1249469Y342452D01*
X1249434Y342364D01*
X1249396Y342336D01*
X1249329Y342300D01*
X1247455Y341723D01*
X1247375Y341730D01*
X1247287Y341765D01*
X1247259Y341803D01*
X1247223Y341870D01*
X1247048Y342438D01*
X1247044Y342452D01*
X1247040Y342466D01*
X1247042Y342560D01*
X1247077Y342649D01*
X1247115Y342676D01*
X1247182Y342712D01*
X1249056Y343289D01*
X1249136Y343282D01*
D02*
G37*
G36*
X1239685Y343126D02*
X1239915Y343088D01*
X1240129Y342998D01*
X1240147Y342988D01*
X1240221Y342949D01*
X1240323Y342872D01*
X1240434Y342766D01*
X1240571Y342621D01*
X1240689Y342440D01*
X1240820Y342216D01*
X1240918Y341951D01*
X1241057Y341496D01*
X1241062Y341482D01*
X1241066Y341468D01*
X1241059Y341388D01*
X1241044Y341337D01*
X1241029Y341285D01*
X1240976Y341254D01*
X1240910Y341217D01*
X1240072Y340960D01*
X1239992Y340966D01*
X1239941Y340982D01*
X1239889Y340997D01*
X1239858Y341049D01*
X1239822Y341116D01*
X1239699Y341514D01*
X1239695Y341528D01*
X1239682Y341570D01*
X1239669Y341613D01*
X1239633Y341680D01*
X1239546Y341809D01*
X1239496Y341871D01*
X1239436Y341914D01*
X1239399Y341934D01*
X1239366Y341940D01*
X1239315Y341955D01*
X1239249Y341966D01*
X1239160Y341954D01*
X1239066Y341956D01*
X1238185Y341685D01*
X1238119Y341649D01*
X1238004Y341567D01*
X1237946Y341503D01*
X1237902Y341443D01*
X1237897Y341410D01*
X1237877Y341373D01*
X1237876Y341326D01*
X1237865Y341260D01*
X1237863Y341166D01*
X1237875Y341077D01*
X1237910Y340963D01*
X1238819Y338009D01*
X1238823Y337995D01*
X1238836Y337952D01*
X1238864Y337914D01*
X1238885Y337843D01*
X1238972Y337714D01*
X1239022Y337652D01*
X1239082Y337608D01*
X1239115Y337603D01*
X1239199Y337582D01*
X1239265Y337571D01*
X1239344Y337564D01*
X1239448Y337581D01*
X1240272Y337834D01*
X1240310Y337862D01*
X1240381Y337883D01*
X1240510Y337970D01*
X1240572Y338020D01*
X1240616Y338080D01*
X1240621Y338113D01*
X1240641Y338150D01*
X1240656Y338201D01*
X1240649Y338277D01*
X1240655Y338356D01*
X1240643Y338446D01*
X1240608Y338560D01*
X1240486Y338957D01*
X1240482Y338971D01*
X1240477Y338986D01*
X1240479Y339080D01*
X1240499Y339117D01*
X1240514Y339168D01*
X1240567Y339200D01*
X1240633Y339236D01*
X1241471Y339494D01*
X1241565Y339491D01*
X1241602Y339472D01*
X1241654Y339456D01*
X1241685Y339404D01*
X1241721Y339337D01*
X1241861Y338883D01*
X1241866Y338869D01*
X1241870Y338854D01*
X1241883Y338812D01*
X1241901Y338755D01*
X1241912Y338619D01*
X1241936Y338439D01*
X1241950Y338242D01*
X1241926Y338017D01*
X1241883Y337801D01*
X1241794Y337587D01*
X1241784Y337569D01*
X1241740Y337509D01*
X1241663Y337407D01*
X1241542Y337292D01*
X1241412Y337159D01*
X1241217Y337037D01*
X1241007Y336910D01*
X1240742Y336813D01*
X1239563Y336450D01*
X1239412Y336435D01*
X1239233Y336411D01*
X1239035Y336396D01*
X1238814Y336406D01*
X1238585Y336445D01*
X1238375Y336520D01*
X1238357Y336530D01*
X1238297Y336573D01*
X1238195Y336651D01*
X1238085Y336757D01*
X1237947Y336901D01*
X1237829Y337083D01*
X1237698Y337307D01*
X1237601Y337572D01*
X1236657Y340640D01*
X1236653Y340654D01*
X1236648Y340668D01*
X1236635Y340711D01*
X1236618Y340767D01*
X1236602Y340918D01*
X1236578Y341097D01*
X1236564Y341295D01*
X1236574Y341516D01*
X1236616Y341731D01*
X1236706Y341945D01*
X1236716Y341964D01*
X1236769Y342042D01*
X1236837Y342125D01*
X1236953Y342254D01*
X1237102Y342378D01*
X1237279Y342510D01*
X1237507Y342627D01*
X1237772Y342724D01*
X1238951Y343087D01*
X1239083Y343112D01*
X1239267Y343122D01*
X1239479Y343140D01*
X1239685Y343126D01*
D02*
G37*
G36*
X1244542Y344621D02*
X1244757Y344578D01*
X1244972Y344488D01*
X1244990Y344478D01*
X1245064Y344439D01*
X1245166Y344362D01*
X1245276Y344256D01*
X1245414Y344112D01*
X1245532Y343930D01*
X1245659Y343720D01*
X1245756Y343455D01*
X1245904Y342972D01*
X1245909Y342958D01*
X1245913Y342944D01*
X1245926Y342901D01*
X1245930Y342840D01*
X1245945Y342689D01*
X1245941Y342501D01*
X1245908Y342304D01*
X1245823Y342076D01*
X1245759Y341979D01*
X1245686Y341863D01*
X1245590Y341771D01*
X1245465Y341671D01*
X1245480Y341675D01*
X1245498Y341665D01*
X1245592Y341663D01*
X1245737Y341646D01*
X1245906Y341604D01*
X1246091Y341506D01*
X1246276Y341361D01*
X1246354Y341260D01*
X1246435Y341145D01*
X1246493Y341008D01*
X1246556Y340856D01*
X1246709Y340359D01*
X1246713Y340345D01*
X1246717Y340331D01*
X1246730Y340288D01*
X1246748Y340231D01*
X1246759Y340094D01*
X1246783Y339915D01*
X1246797Y339718D01*
X1246773Y339492D01*
X1246730Y339277D01*
X1246641Y339063D01*
X1246631Y339045D01*
X1246587Y338985D01*
X1246510Y338883D01*
X1246404Y338773D01*
X1246255Y338649D01*
X1246078Y338517D01*
X1245850Y338400D01*
X1245584Y338303D01*
X1244590Y337997D01*
X1244454Y337986D01*
X1244275Y337962D01*
X1244063Y337943D01*
X1243856Y337958D01*
X1243627Y337996D01*
X1243417Y338071D01*
X1243398Y338081D01*
X1243338Y338125D01*
X1243237Y338202D01*
X1243126Y338308D01*
X1242989Y338452D01*
X1242871Y338634D01*
X1242744Y338844D01*
X1242647Y339109D01*
X1242564Y339379D01*
X1242559Y339393D01*
X1242555Y339407D01*
X1242557Y339501D01*
X1242592Y339590D01*
X1242630Y339617D01*
X1242697Y339653D01*
X1243549Y339915D01*
X1243643Y339913D01*
X1243680Y339893D01*
X1243732Y339878D01*
X1243763Y339826D01*
X1243799Y339759D01*
X1243874Y339518D01*
X1243878Y339504D01*
X1243891Y339461D01*
X1243904Y339418D01*
X1243940Y339352D01*
X1244012Y339218D01*
X1244063Y339156D01*
X1244123Y339112D01*
X1244156Y339107D01*
X1244193Y339087D01*
X1244240Y339086D01*
X1244319Y339080D01*
X1244399Y339073D01*
X1244489Y339085D01*
X1245128Y339282D01*
X1245180Y339313D01*
X1245237Y339331D01*
X1245380Y339422D01*
X1245442Y339472D01*
X1245486Y339532D01*
X1245506Y339569D01*
X1245511Y339602D01*
X1245527Y339653D01*
X1245533Y339733D01*
X1245525Y339808D01*
X1245528Y339902D01*
X1245493Y340016D01*
X1245349Y340485D01*
X1245344Y340499D01*
X1245335Y340527D01*
X1245318Y340584D01*
X1245282Y340651D01*
X1245195Y340779D01*
X1245135Y340823D01*
X1245075Y340867D01*
X1245038Y340886D01*
X1245005Y340892D01*
X1244940Y340903D01*
X1244874Y340914D01*
X1244785Y340902D01*
X1244691Y340904D01*
X1244052Y340707D01*
X1243972Y340714D01*
X1243884Y340749D01*
X1243856Y340787D01*
X1243820Y340854D01*
X1243641Y341436D01*
X1243637Y341450D01*
X1243632Y341464D01*
X1243634Y341558D01*
X1243669Y341647D01*
X1243708Y341674D01*
X1243774Y341710D01*
X1244328Y341881D01*
X1244380Y341912D01*
X1244437Y341930D01*
X1244581Y342020D01*
X1244643Y342071D01*
X1244686Y342131D01*
X1244706Y342168D01*
X1244712Y342201D01*
X1244727Y342252D01*
X1244733Y342332D01*
X1244726Y342407D01*
X1244728Y342501D01*
X1244693Y342615D01*
X1244553Y343069D01*
X1244549Y343083D01*
X1244540Y343112D01*
X1244523Y343169D01*
X1244486Y343235D01*
X1244400Y343364D01*
X1244340Y343408D01*
X1244280Y343452D01*
X1244247Y343457D01*
X1244210Y343477D01*
X1244145Y343488D01*
X1244083Y343484D01*
X1243989Y343487D01*
X1243900Y343475D01*
X1243218Y343265D01*
X1243151Y343229D01*
X1243023Y343142D01*
X1242960Y343092D01*
X1242917Y343032D01*
X1242911Y342999D01*
X1242890Y342915D01*
X1242894Y342854D01*
X1242887Y342774D01*
X1242904Y342671D01*
X1242934Y342571D01*
X1243008Y342330D01*
X1243013Y342315D01*
X1243017Y342301D01*
X1243011Y342221D01*
X1242995Y342170D01*
X1242980Y342119D01*
X1242928Y342087D01*
X1242861Y342051D01*
X1242009Y341789D01*
X1241929Y341795D01*
X1241878Y341811D01*
X1241841Y341830D01*
X1241809Y341883D01*
X1241773Y341950D01*
X1241694Y342205D01*
X1241690Y342219D01*
X1241685Y342234D01*
X1241672Y342276D01*
X1241655Y342333D01*
X1241644Y342469D01*
X1241620Y342649D01*
X1241606Y342846D01*
X1241616Y343067D01*
X1241658Y343282D01*
X1241748Y343496D01*
X1241758Y343515D01*
X1241811Y343594D01*
X1241879Y343677D01*
X1241995Y343806D01*
X1242129Y343925D01*
X1242320Y344061D01*
X1242534Y344174D01*
X1242800Y344271D01*
X1243794Y344577D01*
X1243940Y344606D01*
X1244124Y344616D01*
X1244322Y344630D01*
X1244542Y344621D01*
D02*
G37*
G36*
X1222994Y343239D02*
X1223045Y343223D01*
X1223083Y343204D01*
X1223114Y343151D01*
X1223150Y343084D01*
X1223325Y342517D01*
X1223329Y342502D01*
X1223334Y342488D01*
X1223327Y342408D01*
X1223292Y342320D01*
X1223254Y342293D01*
X1223187Y342257D01*
X1221313Y341680D01*
X1221233Y341686D01*
X1221144Y341721D01*
X1221117Y341759D01*
X1221081Y341826D01*
X1220906Y342394D01*
X1220902Y342408D01*
X1220898Y342422D01*
X1220900Y342517D01*
X1220935Y342605D01*
X1220973Y342632D01*
X1221040Y342668D01*
X1222914Y343245D01*
X1222994Y343239D01*
D02*
G37*
G36*
X1213685Y343126D02*
X1213915Y343088D01*
X1214129Y342998D01*
X1214147Y342988D01*
X1214221Y342949D01*
X1214323Y342872D01*
X1214434Y342766D01*
X1214571Y342621D01*
X1214689Y342440D01*
X1214820Y342216D01*
X1214918Y341951D01*
X1215057Y341496D01*
X1215062Y341482D01*
X1215066Y341468D01*
X1215060Y341388D01*
X1215044Y341337D01*
X1215029Y341285D01*
X1214976Y341254D01*
X1214910Y341217D01*
X1214072Y340960D01*
X1213992Y340966D01*
X1213941Y340982D01*
X1213889Y340997D01*
X1213858Y341049D01*
X1213822Y341116D01*
X1213699Y341514D01*
X1213695Y341528D01*
X1213682Y341570D01*
X1213669Y341613D01*
X1213633Y341680D01*
X1213546Y341809D01*
X1213496Y341871D01*
X1213436Y341914D01*
X1213399Y341934D01*
X1213366Y341940D01*
X1213315Y341955D01*
X1213249Y341966D01*
X1213160Y341954D01*
X1213066Y341956D01*
X1212185Y341685D01*
X1212119Y341649D01*
X1212004Y341567D01*
X1211946Y341503D01*
X1211902Y341443D01*
X1211897Y341410D01*
X1211877Y341373D01*
X1211876Y341326D01*
X1211865Y341260D01*
X1211863Y341166D01*
X1211875Y341077D01*
X1211910Y340963D01*
X1212819Y338009D01*
X1212823Y337995D01*
X1212836Y337952D01*
X1212864Y337914D01*
X1212886Y337843D01*
X1212972Y337714D01*
X1213022Y337652D01*
X1213082Y337608D01*
X1213115Y337603D01*
X1213199Y337582D01*
X1213265Y337571D01*
X1213344Y337564D01*
X1213448Y337581D01*
X1214272Y337834D01*
X1214310Y337862D01*
X1214381Y337883D01*
X1214510Y337970D01*
X1214572Y338020D01*
X1214616Y338080D01*
X1214621Y338113D01*
X1214641Y338150D01*
X1214656Y338201D01*
X1214649Y338277D01*
X1214655Y338356D01*
X1214643Y338446D01*
X1214608Y338560D01*
X1214486Y338957D01*
X1214482Y338971D01*
X1214477Y338986D01*
X1214479Y339080D01*
X1214499Y339117D01*
X1214514Y339168D01*
X1214567Y339200D01*
X1214633Y339236D01*
X1215471Y339494D01*
X1215565Y339491D01*
X1215602Y339472D01*
X1215654Y339456D01*
X1215686Y339404D01*
X1215722Y339337D01*
X1215861Y338883D01*
X1215866Y338869D01*
X1215870Y338854D01*
X1215883Y338812D01*
X1215901Y338755D01*
X1215912Y338619D01*
X1215936Y338439D01*
X1215950Y338242D01*
X1215926Y338017D01*
X1215883Y337801D01*
X1215794Y337587D01*
X1215784Y337569D01*
X1215740Y337509D01*
X1215663Y337407D01*
X1215542Y337292D01*
X1215412Y337159D01*
X1215217Y337037D01*
X1215007Y336910D01*
X1214742Y336813D01*
X1213563Y336450D01*
X1213412Y336435D01*
X1213233Y336411D01*
X1213035Y336396D01*
X1212814Y336406D01*
X1212585Y336445D01*
X1212375Y336520D01*
X1212357Y336530D01*
X1212297Y336573D01*
X1212195Y336651D01*
X1212085Y336757D01*
X1211947Y336901D01*
X1211829Y337083D01*
X1211698Y337307D01*
X1211601Y337572D01*
X1210657Y340640D01*
X1210652Y340654D01*
X1210648Y340668D01*
X1210635Y340711D01*
X1210618Y340767D01*
X1210602Y340918D01*
X1210578Y341097D01*
X1210564Y341295D01*
X1210574Y341516D01*
X1210617Y341731D01*
X1210706Y341945D01*
X1210716Y341964D01*
X1210769Y342042D01*
X1210837Y342125D01*
X1210953Y342254D01*
X1211102Y342378D01*
X1211279Y342510D01*
X1211507Y342627D01*
X1211772Y342724D01*
X1212951Y343087D01*
X1213083Y343112D01*
X1213267Y343122D01*
X1213479Y343140D01*
X1213685Y343126D01*
D02*
G37*
G36*
X1218471Y344599D02*
X1218686Y344556D01*
X1218901Y344467D01*
X1218919Y344457D01*
X1218993Y344417D01*
X1219095Y344340D01*
X1219205Y344234D01*
X1219343Y344090D01*
X1219461Y343908D01*
X1219588Y343699D01*
X1219685Y343433D01*
X1219803Y343050D01*
X1219807Y343035D01*
X1219812Y343021D01*
X1219825Y342979D01*
X1219828Y342917D01*
X1219857Y342771D01*
X1219867Y342588D01*
X1219857Y342367D01*
X1219824Y342123D01*
X1219743Y341881D01*
X1219605Y341621D01*
X1218268Y339499D01*
X1218258Y339481D01*
X1218233Y339411D01*
X1218212Y339327D01*
X1218224Y339237D01*
X1218272Y339081D01*
X1220616Y339802D01*
X1220695Y339795D01*
X1220784Y339760D01*
X1220811Y339722D01*
X1220847Y339655D01*
X1221057Y338974D01*
X1221061Y338959D01*
X1221066Y338945D01*
X1221059Y338866D01*
X1221024Y338777D01*
X1220986Y338750D01*
X1220919Y338714D01*
X1217397Y337630D01*
X1217318Y337636D01*
X1217229Y337671D01*
X1217202Y337710D01*
X1217166Y337776D01*
X1216882Y338699D01*
X1216873Y338728D01*
X1216865Y338803D01*
X1216849Y338907D01*
X1216838Y339044D01*
X1216851Y339203D01*
X1216888Y339385D01*
X1216954Y339577D01*
X1217062Y339781D01*
X1218384Y341851D01*
X1218394Y341870D01*
X1218437Y341930D01*
X1218486Y342023D01*
X1218527Y342144D01*
X1218577Y342284D01*
X1218595Y342429D01*
X1218608Y342589D01*
X1218574Y342749D01*
X1218482Y343047D01*
X1218478Y343062D01*
X1218469Y343090D01*
X1218452Y343147D01*
X1218416Y343213D01*
X1218329Y343342D01*
X1218269Y343386D01*
X1218209Y343430D01*
X1218176Y343435D01*
X1218139Y343455D01*
X1218088Y343470D01*
X1218012Y343462D01*
X1217933Y343469D01*
X1217829Y343453D01*
X1217275Y343282D01*
X1217208Y343246D01*
X1217079Y343160D01*
X1217017Y343110D01*
X1216973Y343050D01*
X1216968Y343017D01*
X1216947Y342933D01*
X1216951Y342872D01*
X1216944Y342792D01*
X1216960Y342688D01*
X1216991Y342589D01*
X1217087Y342276D01*
X1217091Y342262D01*
X1217096Y342248D01*
X1217089Y342168D01*
X1217074Y342117D01*
X1217059Y342065D01*
X1217006Y342034D01*
X1216940Y341997D01*
X1216087Y341735D01*
X1216008Y341742D01*
X1215956Y341757D01*
X1215919Y341777D01*
X1215888Y341829D01*
X1215852Y341896D01*
X1215751Y342223D01*
X1215747Y342237D01*
X1215742Y342251D01*
X1215729Y342294D01*
X1215712Y342350D01*
X1215701Y342487D01*
X1215677Y342666D01*
X1215663Y342864D01*
X1215672Y343084D01*
X1215715Y343300D01*
X1215805Y343514D01*
X1215814Y343532D01*
X1215868Y343611D01*
X1215936Y343694D01*
X1216051Y343823D01*
X1216200Y343946D01*
X1216377Y344079D01*
X1216605Y344196D01*
X1216871Y344293D01*
X1217723Y344555D01*
X1217869Y344585D01*
X1218053Y344594D01*
X1218251Y344608D01*
X1218471Y344599D01*
D02*
G37*
G36*
X1198446Y342762D02*
X1198497Y342747D01*
X1198534Y342727D01*
X1198566Y342675D01*
X1198602Y342608D01*
X1198777Y342040D01*
X1198781Y342026D01*
X1198786Y342012D01*
X1198779Y341932D01*
X1198744Y341843D01*
X1198706Y341816D01*
X1198639Y341780D01*
X1196765Y341203D01*
X1196685Y341210D01*
X1196596Y341245D01*
X1196569Y341283D01*
X1196533Y341350D01*
X1196358Y341918D01*
X1196354Y341932D01*
X1196350Y341946D01*
X1196352Y342040D01*
X1196387Y342129D01*
X1196425Y342156D01*
X1196492Y342192D01*
X1198366Y342769D01*
X1198446Y342762D01*
D02*
G37*
G36*
X1190685Y343126D02*
X1190915Y343088D01*
X1191129Y342998D01*
X1191147Y342988D01*
X1191221Y342949D01*
X1191323Y342872D01*
X1191433Y342766D01*
X1191571Y342621D01*
X1191689Y342440D01*
X1191820Y342216D01*
X1191917Y341951D01*
X1192057Y341496D01*
X1192062Y341482D01*
X1192066Y341468D01*
X1192059Y341388D01*
X1192044Y341337D01*
X1192029Y341285D01*
X1191976Y341254D01*
X1191910Y341217D01*
X1191072Y340960D01*
X1190992Y340966D01*
X1190941Y340982D01*
X1190889Y340997D01*
X1190858Y341049D01*
X1190822Y341116D01*
X1190699Y341514D01*
X1190695Y341528D01*
X1190682Y341570D01*
X1190669Y341613D01*
X1190633Y341680D01*
X1190546Y341809D01*
X1190496Y341871D01*
X1190436Y341914D01*
X1190399Y341934D01*
X1190366Y341940D01*
X1190315Y341955D01*
X1190249Y341966D01*
X1190160Y341954D01*
X1190066Y341956D01*
X1189185Y341685D01*
X1189119Y341649D01*
X1189004Y341567D01*
X1188946Y341503D01*
X1188902Y341443D01*
X1188897Y341410D01*
X1188877Y341373D01*
X1188876Y341326D01*
X1188865Y341260D01*
X1188863Y341166D01*
X1188875Y341077D01*
X1188910Y340963D01*
X1189819Y338009D01*
X1189823Y337995D01*
X1189836Y337952D01*
X1189864Y337914D01*
X1189885Y337843D01*
X1189972Y337714D01*
X1190022Y337652D01*
X1190082Y337608D01*
X1190115Y337603D01*
X1190199Y337582D01*
X1190265Y337571D01*
X1190344Y337564D01*
X1190448Y337581D01*
X1191272Y337834D01*
X1191310Y337862D01*
X1191381Y337883D01*
X1191510Y337970D01*
X1191572Y338020D01*
X1191616Y338080D01*
X1191621Y338113D01*
X1191641Y338150D01*
X1191656Y338201D01*
X1191649Y338277D01*
X1191655Y338356D01*
X1191643Y338446D01*
X1191608Y338560D01*
X1191486Y338957D01*
X1191482Y338971D01*
X1191477Y338986D01*
X1191479Y339080D01*
X1191499Y339117D01*
X1191514Y339168D01*
X1191567Y339200D01*
X1191633Y339236D01*
X1192471Y339494D01*
X1192565Y339491D01*
X1192602Y339472D01*
X1192654Y339456D01*
X1192685Y339404D01*
X1192721Y339337D01*
X1192861Y338883D01*
X1192866Y338869D01*
X1192870Y338854D01*
X1192883Y338812D01*
X1192901Y338755D01*
X1192912Y338619D01*
X1192936Y338439D01*
X1192950Y338242D01*
X1192926Y338017D01*
X1192883Y337801D01*
X1192794Y337587D01*
X1192784Y337569D01*
X1192740Y337509D01*
X1192663Y337407D01*
X1192542Y337292D01*
X1192412Y337159D01*
X1192217Y337037D01*
X1192007Y336910D01*
X1191742Y336813D01*
X1190563Y336450D01*
X1190412Y336435D01*
X1190233Y336411D01*
X1190035Y336396D01*
X1189815Y336406D01*
X1189585Y336445D01*
X1189375Y336520D01*
X1189357Y336530D01*
X1189297Y336573D01*
X1189195Y336651D01*
X1189085Y336757D01*
X1188947Y336901D01*
X1188829Y337083D01*
X1188698Y337307D01*
X1188601Y337572D01*
X1187657Y340640D01*
X1187653Y340654D01*
X1187648Y340668D01*
X1187635Y340711D01*
X1187617Y340767D01*
X1187602Y340918D01*
X1187578Y341097D01*
X1187564Y341295D01*
X1187574Y341516D01*
X1187616Y341731D01*
X1187706Y341945D01*
X1187716Y341964D01*
X1187769Y342042D01*
X1187837Y342125D01*
X1187953Y342254D01*
X1188102Y342378D01*
X1188279Y342510D01*
X1188507Y342627D01*
X1188772Y342724D01*
X1189951Y343087D01*
X1190083Y343112D01*
X1190267Y343122D01*
X1190479Y343140D01*
X1190685Y343126D01*
D02*
G37*
G36*
X1194362Y344413D02*
X1194414Y344398D01*
X1194451Y344378D01*
X1194482Y344326D01*
X1194519Y344259D01*
X1196310Y338436D01*
X1196315Y338422D01*
X1196328Y338379D01*
X1196331Y338318D01*
X1196316Y338267D01*
X1196301Y338262D01*
X1196292Y338244D01*
X1196253Y338217D01*
X1196187Y338181D01*
X1195320Y337914D01*
X1195241Y337920D01*
X1195138Y337951D01*
X1195111Y337989D01*
X1195075Y338056D01*
X1193624Y342771D01*
X1192853Y341943D01*
X1192838Y341939D01*
X1192829Y341920D01*
X1192715Y341885D01*
X1192664Y341900D01*
X1192636Y341939D01*
X1192605Y341991D01*
X1192360Y342786D01*
X1192355Y342800D01*
X1192351Y342815D01*
X1192344Y342890D01*
X1192360Y342988D01*
X1192423Y343086D01*
X1193148Y343915D01*
X1193162Y343919D01*
X1193181Y343956D01*
X1193253Y344025D01*
X1193354Y344103D01*
X1193473Y344170D01*
X1194283Y344420D01*
X1194362Y344413D01*
D02*
G37*
G36*
X818811Y345231D02*
X818863Y345216D01*
X818918Y345186D01*
X818950Y345134D01*
X818986Y345067D01*
X819397Y343732D01*
X820788Y344161D01*
X820854Y344150D01*
X820905Y344134D01*
X820924Y344125D01*
X820947Y344100D01*
X820974Y344062D01*
X821015Y343982D01*
X821181Y343442D01*
X821185Y343428D01*
X821189Y343413D01*
X821187Y343319D01*
X821172Y343268D01*
X821138Y343227D01*
X821090Y343181D01*
X821023Y343145D01*
X819703Y342738D01*
X820113Y341403D01*
X820118Y341389D01*
X820126Y341361D01*
X820120Y341281D01*
X820109Y341215D01*
X820075Y341174D01*
X820027Y341128D01*
X819960Y341092D01*
X819350Y340904D01*
X819256Y340906D01*
X819204Y340922D01*
X819163Y340955D01*
X819117Y341003D01*
X819077Y341084D01*
X818666Y342419D01*
X817317Y342004D01*
X817223Y342006D01*
X817171Y342022D01*
X817130Y342056D01*
X817084Y342104D01*
X817048Y342170D01*
X816882Y342710D01*
X816878Y342724D01*
X816860Y342781D01*
X816857Y342842D01*
X816872Y342893D01*
X816882Y342912D01*
X816906Y342935D01*
X816958Y342966D01*
X817039Y343007D01*
X818360Y343413D01*
X817949Y344748D01*
X817945Y344763D01*
X817936Y344791D01*
X817943Y344871D01*
X817958Y344922D01*
X817987Y344978D01*
X818040Y345009D01*
X818107Y345046D01*
X818731Y345238D01*
X818811Y345231D01*
D02*
G37*
G36*
X814096Y344791D02*
X814311Y344748D01*
X814525Y344659D01*
X814544Y344649D01*
X814618Y344610D01*
X814720Y344532D01*
X814830Y344426D01*
X814968Y344282D01*
X815086Y344100D01*
X815213Y343891D01*
X815310Y343625D01*
X815458Y343142D01*
X815463Y343128D01*
X815467Y343114D01*
X815480Y343071D01*
X815483Y343010D01*
X815499Y342859D01*
X815494Y342672D01*
X815462Y342475D01*
X815376Y342247D01*
X815313Y342149D01*
X815240Y342034D01*
X815144Y341942D01*
X815019Y341841D01*
X815033Y341846D01*
X815052Y341836D01*
X815146Y341834D01*
X815291Y341816D01*
X815460Y341775D01*
X815645Y341676D01*
X815830Y341531D01*
X815907Y341431D01*
X815989Y341316D01*
X816047Y341178D01*
X816109Y341026D01*
X816262Y340529D01*
X816267Y340515D01*
X816271Y340501D01*
X816284Y340458D01*
X816302Y340401D01*
X816313Y340265D01*
X816337Y340086D01*
X816351Y339888D01*
X816327Y339663D01*
X816284Y339448D01*
X816195Y339234D01*
X816185Y339215D01*
X816141Y339155D01*
X816064Y339053D01*
X815958Y338943D01*
X815809Y338820D01*
X815632Y338687D01*
X815404Y338571D01*
X815138Y338473D01*
X814144Y338167D01*
X814008Y338157D01*
X813828Y338132D01*
X813616Y338114D01*
X813410Y338128D01*
X813181Y338166D01*
X812971Y338242D01*
X812952Y338251D01*
X812892Y338295D01*
X812791Y338373D01*
X812680Y338479D01*
X812543Y338623D01*
X812425Y338804D01*
X812298Y339014D01*
X812201Y339280D01*
X812118Y339549D01*
X812113Y339564D01*
X812109Y339578D01*
X812111Y339672D01*
X812146Y339760D01*
X812184Y339787D01*
X812251Y339824D01*
X813103Y340086D01*
X813197Y340084D01*
X813234Y340064D01*
X813286Y340049D01*
X813317Y339996D01*
X813353Y339930D01*
X813428Y339688D01*
X813432Y339674D01*
X813445Y339631D01*
X813458Y339589D01*
X813494Y339522D01*
X813566Y339389D01*
X813616Y339327D01*
X813677Y339283D01*
X813709Y339277D01*
X813746Y339258D01*
X813793Y339257D01*
X813873Y339250D01*
X813953Y339244D01*
X814043Y339255D01*
X814682Y339452D01*
X814734Y339484D01*
X814791Y339501D01*
X814934Y339592D01*
X814996Y339642D01*
X815040Y339702D01*
X815060Y339739D01*
X815065Y339772D01*
X815080Y339824D01*
X815087Y339903D01*
X815079Y339979D01*
X815081Y340073D01*
X815046Y340186D01*
X814902Y340655D01*
X814898Y340669D01*
X814889Y340698D01*
X814872Y340754D01*
X814836Y340821D01*
X814749Y340950D01*
X814689Y340994D01*
X814629Y341037D01*
X814592Y341057D01*
X814559Y341062D01*
X814494Y341073D01*
X814428Y341084D01*
X814339Y341072D01*
X814245Y341074D01*
X813606Y340878D01*
X813526Y340884D01*
X813437Y340919D01*
X813410Y340957D01*
X813374Y341024D01*
X813195Y341606D01*
X813190Y341621D01*
X813186Y341635D01*
X813188Y341729D01*
X813223Y341817D01*
X813261Y341845D01*
X813328Y341881D01*
X813882Y342051D01*
X813934Y342083D01*
X813991Y342100D01*
X814134Y342191D01*
X814197Y342241D01*
X814240Y342301D01*
X814260Y342338D01*
X814265Y342371D01*
X814281Y342422D01*
X814287Y342502D01*
X814280Y342578D01*
X814282Y342672D01*
X814247Y342785D01*
X814107Y343240D01*
X814103Y343254D01*
X814094Y343282D01*
X814076Y343339D01*
X814040Y343406D01*
X813954Y343535D01*
X813894Y343578D01*
X813834Y343622D01*
X813801Y343628D01*
X813764Y343647D01*
X813698Y343658D01*
X813637Y343655D01*
X813543Y343657D01*
X813454Y343645D01*
X812772Y343435D01*
X812705Y343399D01*
X812577Y343313D01*
X812514Y343263D01*
X812470Y343203D01*
X812465Y343170D01*
X812444Y343086D01*
X812448Y343024D01*
X812441Y342945D01*
X812457Y342841D01*
X812488Y342742D01*
X812562Y342500D01*
X812567Y342486D01*
X812571Y342472D01*
X812564Y342392D01*
X812549Y342341D01*
X812534Y342289D01*
X812481Y342258D01*
X812415Y342221D01*
X811563Y341959D01*
X811483Y341966D01*
X811432Y341981D01*
X811394Y342001D01*
X811363Y342053D01*
X811327Y342120D01*
X811248Y342375D01*
X811244Y342390D01*
X811239Y342404D01*
X811226Y342447D01*
X811209Y342503D01*
X811198Y342640D01*
X811174Y342819D01*
X811160Y343017D01*
X811169Y343237D01*
X811212Y343453D01*
X811302Y343667D01*
X811311Y343685D01*
X811365Y343764D01*
X811433Y343847D01*
X811548Y343976D01*
X811683Y344095D01*
X811874Y344232D01*
X812088Y344344D01*
X812354Y344441D01*
X813348Y344747D01*
X813494Y344777D01*
X813678Y344787D01*
X813875Y344801D01*
X814096Y344791D01*
D02*
G37*
G36*
X808485Y343220D02*
X808551Y343209D01*
X808602Y343194D01*
X808662Y343150D01*
X808712Y343088D01*
X812038Y337737D01*
X812042Y337723D01*
X812047Y337709D01*
X812068Y337638D01*
X812082Y337595D01*
X812062Y337558D01*
X812024Y337531D01*
X811971Y337499D01*
X810991Y337197D01*
X810930Y337194D01*
X810879Y337209D01*
X810874Y337224D01*
X810852Y337248D01*
X810824Y337286D01*
X810774Y337348D01*
X810176Y338330D01*
X808288Y337749D01*
X808345Y336601D01*
X808350Y336587D01*
X808349Y336540D01*
X808352Y336478D01*
X808323Y336423D01*
X808308Y336418D01*
X808298Y336400D01*
X808260Y336372D01*
X808208Y336341D01*
X807242Y336044D01*
X807191Y336059D01*
X807131Y336103D01*
X807103Y336141D01*
X807096Y336216D01*
X806838Y342511D01*
X806833Y342525D01*
X806843Y342544D01*
X806860Y342642D01*
X806937Y342744D01*
X806990Y342775D01*
X807056Y342811D01*
X808391Y343222D01*
X808485Y343220D01*
D02*
G37*
G36*
X793669Y345187D02*
X793720Y345172D01*
X793776Y345143D01*
X793808Y345090D01*
X793844Y345024D01*
X794255Y343689D01*
X795647Y344117D01*
X795712Y344106D01*
X795763Y344091D01*
X795782Y344081D01*
X795805Y344057D01*
X795832Y344019D01*
X795873Y343938D01*
X796039Y343398D01*
X796043Y343384D01*
X796047Y343370D01*
X796045Y343276D01*
X796030Y343224D01*
X795996Y343183D01*
X795948Y343137D01*
X795881Y343101D01*
X794561Y342695D01*
X794971Y341359D01*
X794976Y341345D01*
X794984Y341317D01*
X794978Y341237D01*
X794967Y341172D01*
X794933Y341130D01*
X794885Y341084D01*
X794818Y341048D01*
X794208Y340860D01*
X794114Y340863D01*
X794062Y340878D01*
X794021Y340912D01*
X793975Y340960D01*
X793935Y341041D01*
X793524Y342375D01*
X792175Y341960D01*
X792081Y341963D01*
X792029Y341978D01*
X791988Y342012D01*
X791942Y342060D01*
X791906Y342127D01*
X791740Y342666D01*
X791736Y342680D01*
X791718Y342737D01*
X791715Y342798D01*
X791730Y342850D01*
X791740Y342868D01*
X791764Y342891D01*
X791816Y342923D01*
X791897Y342963D01*
X793218Y343370D01*
X792807Y344705D01*
X792803Y344719D01*
X792794Y344747D01*
X792801Y344827D01*
X792816Y344878D01*
X792845Y344934D01*
X792898Y344966D01*
X792964Y345002D01*
X793589Y345194D01*
X793669Y345187D01*
D02*
G37*
G36*
X789025Y344769D02*
X789240Y344726D01*
X789454Y344637D01*
X789473Y344627D01*
X789547Y344588D01*
X789649Y344510D01*
X789759Y344404D01*
X789897Y344260D01*
X790015Y344079D01*
X790142Y343869D01*
X790239Y343604D01*
X790357Y343220D01*
X790361Y343206D01*
X790366Y343192D01*
X790379Y343149D01*
X790382Y343088D01*
X790411Y342941D01*
X790421Y342758D01*
X790411Y342537D01*
X790378Y342294D01*
X790297Y342051D01*
X790159Y341791D01*
X788822Y339669D01*
X788812Y339651D01*
X788787Y339581D01*
X788766Y339497D01*
X788778Y339407D01*
X788826Y339251D01*
X791170Y339972D01*
X791249Y339966D01*
X791338Y339931D01*
X791365Y339892D01*
X791401Y339826D01*
X791611Y339144D01*
X791615Y339130D01*
X791620Y339116D01*
X791613Y339036D01*
X791578Y338947D01*
X791540Y338920D01*
X791473Y338884D01*
X787951Y337800D01*
X787871Y337807D01*
X787783Y337842D01*
X787756Y337880D01*
X787720Y337947D01*
X787436Y338870D01*
X787427Y338898D01*
X787419Y338974D01*
X787403Y339077D01*
X787392Y339214D01*
X787405Y339374D01*
X787442Y339556D01*
X787508Y339747D01*
X787616Y339951D01*
X788938Y342022D01*
X788948Y342040D01*
X788991Y342100D01*
X789040Y342193D01*
X789081Y342314D01*
X789131Y342454D01*
X789148Y342599D01*
X789162Y342759D01*
X789128Y342920D01*
X789036Y343218D01*
X789032Y343232D01*
X789023Y343260D01*
X789005Y343317D01*
X788969Y343384D01*
X788883Y343513D01*
X788823Y343557D01*
X788763Y343600D01*
X788730Y343606D01*
X788693Y343625D01*
X788642Y343641D01*
X788566Y343633D01*
X788486Y343639D01*
X788383Y343623D01*
X787829Y343453D01*
X787762Y343417D01*
X787633Y343330D01*
X787571Y343280D01*
X787527Y343220D01*
X787522Y343187D01*
X787501Y343103D01*
X787504Y343042D01*
X787498Y342962D01*
X787514Y342858D01*
X787545Y342759D01*
X787641Y342447D01*
X787645Y342432D01*
X787650Y342418D01*
X787643Y342338D01*
X787628Y342287D01*
X787613Y342236D01*
X787560Y342204D01*
X787494Y342168D01*
X786641Y341906D01*
X786562Y341912D01*
X786510Y341928D01*
X786473Y341947D01*
X786441Y342000D01*
X786405Y342066D01*
X786305Y342393D01*
X786301Y342407D01*
X786296Y342421D01*
X786283Y342464D01*
X786265Y342521D01*
X786255Y342657D01*
X786231Y342837D01*
X786216Y343034D01*
X786226Y343255D01*
X786269Y343470D01*
X786358Y343684D01*
X786368Y343703D01*
X786422Y343782D01*
X786489Y343865D01*
X786605Y343993D01*
X786754Y344117D01*
X786931Y344249D01*
X787159Y344366D01*
X787425Y344463D01*
X788277Y344725D01*
X788423Y344755D01*
X788607Y344765D01*
X788804Y344779D01*
X789025Y344769D01*
D02*
G37*
G36*
X783485Y343220D02*
X783551Y343209D01*
X783602Y343194D01*
X783662Y343150D01*
X783712Y343088D01*
X787038Y337737D01*
X787042Y337723D01*
X787047Y337709D01*
X787068Y337638D01*
X787082Y337595D01*
X787062Y337558D01*
X787024Y337531D01*
X786971Y337499D01*
X785991Y337197D01*
X785930Y337194D01*
X785879Y337209D01*
X785874Y337224D01*
X785852Y337248D01*
X785824Y337286D01*
X785774Y337348D01*
X785176Y338330D01*
X783288Y337749D01*
X783345Y336601D01*
X783350Y336587D01*
X783349Y336540D01*
X783352Y336478D01*
X783323Y336423D01*
X783308Y336418D01*
X783298Y336400D01*
X783260Y336372D01*
X783208Y336341D01*
X782242Y336044D01*
X782191Y336059D01*
X782131Y336103D01*
X782103Y336141D01*
X782096Y336216D01*
X781838Y342511D01*
X781833Y342525D01*
X781843Y342544D01*
X781860Y342642D01*
X781937Y342744D01*
X781990Y342775D01*
X782056Y342811D01*
X783391Y343222D01*
X783485Y343220D01*
D02*
G37*
G36*
X770121Y343711D02*
X770172Y343696D01*
X770228Y343666D01*
X770260Y343614D01*
X770296Y343547D01*
X770707Y342212D01*
X772098Y342641D01*
X772164Y342630D01*
X772215Y342614D01*
X772234Y342604D01*
X772257Y342580D01*
X772284Y342542D01*
X772325Y342461D01*
X772491Y341922D01*
X772495Y341908D01*
X772499Y341893D01*
X772497Y341799D01*
X772482Y341748D01*
X772448Y341707D01*
X772400Y341661D01*
X772333Y341625D01*
X771012Y341218D01*
X771423Y339883D01*
X771428Y339869D01*
X771436Y339841D01*
X771430Y339761D01*
X771419Y339695D01*
X771385Y339654D01*
X771337Y339608D01*
X771270Y339572D01*
X770660Y339384D01*
X770566Y339386D01*
X770514Y339402D01*
X770473Y339435D01*
X770427Y339483D01*
X770387Y339564D01*
X769976Y340899D01*
X768627Y340484D01*
X768533Y340486D01*
X768481Y340502D01*
X768440Y340535D01*
X768394Y340583D01*
X768358Y340650D01*
X768192Y341190D01*
X768187Y341204D01*
X768170Y341261D01*
X768167Y341322D01*
X768182Y341373D01*
X768192Y341392D01*
X768216Y341415D01*
X768268Y341446D01*
X768349Y341487D01*
X769670Y341893D01*
X769259Y343228D01*
X769255Y343242D01*
X769246Y343271D01*
X769253Y343351D01*
X769268Y343402D01*
X769297Y343458D01*
X769350Y343489D01*
X769417Y343526D01*
X770041Y343718D01*
X770121Y343711D01*
D02*
G37*
G36*
X765916Y343583D02*
X765968Y343568D01*
X766005Y343548D01*
X766036Y343496D01*
X766072Y343429D01*
X767864Y337607D01*
X767868Y337592D01*
X767882Y337550D01*
X767885Y337489D01*
X767869Y337437D01*
X767855Y337433D01*
X767846Y337414D01*
X767807Y337387D01*
X767741Y337351D01*
X766874Y337084D01*
X766795Y337091D01*
X766692Y337122D01*
X766665Y337160D01*
X766628Y337226D01*
X765178Y341941D01*
X764407Y341113D01*
X764392Y341109D01*
X764382Y341090D01*
X764269Y341055D01*
X764218Y341071D01*
X764190Y341109D01*
X764158Y341161D01*
X763914Y341957D01*
X763909Y341971D01*
X763905Y341985D01*
X763897Y342061D01*
X763914Y342159D01*
X763977Y342256D01*
X764701Y343085D01*
X764716Y343090D01*
X764735Y343127D01*
X764807Y343196D01*
X764908Y343273D01*
X765027Y343341D01*
X765836Y343590D01*
X765916Y343583D01*
D02*
G37*
G36*
X761485Y342220D02*
X761551Y342209D01*
X761602Y342194D01*
X761662Y342150D01*
X761712Y342088D01*
X765038Y336737D01*
X765042Y336723D01*
X765047Y336709D01*
X765069Y336638D01*
X765082Y336595D01*
X765062Y336558D01*
X765024Y336530D01*
X764971Y336499D01*
X763991Y336197D01*
X763930Y336194D01*
X763879Y336209D01*
X763874Y336223D01*
X763851Y336248D01*
X763824Y336286D01*
X763774Y336348D01*
X763176Y337330D01*
X761288Y336749D01*
X761345Y335601D01*
X761350Y335587D01*
X761349Y335540D01*
X761352Y335479D01*
X761322Y335423D01*
X761308Y335418D01*
X761298Y335400D01*
X761260Y335373D01*
X761208Y335341D01*
X760242Y335044D01*
X760191Y335059D01*
X760131Y335103D01*
X760103Y335141D01*
X760096Y335216D01*
X759838Y341511D01*
X759833Y341525D01*
X759843Y341544D01*
X759860Y341642D01*
X759937Y341744D01*
X759990Y341775D01*
X760056Y341811D01*
X761391Y342222D01*
X761485Y342220D01*
D02*
G37*
G36*
X465711Y357904D02*
X460054D01*
Y354753D01*
X459303D01*
Y358752D01*
X465711D01*
Y357904D01*
D02*
G37*
G36*
Y349086D02*
X464960D01*
Y352871D01*
X462990D01*
Y349330D01*
X462239D01*
Y352871D01*
X460054D01*
Y348940D01*
X459303D01*
Y353719D01*
X465711D01*
Y349086D01*
D02*
G37*
G36*
Y345312D02*
X465702Y345146D01*
X465692Y344970D01*
X465672Y344775D01*
X465643Y344590D01*
X465614Y344434D01*
Y344424D01*
X465604Y344405D01*
Y344385D01*
X465584Y344346D01*
X465555Y344239D01*
X465507Y344112D01*
X465448Y343966D01*
X465370Y343810D01*
X465272Y343654D01*
X465155Y343498D01*
Y343488D01*
X465136Y343478D01*
X465077Y343410D01*
X464980Y343322D01*
X464853Y343215D01*
X464697Y343088D01*
X464512Y342961D01*
X464297Y342844D01*
X464053Y342737D01*
X464044D01*
X464024Y342727D01*
X463985Y342717D01*
X463936Y342698D01*
X463878Y342678D01*
X463800Y342659D01*
X463712Y342629D01*
X463614Y342610D01*
X463507Y342590D01*
X463390Y342561D01*
X463136Y342522D01*
X462854Y342493D01*
X462541Y342483D01*
X462532D01*
X462512D01*
X462473D01*
X462415D01*
X462356Y342493D01*
X462278D01*
X462103Y342503D01*
X461907Y342522D01*
X461683Y342561D01*
X461459Y342600D01*
X461244Y342659D01*
X461234D01*
X461215Y342668D01*
X461186Y342678D01*
X461147Y342688D01*
X461049Y342727D01*
X460913Y342776D01*
X460766Y342834D01*
X460610Y342912D01*
X460454Y343000D01*
X460308Y343098D01*
X460288Y343107D01*
X460249Y343146D01*
X460181Y343195D01*
X460093Y343273D01*
X460005Y343351D01*
X459908Y343459D01*
X459810Y343566D01*
X459723Y343683D01*
X459713Y343693D01*
X459693Y343741D01*
X459654Y343810D01*
X459606Y343897D01*
X459557Y344005D01*
X459508Y344132D01*
X459459Y344278D01*
X459411Y344444D01*
Y344463D01*
X459391Y344522D01*
X459381Y344609D01*
X459362Y344736D01*
X459342Y344883D01*
X459323Y345058D01*
X459313Y345253D01*
X459303Y345468D01*
Y347770D01*
X465711D01*
Y345312D01*
D02*
G37*
G36*
X458094Y336933D02*
X457528D01*
Y342142D01*
X458094D01*
Y336933D01*
D02*
G37*
G36*
X465711Y331754D02*
X464960D01*
Y333861D01*
X459303D01*
Y334710D01*
X464960D01*
Y336816D01*
X465711D01*
Y331754D01*
D02*
G37*
G36*
X461429Y330359D02*
X461420D01*
X461410D01*
X461352Y330350D01*
X461264Y330330D01*
X461147Y330311D01*
X461020Y330272D01*
X460883Y330233D01*
X460756Y330174D01*
X460630Y330106D01*
X460620Y330096D01*
X460581Y330067D01*
X460522Y330018D01*
X460454Y329940D01*
X460376Y329852D01*
X460288Y329745D01*
X460210Y329608D01*
X460132Y329462D01*
Y329452D01*
X460122Y329443D01*
X460103Y329384D01*
X460074Y329296D01*
X460045Y329170D01*
X460005Y329033D01*
X459976Y328857D01*
X459957Y328672D01*
X459947Y328477D01*
Y328399D01*
X459957Y328301D01*
X459967Y328194D01*
X459976Y328058D01*
X460005Y327921D01*
X460035Y327775D01*
X460084Y327628D01*
X460093Y327609D01*
X460113Y327570D01*
X460142Y327502D01*
X460191Y327424D01*
X460249Y327326D01*
X460318Y327238D01*
X460396Y327150D01*
X460483Y327072D01*
X460493Y327063D01*
X460532Y327043D01*
X460581Y327014D01*
X460649Y326975D01*
X460727Y326946D01*
X460825Y326916D01*
X460922Y326897D01*
X461030Y326887D01*
X461039D01*
X461078D01*
X461137Y326897D01*
X461205Y326907D01*
X461293Y326926D01*
X461381Y326965D01*
X461469Y327004D01*
X461556Y327063D01*
X461566Y327072D01*
X461595Y327092D01*
X461634Y327141D01*
X461693Y327199D01*
X461751Y327277D01*
X461810Y327375D01*
X461878Y327502D01*
X461937Y327638D01*
X461946Y327648D01*
X461956Y327687D01*
X461976Y327765D01*
X461995Y327814D01*
X462015Y327872D01*
X462034Y327950D01*
X462054Y328028D01*
X462083Y328126D01*
X462112Y328223D01*
X462141Y328340D01*
X462171Y328477D01*
X462210Y328623D01*
X462249Y328779D01*
Y328789D01*
X462259Y328818D01*
X462268Y328867D01*
X462288Y328926D01*
X462307Y328994D01*
X462327Y329072D01*
X462376Y329257D01*
X462444Y329462D01*
X462512Y329667D01*
X462580Y329852D01*
X462610Y329940D01*
X462649Y330008D01*
Y330018D01*
X462659Y330028D01*
X462697Y330086D01*
X462746Y330164D01*
X462814Y330262D01*
X462902Y330379D01*
X463000Y330486D01*
X463117Y330593D01*
X463244Y330691D01*
X463263Y330701D01*
X463312Y330730D01*
X463380Y330759D01*
X463478Y330798D01*
X463595Y330847D01*
X463731Y330876D01*
X463887Y330906D01*
X464044Y330915D01*
X464053D01*
X464063D01*
X464092D01*
X464131D01*
X464219Y330896D01*
X464336Y330876D01*
X464482Y330847D01*
X464629Y330798D01*
X464795Y330730D01*
X464951Y330642D01*
X464960D01*
X464970Y330633D01*
X465019Y330593D01*
X465097Y330525D01*
X465194Y330437D01*
X465292Y330330D01*
X465399Y330194D01*
X465507Y330028D01*
X465594Y329842D01*
Y329833D01*
X465604Y329823D01*
X465614Y329794D01*
X465633Y329745D01*
X465643Y329696D01*
X465663Y329638D01*
X465711Y329501D01*
X465750Y329325D01*
X465780Y329131D01*
X465809Y328906D01*
X465819Y328672D01*
Y328555D01*
X465809Y328487D01*
Y328418D01*
X465789Y328253D01*
X465760Y328058D01*
X465721Y327843D01*
X465663Y327628D01*
X465584Y327424D01*
Y327414D01*
X465575Y327404D01*
X465565Y327375D01*
X465546Y327336D01*
X465487Y327238D01*
X465419Y327112D01*
X465321Y326975D01*
X465204Y326838D01*
X465068Y326702D01*
X464911Y326585D01*
X464892Y326575D01*
X464833Y326536D01*
X464736Y326487D01*
X464619Y326438D01*
X464473Y326380D01*
X464297Y326321D01*
X464112Y326282D01*
X463907Y326263D01*
X463848Y327072D01*
X463858D01*
X463878D01*
X463907Y327082D01*
X463946Y327092D01*
X464053Y327112D01*
X464190Y327150D01*
X464336Y327209D01*
X464482Y327287D01*
X464629Y327394D01*
X464756Y327521D01*
X464765Y327541D01*
X464804Y327589D01*
X464853Y327677D01*
X464911Y327794D01*
X464970Y327950D01*
X465019Y328145D01*
X465058Y328370D01*
X465068Y328633D01*
Y328760D01*
X465058Y328818D01*
Y328896D01*
X465029Y329062D01*
X464999Y329248D01*
X464951Y329433D01*
X464882Y329608D01*
X464833Y329686D01*
X464785Y329755D01*
X464775Y329764D01*
X464736Y329804D01*
X464678Y329862D01*
X464590Y329921D01*
X464492Y329989D01*
X464375Y330037D01*
X464248Y330077D01*
X464102Y330096D01*
X464082D01*
X464044D01*
X463975Y330086D01*
X463897Y330067D01*
X463809Y330037D01*
X463712Y329989D01*
X463624Y329930D01*
X463536Y329852D01*
X463526Y329842D01*
X463497Y329794D01*
X463478Y329764D01*
X463448Y329725D01*
X463429Y329667D01*
X463400Y329599D01*
X463361Y329521D01*
X463322Y329433D01*
X463292Y329335D01*
X463253Y329218D01*
X463205Y329082D01*
X463166Y328935D01*
X463127Y328770D01*
X463078Y328584D01*
Y328574D01*
X463068Y328535D01*
X463058Y328487D01*
X463039Y328418D01*
X463019Y328331D01*
X462990Y328233D01*
X462941Y328018D01*
X462873Y327785D01*
X462805Y327550D01*
X462775Y327433D01*
X462737Y327336D01*
X462697Y327238D01*
X462668Y327160D01*
Y327150D01*
X462659Y327131D01*
X462639Y327112D01*
X462619Y327072D01*
X462561Y326975D01*
X462493Y326848D01*
X462395Y326712D01*
X462278Y326575D01*
X462151Y326448D01*
X462015Y326341D01*
X461995Y326331D01*
X461946Y326302D01*
X461868Y326253D01*
X461751Y326204D01*
X461625Y326156D01*
X461469Y326107D01*
X461293Y326078D01*
X461108Y326068D01*
X461098D01*
X461088D01*
X461059D01*
X461020D01*
X460922Y326087D01*
X460796Y326107D01*
X460649Y326136D01*
X460483Y326195D01*
X460308Y326263D01*
X460142Y326360D01*
X460122Y326370D01*
X460064Y326419D01*
X459986Y326478D01*
X459888Y326575D01*
X459771Y326692D01*
X459654Y326838D01*
X459547Y327014D01*
X459440Y327209D01*
Y327219D01*
X459430Y327238D01*
X459420Y327267D01*
X459401Y327307D01*
X459381Y327355D01*
X459362Y327414D01*
X459323Y327570D01*
X459274Y327745D01*
X459235Y327960D01*
X459206Y328184D01*
X459196Y328438D01*
Y328584D01*
X459206Y328652D01*
Y328740D01*
X459215Y328838D01*
X459225Y328945D01*
X459254Y329170D01*
X459303Y329413D01*
X459362Y329657D01*
X459440Y329891D01*
Y329901D01*
X459450Y329921D01*
X459469Y329950D01*
X459488Y329989D01*
X459547Y330096D01*
X459635Y330223D01*
X459742Y330379D01*
X459869Y330525D01*
X460025Y330681D01*
X460201Y330818D01*
X460210D01*
X460220Y330828D01*
X460249Y330847D01*
X460288Y330867D01*
X460337Y330896D01*
X460396Y330925D01*
X460542Y330984D01*
X460708Y331042D01*
X460913Y331101D01*
X461127Y331140D01*
X461361Y331159D01*
X461429Y330359D01*
D02*
G37*
G36*
X366108Y359962D02*
X366098D01*
X366078Y359952D01*
X366039D01*
X366000Y359933D01*
X365883Y359904D01*
X365737Y359855D01*
X365581Y359796D01*
X365415Y359718D01*
X365269Y359621D01*
X365142Y359513D01*
X365132Y359494D01*
X365093Y359455D01*
X365054Y359387D01*
X364996Y359289D01*
X364947Y359182D01*
X364898Y359045D01*
X364859Y358889D01*
X364849Y358723D01*
Y358665D01*
X364859Y358626D01*
X364869Y358528D01*
X364898Y358401D01*
X364947Y358246D01*
X365005Y358089D01*
X365103Y357933D01*
X365230Y357787D01*
X365249Y357767D01*
X365298Y357729D01*
X365376Y357670D01*
X365493Y357592D01*
X365630Y357524D01*
X365796Y357465D01*
X365981Y357426D01*
X366186Y357407D01*
X366195D01*
X366205D01*
X366234D01*
X366273Y357416D01*
X366371Y357426D01*
X366498Y357455D01*
X366634Y357494D01*
X366790Y357563D01*
X366937Y357650D01*
X367073Y357767D01*
X367093Y357787D01*
X367132Y357826D01*
X367180Y357904D01*
X367249Y358011D01*
X367317Y358138D01*
X367366Y358294D01*
X367405Y358460D01*
X367424Y358655D01*
Y358743D01*
X367415Y358811D01*
X367405Y358889D01*
X367395Y358987D01*
X367376Y359094D01*
X367346Y359211D01*
X368039Y359123D01*
Y359075D01*
X368029Y359035D01*
Y358909D01*
X368039Y358821D01*
X368058Y358694D01*
X368088Y358558D01*
X368136Y358411D01*
X368195Y358255D01*
X368283Y358099D01*
X368292Y358080D01*
X368331Y358031D01*
X368400Y357972D01*
X368488Y357894D01*
X368595Y357816D01*
X368731Y357758D01*
X368897Y357709D01*
X369092Y357690D01*
X369102D01*
X369112D01*
X369160D01*
X369239Y357709D01*
X369346Y357729D01*
X369453Y357758D01*
X369570Y357816D01*
X369697Y357885D01*
X369804Y357982D01*
X369814Y357992D01*
X369853Y358031D01*
X369902Y358099D01*
X369950Y358187D01*
X370009Y358294D01*
X370048Y358421D01*
X370087Y358567D01*
X370097Y358733D01*
Y358811D01*
X370077Y358899D01*
X370058Y358997D01*
X370029Y359123D01*
X369970Y359250D01*
X369902Y359377D01*
X369804Y359504D01*
X369795Y359513D01*
X369756Y359552D01*
X369687Y359601D01*
X369590Y359660D01*
X369473Y359728D01*
X369326Y359786D01*
X369151Y359845D01*
X368946Y359884D01*
X369082Y360674D01*
X369092D01*
X369122Y360664D01*
X369160Y360655D01*
X369209Y360645D01*
X369277Y360625D01*
X369356Y360606D01*
X369531Y360538D01*
X369726Y360460D01*
X369931Y360342D01*
X370126Y360206D01*
X370302Y360030D01*
X370311Y360021D01*
X370321Y360011D01*
X370341Y359982D01*
X370370Y359933D01*
X370399Y359884D01*
X370438Y359826D01*
X370526Y359679D01*
X370604Y359494D01*
X370672Y359270D01*
X370721Y359026D01*
X370741Y358889D01*
Y358665D01*
X370731Y358567D01*
X370711Y358441D01*
X370682Y358294D01*
X370643Y358128D01*
X370584Y357963D01*
X370507Y357797D01*
Y357787D01*
X370497Y357777D01*
X370467Y357719D01*
X370419Y357641D01*
X370350Y357543D01*
X370263Y357436D01*
X370155Y357319D01*
X370029Y357212D01*
X369892Y357114D01*
X369873Y357104D01*
X369824Y357075D01*
X369746Y357036D01*
X369648Y356997D01*
X369521Y356958D01*
X369385Y356919D01*
X369239Y356890D01*
X369073Y356880D01*
X369053D01*
X369004D01*
X368926Y356890D01*
X368829Y356909D01*
X368712Y356939D01*
X368585Y356978D01*
X368448Y357026D01*
X368322Y357104D01*
X368302Y357114D01*
X368263Y357143D01*
X368205Y357202D01*
X368127Y357270D01*
X368039Y357368D01*
X367951Y357475D01*
X367854Y357612D01*
X367775Y357767D01*
Y357758D01*
X367766Y357738D01*
Y357709D01*
X367746Y357670D01*
X367717Y357573D01*
X367658Y357446D01*
X367590Y357309D01*
X367493Y357163D01*
X367376Y357016D01*
X367229Y356890D01*
X367210Y356880D01*
X367151Y356841D01*
X367063Y356792D01*
X366946Y356724D01*
X366800Y356665D01*
X366625Y356617D01*
X366420Y356578D01*
X366195Y356568D01*
X366186D01*
X366156D01*
X366117D01*
X366059Y356578D01*
X365981Y356587D01*
X365903Y356597D01*
X365805Y356617D01*
X365708Y356646D01*
X365483Y356714D01*
X365357Y356763D01*
X365240Y356831D01*
X365122Y356899D01*
X365005Y356978D01*
X364888Y357075D01*
X364771Y357182D01*
X364762Y357192D01*
X364742Y357212D01*
X364723Y357241D01*
X364684Y357290D01*
X364635Y357348D01*
X364586Y357426D01*
X364537Y357514D01*
X364488Y357602D01*
X364430Y357709D01*
X364381Y357826D01*
X364333Y357953D01*
X364284Y358089D01*
X364245Y358236D01*
X364225Y358392D01*
X364206Y358558D01*
X364196Y358723D01*
Y358801D01*
X364206Y358860D01*
X364215Y358938D01*
X364225Y359016D01*
X364235Y359114D01*
X364254Y359211D01*
X364313Y359435D01*
X364411Y359669D01*
X364459Y359786D01*
X364528Y359894D01*
X364606Y360011D01*
X364693Y360118D01*
X364703Y360128D01*
X364713Y360138D01*
X364742Y360167D01*
X364781Y360206D01*
X364840Y360245D01*
X364898Y360294D01*
X364967Y360352D01*
X365045Y360401D01*
X365240Y360518D01*
X365464Y360616D01*
X365718Y360703D01*
X365854Y360733D01*
X366000Y360752D01*
X366108Y359962D01*
D02*
G37*
G36*
X370711Y355202D02*
X366059Y353544D01*
X366049D01*
X366030Y353535D01*
X366000Y353525D01*
X365961Y353505D01*
X365854Y353476D01*
X365718Y353427D01*
X365552Y353369D01*
X365376Y353310D01*
X365005Y353203D01*
X365015D01*
X365025Y353193D01*
X365054Y353183D01*
X365093Y353174D01*
X365201Y353144D01*
X365337Y353105D01*
X365493Y353056D01*
X365669Y352998D01*
X365864Y352930D01*
X366059Y352862D01*
X370711Y351125D01*
Y350267D01*
X364303Y352774D01*
Y353642D01*
X370711Y356129D01*
Y355202D01*
D02*
G37*
G36*
X366108Y349019D02*
X366098D01*
X366078Y349009D01*
X366039D01*
X366000Y348989D01*
X365883Y348960D01*
X365737Y348911D01*
X365581Y348853D01*
X365415Y348775D01*
X365269Y348677D01*
X365142Y348570D01*
X365132Y348550D01*
X365093Y348511D01*
X365054Y348443D01*
X364996Y348346D01*
X364947Y348238D01*
X364898Y348102D01*
X364859Y347946D01*
X364849Y347780D01*
Y347721D01*
X364859Y347682D01*
X364869Y347585D01*
X364898Y347458D01*
X364947Y347302D01*
X365005Y347146D01*
X365103Y346990D01*
X365230Y346843D01*
X365249Y346824D01*
X365298Y346785D01*
X365376Y346726D01*
X365493Y346648D01*
X365630Y346580D01*
X365796Y346522D01*
X365981Y346483D01*
X366186Y346463D01*
X366195D01*
X366205D01*
X366234D01*
X366273Y346473D01*
X366371Y346483D01*
X366498Y346512D01*
X366634Y346551D01*
X366790Y346619D01*
X366937Y346707D01*
X367073Y346824D01*
X367093Y346843D01*
X367132Y346883D01*
X367180Y346960D01*
X367249Y347068D01*
X367317Y347195D01*
X367366Y347351D01*
X367405Y347517D01*
X367424Y347712D01*
Y347799D01*
X367415Y347868D01*
X367405Y347946D01*
X367395Y348043D01*
X367376Y348150D01*
X367346Y348268D01*
X368039Y348180D01*
Y348131D01*
X368029Y348092D01*
Y347965D01*
X368039Y347877D01*
X368058Y347751D01*
X368088Y347614D01*
X368136Y347468D01*
X368195Y347312D01*
X368283Y347156D01*
X368292Y347136D01*
X368331Y347087D01*
X368400Y347029D01*
X368488Y346951D01*
X368595Y346873D01*
X368731Y346814D01*
X368897Y346766D01*
X369092Y346746D01*
X369102D01*
X369112D01*
X369160D01*
X369239Y346766D01*
X369346Y346785D01*
X369453Y346814D01*
X369570Y346873D01*
X369697Y346941D01*
X369804Y347039D01*
X369814Y347048D01*
X369853Y347087D01*
X369902Y347156D01*
X369950Y347243D01*
X370009Y347351D01*
X370048Y347477D01*
X370087Y347624D01*
X370097Y347790D01*
Y347868D01*
X370077Y347955D01*
X370058Y348053D01*
X370029Y348180D01*
X369970Y348307D01*
X369902Y348433D01*
X369804Y348560D01*
X369795Y348570D01*
X369756Y348609D01*
X369687Y348658D01*
X369590Y348716D01*
X369473Y348784D01*
X369326Y348843D01*
X369151Y348901D01*
X368946Y348941D01*
X369082Y349731D01*
X369092D01*
X369122Y349721D01*
X369160Y349711D01*
X369209Y349701D01*
X369277Y349682D01*
X369356Y349662D01*
X369531Y349594D01*
X369726Y349516D01*
X369931Y349399D01*
X370126Y349262D01*
X370302Y349087D01*
X370311Y349077D01*
X370321Y349067D01*
X370341Y349038D01*
X370370Y348989D01*
X370399Y348941D01*
X370438Y348882D01*
X370526Y348736D01*
X370604Y348550D01*
X370672Y348326D01*
X370721Y348082D01*
X370741Y347946D01*
Y347721D01*
X370731Y347624D01*
X370711Y347497D01*
X370682Y347351D01*
X370643Y347185D01*
X370584Y347019D01*
X370507Y346853D01*
Y346843D01*
X370497Y346834D01*
X370467Y346775D01*
X370419Y346697D01*
X370350Y346600D01*
X370263Y346492D01*
X370155Y346375D01*
X370029Y346268D01*
X369892Y346171D01*
X369873Y346161D01*
X369824Y346132D01*
X369746Y346092D01*
X369648Y346054D01*
X369521Y346014D01*
X369385Y345975D01*
X369239Y345946D01*
X369073Y345936D01*
X369053D01*
X369004D01*
X368926Y345946D01*
X368829Y345966D01*
X368712Y345995D01*
X368585Y346034D01*
X368448Y346083D01*
X368322Y346161D01*
X368302Y346171D01*
X368263Y346200D01*
X368205Y346258D01*
X368127Y346327D01*
X368039Y346424D01*
X367951Y346531D01*
X367854Y346668D01*
X367775Y346824D01*
Y346814D01*
X367766Y346795D01*
Y346766D01*
X367746Y346726D01*
X367717Y346629D01*
X367658Y346502D01*
X367590Y346366D01*
X367493Y346219D01*
X367376Y346073D01*
X367229Y345946D01*
X367210Y345936D01*
X367151Y345897D01*
X367063Y345849D01*
X366946Y345780D01*
X366800Y345722D01*
X366625Y345673D01*
X366420Y345634D01*
X366195Y345624D01*
X366186D01*
X366156D01*
X366117D01*
X366059Y345634D01*
X365981Y345644D01*
X365903Y345654D01*
X365805Y345673D01*
X365708Y345702D01*
X365483Y345771D01*
X365357Y345819D01*
X365240Y345888D01*
X365122Y345956D01*
X365005Y346034D01*
X364888Y346132D01*
X364771Y346239D01*
X364762Y346249D01*
X364742Y346268D01*
X364723Y346297D01*
X364684Y346346D01*
X364635Y346405D01*
X364586Y346483D01*
X364537Y346570D01*
X364488Y346658D01*
X364430Y346766D01*
X364381Y346883D01*
X364333Y347009D01*
X364284Y347146D01*
X364245Y347292D01*
X364225Y347448D01*
X364206Y347614D01*
X364196Y347780D01*
Y347858D01*
X364206Y347916D01*
X364215Y347994D01*
X364225Y348073D01*
X364235Y348170D01*
X364254Y348268D01*
X364313Y348492D01*
X364411Y348726D01*
X364459Y348843D01*
X364528Y348950D01*
X364606Y349067D01*
X364693Y349175D01*
X364703Y349184D01*
X364713Y349194D01*
X364742Y349223D01*
X364781Y349262D01*
X364840Y349301D01*
X364898Y349350D01*
X364967Y349409D01*
X365045Y349458D01*
X365240Y349575D01*
X365464Y349672D01*
X365718Y349760D01*
X365854Y349789D01*
X366000Y349809D01*
X366108Y349019D01*
D02*
G37*
G36*
X418711Y358904D02*
X413054D01*
Y355753D01*
X412303D01*
Y359752D01*
X418711D01*
Y358904D01*
D02*
G37*
G36*
Y350086D02*
X417960D01*
Y353871D01*
X415990D01*
Y350330D01*
X415239D01*
Y353871D01*
X413054D01*
Y349940D01*
X412303D01*
Y354719D01*
X418711D01*
Y350086D01*
D02*
G37*
G36*
Y346312D02*
X418702Y346146D01*
X418692Y345970D01*
X418672Y345775D01*
X418643Y345590D01*
X418614Y345434D01*
Y345424D01*
X418604Y345405D01*
Y345385D01*
X418585Y345346D01*
X418555Y345239D01*
X418507Y345112D01*
X418448Y344966D01*
X418370Y344810D01*
X418272Y344654D01*
X418155Y344497D01*
Y344488D01*
X418136Y344478D01*
X418077Y344410D01*
X417980Y344322D01*
X417853Y344215D01*
X417697Y344088D01*
X417512Y343961D01*
X417297Y343844D01*
X417053Y343737D01*
X417043D01*
X417024Y343727D01*
X416985Y343717D01*
X416936Y343698D01*
X416878Y343678D01*
X416800Y343659D01*
X416712Y343629D01*
X416614Y343610D01*
X416507Y343590D01*
X416390Y343561D01*
X416136Y343522D01*
X415854Y343493D01*
X415541Y343483D01*
X415532D01*
X415512D01*
X415473D01*
X415415D01*
X415356Y343493D01*
X415278D01*
X415103Y343503D01*
X414907Y343522D01*
X414683Y343561D01*
X414459Y343600D01*
X414244Y343659D01*
X414234D01*
X414215Y343669D01*
X414186Y343678D01*
X414147Y343688D01*
X414049Y343727D01*
X413913Y343776D01*
X413766Y343834D01*
X413610Y343912D01*
X413454Y344000D01*
X413308Y344098D01*
X413288Y344107D01*
X413249Y344146D01*
X413181Y344195D01*
X413093Y344273D01*
X413005Y344351D01*
X412908Y344459D01*
X412810Y344566D01*
X412723Y344683D01*
X412713Y344693D01*
X412693Y344741D01*
X412654Y344810D01*
X412606Y344897D01*
X412557Y345005D01*
X412508Y345131D01*
X412459Y345278D01*
X412411Y345444D01*
Y345463D01*
X412391Y345522D01*
X412381Y345609D01*
X412362Y345736D01*
X412342Y345882D01*
X412323Y346058D01*
X412313Y346253D01*
X412303Y346468D01*
Y348770D01*
X418711D01*
Y346312D01*
D02*
G37*
G36*
X411094Y337933D02*
X410528D01*
Y343142D01*
X411094D01*
Y337933D01*
D02*
G37*
G36*
X418711Y335592D02*
Y334666D01*
X412303Y332062D01*
Y333018D01*
X414244Y333759D01*
Y336451D01*
X412303Y337143D01*
Y338041D01*
X418711Y335592D01*
D02*
G37*
G36*
Y330131D02*
X414176Y328609D01*
X414166D01*
X414147Y328599D01*
X414117Y328589D01*
X414069Y328580D01*
X413961Y328541D01*
X413825Y328492D01*
X413669Y328443D01*
X413513Y328394D01*
X413357Y328345D01*
X413230Y328307D01*
X413249Y328297D01*
X413298Y328287D01*
X413376Y328258D01*
X413483Y328219D01*
X413630Y328180D01*
X413805Y328121D01*
X414010Y328043D01*
X414254Y327965D01*
X418711Y326434D01*
Y325283D01*
X412303D01*
Y326102D01*
X417668D01*
X412303Y327975D01*
Y328736D01*
X417756Y330579D01*
X412303D01*
Y331398D01*
X418711D01*
Y330131D01*
D02*
G37*
G36*
X414430Y323400D02*
X414420D01*
X414410D01*
X414352Y323391D01*
X414264Y323371D01*
X414147Y323352D01*
X414020Y323313D01*
X413883Y323274D01*
X413756Y323215D01*
X413630Y323147D01*
X413620Y323137D01*
X413581Y323108D01*
X413522Y323059D01*
X413454Y322981D01*
X413376Y322893D01*
X413288Y322786D01*
X413210Y322649D01*
X413132Y322503D01*
Y322493D01*
X413122Y322484D01*
X413103Y322425D01*
X413074Y322337D01*
X413045Y322211D01*
X413005Y322074D01*
X412976Y321898D01*
X412957Y321713D01*
X412947Y321518D01*
Y321440D01*
X412957Y321343D01*
X412966Y321235D01*
X412976Y321099D01*
X413005Y320962D01*
X413035Y320816D01*
X413083Y320670D01*
X413093Y320650D01*
X413113Y320611D01*
X413142Y320543D01*
X413191Y320465D01*
X413249Y320367D01*
X413318Y320279D01*
X413396Y320191D01*
X413483Y320113D01*
X413493Y320104D01*
X413532Y320084D01*
X413581Y320055D01*
X413649Y320016D01*
X413727Y319987D01*
X413825Y319957D01*
X413922Y319938D01*
X414030Y319928D01*
X414039D01*
X414078D01*
X414137Y319938D01*
X414205Y319948D01*
X414293Y319967D01*
X414381Y320006D01*
X414468Y320045D01*
X414556Y320104D01*
X414566Y320113D01*
X414595Y320133D01*
X414634Y320182D01*
X414693Y320240D01*
X414751Y320318D01*
X414810Y320416D01*
X414878Y320543D01*
X414937Y320679D01*
X414946Y320689D01*
X414956Y320728D01*
X414976Y320806D01*
X414995Y320855D01*
X415015Y320913D01*
X415034Y320991D01*
X415054Y321069D01*
X415083Y321167D01*
X415112Y321264D01*
X415141Y321381D01*
X415171Y321518D01*
X415210Y321664D01*
X415249Y321820D01*
Y321830D01*
X415259Y321859D01*
X415268Y321908D01*
X415288Y321967D01*
X415307Y322035D01*
X415327Y322113D01*
X415376Y322298D01*
X415444Y322503D01*
X415512Y322708D01*
X415580Y322893D01*
X415610Y322981D01*
X415649Y323049D01*
Y323059D01*
X415658Y323069D01*
X415698Y323127D01*
X415746Y323205D01*
X415815Y323303D01*
X415902Y323420D01*
X416000Y323527D01*
X416117Y323635D01*
X416244Y323732D01*
X416263Y323742D01*
X416312Y323771D01*
X416380Y323800D01*
X416478Y323839D01*
X416595Y323888D01*
X416731Y323917D01*
X416887Y323947D01*
X417043Y323956D01*
X417053D01*
X417063D01*
X417092D01*
X417131D01*
X417219Y323937D01*
X417336Y323917D01*
X417482Y323888D01*
X417629Y323839D01*
X417794Y323771D01*
X417951Y323683D01*
X417960D01*
X417970Y323674D01*
X418019Y323635D01*
X418097Y323566D01*
X418194Y323479D01*
X418292Y323371D01*
X418399Y323235D01*
X418507Y323069D01*
X418594Y322883D01*
Y322874D01*
X418604Y322864D01*
X418614Y322835D01*
X418633Y322786D01*
X418643Y322737D01*
X418663Y322679D01*
X418711Y322542D01*
X418750Y322367D01*
X418780Y322172D01*
X418809Y321947D01*
X418819Y321713D01*
Y321596D01*
X418809Y321528D01*
Y321460D01*
X418789Y321294D01*
X418760Y321099D01*
X418721Y320884D01*
X418663Y320670D01*
X418585Y320465D01*
Y320455D01*
X418575Y320445D01*
X418565Y320416D01*
X418545Y320377D01*
X418487Y320279D01*
X418419Y320153D01*
X418321Y320016D01*
X418204Y319879D01*
X418068Y319743D01*
X417911Y319626D01*
X417892Y319616D01*
X417834Y319577D01*
X417736Y319528D01*
X417619Y319480D01*
X417473Y319421D01*
X417297Y319363D01*
X417112Y319324D01*
X416907Y319304D01*
X416848Y320113D01*
X416858D01*
X416878D01*
X416907Y320123D01*
X416946Y320133D01*
X417053Y320153D01*
X417190Y320191D01*
X417336Y320250D01*
X417482Y320328D01*
X417629Y320435D01*
X417756Y320562D01*
X417765Y320582D01*
X417804Y320630D01*
X417853Y320718D01*
X417911Y320835D01*
X417970Y320991D01*
X418019Y321186D01*
X418058Y321411D01*
X418068Y321674D01*
Y321801D01*
X418058Y321859D01*
Y321937D01*
X418029Y322103D01*
X417999Y322289D01*
X417951Y322474D01*
X417882Y322649D01*
X417834Y322728D01*
X417785Y322796D01*
X417775Y322805D01*
X417736Y322845D01*
X417677Y322903D01*
X417590Y322962D01*
X417492Y323030D01*
X417375Y323079D01*
X417248Y323118D01*
X417102Y323137D01*
X417082D01*
X417043D01*
X416975Y323127D01*
X416897Y323108D01*
X416809Y323079D01*
X416712Y323030D01*
X416624Y322971D01*
X416536Y322893D01*
X416526Y322883D01*
X416497Y322835D01*
X416478Y322805D01*
X416449Y322766D01*
X416429Y322708D01*
X416400Y322640D01*
X416361Y322562D01*
X416322Y322474D01*
X416292Y322376D01*
X416253Y322259D01*
X416205Y322123D01*
X416166Y321976D01*
X416127Y321811D01*
X416078Y321625D01*
Y321616D01*
X416068Y321576D01*
X416058Y321528D01*
X416039Y321460D01*
X416019Y321372D01*
X415990Y321274D01*
X415941Y321060D01*
X415873Y320826D01*
X415805Y320591D01*
X415775Y320474D01*
X415737Y320377D01*
X415698Y320279D01*
X415668Y320201D01*
Y320191D01*
X415658Y320172D01*
X415639Y320153D01*
X415619Y320113D01*
X415561Y320016D01*
X415493Y319889D01*
X415395Y319753D01*
X415278Y319616D01*
X415151Y319489D01*
X415015Y319382D01*
X414995Y319372D01*
X414946Y319343D01*
X414868Y319294D01*
X414751Y319245D01*
X414625Y319197D01*
X414468Y319148D01*
X414293Y319119D01*
X414108Y319109D01*
X414098D01*
X414088D01*
X414059D01*
X414020D01*
X413922Y319128D01*
X413796Y319148D01*
X413649Y319177D01*
X413483Y319236D01*
X413308Y319304D01*
X413142Y319401D01*
X413122Y319411D01*
X413064Y319460D01*
X412986Y319519D01*
X412888Y319616D01*
X412771Y319733D01*
X412654Y319879D01*
X412547Y320055D01*
X412440Y320250D01*
Y320260D01*
X412430Y320279D01*
X412420Y320309D01*
X412401Y320348D01*
X412381Y320396D01*
X412362Y320455D01*
X412323Y320611D01*
X412274Y320787D01*
X412235Y321001D01*
X412206Y321225D01*
X412196Y321479D01*
Y321625D01*
X412206Y321694D01*
Y321781D01*
X412215Y321879D01*
X412225Y321986D01*
X412254Y322211D01*
X412303Y322454D01*
X412362Y322698D01*
X412440Y322932D01*
Y322942D01*
X412449Y322962D01*
X412469Y322991D01*
X412489Y323030D01*
X412547Y323137D01*
X412635Y323264D01*
X412742Y323420D01*
X412869Y323566D01*
X413025Y323722D01*
X413200Y323859D01*
X413210D01*
X413220Y323869D01*
X413249Y323888D01*
X413288Y323908D01*
X413337Y323937D01*
X413396Y323966D01*
X413542Y324025D01*
X413708Y324083D01*
X413913Y324142D01*
X414127Y324181D01*
X414361Y324200D01*
X414430Y323400D01*
D02*
G37*
G36*
X418711Y288236D02*
X418702Y288167D01*
Y288099D01*
X418692Y287933D01*
X418663Y287748D01*
X418633Y287553D01*
X418585Y287358D01*
X418516Y287182D01*
Y287173D01*
X418507Y287163D01*
X418477Y287104D01*
X418428Y287026D01*
X418370Y286929D01*
X418282Y286812D01*
X418175Y286695D01*
X418058Y286587D01*
X417911Y286480D01*
X417892Y286470D01*
X417843Y286441D01*
X417756Y286402D01*
X417648Y286353D01*
X417521Y286304D01*
X417385Y286266D01*
X417229Y286236D01*
X417063Y286227D01*
X417043D01*
X416995D01*
X416917Y286236D01*
X416809Y286256D01*
X416692Y286285D01*
X416566Y286324D01*
X416419Y286373D01*
X416283Y286451D01*
X416263Y286460D01*
X416224Y286490D01*
X416156Y286548D01*
X416078Y286617D01*
X415980Y286714D01*
X415892Y286831D01*
X415795Y286968D01*
X415707Y287134D01*
Y287124D01*
X415698Y287104D01*
X415688Y287075D01*
X415678Y287036D01*
X415629Y286929D01*
X415571Y286802D01*
X415483Y286656D01*
X415385Y286509D01*
X415268Y286363D01*
X415122Y286236D01*
X415103Y286227D01*
X415054Y286187D01*
X414966Y286139D01*
X414849Y286070D01*
X414703Y286012D01*
X414547Y285963D01*
X414361Y285924D01*
X414156Y285914D01*
X414137D01*
X414078D01*
X413991Y285924D01*
X413883Y285934D01*
X413756Y285963D01*
X413610Y285992D01*
X413464Y286041D01*
X413318Y286109D01*
X413298Y286119D01*
X413249Y286139D01*
X413181Y286187D01*
X413093Y286236D01*
X412996Y286304D01*
X412898Y286383D01*
X412801Y286480D01*
X412713Y286578D01*
X412703Y286587D01*
X412684Y286626D01*
X412645Y286685D01*
X412596Y286773D01*
X412547Y286870D01*
X412498Y286997D01*
X412449Y287134D01*
X412401Y287280D01*
Y287299D01*
X412381Y287358D01*
X412371Y287446D01*
X412352Y287563D01*
X412332Y287719D01*
X412323Y287894D01*
X412303Y288089D01*
Y290752D01*
X418711D01*
Y288236D01*
D02*
G37*
G36*
Y283886D02*
X415005D01*
X414995D01*
X414966D01*
X414927D01*
X414868D01*
X414800D01*
X414722Y283876D01*
X414537Y283866D01*
X414342Y283847D01*
X414137Y283827D01*
X413942Y283788D01*
X413854Y283769D01*
X413776Y283739D01*
X413756Y283729D01*
X413708Y283710D01*
X413639Y283671D01*
X413552Y283612D01*
X413454Y283544D01*
X413347Y283447D01*
X413249Y283339D01*
X413162Y283203D01*
X413152Y283183D01*
X413132Y283135D01*
X413093Y283057D01*
X413064Y282949D01*
X413025Y282813D01*
X412986Y282657D01*
X412966Y282481D01*
X412957Y282286D01*
Y282198D01*
X412966Y282130D01*
Y282052D01*
X412976Y281964D01*
X413005Y281769D01*
X413064Y281545D01*
X413132Y281330D01*
X413240Y281125D01*
X413298Y281028D01*
X413376Y280950D01*
X413386D01*
X413396Y280930D01*
X413425Y280911D01*
X413464Y280891D01*
X413513Y280852D01*
X413571Y280823D01*
X413649Y280784D01*
X413737Y280745D01*
X413844Y280716D01*
X413961Y280677D01*
X414088Y280638D01*
X414244Y280608D01*
X414410Y280589D01*
X414586Y280569D01*
X414790Y280550D01*
X415005D01*
X418711D01*
Y279701D01*
X415005D01*
X414995D01*
X414966D01*
X414917D01*
X414849D01*
X414761Y279711D01*
X414673D01*
X414566Y279721D01*
X414449Y279731D01*
X414205Y279760D01*
X413952Y279799D01*
X413698Y279848D01*
X413474Y279926D01*
X413464D01*
X413444Y279935D01*
X413415Y279945D01*
X413376Y279965D01*
X413279Y280023D01*
X413142Y280101D01*
X412996Y280208D01*
X412840Y280345D01*
X412693Y280521D01*
X412547Y280716D01*
Y280725D01*
X412528Y280745D01*
X412518Y280774D01*
X412489Y280823D01*
X412469Y280872D01*
X412440Y280940D01*
X412401Y281028D01*
X412371Y281116D01*
X412342Y281213D01*
X412303Y281330D01*
X412274Y281447D01*
X412254Y281584D01*
X412215Y281876D01*
X412196Y282208D01*
Y282296D01*
X412206Y282354D01*
Y282432D01*
X412215Y282520D01*
X412225Y282618D01*
X412235Y282725D01*
X412274Y282959D01*
X412323Y283203D01*
X412401Y283456D01*
X412498Y283681D01*
Y283690D01*
X412518Y283710D01*
X412528Y283729D01*
X412557Y283769D01*
X412625Y283876D01*
X412732Y283993D01*
X412859Y284129D01*
X413005Y284256D01*
X413191Y284383D01*
X413396Y284490D01*
X413405D01*
X413425Y284500D01*
X413454Y284510D01*
X413503Y284529D01*
X413561Y284549D01*
X413639Y284568D01*
X413727Y284588D01*
X413825Y284607D01*
X413932Y284637D01*
X414049Y284656D01*
X414186Y284676D01*
X414322Y284695D01*
X414478Y284715D01*
X414644Y284724D01*
X414820Y284734D01*
X415005D01*
X418711D01*
Y283886D01*
D02*
G37*
G36*
X417190Y275536D02*
X417200D01*
X417209Y275517D01*
X417268Y275478D01*
X417346Y275410D01*
X417453Y275322D01*
X417570Y275215D01*
X417697Y275107D01*
X417834Y274981D01*
X417960Y274863D01*
Y278433D01*
X418711D01*
Y273849D01*
X417960D01*
X413513Y277448D01*
X413054Y277838D01*
Y273742D01*
X412303D01*
Y278804D01*
X413083D01*
X417190Y275536D01*
D02*
G37*
G36*
Y270075D02*
X417200D01*
X417209Y270055D01*
X417268Y270016D01*
X417346Y269948D01*
X417453Y269860D01*
X417570Y269753D01*
X417697Y269645D01*
X417834Y269519D01*
X417960Y269401D01*
Y272971D01*
X418711D01*
Y268387D01*
X417960D01*
X413513Y271986D01*
X413054Y272376D01*
Y268280D01*
X412303D01*
Y273342D01*
X413083D01*
X417190Y270075D01*
D02*
G37*
G36*
X418711Y262710D02*
X417960D01*
Y266495D01*
X415990D01*
Y262954D01*
X415239D01*
Y266495D01*
X413054D01*
Y262564D01*
X412303D01*
Y267344D01*
X418711D01*
Y262710D01*
D02*
G37*
G36*
Y258409D02*
X418702Y258331D01*
Y258253D01*
X418692Y258058D01*
X418672Y257853D01*
X418633Y257639D01*
X418594Y257434D01*
X418565Y257336D01*
X418536Y257248D01*
Y257239D01*
X418526Y257229D01*
X418507Y257171D01*
X418458Y257092D01*
X418390Y256995D01*
X418311Y256878D01*
X418204Y256761D01*
X418077Y256644D01*
X417921Y256537D01*
X417902Y256527D01*
X417843Y256497D01*
X417756Y256449D01*
X417638Y256400D01*
X417492Y256351D01*
X417326Y256302D01*
X417151Y256273D01*
X416956Y256263D01*
X416946D01*
X416926D01*
X416887D01*
X416839Y256273D01*
X416780D01*
X416712Y256283D01*
X416556Y256322D01*
X416371Y256371D01*
X416185Y256449D01*
X415990Y256566D01*
X415892Y256634D01*
X415805Y256712D01*
X415785Y256732D01*
X415766Y256761D01*
X415727Y256790D01*
X415698Y256839D01*
X415649Y256897D01*
X415610Y256966D01*
X415561Y257044D01*
X415512Y257132D01*
X415463Y257239D01*
X415415Y257346D01*
X415366Y257473D01*
X415317Y257600D01*
X415278Y257746D01*
X415249Y257902D01*
X415219Y258068D01*
X415210Y258048D01*
X415190Y258009D01*
X415161Y257951D01*
X415122Y257882D01*
X415015Y257717D01*
X414956Y257629D01*
X414898Y257561D01*
X414878Y257541D01*
X414839Y257492D01*
X414761Y257424D01*
X414664Y257336D01*
X414537Y257229D01*
X414390Y257112D01*
X414225Y256985D01*
X414039Y256858D01*
X412303Y255746D01*
Y256810D01*
X413630Y257658D01*
X413639D01*
X413659Y257678D01*
X413688Y257697D01*
X413727Y257717D01*
X413825Y257785D01*
X413952Y257873D01*
X414098Y257970D01*
X414244Y258078D01*
X414381Y258175D01*
X414507Y258273D01*
X414517Y258282D01*
X414556Y258312D01*
X414615Y258360D01*
X414683Y258409D01*
X414820Y258556D01*
X414888Y258624D01*
X414937Y258702D01*
X414946Y258711D01*
X414956Y258731D01*
X414976Y258770D01*
X415005Y258819D01*
X415064Y258936D01*
X415112Y259082D01*
Y259092D01*
X415122Y259111D01*
Y259151D01*
X415132Y259199D01*
X415141Y259268D01*
Y259345D01*
X415151Y259443D01*
Y260536D01*
X412303D01*
Y261384D01*
X418711D01*
Y258409D01*
D02*
G37*
G36*
X358711Y291904D02*
X353054D01*
Y288753D01*
X352303D01*
Y292752D01*
X358711D01*
Y291904D01*
D02*
G37*
G36*
Y283086D02*
X357960D01*
Y286871D01*
X355990D01*
Y283330D01*
X355239D01*
Y286871D01*
X353054D01*
Y282940D01*
X352303D01*
Y287719D01*
X358711D01*
Y283086D01*
D02*
G37*
G36*
Y279312D02*
X358702Y279146D01*
X358692Y278970D01*
X358672Y278775D01*
X358643Y278590D01*
X358614Y278434D01*
Y278424D01*
X358604Y278405D01*
Y278385D01*
X358585Y278346D01*
X358555Y278239D01*
X358507Y278112D01*
X358448Y277966D01*
X358370Y277810D01*
X358272Y277654D01*
X358155Y277498D01*
Y277488D01*
X358136Y277478D01*
X358077Y277410D01*
X357980Y277322D01*
X357853Y277215D01*
X357697Y277088D01*
X357512Y276961D01*
X357297Y276844D01*
X357053Y276737D01*
X357043D01*
X357024Y276727D01*
X356985Y276717D01*
X356936Y276698D01*
X356878Y276678D01*
X356800Y276659D01*
X356712Y276629D01*
X356614Y276610D01*
X356507Y276590D01*
X356390Y276561D01*
X356136Y276522D01*
X355854Y276493D01*
X355541Y276483D01*
X355532D01*
X355512D01*
X355473D01*
X355415D01*
X355356Y276493D01*
X355278D01*
X355103Y276503D01*
X354907Y276522D01*
X354683Y276561D01*
X354459Y276600D01*
X354244Y276659D01*
X354234D01*
X354215Y276668D01*
X354186Y276678D01*
X354147Y276688D01*
X354049Y276727D01*
X353913Y276776D01*
X353766Y276834D01*
X353610Y276912D01*
X353454Y277000D01*
X353308Y277098D01*
X353288Y277107D01*
X353249Y277146D01*
X353181Y277195D01*
X353093Y277273D01*
X353005Y277351D01*
X352908Y277458D01*
X352810Y277566D01*
X352723Y277683D01*
X352713Y277693D01*
X352693Y277741D01*
X352654Y277810D01*
X352606Y277897D01*
X352557Y278005D01*
X352508Y278132D01*
X352459Y278278D01*
X352411Y278444D01*
Y278463D01*
X352391Y278522D01*
X352381Y278609D01*
X352362Y278736D01*
X352342Y278883D01*
X352323Y279058D01*
X352313Y279253D01*
X352303Y279468D01*
Y281770D01*
X358711D01*
Y279312D01*
D02*
G37*
G36*
X351094Y270933D02*
X350528D01*
Y276142D01*
X351094D01*
Y270933D01*
D02*
G37*
G36*
X358711Y269343D02*
X352303D01*
Y270192D01*
X358711D01*
Y269343D01*
D02*
G37*
G36*
Y266612D02*
X354176Y265091D01*
X354166D01*
X354147Y265081D01*
X354117Y265071D01*
X354069Y265062D01*
X353961Y265023D01*
X353825Y264974D01*
X353669Y264925D01*
X353513Y264876D01*
X353357Y264828D01*
X353230Y264789D01*
X353249Y264779D01*
X353298Y264769D01*
X353376Y264740D01*
X353483Y264701D01*
X353630Y264662D01*
X353805Y264603D01*
X354010Y264525D01*
X354254Y264447D01*
X358711Y262916D01*
Y261765D01*
X352303D01*
Y262584D01*
X357668D01*
X352303Y264457D01*
Y265218D01*
X357756Y267061D01*
X352303D01*
Y267880D01*
X358711D01*
Y266612D01*
D02*
G37*
G36*
Y257941D02*
X358702Y257776D01*
X358692Y257600D01*
X358672Y257405D01*
X358643Y257220D01*
X358614Y257064D01*
Y257054D01*
X358604Y257034D01*
Y257015D01*
X358585Y256976D01*
X358555Y256869D01*
X358507Y256742D01*
X358448Y256595D01*
X358370Y256439D01*
X358272Y256283D01*
X358155Y256127D01*
Y256118D01*
X358136Y256108D01*
X358077Y256040D01*
X357980Y255952D01*
X357853Y255844D01*
X357697Y255718D01*
X357512Y255591D01*
X357297Y255474D01*
X357053Y255367D01*
X357043D01*
X357024Y255357D01*
X356985Y255347D01*
X356936Y255328D01*
X356878Y255308D01*
X356800Y255289D01*
X356712Y255259D01*
X356614Y255240D01*
X356507Y255220D01*
X356390Y255191D01*
X356136Y255152D01*
X355854Y255123D01*
X355541Y255113D01*
X355532D01*
X355512D01*
X355473D01*
X355415D01*
X355356Y255123D01*
X355278D01*
X355103Y255133D01*
X354907Y255152D01*
X354683Y255191D01*
X354459Y255230D01*
X354244Y255289D01*
X354234D01*
X354215Y255298D01*
X354186Y255308D01*
X354147Y255318D01*
X354049Y255357D01*
X353913Y255406D01*
X353766Y255464D01*
X353610Y255542D01*
X353454Y255630D01*
X353308Y255728D01*
X353288Y255737D01*
X353249Y255776D01*
X353181Y255825D01*
X353093Y255903D01*
X353005Y255981D01*
X352908Y256088D01*
X352810Y256196D01*
X352723Y256313D01*
X352713Y256322D01*
X352693Y256371D01*
X352654Y256439D01*
X352606Y256527D01*
X352557Y256635D01*
X352508Y256761D01*
X352459Y256908D01*
X352411Y257073D01*
Y257093D01*
X352391Y257152D01*
X352381Y257239D01*
X352362Y257366D01*
X352342Y257512D01*
X352323Y257688D01*
X352313Y257883D01*
X352303Y258098D01*
Y260399D01*
X358711D01*
Y257941D01*
D02*
G37*
%LPC*%
G36*
X477102Y275502D02*
X477092D01*
X477053D01*
X476994D01*
X476907Y275492D01*
X476809Y275483D01*
X476702Y275473D01*
X476575Y275453D01*
X476438Y275424D01*
X476146Y275356D01*
X475999Y275297D01*
X475843Y275239D01*
X475697Y275170D01*
X475551Y275092D01*
X475405Y274995D01*
X475278Y274888D01*
X475268Y274878D01*
X475248Y274858D01*
X475219Y274819D01*
X475170Y274771D01*
X475122Y274712D01*
X475073Y274644D01*
X475005Y274556D01*
X474946Y274458D01*
X474888Y274351D01*
X474829Y274234D01*
X474771Y274107D01*
X474722Y273961D01*
X474673Y273815D01*
X474644Y273659D01*
X474624Y273503D01*
X474614Y273327D01*
Y273239D01*
X474624Y273171D01*
X474634Y273083D01*
X474654Y272995D01*
X474673Y272888D01*
X474702Y272771D01*
X474780Y272527D01*
X474829Y272391D01*
X474897Y272264D01*
X474975Y272127D01*
X475063Y272001D01*
X475161Y271874D01*
X475278Y271757D01*
X475288Y271747D01*
X475307Y271727D01*
X475346Y271698D01*
X475405Y271659D01*
X475473Y271610D01*
X475561Y271562D01*
X475658Y271503D01*
X475765Y271444D01*
X475902Y271386D01*
X476039Y271327D01*
X476195Y271279D01*
X476370Y271230D01*
X476555Y271191D01*
X476750Y271162D01*
X476965Y271142D01*
X477189Y271132D01*
X477199D01*
X477228D01*
X477267D01*
X477316D01*
X477384Y271142D01*
X477472D01*
X477658Y271162D01*
X477862Y271201D01*
X478097Y271250D01*
X478331Y271318D01*
X478555Y271406D01*
X478565D01*
X478584Y271415D01*
X478613Y271435D01*
X478652Y271454D01*
X478760Y271513D01*
X478886Y271601D01*
X479033Y271708D01*
X479189Y271844D01*
X479335Y272001D01*
X479462Y272176D01*
Y272186D01*
X479472Y272196D01*
X479491Y272225D01*
X479511Y272264D01*
X479560Y272371D01*
X479628Y272508D01*
X479686Y272673D01*
X479735Y272869D01*
X479774Y273083D01*
X479784Y273317D01*
Y273405D01*
X479774Y273463D01*
X479764Y273542D01*
X479755Y273639D01*
X479735Y273737D01*
X479706Y273844D01*
X479628Y274088D01*
X479579Y274215D01*
X479520Y274341D01*
X479452Y274478D01*
X479365Y274605D01*
X479267Y274732D01*
X479160Y274858D01*
X479150Y274868D01*
X479130Y274888D01*
X479091Y274917D01*
X479043Y274956D01*
X478974Y275005D01*
X478886Y275063D01*
X478789Y275122D01*
X478672Y275180D01*
X478535Y275239D01*
X478389Y275297D01*
X478223Y275356D01*
X478028Y275404D01*
X477823Y275443D01*
X477609Y275473D01*
X477365Y275492D01*
X477102Y275502D01*
D02*
G37*
G36*
X1239636Y830017D02*
X1238836Y829848D01*
X1238766Y829818D01*
X1238630Y829744D01*
X1238567Y829685D01*
X1238518Y829629D01*
X1238510Y829597D01*
X1238487Y829561D01*
X1238481Y829515D01*
X1238465Y829450D01*
X1238454Y829357D01*
X1238458Y829267D01*
X1238483Y829150D01*
X1239122Y826127D01*
X1239125Y826112D01*
X1239135Y826069D01*
X1239158Y826028D01*
X1239174Y825955D01*
X1239248Y825819D01*
X1239293Y825753D01*
X1239349Y825704D01*
X1239381Y825695D01*
X1239416Y825672D01*
X1239463Y825667D01*
X1239541Y825653D01*
X1239620Y825640D01*
X1239711Y825644D01*
X1240467Y825804D01*
X1240507Y825827D01*
X1240580Y825843D01*
X1240716Y825917D01*
X1240782Y825962D01*
X1240831Y826018D01*
X1240840Y826050D01*
X1240863Y826085D01*
X1240882Y826135D01*
X1240882Y826210D01*
X1240895Y826289D01*
X1240891Y826380D01*
X1240867Y826496D01*
X1240227Y829520D01*
X1240224Y829534D01*
X1240215Y829578D01*
X1240205Y829621D01*
X1240175Y829691D01*
X1240101Y829827D01*
X1240057Y829894D01*
X1240001Y829942D01*
X1239966Y829965D01*
X1239933Y829974D01*
X1239884Y829994D01*
X1239819Y830011D01*
X1239729Y830006D01*
X1239636Y830017D01*
D02*
G37*
G36*
X808086Y341838D02*
X808058Y341829D01*
X808223Y338817D01*
X809657Y339259D01*
X808086Y341838D01*
D02*
G37*
G36*
X783086D02*
X783058Y341829D01*
X783223Y338817D01*
X784657Y339259D01*
X783086Y341838D01*
D02*
G37*
G36*
X761087Y340838D02*
X761058Y340829D01*
X761223Y337817D01*
X762657Y338259D01*
X761087Y340838D01*
D02*
G37*
G36*
X464960Y346921D02*
X460054D01*
Y345458D01*
X460064Y345351D01*
X460074Y345204D01*
X460084Y345048D01*
X460103Y344883D01*
X460132Y344726D01*
X460171Y344580D01*
X460181Y344561D01*
X460191Y344522D01*
X460220Y344453D01*
X460259Y344375D01*
X460308Y344278D01*
X460357Y344180D01*
X460425Y344092D01*
X460503Y344005D01*
X460513Y343995D01*
X460561Y343956D01*
X460630Y343897D01*
X460718Y343829D01*
X460835Y343761D01*
X460971Y343683D01*
X461137Y343605D01*
X461312Y343536D01*
X461322D01*
X461332Y343527D01*
X461361Y343517D01*
X461400Y343507D01*
X461449Y343498D01*
X461507Y343478D01*
X461654Y343449D01*
X461839Y343419D01*
X462054Y343390D01*
X462288Y343371D01*
X462551Y343361D01*
X462561D01*
X462600D01*
X462649D01*
X462717D01*
X462805Y343371D01*
X462902Y343381D01*
X463010Y343390D01*
X463117Y343400D01*
X463371Y343439D01*
X463624Y343498D01*
X463868Y343585D01*
X463985Y343634D01*
X464092Y343693D01*
X464102D01*
X464112Y343712D01*
X464141Y343722D01*
X464180Y343751D01*
X464278Y343819D01*
X464385Y343917D01*
X464512Y344034D01*
X464629Y344170D01*
X464736Y344327D01*
X464824Y344492D01*
X464833Y344512D01*
X464843Y344561D01*
X464863Y344639D01*
X464892Y344756D01*
X464921Y344912D01*
X464941Y345097D01*
X464951Y345321D01*
X464960Y345585D01*
Y346921D01*
D02*
G37*
G36*
X417960Y347921D02*
X413054D01*
Y346458D01*
X413064Y346351D01*
X413074Y346204D01*
X413083Y346048D01*
X413103Y345882D01*
X413132Y345727D01*
X413171Y345580D01*
X413181Y345561D01*
X413191Y345522D01*
X413220Y345453D01*
X413259Y345375D01*
X413308Y345278D01*
X413357Y345180D01*
X413425Y345093D01*
X413503Y345005D01*
X413513Y344995D01*
X413561Y344956D01*
X413630Y344897D01*
X413717Y344829D01*
X413834Y344761D01*
X413971Y344683D01*
X414137Y344605D01*
X414313Y344537D01*
X414322D01*
X414332Y344527D01*
X414361Y344517D01*
X414400Y344507D01*
X414449Y344497D01*
X414507Y344478D01*
X414654Y344449D01*
X414839Y344420D01*
X415054Y344390D01*
X415288Y344371D01*
X415551Y344361D01*
X415561D01*
X415600D01*
X415649D01*
X415717D01*
X415805Y344371D01*
X415902Y344380D01*
X416010Y344390D01*
X416117Y344400D01*
X416371Y344439D01*
X416624Y344497D01*
X416868Y344585D01*
X416985Y344634D01*
X417092Y344693D01*
X417102D01*
X417112Y344712D01*
X417141Y344722D01*
X417180Y344751D01*
X417278Y344819D01*
X417385Y344917D01*
X417512Y345034D01*
X417629Y345171D01*
X417736Y345327D01*
X417824Y345492D01*
X417834Y345512D01*
X417843Y345561D01*
X417863Y345639D01*
X417892Y345756D01*
X417921Y345912D01*
X417941Y346097D01*
X417951Y346321D01*
X417960Y346585D01*
Y347921D01*
D02*
G37*
G36*
X414937Y336207D02*
Y334032D01*
X416702Y334695D01*
X416712D01*
X416741Y334705D01*
X416780Y334724D01*
X416839Y334744D01*
X416907Y334773D01*
X416985Y334802D01*
X417170Y334861D01*
X417385Y334939D01*
X417609Y335017D01*
X417834Y335085D01*
X418048Y335154D01*
X418038D01*
X418019Y335163D01*
X417990D01*
X417941Y335173D01*
X417882Y335193D01*
X417814Y335212D01*
X417658Y335251D01*
X417463Y335300D01*
X417258Y335358D01*
X417034Y335427D01*
X416809Y335505D01*
X414937Y336207D01*
D02*
G37*
G36*
X417960Y289904D02*
X416010D01*
Y288333D01*
X416019Y288216D01*
X416029Y288080D01*
X416039Y287943D01*
X416058Y287826D01*
X416078Y287719D01*
X416088Y287709D01*
X416097Y287670D01*
X416117Y287612D01*
X416156Y287533D01*
X416195Y287455D01*
X416253Y287377D01*
X416322Y287299D01*
X416400Y287231D01*
X416409Y287221D01*
X416439Y287202D01*
X416488Y287182D01*
X416556Y287143D01*
X416634Y287114D01*
X416731Y287094D01*
X416839Y287075D01*
X416965Y287065D01*
X416975D01*
X417024D01*
X417082Y287075D01*
X417160Y287085D01*
X417248Y287104D01*
X417336Y287134D01*
X417434Y287173D01*
X417531Y287221D01*
X417541Y287231D01*
X417570Y287251D01*
X417609Y287290D01*
X417668Y287338D01*
X417716Y287397D01*
X417775Y287475D01*
X417824Y287563D01*
X417863Y287660D01*
Y287670D01*
X417882Y287719D01*
X417892Y287787D01*
X417911Y287885D01*
X417931Y288021D01*
X417941Y288187D01*
X417960Y288392D01*
Y289904D01*
D02*
G37*
G36*
X415259D02*
X413054D01*
Y288089D01*
X413064Y287894D01*
X413074Y287806D01*
X413083Y287738D01*
Y287729D01*
X413093Y287689D01*
X413103Y287631D01*
X413122Y287563D01*
X413171Y287407D01*
X413249Y287251D01*
X413259Y287241D01*
X413269Y287212D01*
X413298Y287182D01*
X413347Y287134D01*
X413396Y287075D01*
X413454Y287026D01*
X413532Y286968D01*
X413610Y286919D01*
X413620Y286909D01*
X413649Y286900D01*
X413698Y286880D01*
X413766Y286851D01*
X413844Y286831D01*
X413942Y286812D01*
X414039Y286802D01*
X414156Y286792D01*
X414176D01*
X414215D01*
X414283Y286802D01*
X414361Y286812D01*
X414459Y286841D01*
X414566Y286870D01*
X414673Y286919D01*
X414771Y286987D01*
X414781Y286997D01*
X414820Y287017D01*
X414859Y287065D01*
X414917Y287124D01*
X414986Y287192D01*
X415044Y287280D01*
X415103Y287377D01*
X415151Y287494D01*
X415161Y287514D01*
X415171Y287553D01*
X415190Y287631D01*
X415210Y287729D01*
X415229Y287865D01*
X415239Y288021D01*
X415259Y288216D01*
Y289904D01*
D02*
G37*
G36*
X417999Y260536D02*
X415883D01*
Y258624D01*
X415892Y258517D01*
X415902Y258390D01*
X415912Y258243D01*
X415932Y258087D01*
X415961Y257941D01*
X416000Y257814D01*
X416010Y257795D01*
X416019Y257756D01*
X416049Y257697D01*
X416088Y257629D01*
X416146Y257551D01*
X416214Y257463D01*
X416292Y257385D01*
X416380Y257317D01*
X416390Y257307D01*
X416429Y257288D01*
X416478Y257258D01*
X416556Y257229D01*
X416634Y257200D01*
X416731Y257171D01*
X416839Y257151D01*
X416956Y257141D01*
X416965D01*
X416975D01*
X417034D01*
X417112Y257161D01*
X417219Y257180D01*
X417336Y257219D01*
X417463Y257278D01*
X417590Y257366D01*
X417707Y257473D01*
X417716Y257492D01*
X417756Y257531D01*
X417804Y257619D01*
X417853Y257726D01*
X417911Y257873D01*
X417951Y258048D01*
X417990Y258263D01*
X417999Y258517D01*
Y260536D01*
D02*
G37*
G36*
X357960Y280921D02*
X353054D01*
Y279458D01*
X353064Y279351D01*
X353074Y279204D01*
X353083Y279048D01*
X353103Y278883D01*
X353132Y278727D01*
X353171Y278580D01*
X353181Y278561D01*
X353191Y278522D01*
X353220Y278453D01*
X353259Y278375D01*
X353308Y278278D01*
X353357Y278180D01*
X353425Y278092D01*
X353503Y278005D01*
X353513Y277995D01*
X353561Y277956D01*
X353630Y277897D01*
X353717Y277829D01*
X353834Y277761D01*
X353971Y277683D01*
X354137Y277605D01*
X354312Y277537D01*
X354322D01*
X354332Y277527D01*
X354361Y277517D01*
X354400Y277507D01*
X354449Y277498D01*
X354507Y277478D01*
X354654Y277449D01*
X354839Y277419D01*
X355054Y277390D01*
X355288Y277371D01*
X355551Y277361D01*
X355561D01*
X355600D01*
X355649D01*
X355717D01*
X355805Y277371D01*
X355902Y277381D01*
X356010Y277390D01*
X356117Y277400D01*
X356371Y277439D01*
X356624Y277498D01*
X356868Y277585D01*
X356985Y277634D01*
X357092Y277693D01*
X357102D01*
X357112Y277712D01*
X357141Y277722D01*
X357180Y277751D01*
X357277Y277819D01*
X357385Y277917D01*
X357512Y278034D01*
X357629Y278171D01*
X357736Y278327D01*
X357824Y278492D01*
X357834Y278512D01*
X357843Y278561D01*
X357863Y278639D01*
X357892Y278756D01*
X357921Y278912D01*
X357941Y279097D01*
X357951Y279321D01*
X357960Y279585D01*
Y280921D01*
D02*
G37*
G36*
Y259551D02*
X353054D01*
Y258088D01*
X353064Y257981D01*
X353074Y257834D01*
X353083Y257678D01*
X353103Y257512D01*
X353132Y257356D01*
X353171Y257210D01*
X353181Y257190D01*
X353191Y257152D01*
X353220Y257083D01*
X353259Y257005D01*
X353308Y256908D01*
X353357Y256810D01*
X353425Y256722D01*
X353503Y256635D01*
X353513Y256625D01*
X353561Y256586D01*
X353630Y256527D01*
X353717Y256459D01*
X353834Y256391D01*
X353971Y256313D01*
X354137Y256235D01*
X354312Y256166D01*
X354322D01*
X354332Y256157D01*
X354361Y256147D01*
X354400Y256137D01*
X354449Y256127D01*
X354507Y256108D01*
X354654Y256079D01*
X354839Y256049D01*
X355054Y256020D01*
X355288Y256001D01*
X355551Y255991D01*
X355561D01*
X355600D01*
X355649D01*
X355717D01*
X355805Y256001D01*
X355902Y256010D01*
X356010Y256020D01*
X356117Y256030D01*
X356371Y256069D01*
X356624Y256127D01*
X356868Y256215D01*
X356985Y256264D01*
X357092Y256322D01*
X357102D01*
X357112Y256342D01*
X357141Y256352D01*
X357180Y256381D01*
X357277Y256449D01*
X357385Y256547D01*
X357512Y256664D01*
X357629Y256800D01*
X357736Y256956D01*
X357824Y257122D01*
X357834Y257142D01*
X357843Y257190D01*
X357863Y257269D01*
X357892Y257386D01*
X357921Y257542D01*
X357941Y257727D01*
X357951Y257951D01*
X357960Y258215D01*
Y259551D01*
D02*
G37*
%LPD*%
D10*
X378500Y387500D02*
G03*
X378500Y387500I-500J0D01*
G01*
X338500D02*
G03*
X338500Y387500I-500J0D01*
G01*
X285500Y411000D02*
G03*
X285500Y411000I-500J0D01*
G01*
Y451000D02*
G03*
X285500Y451000I-500J0D01*
G01*
Y491000D02*
G03*
X285500Y491000I-500J0D01*
G01*
X346500Y546000D02*
G03*
X346500Y546000I-500J0D01*
G01*
X386500D02*
G03*
X386500Y546000I-500J0D01*
G01*
X441500Y483000D02*
G03*
X441500Y483000I-500J0D01*
G01*
X451500Y451000D02*
G03*
X451500Y451000I-500J0D01*
G01*
Y491000D02*
G03*
X451500Y491000I-500J0D01*
G01*
X441500Y523000D02*
G03*
X441500Y523000I-500J0D01*
G01*
X451500Y551000D02*
G03*
X451500Y551000I-500J0D01*
G01*
X473500Y546000D02*
G03*
X473500Y546000I-500J0D01*
G01*
X427500Y551000D02*
G03*
X427500Y551000I-500J0D01*
G01*
X451500Y591000D02*
G03*
X451500Y591000I-500J0D01*
G01*
Y631000D02*
G03*
X451500Y631000I-500J0D01*
G01*
X427500D02*
G03*
X427500Y631000I-500J0D01*
G01*
Y591000D02*
G03*
X427500Y591000I-500J0D01*
G01*
X513500Y546000D02*
G03*
X513500Y546000I-500J0D01*
G01*
X553500D02*
G03*
X553500Y546000I-500J0D01*
G01*
X609000Y487000D02*
G03*
X609000Y487000I-500J0D01*
G01*
Y447000D02*
G03*
X609000Y447000I-500J0D01*
G01*
Y527000D02*
G03*
X609000Y527000I-500J0D01*
G01*
X590000Y551000D02*
G03*
X590000Y551000I-500J0D01*
G01*
Y591000D02*
G03*
X590000Y591000I-500J0D01*
G01*
Y631000D02*
G03*
X590000Y631000I-500J0D01*
G01*
X553500Y686500D02*
G03*
X553500Y686500I-500J0D01*
G01*
X531500Y717500D02*
X631500D01*
Y745500D01*
X531500D01*
Y717500D01*
X521500Y745500D02*
X421500D01*
Y717500D01*
X521500D01*
Y745500D01*
X513500Y686500D02*
G03*
X513500Y686500I-500J0D01*
G01*
X473500D02*
G03*
X473500Y686500I-500J0D01*
G01*
X409000Y745500D02*
X309000D01*
Y717500D01*
X409000D01*
Y745500D01*
X386500Y686500D02*
G03*
X386500Y686500I-500J0D01*
G01*
X346500D02*
G03*
X346500Y686500I-500J0D01*
G01*
X306500D02*
G03*
X306500Y686500I-500J0D01*
G01*
X285500Y631000D02*
G03*
X285500Y631000I-500J0D01*
G01*
Y591000D02*
G03*
X285500Y591000I-500J0D01*
G01*
Y551000D02*
G03*
X285500Y551000I-500J0D01*
G01*
X306500Y546000D02*
G03*
X306500Y546000I-500J0D01*
G01*
X441500Y443000D02*
G03*
X441500Y443000I-500J0D01*
G01*
X451500Y411000D02*
G03*
X451500Y411000I-500J0D01*
G01*
X418500Y387500D02*
G03*
X418500Y387500I-500J0D01*
G01*
X505500D02*
G03*
X505500Y387500I-500J0D01*
G01*
X545500D02*
G03*
X545500Y387500I-500J0D01*
G01*
X585500D02*
G03*
X585500Y387500I-500J0D01*
G01*
X1112750Y890000D02*
G03*
X1112750Y890000I-500J0D01*
G01*
X1167750D02*
G03*
X1167750Y890000I-500J0D01*
G01*
X1222750D02*
G03*
X1222750Y890000I-500J0D01*
G01*
X1277750D02*
G03*
X1277750Y890000I-500J0D01*
G01*
X1057750D02*
G03*
X1057750Y890000I-500J0D01*
G01*
X1002750D02*
G03*
X1002750Y890000I-500J0D01*
G01*
X947750D02*
G03*
X947750Y890000I-500J0D01*
G01*
X892750D02*
G03*
X892750Y890000I-500J0D01*
G01*
X837750D02*
G03*
X837750Y890000I-500J0D01*
G01*
X782750D02*
G03*
X782750Y890000I-500J0D01*
G01*
X727750D02*
G03*
X727750Y890000I-500J0D01*
G01*
X672750D02*
G03*
X672750Y890000I-500J0D01*
G01*
D11*
X636500Y751000D02*
G03*
X636500Y751000I-1250J0D01*
G01*
X526500D02*
G03*
X526500Y751000I-1250J0D01*
G01*
X414000D02*
G03*
X414000Y751000I-1250J0D01*
G01*
D12*
X655900Y295000D02*
Y819000D01*
X656900D01*
X996900D01*
X1270650D01*
X1258150Y821000D02*
X738400D01*
Y790000D01*
X1258150D01*
Y821000D01*
X1336900Y803000D02*
Y325400D01*
Y322400D01*
Y295000D01*
X655900D01*
D13*
X400500Y392500D02*
X403500D01*
Y400500D02*
X400500D01*
X428000Y425500D02*
Y428500D01*
X436000D02*
Y425500D01*
X456000D02*
Y428500D01*
X464000D02*
Y425500D01*
X487500Y400500D02*
X490500D01*
Y392500D02*
X487500D01*
X501099Y376250D02*
X510099D01*
Y359250D02*
X501099D01*
Y350250D02*
X510099D01*
Y333250D02*
X501099D01*
Y316250D02*
X510099D01*
Y299250D02*
X501099D01*
Y287250D02*
X510099D01*
Y270250D02*
X501099D01*
X560349D02*
X569349D01*
Y287250D02*
X560349D01*
X560099Y313250D02*
X569099D01*
Y330250D02*
X560099D01*
Y359250D02*
X569099D01*
Y376250D02*
X560099D01*
X567500Y392500D02*
X570500D01*
Y400500D02*
X567500D01*
X595500Y429500D02*
Y432500D01*
X603500D02*
Y429500D01*
Y469500D02*
Y472500D01*
X595500D02*
Y469500D01*
X572500Y489500D02*
Y498500D01*
X595500Y509500D02*
Y512500D01*
X603500D02*
Y509500D01*
X570500Y533000D02*
X567500D01*
Y541000D02*
X570500D01*
X594500Y565500D02*
Y568500D01*
X602500D02*
Y565500D01*
Y605500D02*
Y608500D01*
X594500D02*
Y605500D01*
X572500Y583500D02*
Y574500D01*
X555500D02*
Y583500D01*
X530500Y541000D02*
X527500D01*
Y533000D02*
X530500D01*
X502500Y574500D02*
Y583500D01*
X485500D02*
Y574500D01*
X487500Y541000D02*
X490500D01*
Y533000D02*
X487500D01*
X464000Y565500D02*
Y568500D01*
X456000D02*
Y565500D01*
Y605500D02*
Y608500D01*
X464000D02*
Y605500D01*
X485500Y629500D02*
Y638500D01*
X502500D02*
Y629500D01*
X567500Y673500D02*
X570500D01*
Y681500D02*
X567500D01*
X594500Y648500D02*
Y645500D01*
X602500D02*
Y648500D01*
X530500Y673500D02*
X527500D01*
Y681500D02*
X530500D01*
X490500D02*
X487500D01*
Y673500D02*
X490500D01*
X464000Y648500D02*
Y645500D01*
X456000D02*
Y648500D01*
X440000D02*
Y645500D01*
X432000D02*
Y648500D01*
X403500Y673500D02*
X400500D01*
Y681500D02*
X403500D01*
X363500D02*
X360500D01*
Y673500D02*
X363500D01*
X337500Y638500D02*
Y629500D01*
X320500D02*
Y638500D01*
X298000Y645500D02*
Y648500D01*
X290000D02*
Y645500D01*
X320500Y673500D02*
X323500D01*
Y681500D02*
X320500D01*
X298000Y608500D02*
Y605500D01*
X290000D02*
Y608500D01*
Y568500D02*
Y565500D01*
X298000D02*
Y568500D01*
X320500Y541000D02*
X323500D01*
Y533000D02*
X320500D01*
X360500D02*
X363500D01*
Y541000D02*
X360500D01*
X337500Y574500D02*
Y583500D01*
X320500D02*
Y574500D01*
X298000Y508500D02*
Y505500D01*
X290000D02*
Y508500D01*
X320500Y498500D02*
Y489500D01*
X337500D02*
Y498500D01*
X320500Y443500D02*
Y434500D01*
Y400500D02*
X323500D01*
Y392500D02*
X320500D01*
X360500D02*
X363500D01*
Y400500D02*
X360500D01*
X337500Y434500D02*
Y443500D01*
X390500D02*
Y434500D01*
X407500D02*
Y443500D01*
X428000Y465500D02*
Y468500D01*
X436000D02*
Y465500D01*
X456000D02*
Y468500D01*
X464000D02*
Y465500D01*
X485500Y443500D02*
Y434500D01*
X527500Y400500D02*
X530500D01*
Y392500D02*
X527500D01*
X555500Y434500D02*
Y443500D01*
X572500D02*
Y434500D01*
X555500Y489500D02*
Y498500D01*
X502500D02*
Y489500D01*
X485500D02*
Y498500D01*
X464000Y505500D02*
Y508500D01*
X456000D02*
Y505500D01*
X436000D02*
Y508500D01*
X428000D02*
Y505500D01*
X403500Y533000D02*
X400500D01*
Y541000D02*
X403500D01*
X432000Y565500D02*
Y568500D01*
X440000D02*
Y565500D01*
Y605500D02*
Y608500D01*
X432000D02*
Y605500D01*
X407500Y583500D02*
Y574500D01*
X390500D02*
Y583500D01*
Y498500D02*
Y489500D01*
X407500D02*
Y498500D01*
X502500Y443500D02*
Y434500D01*
X298000Y465500D02*
Y468500D01*
X290000D02*
Y465500D01*
Y428500D02*
Y425500D01*
X298000D02*
Y428500D01*
X615000Y796000D02*
Y805000D01*
X632000D02*
Y796000D01*
X604500D02*
Y805000D01*
X587500D02*
Y796000D01*
X577000D02*
Y805000D01*
X560000D02*
Y796000D01*
X544500D02*
Y805000D01*
X527500D02*
Y796000D01*
X517000D02*
Y805000D01*
X500000D02*
Y796000D01*
X492000D02*
Y805000D01*
X475000D02*
Y796000D01*
X467000D02*
Y805000D01*
X450000D02*
Y796000D01*
X442000D02*
Y805000D01*
X425000D02*
Y796000D01*
X404500Y796000D02*
Y805000D01*
X387500D02*
Y796000D01*
X379500Y796000D02*
Y805000D01*
X362500D02*
Y796000D01*
X354500D02*
Y805000D01*
X337500D02*
Y796000D01*
X329500D02*
Y805000D01*
X312500D02*
Y796000D01*
X694250Y863000D02*
X698250D01*
X740900Y818500D02*
X1256500D01*
X1256500D02*
Y792500D01*
X755600D01*
X740900Y818500D02*
Y805000D01*
X804250Y863000D02*
X808250D01*
X859250D02*
X863250D01*
Y885000D02*
X859250D01*
X808250D02*
X804250D01*
X753250D02*
X749250D01*
Y863000D02*
X753250D01*
X698250Y885000D02*
X694250D01*
X914250Y863000D02*
X918250D01*
Y885000D02*
X914250D01*
X969250Y863000D02*
X973250D01*
Y885000D02*
X969250D01*
X1024250Y863000D02*
X1028250D01*
Y885000D02*
X1024250D01*
X1079250Y863000D02*
X1083250D01*
Y885000D02*
X1079250D01*
X1134250Y863000D02*
X1138250D01*
Y885000D02*
X1134250D01*
X1189250Y863000D02*
X1193250D01*
Y885000D02*
X1189250D01*
X1244250Y863000D02*
X1248250D01*
Y885000D02*
X1244250D01*
X1299250Y863000D02*
X1303250D01*
Y885000D02*
X1299250D01*
D14*
X365661Y427331D02*
X358997Y420666D01*
Y419000D01*
X355664D02*
X352332Y422332D01*
X353998D02*
X349000D01*
Y419000D02*
Y428997D01*
X353998D01*
X355664Y427331D01*
Y423998D01*
X353998Y422332D01*
X358997Y428997D02*
X365661D01*
Y427331D01*
X368993Y423998D02*
X375658D01*
X373992Y419000D02*
Y428997D01*
X368993Y423998D01*
X370660Y444000D02*
X368993Y445666D01*
X370660Y444000D02*
X373992D01*
X375658Y445666D01*
Y447332D01*
X373992Y448998D01*
X372326D01*
X373992D01*
X375658Y450664D01*
Y452331D01*
X373992Y453997D01*
X370660D01*
X368993Y452331D01*
X365661D02*
X358997Y445666D01*
Y444000D01*
X355664D02*
X352332Y447332D01*
X353998D02*
X349000D01*
X353998D02*
X355664Y448998D01*
Y452331D01*
X353998Y453997D01*
X349000D01*
Y444000D01*
X365661Y452331D02*
Y453997D01*
X358997D01*
X360663Y464000D02*
X358997Y465666D01*
Y467332D01*
X360663Y468998D01*
X358997Y470664D01*
Y472331D01*
X360663Y473997D01*
X363995D01*
X365661Y472331D01*
Y470664D01*
X363995Y468998D01*
X365661Y467332D01*
Y465666D01*
X363995Y464000D01*
X360663D01*
Y468998D02*
X363995D01*
X368993Y472331D02*
X370660Y473997D01*
X373992D01*
X375658Y472331D01*
Y470664D01*
X368993Y464000D01*
X375658D01*
X353998Y473997D02*
X355664Y472331D01*
Y468998D01*
X353998Y467332D01*
X349000D01*
Y464000D02*
Y473997D01*
X353998D01*
X352332Y467332D02*
X355664Y464000D01*
X370660Y504000D02*
X368993Y505666D01*
Y508998D02*
X372326Y510664D01*
X373992D01*
X375658Y508998D01*
Y505666D01*
X373992Y504000D01*
X370660D01*
X368993Y508998D02*
Y513997D01*
X375658D01*
X365661D02*
Y512331D01*
X358997Y505666D01*
Y504000D01*
X355664D02*
X352332Y507332D01*
X353998D02*
X349000D01*
Y504000D02*
Y513997D01*
X353998D01*
X355664Y512331D01*
Y508998D01*
X353998Y507332D01*
X358997Y513997D02*
X365661D01*
X368993Y560666D02*
X370660Y559000D01*
X373992D01*
X375658Y560666D01*
Y562332D01*
X373992Y563998D01*
X368993D01*
Y560666D01*
Y563998D02*
X372326Y567331D01*
X375658Y568997D01*
X365661D02*
Y567331D01*
X358997Y560666D01*
Y559000D01*
X355664D02*
X352332Y562332D01*
X353998D02*
X349000D01*
Y559000D02*
Y568997D01*
X353998D01*
X355664Y567331D01*
Y563998D01*
X353998Y562332D01*
X358997Y568997D02*
X365661D01*
X363995Y589000D02*
X360663D01*
X358997Y590666D01*
Y592332D01*
X360663Y593998D01*
X358997Y595664D01*
Y597331D01*
X360663Y598997D01*
X363995D01*
X365661Y597331D01*
Y595664D01*
X363995Y593998D01*
X365661Y592332D01*
Y590666D01*
X363995Y589000D01*
Y593998D02*
X360663D01*
X355664D02*
X353998Y592332D01*
X349000D01*
Y589000D02*
Y598997D01*
X353998D01*
X355664Y597331D01*
Y593998D01*
X352332Y592332D02*
X355664Y589000D01*
Y609000D02*
X352332Y612332D01*
X353998D02*
X349000D01*
Y609000D02*
Y618997D01*
X353998D01*
X355664Y617331D01*
Y613998D01*
X353998Y612332D01*
X358997Y610666D02*
Y609000D01*
Y610666D02*
X365661Y617331D01*
Y618997D01*
X358997D01*
X368993Y610666D02*
Y609000D01*
Y610666D02*
X375658Y617331D01*
Y618997D01*
X368993D01*
Y597331D02*
X370660Y598997D01*
X373992D01*
X375658Y597331D01*
Y595664D01*
X373992Y593998D01*
X372326D01*
X373992D01*
X375658Y592332D01*
Y590666D01*
X373992Y589000D01*
X370660D01*
X368993Y590666D01*
X514000Y472332D02*
X518998D01*
X520664Y473998D01*
Y477331D01*
X518998Y478997D01*
X514000D01*
Y469000D01*
X517332Y472332D02*
X520664Y469000D01*
X523997Y470666D02*
X525663Y469000D01*
X528995D01*
X530661Y470666D01*
Y472332D01*
X528995Y473998D01*
X523997D01*
Y470666D01*
X518998Y453997D02*
X520664Y452331D01*
Y448998D01*
X518998Y447332D01*
X514000D01*
X517332D02*
X520664Y444000D01*
X514000D02*
Y453997D01*
X518998D01*
Y428997D02*
X520664Y427331D01*
Y423998D01*
X518998Y422332D01*
X514000D01*
Y419000D02*
Y428997D01*
X518998D01*
X517332Y422332D02*
X520664Y419000D01*
X528995D02*
Y428997D01*
X523997Y423998D01*
X530661D01*
X533993Y427331D02*
X535660Y428997D01*
X538992D01*
X540658Y427331D01*
Y425664D01*
X533993Y419000D01*
X540658D01*
Y469000D02*
X533993D01*
X540658Y475664D01*
Y477331D01*
X538992Y478997D01*
X535660D01*
X533993Y477331D01*
X530661Y478997D02*
X527329Y477331D01*
X523997Y473998D01*
X530661Y505666D02*
X528995Y504000D01*
X525663D01*
X523997Y505666D01*
Y508998D02*
X527329Y510664D01*
X528995D01*
X530661Y508998D01*
Y505666D01*
X533993D02*
Y507332D01*
X535660Y508998D01*
X533993Y510664D01*
Y512331D01*
X535660Y513997D01*
X538992D01*
X540658Y512331D01*
Y510664D01*
X538992Y508998D01*
X540658Y507332D01*
Y505666D01*
X538992Y504000D01*
X535660D01*
X533993Y505666D01*
X535660Y508998D02*
X538992D01*
X530661Y513997D02*
X523997D01*
Y508998D01*
X520664D02*
X518998Y507332D01*
X514000D01*
Y504000D02*
Y513997D01*
X518998D01*
X520664Y512331D01*
Y508998D01*
X517332Y507332D02*
X520664Y504000D01*
X530661Y560666D02*
X528995Y559000D01*
X525663D01*
X523997Y560666D01*
Y563998D02*
X527329Y565664D01*
X528995D01*
X530661Y563998D01*
Y560666D01*
X533993D02*
X535660Y559000D01*
X538992D01*
X540658Y560666D01*
Y567331D01*
X538992Y568997D01*
X535660D01*
X533993Y567331D01*
Y565664D01*
X535660Y563998D01*
X540658D01*
X530661Y568997D02*
X523997D01*
Y563998D01*
X520664D02*
X518998Y562332D01*
X514000D01*
Y559000D02*
Y568997D01*
X518998D01*
X520664Y567331D01*
Y563998D01*
X517332Y562332D02*
X520664Y559000D01*
X530661Y590666D02*
Y592332D01*
X528995Y593998D01*
X523997D01*
Y590666D01*
X525663Y589000D01*
X528995D01*
X530661Y590666D01*
X533993D02*
X535660Y589000D01*
X538992D01*
X540658Y590666D01*
Y592332D01*
X538992Y593998D01*
X537326D01*
X538992D01*
X540658Y595664D01*
Y597331D01*
X538992Y598997D01*
X535660D01*
X533993Y597331D01*
X530661Y598997D02*
X527329Y597331D01*
X523997Y593998D01*
X520664D02*
X518998Y592332D01*
X514000D01*
Y589000D02*
Y598997D01*
X518998D01*
X520664Y597331D01*
Y593998D01*
X517332Y592332D02*
X520664Y589000D01*
Y609000D02*
X517332Y612332D01*
X518998D02*
X514000D01*
Y609000D02*
Y618997D01*
X518998D01*
X520664Y617331D01*
Y613998D01*
X518998Y612332D01*
X523997Y610666D02*
X525663Y609000D01*
X528995D01*
X530661Y610666D01*
Y612332D01*
X528995Y613998D01*
X523997D01*
Y610666D01*
X533993Y609000D02*
X537326D01*
X535660D01*
Y618997D01*
X533993Y617331D01*
X530661Y618997D02*
X527329Y617331D01*
X523997Y613998D01*
X585661Y734831D02*
X578997Y728166D01*
Y726500D01*
X572332D02*
Y736497D01*
X575664D01*
X569000D01*
X578997D02*
X585661D01*
Y734831D01*
X473161Y736497D02*
X469829Y734831D01*
X466497Y731498D01*
Y728166D01*
X468163Y726500D01*
X471495D01*
X473161Y728166D01*
Y729832D01*
X471495Y731498D01*
X466497D01*
X463164Y736497D02*
X459832D01*
Y726500D01*
X456500Y736497D02*
X463164D01*
X358161D02*
X351497D01*
Y731498D01*
X354829Y733165D01*
X356495D01*
X358161Y731498D01*
Y728166D01*
X356495Y726500D01*
X353163D01*
X351497Y728166D01*
X344832Y726500D02*
Y736497D01*
X348164D01*
X341500D01*
X303492Y810500D02*
X300160D01*
X298494Y812166D01*
X295161Y810500D02*
X288497D01*
X295161Y817165D01*
Y818831D01*
X293495Y820497D01*
X290163D01*
X288497Y818831D01*
X285165D02*
Y815498D01*
X283498Y813832D01*
X278500D01*
Y810500D02*
Y820497D01*
X283498D01*
X285165Y818831D01*
X281832Y813832D02*
X285165Y810500D01*
X303492D02*
X305158Y812166D01*
Y813832D01*
X303492Y815498D01*
X301826D01*
X303492D01*
X305158Y817165D01*
Y818831D01*
X303492Y820497D01*
X300160D01*
X298494Y818831D01*
X677750Y897500D02*
X685368D01*
X687907Y900039D01*
Y910196D01*
X685368Y912735D01*
X677750D01*
Y897500D01*
X695524D02*
X692985Y900039D01*
X695524Y897500D02*
X700603D01*
X703142Y900039D01*
Y902578D01*
X700603Y905117D01*
X698063D01*
X700603D01*
X703142Y907657D01*
Y910196D01*
X700603Y912735D01*
X695524D01*
X692985Y910196D01*
X728878Y913971D02*
Y898736D01*
X736496D01*
X739035Y901275D01*
Y911432D01*
X736496Y913971D01*
X728878D01*
X751731D02*
X744113Y906354D01*
X754270D01*
X783742Y913971D02*
Y898736D01*
X791359D01*
X793899Y901275D01*
Y911432D01*
X791359Y913971D01*
X783742D01*
X798977D02*
Y906354D01*
X804055Y908893D01*
X806595D01*
X809134Y906354D01*
Y901275D01*
X806595Y898736D01*
X801516D01*
X798977Y901275D01*
Y913971D02*
X809134D01*
X838860D02*
Y898736D01*
X846478D01*
X849017Y901275D01*
Y911432D01*
X846478Y913971D01*
X838860D01*
X859173Y911432D02*
X854095Y906354D01*
Y901275D01*
X856634Y898736D01*
X861713D01*
X864252Y901275D01*
Y903814D01*
X861713Y906354D01*
X854095D01*
X859173Y911432D02*
X864252Y913971D01*
X893724D02*
Y898736D01*
X901341D01*
X903881Y901275D01*
Y911432D01*
X901341Y913971D01*
X893724D01*
X908959D02*
X919116D01*
Y911432D01*
X908959Y901275D01*
Y898736D01*
X948842D02*
X956460D01*
X958999Y901275D01*
Y911432D01*
X956460Y913971D01*
X948842D01*
Y898736D01*
X966616D02*
X964077Y901275D01*
Y903814D01*
X966616Y906354D01*
X964077Y908893D01*
Y911432D01*
X966616Y913971D01*
X971695D01*
X974234Y911432D01*
Y908893D01*
X971695Y906354D01*
X974234Y903814D01*
Y901275D01*
X971695Y898736D01*
X966616D01*
Y906354D02*
X971695D01*
X1003706Y913971D02*
Y898736D01*
X1011323D01*
X1013863Y901275D01*
Y911432D01*
X1011323Y913971D01*
X1003706D01*
X1021480D02*
X1018941Y911432D01*
Y908893D01*
X1021480Y906354D01*
X1029098D01*
Y901275D02*
Y911432D01*
X1026559Y913971D01*
X1021480D01*
X1018941Y901275D02*
X1021480Y898736D01*
X1026559D01*
X1029098Y901275D01*
X1058824Y898736D02*
X1066441D01*
X1068981Y901275D01*
Y911432D01*
X1066441Y913971D01*
X1058824D01*
Y898736D01*
X1074059D02*
X1079137D01*
X1076598D01*
Y913971D01*
X1074059Y911432D01*
X1086755D02*
X1089294Y913971D01*
X1094372D01*
X1096912Y911432D01*
Y901275D01*
X1094372Y898736D01*
X1089294D01*
X1086755Y901275D01*
Y911432D01*
X1113688Y913971D02*
Y898736D01*
X1121305D01*
X1123845Y901275D01*
Y911432D01*
X1121305Y913971D01*
X1113688D01*
X1131462D02*
X1128923Y911432D01*
X1131462Y913971D02*
Y898736D01*
X1134001D01*
X1128923D01*
X1141619D02*
X1146697D01*
X1144158D01*
Y913971D01*
X1141619Y911432D01*
X1168806Y913971D02*
Y898736D01*
X1176423D01*
X1178963Y901275D01*
Y911432D01*
X1176423Y913971D01*
X1168806D01*
X1186580D02*
X1184041Y911432D01*
X1186580Y913971D02*
Y898736D01*
X1189119D01*
X1184041D01*
X1196737D02*
X1206894Y908893D01*
Y911432D01*
X1204354Y913971D01*
X1199276D01*
X1196737Y911432D01*
Y898736D02*
X1206894D01*
X1223670D02*
X1231288D01*
X1233827Y901275D01*
Y911432D01*
X1231288Y913971D01*
X1223670D01*
Y898736D01*
X1238905D02*
X1243983D01*
X1241444D01*
Y913971D01*
X1238905Y911432D01*
X1251601D02*
X1254140Y913971D01*
X1259219D01*
X1261758Y911432D01*
Y908893D01*
X1259219Y906354D01*
X1256679D01*
X1259219D01*
X1261758Y903814D01*
Y901275D01*
X1259219Y898736D01*
X1254140D01*
X1251601Y901275D01*
X1278788Y898736D02*
X1286405D01*
X1288945Y901275D01*
Y911432D01*
X1286405Y913971D01*
X1278788D01*
Y898736D01*
X1294023D02*
X1299101D01*
X1296562D01*
Y913971D01*
X1294023Y911432D01*
X1306719Y906354D02*
X1316876D01*
X1314337Y898736D02*
Y913971D01*
X1306719Y906354D01*
X1095528Y761735D02*
Y759196D01*
X1090450Y754118D01*
Y746500D01*
Y754118D02*
X1085371Y759196D01*
Y761735D01*
X1080293Y756657D02*
Y746500D01*
Y754118D01*
X1070136D01*
Y756657D02*
X1075214Y761735D01*
X1080293Y756657D01*
X1070136D02*
Y746500D01*
X1065058D02*
X1054901D01*
Y761735D01*
X1047284D02*
X1049823Y759196D01*
Y754118D01*
X1047284Y751578D01*
X1039666D01*
X1034588D02*
Y749039D01*
X1032048Y746500D01*
X1026970D01*
X1024431Y749039D01*
X1016813Y746500D02*
X1011735D01*
X1014274D01*
Y761735D01*
X1016813D01*
X1011735D01*
X1006657Y759196D02*
X1004118Y761735D01*
X996500D01*
Y746500D01*
X1004118D01*
X1006657Y749039D01*
Y759196D01*
X1024431D02*
Y756657D01*
X1026970Y754118D01*
X1032048D01*
X1034588Y751578D01*
X1039666Y746500D02*
Y761735D01*
X1047284D01*
X1034588Y759196D02*
X1032048Y761735D01*
X1026970D01*
X1024431Y759196D01*
X751731Y898736D02*
Y913971D01*
X611593Y367081D02*
X613259Y368747D01*
X616591D01*
X618257Y367081D01*
Y365415D01*
X611593Y358750D01*
X618257D01*
X613259Y322747D02*
X611593Y321081D01*
X608260D02*
Y319415D01*
X606594Y317748D01*
X608260Y316082D01*
Y314416D01*
X606594Y312750D01*
X603262D01*
X601596Y314416D01*
Y316082D01*
X603262Y317748D01*
X601596Y319415D01*
Y321081D01*
X603262Y322747D01*
X606594D01*
X608260Y321081D01*
X606594Y317748D02*
X603262D01*
X598264D02*
X596598Y316082D01*
X591599D01*
Y312750D02*
Y322747D01*
X596598D01*
X598264Y321081D01*
Y317748D01*
X594931Y316082D02*
X598264Y312750D01*
X611593D02*
X614925D01*
X613259D01*
Y322747D01*
X615591Y301747D02*
X617257Y300081D01*
Y293416D01*
X615591Y291750D01*
X612259D01*
X610593Y293416D01*
Y300081D01*
X612259Y301747D01*
X615591D01*
X605594D02*
X607261Y300081D01*
Y298414D01*
X605594Y296748D01*
X607261Y295082D01*
Y293416D01*
X605594Y291750D01*
X602262D01*
X600596Y293416D01*
Y295082D01*
X602262Y296748D01*
X600596Y298414D01*
Y300081D01*
X602262Y301747D01*
X605594D01*
Y296748D02*
X602262D01*
X597264D02*
X595598Y295082D01*
X590599D01*
Y291750D02*
Y301747D01*
X595598D01*
X597264Y300081D01*
Y296748D01*
X593932Y295082D02*
X597264Y291750D01*
X598264Y358750D02*
X594931Y362082D01*
X596598D02*
X591599D01*
Y358750D02*
Y368747D01*
X596598D01*
X598264Y367081D01*
Y363748D01*
X596598Y362082D01*
X601596Y360416D02*
X603262Y358750D01*
X606594D01*
X608260Y360416D01*
Y362082D01*
X606594Y363748D01*
X604928D01*
X606594D01*
X608260Y365415D01*
Y367081D01*
X606594Y368747D01*
X603262D01*
X601596Y367081D01*
X1359466Y421000D02*
X1357800Y422666D01*
X1359466Y421000D02*
X1361132D01*
X1362798Y422666D01*
Y430997D01*
X1361132D01*
X1364465D01*
X1367797D02*
X1374461D01*
Y429331D01*
X1367797Y422666D01*
Y421000D01*
X1366495Y569000D02*
X1363163D01*
X1361497Y570666D01*
Y573998D02*
X1364829Y575664D01*
X1366495D01*
X1368161Y573998D01*
Y570666D01*
X1366495Y569000D01*
X1368161Y578997D02*
X1361497D01*
Y573998D01*
X1356498Y570666D02*
X1354832Y569000D01*
X1353166D01*
X1351500Y570666D01*
X1356498D02*
Y578997D01*
X1354832D01*
X1358165D01*
M02*
