G04*
G04 #@! TF.GenerationSoftware,Altium Limited,Altium Designer,19.1.7 (138)*
G04*
G04 Layer_Color=255*
%FSLAX44Y44*%
%MOMM*%
G71*
G01*
G75*
%ADD12C,0.0500*%
%ADD15R,1.6000X2.4000*%
%ADD16R,1.4000X1.9000*%
%ADD17R,1.9000X1.4000*%
%ADD18R,0.6000X1.5200*%
%ADD19R,1.0000X0.8000*%
%ADD20R,0.8000X1.0000*%
%ADD45R,1.6500X1.6500*%
%ADD46C,1.6500*%
%ADD47R,1.7000X2.0000*%
%ADD48O,1.7000X2.0000*%
%ADD49R,2.0000X1.7000*%
%ADD50O,2.0000X1.7000*%
%ADD51C,1.2000*%
%ADD52O,2.0000X1.2000*%
%ADD53R,2.0000X1.2000*%
%ADD54C,1.5000*%
%ADD55O,1.2000X2.0000*%
%ADD56R,1.2000X2.0000*%
%ADD57R,1.6000X2.0000*%
%ADD58O,1.6000X2.0000*%
%ADD59C,1.6510*%
%ADD60C,1.5240*%
D12*
X738400Y790000D02*
Y821000D01*
X1258150D01*
Y790000D01*
X738400D01*
D15*
X875500Y874000D02*
D03*
X902000D02*
D03*
X930500D02*
D03*
X957000D02*
D03*
X985500D02*
D03*
X1012000D02*
D03*
X1040500D02*
D03*
X1067000D02*
D03*
X1095500D02*
D03*
X1122000D02*
D03*
X1150500D02*
D03*
X1177000D02*
D03*
X1205500D02*
D03*
X1232000D02*
D03*
X1260500D02*
D03*
X1287000D02*
D03*
X1315500D02*
D03*
X847000D02*
D03*
X820500D02*
D03*
X792000D02*
D03*
X765500D02*
D03*
X737000D02*
D03*
X710500D02*
D03*
X682000D02*
D03*
D16*
X490349Y278750D02*
D03*
X520849D02*
D03*
X549599D02*
D03*
X580099D02*
D03*
X579849Y321750D02*
D03*
X549349D02*
D03*
X520849Y341750D02*
D03*
Y307750D02*
D03*
X490349Y341750D02*
D03*
Y307750D02*
D03*
X549349Y367750D02*
D03*
X579849D02*
D03*
X520849D02*
D03*
X490349D02*
D03*
D17*
X399000Y423750D02*
D03*
Y454250D02*
D03*
Y478750D02*
D03*
Y509250D02*
D03*
Y563750D02*
D03*
Y594250D02*
D03*
X494000Y509250D02*
D03*
Y478750D02*
D03*
Y454250D02*
D03*
Y423750D02*
D03*
X564000D02*
D03*
Y454250D02*
D03*
Y478750D02*
D03*
Y509250D02*
D03*
Y563750D02*
D03*
Y594250D02*
D03*
X494000Y649250D02*
D03*
Y618750D02*
D03*
Y594250D02*
D03*
Y563750D02*
D03*
X329000Y649250D02*
D03*
Y618750D02*
D03*
Y594250D02*
D03*
Y563750D02*
D03*
Y509250D02*
D03*
Y478750D02*
D03*
Y454250D02*
D03*
Y423750D02*
D03*
X623500Y785250D02*
D03*
Y815750D02*
D03*
X596000D02*
D03*
Y785250D02*
D03*
X568500Y815750D02*
D03*
Y785250D02*
D03*
X536000Y815750D02*
D03*
Y785250D02*
D03*
X508500Y815750D02*
D03*
Y785250D02*
D03*
X483500Y815750D02*
D03*
Y785250D02*
D03*
X458500Y815750D02*
D03*
Y785250D02*
D03*
X433500Y815750D02*
D03*
Y785250D02*
D03*
X396000Y815750D02*
D03*
Y785250D02*
D03*
X371000Y815750D02*
D03*
Y785250D02*
D03*
X346000Y815750D02*
D03*
Y785250D02*
D03*
X321000Y815750D02*
D03*
Y785250D02*
D03*
D18*
X613250Y704000D02*
D03*
X625950D02*
D03*
X600550D02*
D03*
X587850D02*
D03*
X575150D02*
D03*
X562450D02*
D03*
X549750D02*
D03*
X537050D02*
D03*
X515950D02*
D03*
X503250D02*
D03*
X490550D02*
D03*
X477850D02*
D03*
X465150D02*
D03*
X452450D02*
D03*
X439750D02*
D03*
X427050D02*
D03*
X403450D02*
D03*
X390750D02*
D03*
X378050D02*
D03*
X365350D02*
D03*
X352650D02*
D03*
X339950D02*
D03*
X327250D02*
D03*
X314550D02*
D03*
X365350Y759000D02*
D03*
X378050D02*
D03*
X390750D02*
D03*
X403450D02*
D03*
X427050D02*
D03*
X439750D02*
D03*
X452450D02*
D03*
X465150D02*
D03*
X477850D02*
D03*
X490550D02*
D03*
X503250D02*
D03*
X515950D02*
D03*
X537050D02*
D03*
X549750D02*
D03*
X562450D02*
D03*
X575150D02*
D03*
X587850D02*
D03*
X600550D02*
D03*
X613250D02*
D03*
X625950D02*
D03*
X352650D02*
D03*
X339950D02*
D03*
X327250D02*
D03*
X314550D02*
D03*
D19*
X294000Y417000D02*
D03*
Y437000D02*
D03*
Y457000D02*
D03*
Y477000D02*
D03*
Y497000D02*
D03*
Y517000D02*
D03*
Y557000D02*
D03*
Y577000D02*
D03*
Y597000D02*
D03*
Y617000D02*
D03*
Y637000D02*
D03*
Y657000D02*
D03*
X432000Y517000D02*
D03*
Y497000D02*
D03*
Y477000D02*
D03*
Y457000D02*
D03*
Y437000D02*
D03*
Y417000D02*
D03*
X460000D02*
D03*
Y437000D02*
D03*
Y457000D02*
D03*
Y477000D02*
D03*
Y497000D02*
D03*
Y517000D02*
D03*
Y557000D02*
D03*
Y577000D02*
D03*
Y597000D02*
D03*
Y617000D02*
D03*
Y637000D02*
D03*
Y657000D02*
D03*
X436000D02*
D03*
Y637000D02*
D03*
Y617000D02*
D03*
Y597000D02*
D03*
Y577000D02*
D03*
Y557000D02*
D03*
X599500Y441000D02*
D03*
Y421000D02*
D03*
Y461000D02*
D03*
Y481000D02*
D03*
Y501000D02*
D03*
Y521000D02*
D03*
X598500Y557000D02*
D03*
Y577000D02*
D03*
Y597000D02*
D03*
Y617000D02*
D03*
Y637000D02*
D03*
Y657000D02*
D03*
D20*
X392000Y396500D02*
D03*
X412000D02*
D03*
X372000D02*
D03*
X352000D02*
D03*
X332000D02*
D03*
X312000D02*
D03*
X392000Y537000D02*
D03*
X412000D02*
D03*
X372000D02*
D03*
X352000D02*
D03*
X332000D02*
D03*
X312000D02*
D03*
X392000Y677500D02*
D03*
X412000D02*
D03*
X372000D02*
D03*
X352000D02*
D03*
X332000D02*
D03*
X312000D02*
D03*
X479000Y537000D02*
D03*
X499000D02*
D03*
X519000D02*
D03*
X539000D02*
D03*
X559000D02*
D03*
X579000D02*
D03*
X499000Y396500D02*
D03*
X479000D02*
D03*
X519000D02*
D03*
X539000D02*
D03*
X559000D02*
D03*
X579000D02*
D03*
Y677500D02*
D03*
X559000D02*
D03*
X539000D02*
D03*
X519000D02*
D03*
X499000D02*
D03*
X479000D02*
D03*
D45*
X755600Y805000D02*
D03*
D46*
X755600Y322400D02*
D03*
X781000D02*
D03*
X806400D02*
D03*
X1187400D02*
D03*
X1212800D02*
D03*
X1238200D02*
D03*
Y805000D02*
D03*
X1212800D02*
D03*
X1187400D02*
D03*
X1162000D02*
D03*
X1136600D02*
D03*
X1111200D02*
D03*
X1085800D02*
D03*
X1060400D02*
D03*
X1035000D02*
D03*
X1009600D02*
D03*
X984200D02*
D03*
X958800D02*
D03*
X933400D02*
D03*
X908000D02*
D03*
X882600D02*
D03*
X857200D02*
D03*
X831800D02*
D03*
X806400D02*
D03*
X781000D02*
D03*
D47*
X370303Y310752D02*
D03*
X1314000Y799000D02*
D03*
D48*
X370303Y280752D02*
D03*
X400303D02*
D03*
X430303D02*
D03*
X460303D02*
D03*
Y310752D02*
D03*
X438903Y353952D02*
D03*
X430303Y310752D02*
D03*
X391903Y353952D02*
D03*
X400303Y310752D02*
D03*
X1284000Y799000D02*
D03*
X1357250D02*
D03*
D49*
X609500Y276100D02*
D03*
X1287000Y526000D02*
D03*
X1289200Y684000D02*
D03*
D50*
X634500Y276100D02*
D03*
X1262000Y451000D02*
D03*
X1287000D02*
D03*
Y476000D02*
D03*
Y501000D02*
D03*
X1262000Y526000D02*
D03*
Y501000D02*
D03*
Y476000D02*
D03*
X1289200Y659000D02*
D03*
X1264200Y684000D02*
D03*
Y659000D02*
D03*
D51*
X609500Y347900D02*
D03*
X634500D02*
D03*
X1358800Y451000D02*
D03*
Y526000D02*
D03*
D52*
X1361000Y595600D02*
D03*
X1362000Y721600D02*
D03*
D53*
X1361000Y621000D02*
D03*
X1362000Y747000D02*
D03*
D54*
X1361000Y659000D02*
D03*
Y684000D02*
D03*
D55*
X684000Y277000D02*
D03*
D56*
X709400Y277000D02*
D03*
D57*
X1037200Y280000D02*
D03*
D58*
X1062600Y280000D02*
D03*
X1088000D02*
D03*
X1113400D02*
D03*
X1138800D02*
D03*
D59*
X919200Y280000D02*
D03*
X970000D02*
D03*
D60*
X319000Y314000D02*
D03*
Y859000D02*
D03*
X1358000Y314000D02*
D03*
Y859000D02*
D03*
M02*
