M48
;Layer_Color=9474304
;FILE_FORMAT=2:5
INCH
T10F00S00C0.10000
%
G90
G05
T10
G00X0546278Y0095199
M15
G01X0547564Y0095780
G01X0548636Y0096697
G01X0549409Y0097877
G01X0549822Y0099226
G01X0549882Y0100000
G01X0549882Y0363780
G01X0549683Y0365176
G01X0549102Y0366462
G01X0548185Y0367533
G01X0547005Y0368307
G01X0545656Y0368719
G01X0544882Y0368780
G01X0100000Y0368780
G01X0098603Y0368581
G01X0097318Y0367999
G01X0096246Y0367082
G01X0095473Y0365902
G01X0095060Y0364553
G01X0095000Y0363780
G01X0095000Y0100000
G01X0095199Y0098603
G01X0095780Y0097318
G01X0096697Y0096246
G01X0097877Y0095473
G01X0099226Y0095060
G01X0100000Y0095000
G01X0544882Y0095000
G01X0546278Y0095199
M16
M17
M30
