G04*
G04 #@! TF.GenerationSoftware,Altium Limited,Altium Designer,19.1.7 (138)*
G04*
G04 Layer_Color=16711935*
%FSLAX44Y44*%
%MOMM*%
G71*
G01*
G75*
%ADD12C,0.0500*%
%ADD22R,1.6032X2.1032*%
%ADD23R,2.1032X1.6032*%
%ADD27R,1.8532X1.8532*%
%ADD28C,1.8532*%
%ADD29R,1.9032X2.2032*%
%ADD30O,1.9032X2.2032*%
%ADD31R,2.2032X1.9032*%
%ADD32O,2.2032X1.9032*%
%ADD33C,1.4032*%
%ADD34O,2.2032X1.4032*%
%ADD35R,2.2032X1.4032*%
%ADD36C,1.7032*%
%ADD37O,1.4032X2.2032*%
%ADD38R,1.4032X2.2032*%
%ADD39R,1.8032X2.2032*%
%ADD40O,1.8032X2.2032*%
%ADD41C,1.8542*%
%ADD42C,1.7272*%
%ADD43C,0.8032*%
%ADD75R,2.1532X1.8032*%
%ADD76R,1.7532X0.8032*%
%ADD77R,3.2032X2.2032*%
%ADD78R,9.2032X11.2032*%
%ADD79R,1.6032X0.8032*%
%ADD80R,1.1032X1.0032*%
%ADD81R,1.8832X2.9032*%
%ADD82R,0.8032X1.7532*%
%ADD83R,2.0032X1.6032*%
%ADD84R,1.8032X2.1532*%
%ADD85R,1.7232X0.8032*%
%ADD86R,2.2032X0.6532*%
%ADD87R,0.6532X2.2032*%
D12*
X738400Y790000D02*
Y821000D01*
X1258150D01*
Y790000D01*
X738400D01*
D22*
X386750Y489000D02*
D03*
Y516500D02*
D03*
Y541500D02*
D03*
Y569000D02*
D03*
Y596500D02*
D03*
Y624000D02*
D03*
Y649000D02*
D03*
X356250D02*
D03*
Y624000D02*
D03*
Y596500D02*
D03*
Y569000D02*
D03*
Y541500D02*
D03*
Y516500D02*
D03*
Y489000D02*
D03*
X613750Y484000D02*
D03*
X644250D02*
D03*
Y509000D02*
D03*
Y534000D02*
D03*
Y564000D02*
D03*
Y589000D02*
D03*
X644250Y616500D02*
D03*
Y643000D02*
D03*
X613750D02*
D03*
Y616500D02*
D03*
X613750Y589000D02*
D03*
Y564000D02*
D03*
Y534000D02*
D03*
Y509000D02*
D03*
D23*
X614000Y728750D02*
D03*
Y759250D02*
D03*
X586500Y759000D02*
D03*
Y728500D02*
D03*
X561500Y759250D02*
D03*
Y728750D02*
D03*
X531500Y759250D02*
D03*
Y728750D02*
D03*
X504000Y759250D02*
D03*
Y728750D02*
D03*
X476500Y759250D02*
D03*
Y728750D02*
D03*
X451500Y759250D02*
D03*
Y728750D02*
D03*
X426500Y759250D02*
D03*
Y728750D02*
D03*
X389000Y759250D02*
D03*
Y728750D02*
D03*
X361500Y759250D02*
D03*
Y728750D02*
D03*
X334000Y759250D02*
D03*
X306500D02*
D03*
Y728750D02*
D03*
X334000D02*
D03*
X754000Y299250D02*
D03*
X780000D02*
D03*
Y268750D02*
D03*
X754000D02*
D03*
X806500D02*
D03*
X833000D02*
D03*
Y299250D02*
D03*
X806500D02*
D03*
X1170000Y366750D02*
D03*
Y397250D02*
D03*
X1199000Y366750D02*
D03*
X1229000D02*
D03*
X1258000D02*
D03*
X1287000D02*
D03*
X1317000D02*
D03*
X1346000D02*
D03*
Y397250D02*
D03*
X1317000D02*
D03*
X1287000D02*
D03*
X1258000D02*
D03*
X1229000D02*
D03*
X1199000D02*
D03*
X1186500Y299250D02*
D03*
Y268750D02*
D03*
X1214000D02*
D03*
X1239000D02*
D03*
Y299250D02*
D03*
X1214000D02*
D03*
X834000Y694250D02*
D03*
Y663750D02*
D03*
X784000Y694250D02*
D03*
Y663750D02*
D03*
D27*
X755600Y805000D02*
D03*
D28*
X755600Y322400D02*
D03*
X781000D02*
D03*
X806400D02*
D03*
X1187400D02*
D03*
X1212800D02*
D03*
X1238200D02*
D03*
Y805000D02*
D03*
X1212800D02*
D03*
X1187400D02*
D03*
X1162000D02*
D03*
X1136600D02*
D03*
X1111200D02*
D03*
X1085800D02*
D03*
X1060400D02*
D03*
X1035000D02*
D03*
X1009600D02*
D03*
X984200D02*
D03*
X958800D02*
D03*
X933400D02*
D03*
X908000D02*
D03*
X882600D02*
D03*
X857200D02*
D03*
X831800D02*
D03*
X806400D02*
D03*
X781000D02*
D03*
D29*
X370303Y310752D02*
D03*
X1314000Y799000D02*
D03*
D30*
X370303Y280752D02*
D03*
X400303D02*
D03*
X430303D02*
D03*
X460303D02*
D03*
Y310752D02*
D03*
X438903Y353952D02*
D03*
X430303Y310752D02*
D03*
X391903Y353952D02*
D03*
X400303Y310752D02*
D03*
X1284000Y799000D02*
D03*
X1357250D02*
D03*
D31*
X609500Y276100D02*
D03*
X1287000Y526000D02*
D03*
X1289200Y684000D02*
D03*
D32*
X634500Y276100D02*
D03*
X1262000Y451000D02*
D03*
X1287000D02*
D03*
Y476000D02*
D03*
Y501000D02*
D03*
X1262000Y526000D02*
D03*
Y501000D02*
D03*
Y476000D02*
D03*
X1289200Y659000D02*
D03*
X1264200Y684000D02*
D03*
Y659000D02*
D03*
D33*
X609500Y347900D02*
D03*
X634500D02*
D03*
X1358800Y451000D02*
D03*
Y526000D02*
D03*
D34*
X1361000Y595600D02*
D03*
X1362000Y721600D02*
D03*
D35*
X1361000Y621000D02*
D03*
X1362000Y747000D02*
D03*
D36*
X1361000Y659000D02*
D03*
Y684000D02*
D03*
D37*
X684000Y277000D02*
D03*
D38*
X709400Y277000D02*
D03*
D39*
X1037200Y280000D02*
D03*
D40*
X1062600Y280000D02*
D03*
X1088000D02*
D03*
X1113400D02*
D03*
X1138800D02*
D03*
D41*
X919200Y280000D02*
D03*
X970000D02*
D03*
D42*
X319000Y314000D02*
D03*
Y859000D02*
D03*
X1358000Y314000D02*
D03*
Y859000D02*
D03*
D43*
X472599Y341750D02*
D03*
X489599Y367750D02*
D03*
X516000Y342000D02*
D03*
X525000Y313457D02*
D03*
X549000Y284957D02*
D03*
X580099Y278750D02*
D03*
X580599Y299750D02*
D03*
X549000Y322957D02*
D03*
X549000Y358957D02*
D03*
X523000Y276000D02*
D03*
X546500Y454000D02*
D03*
Y469000D02*
D03*
Y521500D02*
D03*
X544000Y559000D02*
D03*
X571500Y609000D02*
D03*
X556500Y634000D02*
D03*
X536500Y619000D02*
D03*
X666500Y644000D02*
D03*
X684000Y626500D02*
D03*
X701500Y664000D02*
D03*
X727750Y626500D02*
D03*
X799000Y646500D02*
D03*
X817000Y632000D02*
D03*
X831500Y604000D02*
D03*
X844000D02*
D03*
X855000Y603000D02*
D03*
X869000Y604000D02*
D03*
X879625Y604625D02*
D03*
X879760Y638510D02*
D03*
X906500Y659000D02*
D03*
X944000D02*
D03*
X974000D02*
D03*
X924000Y592000D02*
D03*
Y581000D02*
D03*
X952000Y552000D02*
D03*
X979000Y605000D02*
D03*
X1036000Y511000D02*
D03*
X1112000Y519000D02*
D03*
X1126000Y514000D02*
D03*
X1139000Y528000D02*
D03*
X1167500Y476500D02*
D03*
X1181000Y484000D02*
D03*
X1214000Y493000D02*
D03*
X1206500Y501500D02*
D03*
X1219000Y529000D02*
D03*
X1194000D02*
D03*
Y513000D02*
D03*
X1279798Y544809D02*
D03*
X1314000Y721500D02*
D03*
X1176500Y839000D02*
D03*
X1106500Y829000D02*
D03*
X1084000Y839000D02*
D03*
X1073500Y829500D02*
D03*
X1067250Y871250D02*
D03*
X1012250D02*
D03*
X957250D02*
D03*
X901500Y861500D02*
D03*
X844000Y914000D02*
D03*
X770250Y772375D02*
D03*
X806500Y774000D02*
D03*
Y719000D02*
D03*
X698000Y786000D02*
D03*
X716000Y805000D02*
D03*
X683000Y729000D02*
D03*
X644000Y764000D02*
D03*
X613000Y725000D02*
D03*
X644000Y724000D02*
D03*
X684000Y686500D02*
D03*
X714000Y672000D02*
D03*
X588000Y725000D02*
D03*
X562000D02*
D03*
X537000D02*
D03*
X503000D02*
D03*
X478000D02*
D03*
X453000D02*
D03*
X427000D02*
D03*
X391000D02*
D03*
X365000Y726000D02*
D03*
X339950Y725950D02*
D03*
X311500Y726500D02*
D03*
X382000Y802000D02*
D03*
X461500Y879000D02*
D03*
X421500Y896500D02*
D03*
X391500Y914000D02*
D03*
X409000Y879000D02*
D03*
X539000Y846500D02*
D03*
X651500Y849000D02*
D03*
Y861500D02*
D03*
Y871500D02*
D03*
Y881500D02*
D03*
Y891500D02*
D03*
X919000Y709000D02*
D03*
X931500Y711500D02*
D03*
X714000Y489000D02*
D03*
X701500Y479000D02*
D03*
X752206Y413567D02*
D03*
X739000Y400000D02*
D03*
X799000Y461500D02*
D03*
X869000Y444000D02*
D03*
X879000Y424000D02*
D03*
X894652Y421341D02*
D03*
X908298Y419926D02*
D03*
X919000Y434000D02*
D03*
X921117Y422000D02*
D03*
X1314000Y346500D02*
D03*
X1317250Y873750D02*
D03*
X1287250D02*
D03*
X414000Y694000D02*
D03*
X329000Y633999D02*
D03*
X309000Y600454D02*
D03*
X311500Y579000D02*
D03*
X309000Y501500D02*
D03*
Y481500D02*
D03*
Y454000D02*
D03*
X341000Y525750D02*
D03*
D75*
X809000Y665750D02*
D03*
Y692250D02*
D03*
X879000Y638750D02*
D03*
Y665250D02*
D03*
X984000Y753250D02*
D03*
Y779750D02*
D03*
X956500D02*
D03*
Y753250D02*
D03*
X1035000Y753500D02*
D03*
Y780000D02*
D03*
X1060250Y779750D02*
D03*
Y753250D02*
D03*
X1129000Y753250D02*
D03*
Y779750D02*
D03*
X1156500D02*
D03*
Y753250D02*
D03*
X1184000D02*
D03*
Y779750D02*
D03*
X1211500D02*
D03*
Y753250D02*
D03*
X1239000D02*
D03*
Y779750D02*
D03*
Y613250D02*
D03*
Y586750D02*
D03*
X970000Y347250D02*
D03*
Y320750D02*
D03*
X919000Y346250D02*
D03*
Y319750D02*
D03*
D76*
X476000Y514550D02*
D03*
Y527250D02*
D03*
Y539950D02*
D03*
Y552650D02*
D03*
Y565350D02*
D03*
Y578050D02*
D03*
Y590750D02*
D03*
Y603450D02*
D03*
X422000D02*
D03*
Y590750D02*
D03*
Y578050D02*
D03*
Y565350D02*
D03*
Y552650D02*
D03*
Y539950D02*
D03*
Y527250D02*
D03*
Y514550D02*
D03*
X684500D02*
D03*
Y527250D02*
D03*
Y539950D02*
D03*
Y552650D02*
D03*
Y565350D02*
D03*
Y578050D02*
D03*
Y590750D02*
D03*
Y603450D02*
D03*
X738500Y552650D02*
D03*
Y539950D02*
D03*
Y527250D02*
D03*
Y514550D02*
D03*
Y565350D02*
D03*
Y578050D02*
D03*
Y590750D02*
D03*
Y603450D02*
D03*
X558500Y795900D02*
D03*
Y808600D02*
D03*
Y821300D02*
D03*
Y834000D02*
D03*
Y846700D02*
D03*
Y859400D02*
D03*
Y872100D02*
D03*
X504500D02*
D03*
Y859400D02*
D03*
Y846700D02*
D03*
Y834000D02*
D03*
Y821300D02*
D03*
Y808600D02*
D03*
Y795900D02*
D03*
X436000Y872100D02*
D03*
Y859400D02*
D03*
Y846700D02*
D03*
Y834000D02*
D03*
Y821300D02*
D03*
Y808600D02*
D03*
Y795900D02*
D03*
X382000Y846700D02*
D03*
Y859400D02*
D03*
Y834000D02*
D03*
Y821300D02*
D03*
Y808600D02*
D03*
Y795900D02*
D03*
Y872100D02*
D03*
D77*
X1111500Y631100D02*
D03*
Y659000D02*
D03*
Y686900D02*
D03*
D78*
X1042000Y659000D02*
D03*
D79*
X525000Y275457D02*
D03*
X549000Y265957D02*
D03*
Y284957D02*
D03*
Y303957D02*
D03*
Y322957D02*
D03*
X525000Y313457D02*
D03*
X549000Y376957D02*
D03*
Y395957D02*
D03*
X525000Y386457D02*
D03*
D80*
X529000Y349457D02*
D03*
X549000Y339957D02*
D03*
Y358957D02*
D03*
D81*
X1279000Y585000D02*
D03*
Y617500D02*
D03*
X1280000Y724500D02*
D03*
Y757000D02*
D03*
D82*
X905950Y639000D02*
D03*
X918650D02*
D03*
X931350D02*
D03*
X944050D02*
D03*
Y693000D02*
D03*
X931350D02*
D03*
X918650D02*
D03*
X905950D02*
D03*
D83*
X1312000Y596000D02*
D03*
Y622000D02*
D03*
X1315000Y722000D02*
D03*
Y748000D02*
D03*
D84*
X1145500Y631250D02*
D03*
X1172000D02*
D03*
X1172250Y659000D02*
D03*
X1145750D02*
D03*
D85*
X329000Y452050D02*
D03*
Y464750D02*
D03*
Y477450D02*
D03*
Y490150D02*
D03*
Y502850D02*
D03*
Y515550D02*
D03*
Y528250D02*
D03*
Y540950D02*
D03*
Y559550D02*
D03*
Y572250D02*
D03*
Y584950D02*
D03*
Y597650D02*
D03*
Y610350D02*
D03*
Y623050D02*
D03*
Y635750D02*
D03*
Y648450D02*
D03*
X274000D02*
D03*
Y635750D02*
D03*
Y623050D02*
D03*
Y610350D02*
D03*
Y597650D02*
D03*
Y584950D02*
D03*
Y572250D02*
D03*
Y559550D02*
D03*
Y540950D02*
D03*
Y528250D02*
D03*
Y515550D02*
D03*
Y502850D02*
D03*
Y490150D02*
D03*
Y477450D02*
D03*
Y464750D02*
D03*
Y452050D02*
D03*
X519000Y450500D02*
D03*
Y463200D02*
D03*
Y475900D02*
D03*
Y488600D02*
D03*
Y501300D02*
D03*
Y514000D02*
D03*
Y526700D02*
D03*
Y539400D02*
D03*
X519000Y558600D02*
D03*
Y571300D02*
D03*
Y584000D02*
D03*
Y596700D02*
D03*
Y609400D02*
D03*
Y622100D02*
D03*
Y634800D02*
D03*
Y647500D02*
D03*
X574000Y609400D02*
D03*
Y596700D02*
D03*
Y584000D02*
D03*
Y571300D02*
D03*
Y558600D02*
D03*
X574000Y539400D02*
D03*
Y526700D02*
D03*
Y514000D02*
D03*
Y501300D02*
D03*
Y488600D02*
D03*
Y475900D02*
D03*
Y463200D02*
D03*
Y450500D02*
D03*
X574000Y622100D02*
D03*
Y634800D02*
D03*
Y647500D02*
D03*
D86*
X816000Y478000D02*
D03*
Y486000D02*
D03*
Y494000D02*
D03*
Y502000D02*
D03*
Y510000D02*
D03*
Y518000D02*
D03*
Y526000D02*
D03*
Y534000D02*
D03*
Y542000D02*
D03*
Y550000D02*
D03*
Y558000D02*
D03*
X926000Y494000D02*
D03*
Y486000D02*
D03*
Y478000D02*
D03*
Y502000D02*
D03*
Y510000D02*
D03*
Y518000D02*
D03*
Y526000D02*
D03*
Y534000D02*
D03*
Y542000D02*
D03*
Y550000D02*
D03*
Y558000D02*
D03*
D87*
X831000Y463000D02*
D03*
X839000D02*
D03*
X847000D02*
D03*
X855000D02*
D03*
X863000D02*
D03*
X871000D02*
D03*
X879000D02*
D03*
X887000D02*
D03*
X895000D02*
D03*
X903000D02*
D03*
X911000D02*
D03*
Y573000D02*
D03*
X903000D02*
D03*
X895000D02*
D03*
X887000D02*
D03*
X879000D02*
D03*
X871000D02*
D03*
X863000D02*
D03*
X855000D02*
D03*
X847000D02*
D03*
X839000D02*
D03*
X831000D02*
D03*
M02*
