G04*
G04 #@! TF.GenerationSoftware,Altium Limited,Altium Designer,19.1.7 (138)*
G04*
G04 Layer_Color=128*
%FSLAX44Y44*%
%MOMM*%
G71*
G01*
G75*
%ADD12C,0.0500*%
%ADD16R,1.4000X1.9000*%
%ADD17R,1.9000X1.4000*%
%ADD62R,1.9500X1.6000*%
%ADD63R,1.5500X0.6000*%
%ADD64R,3.0000X2.0000*%
%ADD65R,9.0000X11.0000*%
%ADD66R,1.4000X0.6000*%
%ADD67R,0.9000X0.8000*%
%ADD68R,1.6800X2.7000*%
%ADD69R,0.6000X1.5500*%
%ADD70R,1.8000X1.4000*%
%ADD71R,1.6000X1.9500*%
%ADD72R,1.5200X0.6000*%
%ADD73R,2.0000X0.4500*%
%ADD74R,0.4500X2.0000*%
D12*
X738400Y790000D02*
Y821000D01*
X1258150D01*
Y790000D01*
X738400D01*
D16*
X386750Y489000D02*
D03*
Y516500D02*
D03*
Y541500D02*
D03*
Y569000D02*
D03*
Y596500D02*
D03*
Y624000D02*
D03*
Y649000D02*
D03*
X356250D02*
D03*
Y624000D02*
D03*
Y596500D02*
D03*
Y569000D02*
D03*
Y541500D02*
D03*
Y516500D02*
D03*
Y489000D02*
D03*
X613750Y484000D02*
D03*
X644250D02*
D03*
Y509000D02*
D03*
Y534000D02*
D03*
Y564000D02*
D03*
Y589000D02*
D03*
X644250Y616500D02*
D03*
Y643000D02*
D03*
X613750D02*
D03*
Y616500D02*
D03*
X613750Y589000D02*
D03*
Y564000D02*
D03*
Y534000D02*
D03*
Y509000D02*
D03*
D17*
X614000Y728750D02*
D03*
Y759250D02*
D03*
X586500Y759000D02*
D03*
Y728500D02*
D03*
X561500Y759250D02*
D03*
Y728750D02*
D03*
X531500Y759250D02*
D03*
Y728750D02*
D03*
X504000Y759250D02*
D03*
Y728750D02*
D03*
X476500Y759250D02*
D03*
Y728750D02*
D03*
X451500Y759250D02*
D03*
Y728750D02*
D03*
X426500Y759250D02*
D03*
Y728750D02*
D03*
X389000Y759250D02*
D03*
Y728750D02*
D03*
X361500Y759250D02*
D03*
Y728750D02*
D03*
X334000Y759250D02*
D03*
X306500D02*
D03*
Y728750D02*
D03*
X334000D02*
D03*
X754000Y299250D02*
D03*
X780000D02*
D03*
Y268750D02*
D03*
X754000D02*
D03*
X806500D02*
D03*
X833000D02*
D03*
Y299250D02*
D03*
X806500D02*
D03*
X1170000Y366750D02*
D03*
Y397250D02*
D03*
X1199000Y366750D02*
D03*
X1229000D02*
D03*
X1258000D02*
D03*
X1287000D02*
D03*
X1317000D02*
D03*
X1346000D02*
D03*
Y397250D02*
D03*
X1317000D02*
D03*
X1287000D02*
D03*
X1258000D02*
D03*
X1229000D02*
D03*
X1199000D02*
D03*
X1186500Y299250D02*
D03*
Y268750D02*
D03*
X1214000D02*
D03*
X1239000D02*
D03*
Y299250D02*
D03*
X1214000D02*
D03*
X834000Y694250D02*
D03*
Y663750D02*
D03*
X784000Y694250D02*
D03*
Y663750D02*
D03*
D62*
X809000Y665750D02*
D03*
Y692250D02*
D03*
X879000Y638750D02*
D03*
Y665250D02*
D03*
X984000Y753250D02*
D03*
Y779750D02*
D03*
X956500D02*
D03*
Y753250D02*
D03*
X1035000Y753500D02*
D03*
Y780000D02*
D03*
X1060250Y779750D02*
D03*
Y753250D02*
D03*
X1129000Y753250D02*
D03*
Y779750D02*
D03*
X1156500D02*
D03*
Y753250D02*
D03*
X1184000D02*
D03*
Y779750D02*
D03*
X1211500D02*
D03*
Y753250D02*
D03*
X1239000D02*
D03*
Y779750D02*
D03*
Y613250D02*
D03*
Y586750D02*
D03*
X970000Y347250D02*
D03*
Y320750D02*
D03*
X919000Y346250D02*
D03*
Y319750D02*
D03*
D63*
X476000Y514550D02*
D03*
Y527250D02*
D03*
Y539950D02*
D03*
Y552650D02*
D03*
Y565350D02*
D03*
Y578050D02*
D03*
Y590750D02*
D03*
Y603450D02*
D03*
X422000D02*
D03*
Y590750D02*
D03*
Y578050D02*
D03*
Y565350D02*
D03*
Y552650D02*
D03*
Y539950D02*
D03*
Y527250D02*
D03*
Y514550D02*
D03*
X684500D02*
D03*
Y527250D02*
D03*
Y539950D02*
D03*
Y552650D02*
D03*
Y565350D02*
D03*
Y578050D02*
D03*
Y590750D02*
D03*
Y603450D02*
D03*
X738500Y552650D02*
D03*
Y539950D02*
D03*
Y527250D02*
D03*
Y514550D02*
D03*
Y565350D02*
D03*
Y578050D02*
D03*
Y590750D02*
D03*
Y603450D02*
D03*
X558500Y795900D02*
D03*
Y808600D02*
D03*
Y821300D02*
D03*
Y834000D02*
D03*
Y846700D02*
D03*
Y859400D02*
D03*
Y872100D02*
D03*
X504500D02*
D03*
Y859400D02*
D03*
Y846700D02*
D03*
Y834000D02*
D03*
Y821300D02*
D03*
Y808600D02*
D03*
Y795900D02*
D03*
X436000Y872100D02*
D03*
Y859400D02*
D03*
Y846700D02*
D03*
Y834000D02*
D03*
Y821300D02*
D03*
Y808600D02*
D03*
Y795900D02*
D03*
X382000Y846700D02*
D03*
Y859400D02*
D03*
Y834000D02*
D03*
Y821300D02*
D03*
Y808600D02*
D03*
Y795900D02*
D03*
Y872100D02*
D03*
D64*
X1111500Y631100D02*
D03*
Y659000D02*
D03*
Y686900D02*
D03*
D65*
X1042000Y659000D02*
D03*
D66*
X525000Y275457D02*
D03*
X549000Y265957D02*
D03*
Y284957D02*
D03*
Y303957D02*
D03*
Y322957D02*
D03*
X525000Y313457D02*
D03*
X549000Y376957D02*
D03*
Y395957D02*
D03*
X525000Y386457D02*
D03*
D67*
X529000Y349457D02*
D03*
X549000Y339957D02*
D03*
Y358957D02*
D03*
D68*
X1279000Y585000D02*
D03*
Y617500D02*
D03*
X1280000Y724500D02*
D03*
Y757000D02*
D03*
D69*
X905950Y639000D02*
D03*
X918650D02*
D03*
X931350D02*
D03*
X944050D02*
D03*
Y693000D02*
D03*
X931350D02*
D03*
X918650D02*
D03*
X905950D02*
D03*
D70*
X1312000Y596000D02*
D03*
Y622000D02*
D03*
X1315000Y722000D02*
D03*
Y748000D02*
D03*
D71*
X1145500Y631250D02*
D03*
X1172000D02*
D03*
X1172250Y659000D02*
D03*
X1145750D02*
D03*
D72*
X329000Y452050D02*
D03*
Y464750D02*
D03*
Y477450D02*
D03*
Y490150D02*
D03*
Y502850D02*
D03*
Y515550D02*
D03*
Y528250D02*
D03*
Y540950D02*
D03*
Y559550D02*
D03*
Y572250D02*
D03*
Y584950D02*
D03*
Y597650D02*
D03*
Y610350D02*
D03*
Y623050D02*
D03*
Y635750D02*
D03*
Y648450D02*
D03*
X274000D02*
D03*
Y635750D02*
D03*
Y623050D02*
D03*
Y610350D02*
D03*
Y597650D02*
D03*
Y584950D02*
D03*
Y572250D02*
D03*
Y559550D02*
D03*
Y540950D02*
D03*
Y528250D02*
D03*
Y515550D02*
D03*
Y502850D02*
D03*
Y490150D02*
D03*
Y477450D02*
D03*
Y464750D02*
D03*
Y452050D02*
D03*
X519000Y450500D02*
D03*
Y463200D02*
D03*
Y475900D02*
D03*
Y488600D02*
D03*
Y501300D02*
D03*
Y514000D02*
D03*
Y526700D02*
D03*
Y539400D02*
D03*
X519000Y558600D02*
D03*
Y571300D02*
D03*
Y584000D02*
D03*
Y596700D02*
D03*
Y609400D02*
D03*
Y622100D02*
D03*
Y634800D02*
D03*
Y647500D02*
D03*
X574000Y609400D02*
D03*
Y596700D02*
D03*
Y584000D02*
D03*
Y571300D02*
D03*
Y558600D02*
D03*
X574000Y539400D02*
D03*
Y526700D02*
D03*
Y514000D02*
D03*
Y501300D02*
D03*
Y488600D02*
D03*
Y475900D02*
D03*
Y463200D02*
D03*
Y450500D02*
D03*
X574000Y622100D02*
D03*
Y634800D02*
D03*
Y647500D02*
D03*
D73*
X816000Y478000D02*
D03*
Y486000D02*
D03*
Y494000D02*
D03*
Y502000D02*
D03*
Y510000D02*
D03*
Y518000D02*
D03*
Y526000D02*
D03*
Y534000D02*
D03*
Y542000D02*
D03*
Y550000D02*
D03*
Y558000D02*
D03*
X926000Y494000D02*
D03*
Y486000D02*
D03*
Y478000D02*
D03*
Y502000D02*
D03*
Y510000D02*
D03*
Y518000D02*
D03*
Y526000D02*
D03*
Y534000D02*
D03*
Y542000D02*
D03*
Y550000D02*
D03*
Y558000D02*
D03*
D74*
X831000Y463000D02*
D03*
X839000D02*
D03*
X847000D02*
D03*
X855000D02*
D03*
X863000D02*
D03*
X871000D02*
D03*
X879000D02*
D03*
X887000D02*
D03*
X895000D02*
D03*
X903000D02*
D03*
X911000D02*
D03*
Y573000D02*
D03*
X903000D02*
D03*
X895000D02*
D03*
X887000D02*
D03*
X879000D02*
D03*
X871000D02*
D03*
X863000D02*
D03*
X855000D02*
D03*
X847000D02*
D03*
X839000D02*
D03*
X831000D02*
D03*
M02*
