G04*
G04 #@! TF.GenerationSoftware,Altium Limited,Altium Designer,19.1.7 (138)*
G04*
G04 Layer_Color=16711935*
%FSLAX44Y44*%
%MOMM*%
G71*
G01*
G75*
%ADD10C,0.1000*%
%ADD12C,0.0500*%
%ADD13C,0.2000*%
%ADD14C,0.2540*%
%ADD44C,0.5000*%
%ADD90C,0.4000*%
%ADD91R,2.7900X0.6052*%
%ADD92R,1.8000X0.4573*%
%ADD93R,1.8000X0.4573*%
G36*
X770121Y343711D02*
X770172Y343696D01*
X770228Y343666D01*
X770260Y343614D01*
X770296Y343547D01*
X770707Y342212D01*
X772098Y342641D01*
X772164Y342630D01*
X772215Y342614D01*
X772234Y342605D01*
X772257Y342580D01*
X772284Y342542D01*
X772325Y342462D01*
X772491Y341922D01*
X772495Y341908D01*
X772499Y341893D01*
X772497Y341799D01*
X772482Y341748D01*
X772448Y341707D01*
X772400Y341661D01*
X772333Y341625D01*
X771012Y341218D01*
X771423Y339883D01*
X771428Y339869D01*
X771436Y339841D01*
X771430Y339761D01*
X771419Y339695D01*
X771385Y339654D01*
X771337Y339608D01*
X771270Y339572D01*
X770660Y339384D01*
X770566Y339386D01*
X770514Y339402D01*
X770473Y339435D01*
X770427Y339483D01*
X770387Y339564D01*
X769976Y340899D01*
X768627Y340484D01*
X768533Y340486D01*
X768481Y340502D01*
X768440Y340536D01*
X768394Y340583D01*
X768358Y340650D01*
X768192Y341190D01*
X768187Y341204D01*
X768170Y341261D01*
X768167Y341322D01*
X768182Y341373D01*
X768192Y341392D01*
X768216Y341415D01*
X768268Y341447D01*
X768349Y341487D01*
X769670Y341893D01*
X769259Y343228D01*
X769255Y343243D01*
X769246Y343271D01*
X769253Y343351D01*
X769268Y343402D01*
X769297Y343458D01*
X769350Y343489D01*
X769417Y343526D01*
X770041Y343718D01*
X770121Y343711D01*
D02*
G37*
G36*
X765916Y343583D02*
X765968Y343568D01*
X766005Y343549D01*
X766036Y343496D01*
X766072Y343429D01*
X767864Y337607D01*
X767868Y337592D01*
X767882Y337550D01*
X767885Y337489D01*
X767869Y337437D01*
X767855Y337433D01*
X767846Y337414D01*
X767807Y337387D01*
X767741Y337351D01*
X766874Y337084D01*
X766795Y337091D01*
X766692Y337122D01*
X766665Y337160D01*
X766628Y337226D01*
X765178Y341941D01*
X764407Y341113D01*
X764392Y341109D01*
X764382Y341090D01*
X764269Y341055D01*
X764218Y341071D01*
X764190Y341109D01*
X764158Y341161D01*
X763914Y341957D01*
X763909Y341971D01*
X763905Y341985D01*
X763897Y342061D01*
X763914Y342159D01*
X763977Y342256D01*
X764701Y343085D01*
X764716Y343090D01*
X764735Y343127D01*
X764807Y343196D01*
X764908Y343273D01*
X765027Y343341D01*
X765836Y343590D01*
X765916Y343583D01*
D02*
G37*
G36*
X761485Y342220D02*
X761551Y342209D01*
X761602Y342194D01*
X761662Y342150D01*
X761712Y342088D01*
X765038Y336737D01*
X765042Y336723D01*
X765047Y336709D01*
X765069Y336638D01*
X765082Y336595D01*
X765062Y336558D01*
X765024Y336530D01*
X764971Y336499D01*
X763991Y336197D01*
X763930Y336194D01*
X763879Y336209D01*
X763874Y336223D01*
X763851Y336248D01*
X763824Y336286D01*
X763774Y336348D01*
X763176Y337330D01*
X761288Y336749D01*
X761345Y335601D01*
X761350Y335587D01*
X761349Y335540D01*
X761352Y335479D01*
X761322Y335423D01*
X761308Y335418D01*
X761298Y335400D01*
X761260Y335373D01*
X761208Y335341D01*
X760242Y335044D01*
X760191Y335059D01*
X760131Y335103D01*
X760103Y335141D01*
X760096Y335216D01*
X759838Y341511D01*
X759833Y341525D01*
X759843Y341544D01*
X759860Y341642D01*
X759937Y341744D01*
X759990Y341775D01*
X760056Y341811D01*
X761391Y342222D01*
X761485Y342220D01*
D02*
G37*
G36*
X793669Y345187D02*
X793720Y345172D01*
X793776Y345143D01*
X793808Y345090D01*
X793844Y345024D01*
X794255Y343689D01*
X795647Y344117D01*
X795712Y344106D01*
X795763Y344091D01*
X795782Y344081D01*
X795805Y344057D01*
X795832Y344019D01*
X795873Y343938D01*
X796039Y343398D01*
X796043Y343384D01*
X796047Y343370D01*
X796045Y343276D01*
X796030Y343224D01*
X795996Y343183D01*
X795948Y343137D01*
X795881Y343101D01*
X794561Y342695D01*
X794971Y341360D01*
X794976Y341345D01*
X794984Y341317D01*
X794978Y341237D01*
X794967Y341172D01*
X794933Y341130D01*
X794885Y341084D01*
X794818Y341048D01*
X794208Y340860D01*
X794114Y340863D01*
X794062Y340878D01*
X794021Y340912D01*
X793975Y340960D01*
X793935Y341041D01*
X793524Y342376D01*
X792175Y341960D01*
X792081Y341963D01*
X792029Y341978D01*
X791988Y342012D01*
X791942Y342060D01*
X791906Y342127D01*
X791740Y342666D01*
X791736Y342680D01*
X791718Y342737D01*
X791715Y342798D01*
X791730Y342850D01*
X791740Y342868D01*
X791764Y342891D01*
X791816Y342923D01*
X791897Y342963D01*
X793218Y343370D01*
X792807Y344705D01*
X792803Y344719D01*
X792794Y344747D01*
X792801Y344827D01*
X792816Y344878D01*
X792845Y344934D01*
X792898Y344966D01*
X792964Y345002D01*
X793589Y345194D01*
X793669Y345187D01*
D02*
G37*
G36*
X789025Y344769D02*
X789240Y344726D01*
X789454Y344637D01*
X789473Y344627D01*
X789547Y344588D01*
X789649Y344510D01*
X789759Y344404D01*
X789897Y344260D01*
X790015Y344079D01*
X790142Y343869D01*
X790239Y343604D01*
X790357Y343220D01*
X790361Y343206D01*
X790366Y343192D01*
X790379Y343149D01*
X790382Y343088D01*
X790411Y342942D01*
X790421Y342758D01*
X790411Y342537D01*
X790378Y342294D01*
X790297Y342051D01*
X790159Y341791D01*
X788822Y339670D01*
X788812Y339651D01*
X788787Y339581D01*
X788766Y339497D01*
X788778Y339407D01*
X788826Y339251D01*
X791170Y339972D01*
X791249Y339966D01*
X791338Y339931D01*
X791365Y339892D01*
X791401Y339826D01*
X791611Y339144D01*
X791615Y339130D01*
X791620Y339116D01*
X791613Y339036D01*
X791578Y338947D01*
X791540Y338920D01*
X791473Y338884D01*
X787951Y337800D01*
X787871Y337807D01*
X787783Y337842D01*
X787756Y337880D01*
X787720Y337947D01*
X787436Y338870D01*
X787427Y338898D01*
X787419Y338974D01*
X787403Y339077D01*
X787392Y339214D01*
X787405Y339374D01*
X787442Y339556D01*
X787508Y339747D01*
X787616Y339951D01*
X788938Y342022D01*
X788948Y342040D01*
X788991Y342100D01*
X789040Y342193D01*
X789081Y342314D01*
X789131Y342454D01*
X789148Y342599D01*
X789162Y342759D01*
X789128Y342920D01*
X789036Y343218D01*
X789032Y343232D01*
X789023Y343260D01*
X789005Y343317D01*
X788969Y343384D01*
X788883Y343513D01*
X788823Y343557D01*
X788763Y343600D01*
X788730Y343606D01*
X788693Y343625D01*
X788642Y343641D01*
X788566Y343633D01*
X788486Y343639D01*
X788383Y343623D01*
X787829Y343453D01*
X787762Y343417D01*
X787633Y343330D01*
X787571Y343280D01*
X787527Y343220D01*
X787522Y343187D01*
X787501Y343103D01*
X787504Y343042D01*
X787498Y342962D01*
X787514Y342858D01*
X787545Y342759D01*
X787641Y342447D01*
X787645Y342432D01*
X787650Y342418D01*
X787643Y342338D01*
X787628Y342287D01*
X787613Y342236D01*
X787560Y342204D01*
X787494Y342168D01*
X786641Y341906D01*
X786562Y341912D01*
X786510Y341928D01*
X786473Y341947D01*
X786441Y342000D01*
X786405Y342066D01*
X786305Y342393D01*
X786301Y342407D01*
X786296Y342421D01*
X786283Y342464D01*
X786265Y342521D01*
X786255Y342657D01*
X786231Y342837D01*
X786216Y343034D01*
X786226Y343255D01*
X786269Y343470D01*
X786358Y343684D01*
X786368Y343703D01*
X786422Y343782D01*
X786489Y343865D01*
X786605Y343993D01*
X786754Y344117D01*
X786931Y344249D01*
X787159Y344366D01*
X787425Y344463D01*
X788277Y344725D01*
X788423Y344755D01*
X788607Y344765D01*
X788804Y344779D01*
X789025Y344769D01*
D02*
G37*
G36*
X783485Y343220D02*
X783551Y343209D01*
X783602Y343194D01*
X783662Y343150D01*
X783712Y343088D01*
X787038Y337737D01*
X787042Y337723D01*
X787047Y337709D01*
X787068Y337638D01*
X787082Y337595D01*
X787062Y337558D01*
X787024Y337531D01*
X786971Y337499D01*
X785991Y337197D01*
X785930Y337194D01*
X785879Y337209D01*
X785874Y337224D01*
X785852Y337248D01*
X785824Y337286D01*
X785774Y337348D01*
X785176Y338330D01*
X783288Y337749D01*
X783345Y336601D01*
X783350Y336587D01*
X783349Y336540D01*
X783352Y336479D01*
X783323Y336423D01*
X783308Y336418D01*
X783298Y336400D01*
X783260Y336372D01*
X783208Y336341D01*
X782242Y336044D01*
X782191Y336059D01*
X782131Y336103D01*
X782103Y336141D01*
X782096Y336216D01*
X781838Y342511D01*
X781833Y342525D01*
X781843Y342544D01*
X781860Y342642D01*
X781937Y342744D01*
X781990Y342775D01*
X782056Y342812D01*
X783391Y343222D01*
X783485Y343220D01*
D02*
G37*
G36*
X818811Y345231D02*
X818863Y345216D01*
X818918Y345187D01*
X818950Y345134D01*
X818986Y345067D01*
X819397Y343732D01*
X820788Y344161D01*
X820854Y344150D01*
X820905Y344134D01*
X820924Y344125D01*
X820947Y344101D01*
X820974Y344062D01*
X821015Y343982D01*
X821181Y343442D01*
X821185Y343428D01*
X821189Y343413D01*
X821187Y343320D01*
X821172Y343268D01*
X821138Y343227D01*
X821090Y343181D01*
X821023Y343145D01*
X819703Y342738D01*
X820113Y341403D01*
X820118Y341389D01*
X820126Y341361D01*
X820120Y341281D01*
X820109Y341215D01*
X820075Y341174D01*
X820027Y341128D01*
X819960Y341092D01*
X819350Y340904D01*
X819256Y340906D01*
X819204Y340922D01*
X819163Y340955D01*
X819117Y341003D01*
X819077Y341084D01*
X818666Y342419D01*
X817317Y342004D01*
X817223Y342006D01*
X817171Y342022D01*
X817130Y342056D01*
X817084Y342104D01*
X817048Y342170D01*
X816882Y342710D01*
X816878Y342724D01*
X816860Y342781D01*
X816857Y342842D01*
X816872Y342893D01*
X816882Y342912D01*
X816906Y342935D01*
X816958Y342967D01*
X817039Y343007D01*
X818360Y343413D01*
X817949Y344748D01*
X817945Y344763D01*
X817936Y344791D01*
X817943Y344871D01*
X817958Y344922D01*
X817987Y344978D01*
X818040Y345009D01*
X818107Y345046D01*
X818731Y345238D01*
X818811Y345231D01*
D02*
G37*
G36*
X814096Y344791D02*
X814311Y344748D01*
X814525Y344659D01*
X814544Y344649D01*
X814618Y344610D01*
X814720Y344532D01*
X814830Y344426D01*
X814968Y344282D01*
X815086Y344101D01*
X815213Y343891D01*
X815310Y343625D01*
X815458Y343143D01*
X815463Y343128D01*
X815467Y343114D01*
X815480Y343071D01*
X815483Y343010D01*
X815499Y342859D01*
X815494Y342672D01*
X815462Y342475D01*
X815376Y342247D01*
X815313Y342149D01*
X815240Y342034D01*
X815144Y341942D01*
X815019Y341841D01*
X815033Y341846D01*
X815052Y341836D01*
X815146Y341834D01*
X815291Y341816D01*
X815460Y341775D01*
X815645Y341676D01*
X815830Y341531D01*
X815907Y341431D01*
X815989Y341316D01*
X816047Y341178D01*
X816109Y341026D01*
X816262Y340529D01*
X816267Y340515D01*
X816271Y340501D01*
X816284Y340458D01*
X816302Y340401D01*
X816313Y340265D01*
X816337Y340086D01*
X816351Y339888D01*
X816327Y339663D01*
X816284Y339448D01*
X816195Y339234D01*
X816185Y339215D01*
X816141Y339155D01*
X816064Y339053D01*
X815958Y338943D01*
X815809Y338820D01*
X815632Y338687D01*
X815404Y338571D01*
X815138Y338473D01*
X814144Y338167D01*
X814008Y338157D01*
X813828Y338133D01*
X813616Y338114D01*
X813410Y338128D01*
X813181Y338166D01*
X812971Y338242D01*
X812952Y338251D01*
X812892Y338295D01*
X812791Y338373D01*
X812680Y338479D01*
X812543Y338623D01*
X812425Y338804D01*
X812298Y339014D01*
X812201Y339280D01*
X812118Y339549D01*
X812113Y339564D01*
X812109Y339578D01*
X812111Y339672D01*
X812146Y339760D01*
X812184Y339787D01*
X812251Y339824D01*
X813103Y340086D01*
X813197Y340084D01*
X813234Y340064D01*
X813286Y340049D01*
X813317Y339996D01*
X813353Y339930D01*
X813428Y339688D01*
X813432Y339674D01*
X813445Y339631D01*
X813458Y339589D01*
X813494Y339522D01*
X813566Y339389D01*
X813616Y339327D01*
X813677Y339283D01*
X813709Y339277D01*
X813746Y339258D01*
X813793Y339257D01*
X813873Y339250D01*
X813953Y339244D01*
X814043Y339255D01*
X814682Y339452D01*
X814734Y339484D01*
X814791Y339501D01*
X814934Y339592D01*
X814996Y339642D01*
X815040Y339702D01*
X815060Y339739D01*
X815065Y339772D01*
X815080Y339824D01*
X815087Y339903D01*
X815079Y339979D01*
X815081Y340073D01*
X815046Y340186D01*
X814902Y340655D01*
X814898Y340669D01*
X814889Y340698D01*
X814872Y340754D01*
X814836Y340821D01*
X814749Y340950D01*
X814689Y340994D01*
X814629Y341037D01*
X814592Y341057D01*
X814559Y341062D01*
X814494Y341073D01*
X814428Y341084D01*
X814339Y341072D01*
X814245Y341074D01*
X813606Y340878D01*
X813526Y340884D01*
X813437Y340919D01*
X813410Y340958D01*
X813374Y341024D01*
X813195Y341606D01*
X813190Y341621D01*
X813186Y341635D01*
X813188Y341729D01*
X813223Y341817D01*
X813261Y341845D01*
X813328Y341881D01*
X813882Y342051D01*
X813934Y342083D01*
X813991Y342100D01*
X814134Y342191D01*
X814197Y342241D01*
X814240Y342301D01*
X814260Y342338D01*
X814265Y342371D01*
X814281Y342422D01*
X814287Y342502D01*
X814280Y342578D01*
X814282Y342672D01*
X814247Y342785D01*
X814107Y343240D01*
X814103Y343254D01*
X814094Y343282D01*
X814076Y343339D01*
X814040Y343406D01*
X813954Y343535D01*
X813894Y343578D01*
X813834Y343622D01*
X813801Y343628D01*
X813764Y343647D01*
X813698Y343658D01*
X813637Y343655D01*
X813543Y343657D01*
X813454Y343645D01*
X812772Y343435D01*
X812705Y343399D01*
X812577Y343313D01*
X812514Y343263D01*
X812470Y343203D01*
X812465Y343170D01*
X812444Y343086D01*
X812448Y343024D01*
X812441Y342945D01*
X812457Y342841D01*
X812488Y342742D01*
X812562Y342500D01*
X812567Y342486D01*
X812571Y342472D01*
X812564Y342392D01*
X812549Y342341D01*
X812534Y342289D01*
X812481Y342258D01*
X812415Y342221D01*
X811563Y341959D01*
X811483Y341966D01*
X811432Y341981D01*
X811394Y342001D01*
X811363Y342053D01*
X811327Y342120D01*
X811248Y342376D01*
X811244Y342390D01*
X811239Y342404D01*
X811226Y342447D01*
X811209Y342503D01*
X811198Y342640D01*
X811174Y342819D01*
X811160Y343017D01*
X811169Y343237D01*
X811212Y343453D01*
X811302Y343667D01*
X811311Y343685D01*
X811365Y343764D01*
X811433Y343847D01*
X811548Y343976D01*
X811683Y344095D01*
X811874Y344232D01*
X812088Y344344D01*
X812354Y344441D01*
X813348Y344747D01*
X813494Y344777D01*
X813678Y344787D01*
X813875Y344801D01*
X814096Y344791D01*
D02*
G37*
G36*
X808485Y343220D02*
X808551Y343209D01*
X808602Y343194D01*
X808662Y343150D01*
X808712Y343088D01*
X812038Y337737D01*
X812042Y337723D01*
X812047Y337709D01*
X812068Y337638D01*
X812082Y337595D01*
X812062Y337558D01*
X812024Y337531D01*
X811971Y337499D01*
X810991Y337197D01*
X810930Y337194D01*
X810879Y337209D01*
X810874Y337224D01*
X810852Y337248D01*
X810824Y337286D01*
X810774Y337348D01*
X810176Y338330D01*
X808288Y337749D01*
X808345Y336601D01*
X808350Y336587D01*
X808349Y336540D01*
X808352Y336479D01*
X808323Y336423D01*
X808308Y336418D01*
X808298Y336400D01*
X808260Y336372D01*
X808208Y336341D01*
X807242Y336044D01*
X807191Y336059D01*
X807131Y336103D01*
X807103Y336141D01*
X807096Y336216D01*
X806838Y342511D01*
X806833Y342525D01*
X806843Y342544D01*
X806860Y342642D01*
X806937Y342744D01*
X806990Y342775D01*
X807056Y342812D01*
X808391Y343222D01*
X808485Y343220D01*
D02*
G37*
G36*
X1198446Y342762D02*
X1198497Y342747D01*
X1198534Y342727D01*
X1198566Y342675D01*
X1198602Y342608D01*
X1198777Y342040D01*
X1198781Y342026D01*
X1198786Y342012D01*
X1198779Y341932D01*
X1198744Y341843D01*
X1198706Y341816D01*
X1198639Y341780D01*
X1196765Y341203D01*
X1196685Y341210D01*
X1196596Y341245D01*
X1196569Y341283D01*
X1196533Y341350D01*
X1196358Y341918D01*
X1196354Y341932D01*
X1196350Y341946D01*
X1196352Y342040D01*
X1196387Y342129D01*
X1196425Y342156D01*
X1196492Y342192D01*
X1198366Y342769D01*
X1198446Y342762D01*
D02*
G37*
G36*
X1190685Y343126D02*
X1190915Y343088D01*
X1191129Y342998D01*
X1191147Y342988D01*
X1191221Y342949D01*
X1191323Y342872D01*
X1191433Y342766D01*
X1191571Y342621D01*
X1191689Y342440D01*
X1191820Y342216D01*
X1191917Y341951D01*
X1192057Y341496D01*
X1192062Y341482D01*
X1192066Y341468D01*
X1192059Y341388D01*
X1192044Y341337D01*
X1192029Y341285D01*
X1191976Y341254D01*
X1191910Y341218D01*
X1191072Y340960D01*
X1190992Y340966D01*
X1190941Y340982D01*
X1190889Y340997D01*
X1190858Y341049D01*
X1190822Y341116D01*
X1190699Y341514D01*
X1190695Y341528D01*
X1190682Y341570D01*
X1190669Y341613D01*
X1190633Y341680D01*
X1190546Y341809D01*
X1190496Y341871D01*
X1190436Y341914D01*
X1190399Y341934D01*
X1190366Y341940D01*
X1190315Y341955D01*
X1190249Y341966D01*
X1190160Y341954D01*
X1190066Y341956D01*
X1189185Y341685D01*
X1189119Y341649D01*
X1189004Y341567D01*
X1188946Y341503D01*
X1188902Y341443D01*
X1188897Y341410D01*
X1188877Y341373D01*
X1188876Y341326D01*
X1188865Y341260D01*
X1188863Y341166D01*
X1188875Y341077D01*
X1188910Y340963D01*
X1189819Y338009D01*
X1189823Y337995D01*
X1189836Y337952D01*
X1189864Y337914D01*
X1189885Y337843D01*
X1189972Y337714D01*
X1190022Y337652D01*
X1190082Y337608D01*
X1190115Y337603D01*
X1190199Y337582D01*
X1190265Y337571D01*
X1190344Y337564D01*
X1190448Y337581D01*
X1191272Y337834D01*
X1191310Y337862D01*
X1191381Y337883D01*
X1191510Y337970D01*
X1191572Y338020D01*
X1191616Y338080D01*
X1191621Y338113D01*
X1191641Y338150D01*
X1191656Y338201D01*
X1191649Y338277D01*
X1191655Y338356D01*
X1191643Y338446D01*
X1191608Y338560D01*
X1191486Y338957D01*
X1191482Y338971D01*
X1191477Y338986D01*
X1191479Y339080D01*
X1191499Y339117D01*
X1191514Y339168D01*
X1191567Y339200D01*
X1191633Y339236D01*
X1192471Y339494D01*
X1192565Y339492D01*
X1192602Y339472D01*
X1192654Y339456D01*
X1192685Y339404D01*
X1192721Y339337D01*
X1192861Y338883D01*
X1192866Y338869D01*
X1192870Y338855D01*
X1192883Y338812D01*
X1192901Y338755D01*
X1192912Y338619D01*
X1192936Y338439D01*
X1192950Y338242D01*
X1192926Y338017D01*
X1192883Y337802D01*
X1192794Y337587D01*
X1192784Y337569D01*
X1192740Y337509D01*
X1192663Y337407D01*
X1192542Y337292D01*
X1192412Y337159D01*
X1192217Y337037D01*
X1192007Y336910D01*
X1191742Y336813D01*
X1190563Y336450D01*
X1190412Y336435D01*
X1190233Y336411D01*
X1190035Y336397D01*
X1189815Y336406D01*
X1189585Y336445D01*
X1189375Y336520D01*
X1189357Y336530D01*
X1189297Y336573D01*
X1189195Y336651D01*
X1189085Y336757D01*
X1188947Y336901D01*
X1188829Y337083D01*
X1188698Y337307D01*
X1188601Y337572D01*
X1187657Y340640D01*
X1187653Y340654D01*
X1187648Y340668D01*
X1187635Y340711D01*
X1187617Y340768D01*
X1187602Y340918D01*
X1187578Y341097D01*
X1187564Y341295D01*
X1187574Y341516D01*
X1187616Y341731D01*
X1187706Y341945D01*
X1187716Y341964D01*
X1187769Y342042D01*
X1187837Y342125D01*
X1187953Y342254D01*
X1188102Y342378D01*
X1188279Y342510D01*
X1188507Y342627D01*
X1188772Y342724D01*
X1189951Y343087D01*
X1190083Y343112D01*
X1190267Y343122D01*
X1190479Y343140D01*
X1190685Y343126D01*
D02*
G37*
G36*
X1194362Y344413D02*
X1194414Y344398D01*
X1194451Y344378D01*
X1194482Y344326D01*
X1194519Y344259D01*
X1196310Y338436D01*
X1196315Y338422D01*
X1196328Y338379D01*
X1196331Y338318D01*
X1196316Y338267D01*
X1196301Y338262D01*
X1196292Y338244D01*
X1196253Y338217D01*
X1196187Y338181D01*
X1195320Y337914D01*
X1195241Y337920D01*
X1195138Y337951D01*
X1195111Y337989D01*
X1195075Y338056D01*
X1193624Y342771D01*
X1192853Y341943D01*
X1192838Y341939D01*
X1192829Y341920D01*
X1192715Y341885D01*
X1192664Y341900D01*
X1192636Y341939D01*
X1192605Y341991D01*
X1192360Y342786D01*
X1192355Y342800D01*
X1192351Y342815D01*
X1192344Y342890D01*
X1192360Y342988D01*
X1192423Y343086D01*
X1193148Y343915D01*
X1193162Y343919D01*
X1193181Y343956D01*
X1193253Y344025D01*
X1193354Y344103D01*
X1193473Y344170D01*
X1194283Y344420D01*
X1194362Y344413D01*
D02*
G37*
G36*
X1222994Y343239D02*
X1223045Y343223D01*
X1223083Y343204D01*
X1223114Y343151D01*
X1223150Y343085D01*
X1223325Y342517D01*
X1223329Y342502D01*
X1223334Y342488D01*
X1223327Y342408D01*
X1223292Y342320D01*
X1223254Y342293D01*
X1223187Y342257D01*
X1221313Y341680D01*
X1221233Y341686D01*
X1221144Y341721D01*
X1221117Y341759D01*
X1221081Y341826D01*
X1220906Y342394D01*
X1220902Y342408D01*
X1220898Y342422D01*
X1220900Y342517D01*
X1220935Y342605D01*
X1220973Y342632D01*
X1221040Y342668D01*
X1222914Y343245D01*
X1222994Y343239D01*
D02*
G37*
G36*
X1213685Y343126D02*
X1213915Y343088D01*
X1214129Y342998D01*
X1214147Y342988D01*
X1214221Y342949D01*
X1214323Y342872D01*
X1214434Y342766D01*
X1214571Y342621D01*
X1214689Y342440D01*
X1214820Y342216D01*
X1214918Y341951D01*
X1215057Y341496D01*
X1215062Y341482D01*
X1215066Y341468D01*
X1215060Y341388D01*
X1215044Y341337D01*
X1215029Y341285D01*
X1214976Y341254D01*
X1214910Y341218D01*
X1214072Y340960D01*
X1213992Y340966D01*
X1213941Y340982D01*
X1213889Y340997D01*
X1213858Y341049D01*
X1213822Y341116D01*
X1213699Y341514D01*
X1213695Y341528D01*
X1213682Y341570D01*
X1213669Y341613D01*
X1213633Y341680D01*
X1213546Y341809D01*
X1213496Y341871D01*
X1213436Y341914D01*
X1213399Y341934D01*
X1213366Y341940D01*
X1213315Y341955D01*
X1213249Y341966D01*
X1213160Y341954D01*
X1213066Y341956D01*
X1212185Y341685D01*
X1212119Y341649D01*
X1212004Y341567D01*
X1211946Y341503D01*
X1211902Y341443D01*
X1211897Y341410D01*
X1211877Y341373D01*
X1211876Y341326D01*
X1211865Y341260D01*
X1211863Y341166D01*
X1211875Y341077D01*
X1211910Y340963D01*
X1212819Y338009D01*
X1212823Y337995D01*
X1212836Y337952D01*
X1212864Y337914D01*
X1212886Y337843D01*
X1212972Y337714D01*
X1213022Y337652D01*
X1213082Y337608D01*
X1213115Y337603D01*
X1213199Y337582D01*
X1213265Y337571D01*
X1213344Y337564D01*
X1213448Y337581D01*
X1214272Y337834D01*
X1214310Y337862D01*
X1214381Y337883D01*
X1214510Y337970D01*
X1214572Y338020D01*
X1214616Y338080D01*
X1214621Y338113D01*
X1214641Y338150D01*
X1214656Y338201D01*
X1214649Y338277D01*
X1214655Y338356D01*
X1214643Y338446D01*
X1214608Y338560D01*
X1214486Y338957D01*
X1214482Y338971D01*
X1214477Y338986D01*
X1214479Y339080D01*
X1214499Y339117D01*
X1214514Y339168D01*
X1214567Y339200D01*
X1214633Y339236D01*
X1215471Y339494D01*
X1215565Y339492D01*
X1215602Y339472D01*
X1215654Y339456D01*
X1215686Y339404D01*
X1215722Y339337D01*
X1215861Y338883D01*
X1215866Y338869D01*
X1215870Y338855D01*
X1215883Y338812D01*
X1215901Y338755D01*
X1215912Y338619D01*
X1215936Y338439D01*
X1215950Y338242D01*
X1215926Y338017D01*
X1215883Y337802D01*
X1215794Y337587D01*
X1215784Y337569D01*
X1215740Y337509D01*
X1215663Y337407D01*
X1215542Y337292D01*
X1215412Y337159D01*
X1215217Y337037D01*
X1215007Y336910D01*
X1214742Y336813D01*
X1213563Y336450D01*
X1213412Y336435D01*
X1213233Y336411D01*
X1213035Y336397D01*
X1212814Y336406D01*
X1212585Y336445D01*
X1212375Y336520D01*
X1212357Y336530D01*
X1212297Y336573D01*
X1212195Y336651D01*
X1212085Y336757D01*
X1211947Y336901D01*
X1211829Y337083D01*
X1211698Y337307D01*
X1211601Y337572D01*
X1210657Y340640D01*
X1210652Y340654D01*
X1210648Y340668D01*
X1210635Y340711D01*
X1210618Y340768D01*
X1210602Y340918D01*
X1210578Y341097D01*
X1210564Y341295D01*
X1210574Y341516D01*
X1210617Y341731D01*
X1210706Y341945D01*
X1210716Y341964D01*
X1210769Y342042D01*
X1210837Y342125D01*
X1210953Y342254D01*
X1211102Y342378D01*
X1211279Y342510D01*
X1211507Y342627D01*
X1211772Y342724D01*
X1212951Y343087D01*
X1213083Y343112D01*
X1213267Y343122D01*
X1213479Y343140D01*
X1213685Y343126D01*
D02*
G37*
G36*
X1218471Y344599D02*
X1218686Y344556D01*
X1218901Y344467D01*
X1218919Y344457D01*
X1218993Y344417D01*
X1219095Y344340D01*
X1219205Y344234D01*
X1219343Y344090D01*
X1219461Y343908D01*
X1219588Y343699D01*
X1219685Y343433D01*
X1219803Y343050D01*
X1219807Y343035D01*
X1219812Y343021D01*
X1219825Y342979D01*
X1219828Y342917D01*
X1219857Y342771D01*
X1219867Y342588D01*
X1219857Y342367D01*
X1219824Y342123D01*
X1219743Y341881D01*
X1219605Y341621D01*
X1218268Y339499D01*
X1218258Y339481D01*
X1218233Y339411D01*
X1218212Y339327D01*
X1218224Y339237D01*
X1218272Y339081D01*
X1220616Y339802D01*
X1220695Y339795D01*
X1220784Y339760D01*
X1220811Y339722D01*
X1220847Y339655D01*
X1221057Y338974D01*
X1221061Y338959D01*
X1221066Y338945D01*
X1221059Y338866D01*
X1221024Y338777D01*
X1220986Y338750D01*
X1220919Y338714D01*
X1217397Y337630D01*
X1217318Y337636D01*
X1217229Y337671D01*
X1217202Y337710D01*
X1217166Y337776D01*
X1216882Y338699D01*
X1216873Y338728D01*
X1216865Y338803D01*
X1216849Y338907D01*
X1216838Y339044D01*
X1216851Y339203D01*
X1216888Y339385D01*
X1216954Y339577D01*
X1217062Y339781D01*
X1218384Y341851D01*
X1218394Y341870D01*
X1218437Y341930D01*
X1218486Y342023D01*
X1218527Y342144D01*
X1218577Y342284D01*
X1218595Y342429D01*
X1218608Y342589D01*
X1218574Y342749D01*
X1218482Y343047D01*
X1218478Y343062D01*
X1218469Y343090D01*
X1218452Y343147D01*
X1218416Y343214D01*
X1218329Y343342D01*
X1218269Y343386D01*
X1218209Y343430D01*
X1218176Y343435D01*
X1218139Y343455D01*
X1218088Y343470D01*
X1218012Y343463D01*
X1217933Y343469D01*
X1217829Y343453D01*
X1217275Y343282D01*
X1217208Y343246D01*
X1217079Y343160D01*
X1217017Y343110D01*
X1216973Y343050D01*
X1216968Y343017D01*
X1216947Y342933D01*
X1216951Y342872D01*
X1216944Y342792D01*
X1216960Y342688D01*
X1216991Y342589D01*
X1217087Y342276D01*
X1217091Y342262D01*
X1217096Y342248D01*
X1217089Y342168D01*
X1217074Y342117D01*
X1217059Y342065D01*
X1217006Y342034D01*
X1216940Y341998D01*
X1216087Y341735D01*
X1216008Y341742D01*
X1215956Y341757D01*
X1215919Y341777D01*
X1215888Y341829D01*
X1215852Y341896D01*
X1215751Y342223D01*
X1215747Y342237D01*
X1215742Y342251D01*
X1215729Y342294D01*
X1215712Y342350D01*
X1215701Y342487D01*
X1215677Y342666D01*
X1215663Y342864D01*
X1215672Y343085D01*
X1215715Y343300D01*
X1215805Y343514D01*
X1215814Y343532D01*
X1215868Y343611D01*
X1215936Y343694D01*
X1216051Y343823D01*
X1216200Y343946D01*
X1216377Y344079D01*
X1216605Y344196D01*
X1216871Y344293D01*
X1217723Y344555D01*
X1217869Y344585D01*
X1218053Y344594D01*
X1218251Y344608D01*
X1218471Y344599D01*
D02*
G37*
G36*
X1249136Y343282D02*
X1249187Y343267D01*
X1249224Y343247D01*
X1249256Y343195D01*
X1249292Y343128D01*
X1249467Y342560D01*
X1249471Y342546D01*
X1249476Y342532D01*
X1249469Y342452D01*
X1249434Y342364D01*
X1249396Y342336D01*
X1249329Y342300D01*
X1247455Y341723D01*
X1247375Y341730D01*
X1247287Y341765D01*
X1247259Y341803D01*
X1247223Y341870D01*
X1247048Y342438D01*
X1247044Y342452D01*
X1247040Y342466D01*
X1247042Y342560D01*
X1247077Y342649D01*
X1247115Y342676D01*
X1247182Y342712D01*
X1249056Y343289D01*
X1249136Y343282D01*
D02*
G37*
G36*
X1239685Y343126D02*
X1239915Y343088D01*
X1240129Y342998D01*
X1240147Y342988D01*
X1240221Y342949D01*
X1240323Y342872D01*
X1240434Y342766D01*
X1240571Y342621D01*
X1240689Y342440D01*
X1240820Y342216D01*
X1240918Y341951D01*
X1241057Y341496D01*
X1241062Y341482D01*
X1241066Y341468D01*
X1241059Y341388D01*
X1241044Y341337D01*
X1241029Y341285D01*
X1240976Y341254D01*
X1240910Y341218D01*
X1240072Y340960D01*
X1239992Y340966D01*
X1239941Y340982D01*
X1239889Y340997D01*
X1239858Y341049D01*
X1239822Y341116D01*
X1239699Y341514D01*
X1239695Y341528D01*
X1239682Y341570D01*
X1239669Y341613D01*
X1239633Y341680D01*
X1239546Y341809D01*
X1239496Y341871D01*
X1239436Y341914D01*
X1239399Y341934D01*
X1239366Y341940D01*
X1239315Y341955D01*
X1239249Y341966D01*
X1239160Y341954D01*
X1239066Y341956D01*
X1238185Y341685D01*
X1238119Y341649D01*
X1238004Y341567D01*
X1237946Y341503D01*
X1237902Y341443D01*
X1237897Y341410D01*
X1237877Y341373D01*
X1237876Y341326D01*
X1237865Y341260D01*
X1237863Y341166D01*
X1237875Y341077D01*
X1237910Y340963D01*
X1238819Y338009D01*
X1238823Y337995D01*
X1238836Y337952D01*
X1238864Y337914D01*
X1238885Y337843D01*
X1238972Y337714D01*
X1239022Y337652D01*
X1239082Y337608D01*
X1239115Y337603D01*
X1239199Y337582D01*
X1239265Y337571D01*
X1239344Y337564D01*
X1239448Y337581D01*
X1240272Y337834D01*
X1240310Y337862D01*
X1240381Y337883D01*
X1240510Y337970D01*
X1240572Y338020D01*
X1240616Y338080D01*
X1240621Y338113D01*
X1240641Y338150D01*
X1240656Y338201D01*
X1240649Y338277D01*
X1240655Y338356D01*
X1240643Y338446D01*
X1240608Y338560D01*
X1240486Y338957D01*
X1240482Y338971D01*
X1240477Y338986D01*
X1240479Y339080D01*
X1240499Y339117D01*
X1240514Y339168D01*
X1240567Y339200D01*
X1240633Y339236D01*
X1241471Y339494D01*
X1241565Y339492D01*
X1241602Y339472D01*
X1241654Y339456D01*
X1241685Y339404D01*
X1241721Y339337D01*
X1241861Y338883D01*
X1241866Y338869D01*
X1241870Y338855D01*
X1241883Y338812D01*
X1241901Y338755D01*
X1241912Y338619D01*
X1241936Y338439D01*
X1241950Y338242D01*
X1241926Y338017D01*
X1241883Y337802D01*
X1241794Y337587D01*
X1241784Y337569D01*
X1241740Y337509D01*
X1241663Y337407D01*
X1241542Y337292D01*
X1241412Y337159D01*
X1241217Y337037D01*
X1241007Y336910D01*
X1240742Y336813D01*
X1239563Y336450D01*
X1239412Y336435D01*
X1239233Y336411D01*
X1239035Y336397D01*
X1238814Y336406D01*
X1238585Y336445D01*
X1238375Y336520D01*
X1238357Y336530D01*
X1238297Y336573D01*
X1238195Y336651D01*
X1238085Y336757D01*
X1237947Y336901D01*
X1237829Y337083D01*
X1237698Y337307D01*
X1237601Y337572D01*
X1236657Y340640D01*
X1236653Y340654D01*
X1236648Y340668D01*
X1236635Y340711D01*
X1236618Y340768D01*
X1236602Y340918D01*
X1236578Y341097D01*
X1236564Y341295D01*
X1236574Y341516D01*
X1236616Y341731D01*
X1236706Y341945D01*
X1236716Y341964D01*
X1236769Y342042D01*
X1236837Y342125D01*
X1236953Y342254D01*
X1237102Y342378D01*
X1237279Y342510D01*
X1237507Y342627D01*
X1237772Y342724D01*
X1238951Y343087D01*
X1239083Y343112D01*
X1239267Y343122D01*
X1239479Y343140D01*
X1239685Y343126D01*
D02*
G37*
G36*
X1244542Y344621D02*
X1244757Y344578D01*
X1244972Y344488D01*
X1244990Y344478D01*
X1245064Y344439D01*
X1245166Y344362D01*
X1245276Y344256D01*
X1245414Y344112D01*
X1245532Y343930D01*
X1245659Y343720D01*
X1245756Y343455D01*
X1245904Y342972D01*
X1245909Y342958D01*
X1245913Y342944D01*
X1245926Y342901D01*
X1245930Y342840D01*
X1245945Y342689D01*
X1245941Y342501D01*
X1245908Y342304D01*
X1245823Y342076D01*
X1245759Y341979D01*
X1245686Y341863D01*
X1245590Y341771D01*
X1245465Y341671D01*
X1245480Y341675D01*
X1245498Y341665D01*
X1245592Y341663D01*
X1245737Y341646D01*
X1245906Y341604D01*
X1246091Y341506D01*
X1246276Y341361D01*
X1246354Y341260D01*
X1246435Y341145D01*
X1246493Y341008D01*
X1246556Y340856D01*
X1246709Y340359D01*
X1246713Y340345D01*
X1246717Y340331D01*
X1246730Y340288D01*
X1246748Y340231D01*
X1246759Y340094D01*
X1246783Y339915D01*
X1246797Y339718D01*
X1246773Y339493D01*
X1246730Y339277D01*
X1246641Y339063D01*
X1246631Y339045D01*
X1246587Y338985D01*
X1246510Y338883D01*
X1246404Y338773D01*
X1246255Y338649D01*
X1246078Y338517D01*
X1245850Y338400D01*
X1245584Y338303D01*
X1244590Y337997D01*
X1244454Y337986D01*
X1244275Y337962D01*
X1244063Y337943D01*
X1243856Y337958D01*
X1243627Y337996D01*
X1243417Y338071D01*
X1243398Y338081D01*
X1243338Y338125D01*
X1243237Y338202D01*
X1243126Y338308D01*
X1242989Y338453D01*
X1242871Y338634D01*
X1242744Y338844D01*
X1242647Y339109D01*
X1242564Y339379D01*
X1242559Y339393D01*
X1242555Y339407D01*
X1242557Y339501D01*
X1242592Y339590D01*
X1242630Y339617D01*
X1242697Y339653D01*
X1243549Y339915D01*
X1243643Y339913D01*
X1243680Y339893D01*
X1243732Y339878D01*
X1243763Y339826D01*
X1243799Y339759D01*
X1243874Y339518D01*
X1243878Y339504D01*
X1243891Y339461D01*
X1243904Y339418D01*
X1243940Y339352D01*
X1244012Y339218D01*
X1244063Y339156D01*
X1244123Y339112D01*
X1244156Y339107D01*
X1244193Y339087D01*
X1244240Y339086D01*
X1244319Y339080D01*
X1244399Y339073D01*
X1244489Y339085D01*
X1245128Y339282D01*
X1245180Y339313D01*
X1245237Y339331D01*
X1245380Y339422D01*
X1245442Y339472D01*
X1245486Y339532D01*
X1245506Y339569D01*
X1245511Y339602D01*
X1245527Y339653D01*
X1245533Y339733D01*
X1245525Y339808D01*
X1245528Y339902D01*
X1245493Y340016D01*
X1245349Y340485D01*
X1245344Y340499D01*
X1245335Y340527D01*
X1245318Y340584D01*
X1245282Y340651D01*
X1245195Y340779D01*
X1245135Y340823D01*
X1245075Y340867D01*
X1245038Y340886D01*
X1245005Y340892D01*
X1244940Y340903D01*
X1244874Y340914D01*
X1244785Y340902D01*
X1244691Y340904D01*
X1244052Y340707D01*
X1243972Y340714D01*
X1243884Y340749D01*
X1243856Y340787D01*
X1243820Y340854D01*
X1243641Y341436D01*
X1243637Y341450D01*
X1243632Y341464D01*
X1243634Y341558D01*
X1243669Y341647D01*
X1243708Y341674D01*
X1243774Y341710D01*
X1244328Y341881D01*
X1244380Y341912D01*
X1244437Y341930D01*
X1244581Y342020D01*
X1244643Y342071D01*
X1244686Y342131D01*
X1244706Y342168D01*
X1244712Y342201D01*
X1244727Y342252D01*
X1244733Y342332D01*
X1244726Y342407D01*
X1244728Y342501D01*
X1244693Y342615D01*
X1244553Y343069D01*
X1244549Y343083D01*
X1244540Y343112D01*
X1244523Y343169D01*
X1244486Y343235D01*
X1244400Y343364D01*
X1244340Y343408D01*
X1244280Y343452D01*
X1244247Y343457D01*
X1244210Y343477D01*
X1244145Y343488D01*
X1244083Y343484D01*
X1243989Y343487D01*
X1243900Y343475D01*
X1243218Y343265D01*
X1243151Y343229D01*
X1243023Y343143D01*
X1242960Y343092D01*
X1242917Y343032D01*
X1242911Y342999D01*
X1242890Y342915D01*
X1242894Y342854D01*
X1242887Y342774D01*
X1242904Y342671D01*
X1242934Y342571D01*
X1243008Y342330D01*
X1243013Y342315D01*
X1243017Y342301D01*
X1243011Y342221D01*
X1242995Y342170D01*
X1242980Y342119D01*
X1242928Y342087D01*
X1242861Y342051D01*
X1242009Y341789D01*
X1241929Y341796D01*
X1241878Y341811D01*
X1241841Y341830D01*
X1241809Y341883D01*
X1241773Y341950D01*
X1241694Y342205D01*
X1241690Y342219D01*
X1241685Y342234D01*
X1241672Y342276D01*
X1241655Y342333D01*
X1241644Y342469D01*
X1241620Y342649D01*
X1241606Y342846D01*
X1241616Y343067D01*
X1241658Y343282D01*
X1241748Y343496D01*
X1241758Y343515D01*
X1241811Y343594D01*
X1241879Y343677D01*
X1241995Y343806D01*
X1242129Y343925D01*
X1242320Y344061D01*
X1242534Y344174D01*
X1242800Y344271D01*
X1243794Y344577D01*
X1243940Y344606D01*
X1244124Y344616D01*
X1244322Y344630D01*
X1244542Y344621D01*
D02*
G37*
G36*
X1236111Y830380D02*
X1236146Y830357D01*
X1236199Y830323D01*
X1236226Y830268D01*
X1236227Y830192D01*
X1235944Y823920D01*
X1235947Y823906D01*
X1235936Y823888D01*
X1235922Y823809D01*
X1235865Y823721D01*
X1235810Y823694D01*
X1235755Y823668D01*
X1234417Y823384D01*
X1234338Y823398D01*
X1234239Y823438D01*
X1234201Y823475D01*
X1234156Y823542D01*
X1231357Y829162D01*
X1231354Y829176D01*
X1231348Y829205D01*
X1231332Y829278D01*
X1231352Y829328D01*
X1231372Y829377D01*
X1231427Y829404D01*
X1231511Y829437D01*
X1232471Y829640D01*
X1232550Y829626D01*
X1232599Y829607D01*
X1232649Y829587D01*
X1232691Y829535D01*
X1232735Y829468D01*
X1234801Y824802D01*
X1234844Y824811D01*
X1234857Y829917D01*
X1234854Y829932D01*
X1234866Y829949D01*
X1234876Y830043D01*
X1234934Y830131D01*
X1234989Y830158D01*
X1235044Y830185D01*
X1236018Y830391D01*
X1236111Y830380D01*
D02*
G37*
G36*
X1239941Y831160D02*
X1240139Y831156D01*
X1240358Y831127D01*
X1240568Y831065D01*
X1240773Y830957D01*
X1240791Y830945D01*
X1240862Y830899D01*
X1240956Y830813D01*
X1241056Y830697D01*
X1241180Y830541D01*
X1241281Y830350D01*
X1241392Y830115D01*
X1241465Y829842D01*
X1242129Y826702D01*
X1242132Y826688D01*
X1242135Y826673D01*
X1242145Y826630D01*
X1242157Y826571D01*
X1242156Y826434D01*
X1242163Y826254D01*
X1242160Y826056D01*
X1242116Y825834D01*
X1242054Y825623D01*
X1241945Y825418D01*
X1241934Y825400D01*
X1241885Y825344D01*
X1241799Y825250D01*
X1241683Y825150D01*
X1241527Y825026D01*
X1241336Y824924D01*
X1241116Y824817D01*
X1240843Y824744D01*
X1239709Y824504D01*
X1239557Y824502D01*
X1239377Y824495D01*
X1239178Y824498D01*
X1238959Y824528D01*
X1238749Y824590D01*
X1238547Y824684D01*
X1238529Y824695D01*
X1238473Y824744D01*
X1238379Y824830D01*
X1238279Y824946D01*
X1238155Y825102D01*
X1238053Y825293D01*
X1237943Y825528D01*
X1237870Y825801D01*
X1237206Y828941D01*
X1237202Y828956D01*
X1237199Y828970D01*
X1237190Y829014D01*
X1237178Y829072D01*
X1237176Y829223D01*
X1237168Y829404D01*
X1237172Y829602D01*
X1237202Y829821D01*
X1237263Y830032D01*
X1237372Y830237D01*
X1237383Y830254D01*
X1237429Y830325D01*
X1237518Y830405D01*
X1237631Y830519D01*
X1237790Y830629D01*
X1237978Y830745D01*
X1238216Y830841D01*
X1238489Y830914D01*
X1239623Y831154D01*
X1239757Y831167D01*
X1239941Y831160D01*
D02*
G37*
G36*
X1240274Y529918D02*
X1240517Y529869D01*
X1240742Y529801D01*
X1240927Y529723D01*
X1241073Y529635D01*
X1241132Y529596D01*
X1241181Y529567D01*
X1241229Y529538D01*
X1241259Y529518D01*
X1241268Y529508D01*
X1241278Y529498D01*
X1241454Y529323D01*
X1241590Y529128D01*
X1241707Y528923D01*
X1241785Y528728D01*
X1241854Y528552D01*
X1241873Y528474D01*
X1241893Y528406D01*
X1241902Y528357D01*
X1241912Y528318D01*
X1241922Y528289D01*
Y528279D01*
X1241132Y528143D01*
X1241093Y528348D01*
X1241034Y528523D01*
X1240976Y528669D01*
X1240908Y528786D01*
X1240849Y528884D01*
X1240800Y528952D01*
X1240761Y528991D01*
X1240751Y529001D01*
X1240625Y529099D01*
X1240498Y529167D01*
X1240371Y529225D01*
X1240244Y529255D01*
X1240147Y529274D01*
X1240059Y529294D01*
X1239981D01*
X1239815Y529284D01*
X1239669Y529245D01*
X1239542Y529206D01*
X1239435Y529147D01*
X1239347Y529099D01*
X1239279Y529050D01*
X1239240Y529011D01*
X1239230Y529001D01*
X1239132Y528894D01*
X1239064Y528767D01*
X1239006Y528650D01*
X1238976Y528543D01*
X1238957Y528435D01*
X1238937Y528357D01*
Y528308D01*
Y528299D01*
Y528289D01*
X1238957Y528094D01*
X1239006Y527928D01*
X1239064Y527792D01*
X1239142Y527684D01*
X1239220Y527597D01*
X1239279Y527528D01*
X1239327Y527489D01*
X1239347Y527480D01*
X1239503Y527392D01*
X1239659Y527333D01*
X1239805Y527284D01*
X1239942Y527255D01*
X1240069Y527236D01*
X1240156Y527226D01*
X1240283D01*
X1240322Y527236D01*
X1240371D01*
X1240459Y526543D01*
X1240342Y526572D01*
X1240235Y526592D01*
X1240137Y526602D01*
X1240059Y526611D01*
X1239991Y526621D01*
X1239903D01*
X1239708Y526602D01*
X1239542Y526563D01*
X1239386Y526514D01*
X1239259Y526446D01*
X1239152Y526377D01*
X1239074Y526329D01*
X1239035Y526289D01*
X1239015Y526270D01*
X1238898Y526133D01*
X1238811Y525987D01*
X1238742Y525831D01*
X1238703Y525695D01*
X1238674Y525568D01*
X1238664Y525470D01*
X1238654Y525431D01*
Y525402D01*
Y525392D01*
Y525382D01*
X1238674Y525178D01*
X1238713Y524992D01*
X1238772Y524827D01*
X1238840Y524690D01*
X1238918Y524573D01*
X1238976Y524495D01*
X1239015Y524446D01*
X1239035Y524427D01*
X1239181Y524300D01*
X1239337Y524202D01*
X1239493Y524144D01*
X1239649Y524095D01*
X1239776Y524066D01*
X1239874Y524056D01*
X1239913Y524046D01*
X1239971D01*
X1240137Y524056D01*
X1240293Y524095D01*
X1240430Y524144D01*
X1240537Y524193D01*
X1240635Y524251D01*
X1240703Y524290D01*
X1240742Y524329D01*
X1240761Y524339D01*
X1240869Y524466D01*
X1240966Y524612D01*
X1241044Y524778D01*
X1241103Y524934D01*
X1241151Y525080D01*
X1241181Y525197D01*
X1241200Y525236D01*
Y525275D01*
X1241210Y525295D01*
Y525304D01*
X1242000Y525197D01*
X1241981Y525051D01*
X1241951Y524914D01*
X1241863Y524661D01*
X1241766Y524436D01*
X1241649Y524241D01*
X1241600Y524163D01*
X1241542Y524095D01*
X1241493Y524036D01*
X1241454Y523978D01*
X1241415Y523939D01*
X1241385Y523910D01*
X1241376Y523900D01*
X1241366Y523890D01*
X1241259Y523802D01*
X1241142Y523724D01*
X1241034Y523656D01*
X1240917Y523607D01*
X1240683Y523510D01*
X1240459Y523451D01*
X1240361Y523432D01*
X1240264Y523422D01*
X1240186Y523412D01*
X1240108Y523402D01*
X1240049Y523393D01*
X1239971D01*
X1239805Y523402D01*
X1239640Y523422D01*
X1239484Y523442D01*
X1239337Y523480D01*
X1239201Y523529D01*
X1239074Y523578D01*
X1238957Y523627D01*
X1238850Y523685D01*
X1238762Y523734D01*
X1238674Y523783D01*
X1238596Y523832D01*
X1238538Y523880D01*
X1238489Y523919D01*
X1238459Y523939D01*
X1238440Y523958D01*
X1238430Y523968D01*
X1238323Y524085D01*
X1238225Y524202D01*
X1238147Y524319D01*
X1238079Y524436D01*
X1238011Y524553D01*
X1237962Y524680D01*
X1237894Y524905D01*
X1237865Y525002D01*
X1237845Y525100D01*
X1237835Y525178D01*
X1237825Y525256D01*
X1237816Y525314D01*
Y525353D01*
Y525382D01*
Y525392D01*
X1237825Y525616D01*
X1237865Y525821D01*
X1237913Y525997D01*
X1237972Y526143D01*
X1238040Y526260D01*
X1238089Y526348D01*
X1238128Y526407D01*
X1238138Y526426D01*
X1238264Y526572D01*
X1238411Y526689D01*
X1238557Y526787D01*
X1238693Y526855D01*
X1238820Y526914D01*
X1238918Y526943D01*
X1238957Y526963D01*
X1238986D01*
X1239006Y526972D01*
X1239015D01*
X1238859Y527050D01*
X1238723Y527148D01*
X1238615Y527236D01*
X1238518Y527323D01*
X1238450Y527401D01*
X1238391Y527460D01*
X1238362Y527499D01*
X1238352Y527519D01*
X1238274Y527645D01*
X1238225Y527782D01*
X1238186Y527909D01*
X1238157Y528026D01*
X1238138Y528123D01*
X1238128Y528201D01*
Y528250D01*
Y528270D01*
X1238138Y528435D01*
X1238167Y528582D01*
X1238206Y528718D01*
X1238245Y528845D01*
X1238284Y528942D01*
X1238323Y529021D01*
X1238352Y529069D01*
X1238362Y529089D01*
X1238459Y529225D01*
X1238567Y529352D01*
X1238684Y529459D01*
X1238791Y529547D01*
X1238889Y529616D01*
X1238967Y529664D01*
X1239025Y529693D01*
X1239035Y529703D01*
X1239045D01*
X1239211Y529781D01*
X1239376Y529840D01*
X1239542Y529879D01*
X1239688Y529908D01*
X1239815Y529928D01*
X1239913Y529937D01*
X1240137D01*
X1240274Y529918D01*
D02*
G37*
G36*
X1229330D02*
X1229574Y529869D01*
X1229798Y529801D01*
X1229984Y529723D01*
X1230130Y529635D01*
X1230188Y529596D01*
X1230237Y529567D01*
X1230286Y529538D01*
X1230315Y529518D01*
X1230325Y529508D01*
X1230335Y529498D01*
X1230510Y529323D01*
X1230647Y529128D01*
X1230764Y528923D01*
X1230842Y528728D01*
X1230910Y528552D01*
X1230930Y528474D01*
X1230949Y528406D01*
X1230959Y528357D01*
X1230969Y528318D01*
X1230978Y528289D01*
Y528279D01*
X1230188Y528143D01*
X1230149Y528348D01*
X1230091Y528523D01*
X1230032Y528669D01*
X1229964Y528786D01*
X1229905Y528884D01*
X1229857Y528952D01*
X1229818Y528991D01*
X1229808Y529001D01*
X1229681Y529099D01*
X1229554Y529167D01*
X1229428Y529225D01*
X1229301Y529255D01*
X1229203Y529274D01*
X1229116Y529294D01*
X1229037D01*
X1228872Y529284D01*
X1228725Y529245D01*
X1228598Y529206D01*
X1228491Y529147D01*
X1228403Y529099D01*
X1228335Y529050D01*
X1228296Y529011D01*
X1228286Y529001D01*
X1228189Y528894D01*
X1228121Y528767D01*
X1228062Y528650D01*
X1228033Y528543D01*
X1228013Y528435D01*
X1227994Y528357D01*
Y528308D01*
Y528299D01*
Y528289D01*
X1228013Y528094D01*
X1228062Y527928D01*
X1228121Y527792D01*
X1228199Y527684D01*
X1228277Y527597D01*
X1228335Y527528D01*
X1228384Y527489D01*
X1228403Y527480D01*
X1228559Y527392D01*
X1228716Y527333D01*
X1228862Y527284D01*
X1228998Y527255D01*
X1229125Y527236D01*
X1229213Y527226D01*
X1229340D01*
X1229379Y527236D01*
X1229428D01*
X1229515Y526543D01*
X1229398Y526572D01*
X1229291Y526592D01*
X1229193Y526602D01*
X1229116Y526611D01*
X1229047Y526621D01*
X1228959D01*
X1228764Y526602D01*
X1228598Y526563D01*
X1228443Y526514D01*
X1228316Y526446D01*
X1228208Y526377D01*
X1228130Y526329D01*
X1228091Y526289D01*
X1228072Y526270D01*
X1227955Y526133D01*
X1227867Y525987D01*
X1227799Y525831D01*
X1227760Y525695D01*
X1227730Y525568D01*
X1227721Y525470D01*
X1227711Y525431D01*
Y525402D01*
Y525392D01*
Y525382D01*
X1227730Y525178D01*
X1227769Y524992D01*
X1227828Y524827D01*
X1227896Y524690D01*
X1227974Y524573D01*
X1228033Y524495D01*
X1228072Y524446D01*
X1228091Y524427D01*
X1228238Y524300D01*
X1228394Y524202D01*
X1228550Y524144D01*
X1228706Y524095D01*
X1228833Y524066D01*
X1228930Y524056D01*
X1228969Y524046D01*
X1229028D01*
X1229193Y524056D01*
X1229350Y524095D01*
X1229486Y524144D01*
X1229593Y524193D01*
X1229691Y524251D01*
X1229759Y524290D01*
X1229798Y524329D01*
X1229818Y524339D01*
X1229925Y524466D01*
X1230023Y524612D01*
X1230101Y524778D01*
X1230159Y524934D01*
X1230208Y525080D01*
X1230237Y525197D01*
X1230257Y525236D01*
Y525275D01*
X1230266Y525295D01*
Y525304D01*
X1231056Y525197D01*
X1231037Y525051D01*
X1231008Y524914D01*
X1230920Y524661D01*
X1230822Y524436D01*
X1230705Y524241D01*
X1230657Y524163D01*
X1230598Y524095D01*
X1230549Y524036D01*
X1230510Y523978D01*
X1230471Y523939D01*
X1230442Y523910D01*
X1230432Y523900D01*
X1230423Y523890D01*
X1230315Y523802D01*
X1230198Y523724D01*
X1230091Y523656D01*
X1229974Y523607D01*
X1229740Y523510D01*
X1229515Y523451D01*
X1229418Y523432D01*
X1229320Y523422D01*
X1229242Y523412D01*
X1229164Y523402D01*
X1229106Y523393D01*
X1229028D01*
X1228862Y523402D01*
X1228696Y523422D01*
X1228540Y523442D01*
X1228394Y523480D01*
X1228257Y523529D01*
X1228130Y523578D01*
X1228013Y523627D01*
X1227906Y523685D01*
X1227818Y523734D01*
X1227730Y523783D01*
X1227652Y523832D01*
X1227594Y523880D01*
X1227545Y523919D01*
X1227516Y523939D01*
X1227496Y523958D01*
X1227487Y523968D01*
X1227379Y524085D01*
X1227282Y524202D01*
X1227204Y524319D01*
X1227135Y524436D01*
X1227067Y524553D01*
X1227019Y524680D01*
X1226950Y524905D01*
X1226921Y525002D01*
X1226901Y525100D01*
X1226892Y525178D01*
X1226882Y525256D01*
X1226872Y525314D01*
Y525353D01*
Y525382D01*
Y525392D01*
X1226882Y525616D01*
X1226921Y525821D01*
X1226970Y525997D01*
X1227028Y526143D01*
X1227096Y526260D01*
X1227145Y526348D01*
X1227184Y526407D01*
X1227194Y526426D01*
X1227321Y526572D01*
X1227467Y526689D01*
X1227613Y526787D01*
X1227750Y526855D01*
X1227877Y526914D01*
X1227974Y526943D01*
X1228013Y526963D01*
X1228043D01*
X1228062Y526972D01*
X1228072D01*
X1227916Y527050D01*
X1227779Y527148D01*
X1227672Y527236D01*
X1227574Y527323D01*
X1227506Y527401D01*
X1227448Y527460D01*
X1227418Y527499D01*
X1227409Y527519D01*
X1227331Y527645D01*
X1227282Y527782D01*
X1227243Y527909D01*
X1227214Y528026D01*
X1227194Y528123D01*
X1227184Y528201D01*
Y528250D01*
Y528270D01*
X1227194Y528435D01*
X1227223Y528582D01*
X1227262Y528718D01*
X1227301Y528845D01*
X1227340Y528942D01*
X1227379Y529021D01*
X1227409Y529069D01*
X1227418Y529089D01*
X1227516Y529225D01*
X1227623Y529352D01*
X1227740Y529459D01*
X1227848Y529547D01*
X1227945Y529616D01*
X1228023Y529664D01*
X1228082Y529693D01*
X1228091Y529703D01*
X1228101D01*
X1228267Y529781D01*
X1228433Y529840D01*
X1228598Y529879D01*
X1228745Y529908D01*
X1228872Y529928D01*
X1228969Y529937D01*
X1229193D01*
X1229330Y529918D01*
D02*
G37*
G36*
X1234890Y523500D02*
X1234022D01*
X1231515Y529908D01*
X1232373D01*
X1234109Y525256D01*
X1234178Y525061D01*
X1234246Y524865D01*
X1234304Y524690D01*
X1234353Y524534D01*
X1234392Y524397D01*
X1234421Y524290D01*
X1234431Y524251D01*
X1234441Y524222D01*
X1234451Y524212D01*
Y524202D01*
X1234558Y524573D01*
X1234616Y524748D01*
X1234675Y524914D01*
X1234724Y525051D01*
X1234753Y525158D01*
X1234773Y525197D01*
X1234782Y525226D01*
X1234792Y525246D01*
Y525256D01*
X1236450Y529908D01*
X1237377D01*
X1234890Y523500D01*
D02*
G37*
G36*
X1234402Y504928D02*
X1234558Y504918D01*
X1234851Y504859D01*
X1234977Y504830D01*
X1235104Y504791D01*
X1235211Y504742D01*
X1235309Y504703D01*
X1235397Y504655D01*
X1235475Y504616D01*
X1235543Y504567D01*
X1235602Y504538D01*
X1235641Y504508D01*
X1235670Y504479D01*
X1235689Y504469D01*
X1235699Y504459D01*
X1235797Y504362D01*
X1235875Y504264D01*
X1236021Y504040D01*
X1236128Y503816D01*
X1236206Y503591D01*
X1236265Y503396D01*
X1236275Y503308D01*
X1236294Y503231D01*
X1236304Y503172D01*
X1236314Y503123D01*
Y503094D01*
Y503084D01*
X1235504Y502996D01*
X1235485Y503211D01*
X1235446Y503396D01*
X1235397Y503552D01*
X1235329Y503689D01*
X1235270Y503796D01*
X1235211Y503874D01*
X1235173Y503913D01*
X1235163Y503933D01*
X1235026Y504050D01*
X1234880Y504138D01*
X1234724Y504196D01*
X1234577Y504245D01*
X1234451Y504264D01*
X1234353Y504274D01*
X1234314Y504284D01*
X1234256D01*
X1234061Y504274D01*
X1233885Y504235D01*
X1233739Y504186D01*
X1233612Y504128D01*
X1233514Y504059D01*
X1233436Y504011D01*
X1233397Y503972D01*
X1233378Y503962D01*
X1233261Y503835D01*
X1233183Y503699D01*
X1233124Y503572D01*
X1233075Y503445D01*
X1233056Y503338D01*
X1233046Y503250D01*
X1233036Y503191D01*
Y503182D01*
Y503172D01*
X1233056Y503006D01*
X1233095Y502831D01*
X1233154Y502674D01*
X1233222Y502528D01*
X1233290Y502401D01*
X1233348Y502304D01*
X1233368Y502265D01*
X1233388Y502236D01*
X1233407Y502226D01*
Y502216D01*
X1233485Y502119D01*
X1233573Y502011D01*
X1233670Y501904D01*
X1233787Y501797D01*
X1234022Y501572D01*
X1234256Y501348D01*
X1234470Y501163D01*
X1234568Y501075D01*
X1234656Y501007D01*
X1234724Y500938D01*
X1234773Y500899D01*
X1234812Y500870D01*
X1234821Y500860D01*
X1235055Y500656D01*
X1235270Y500470D01*
X1235446Y500304D01*
X1235592Y500168D01*
X1235709Y500051D01*
X1235787Y499963D01*
X1235836Y499905D01*
X1235855Y499895D01*
Y499885D01*
X1235982Y499729D01*
X1236079Y499583D01*
X1236177Y499436D01*
X1236245Y499310D01*
X1236304Y499193D01*
X1236343Y499114D01*
X1236362Y499056D01*
X1236372Y499046D01*
Y499036D01*
X1236401Y498939D01*
X1236431Y498841D01*
X1236440Y498754D01*
X1236450Y498676D01*
X1236460Y498607D01*
Y498549D01*
Y498510D01*
Y498500D01*
X1232217D01*
Y499251D01*
X1235368D01*
X1235260Y499407D01*
X1235153Y499534D01*
X1235104Y499592D01*
X1235065Y499631D01*
X1235046Y499661D01*
X1235036Y499670D01*
X1234987Y499719D01*
X1234938Y499768D01*
X1234812Y499885D01*
X1234656Y500022D01*
X1234509Y500158D01*
X1234363Y500285D01*
X1234246Y500382D01*
X1234197Y500421D01*
X1234158Y500451D01*
X1234139Y500470D01*
X1234129Y500480D01*
X1233973Y500616D01*
X1233836Y500734D01*
X1233700Y500851D01*
X1233583Y500958D01*
X1233475Y501065D01*
X1233378Y501153D01*
X1233280Y501241D01*
X1233202Y501319D01*
X1233134Y501387D01*
X1233075Y501446D01*
X1232988Y501533D01*
X1232939Y501592D01*
X1232919Y501611D01*
X1232793Y501767D01*
X1232675Y501904D01*
X1232588Y502041D01*
X1232520Y502158D01*
X1232461Y502255D01*
X1232422Y502323D01*
X1232402Y502372D01*
X1232393Y502392D01*
X1232334Y502528D01*
X1232295Y502665D01*
X1232266Y502792D01*
X1232246Y502909D01*
X1232237Y503006D01*
X1232227Y503084D01*
Y503133D01*
Y503153D01*
X1232237Y503289D01*
X1232246Y503426D01*
X1232315Y503669D01*
X1232402Y503884D01*
X1232500Y504069D01*
X1232598Y504216D01*
X1232646Y504274D01*
X1232685Y504333D01*
X1232724Y504372D01*
X1232754Y504401D01*
X1232763Y504411D01*
X1232773Y504420D01*
X1232880Y504508D01*
X1232988Y504596D01*
X1233105Y504664D01*
X1233232Y504723D01*
X1233475Y504811D01*
X1233709Y504869D01*
X1233817Y504898D01*
X1233914Y504908D01*
X1234002Y504918D01*
X1234080Y504928D01*
X1234148Y504937D01*
X1234236D01*
X1234402Y504928D01*
D02*
G37*
G36*
X1229428D02*
X1229584Y504918D01*
X1229876Y504859D01*
X1230003Y504830D01*
X1230130Y504791D01*
X1230237Y504742D01*
X1230335Y504703D01*
X1230423Y504655D01*
X1230500Y504616D01*
X1230569Y504567D01*
X1230627Y504538D01*
X1230666Y504508D01*
X1230696Y504479D01*
X1230715Y504469D01*
X1230725Y504459D01*
X1230822Y504362D01*
X1230900Y504264D01*
X1231047Y504040D01*
X1231154Y503816D01*
X1231232Y503591D01*
X1231291Y503396D01*
X1231300Y503308D01*
X1231320Y503231D01*
X1231329Y503172D01*
X1231339Y503123D01*
Y503094D01*
Y503084D01*
X1230530Y502996D01*
X1230510Y503211D01*
X1230471Y503396D01*
X1230423Y503552D01*
X1230354Y503689D01*
X1230296Y503796D01*
X1230237Y503874D01*
X1230198Y503913D01*
X1230188Y503933D01*
X1230052Y504050D01*
X1229905Y504138D01*
X1229750Y504196D01*
X1229603Y504245D01*
X1229476Y504264D01*
X1229379Y504274D01*
X1229340Y504284D01*
X1229281D01*
X1229086Y504274D01*
X1228911Y504235D01*
X1228764Y504186D01*
X1228637Y504128D01*
X1228540Y504059D01*
X1228462Y504011D01*
X1228423Y503972D01*
X1228403Y503962D01*
X1228286Y503835D01*
X1228208Y503699D01*
X1228150Y503572D01*
X1228101Y503445D01*
X1228082Y503338D01*
X1228072Y503250D01*
X1228062Y503191D01*
Y503182D01*
Y503172D01*
X1228082Y503006D01*
X1228121Y502831D01*
X1228179Y502674D01*
X1228247Y502528D01*
X1228316Y502401D01*
X1228374Y502304D01*
X1228394Y502265D01*
X1228413Y502236D01*
X1228433Y502226D01*
Y502216D01*
X1228511Y502119D01*
X1228598Y502011D01*
X1228696Y501904D01*
X1228813Y501797D01*
X1229047Y501572D01*
X1229281Y501348D01*
X1229496Y501163D01*
X1229593Y501075D01*
X1229681Y501007D01*
X1229750Y500938D01*
X1229798Y500899D01*
X1229837Y500870D01*
X1229847Y500860D01*
X1230081Y500656D01*
X1230296Y500470D01*
X1230471Y500304D01*
X1230618Y500168D01*
X1230735Y500051D01*
X1230813Y499963D01*
X1230861Y499905D01*
X1230881Y499895D01*
Y499885D01*
X1231008Y499729D01*
X1231105Y499583D01*
X1231203Y499436D01*
X1231271Y499310D01*
X1231329Y499193D01*
X1231369Y499114D01*
X1231388Y499056D01*
X1231398Y499046D01*
Y499036D01*
X1231427Y498939D01*
X1231456Y498841D01*
X1231466Y498754D01*
X1231476Y498676D01*
X1231486Y498607D01*
Y498549D01*
Y498510D01*
Y498500D01*
X1227243D01*
Y499251D01*
X1230393D01*
X1230286Y499407D01*
X1230179Y499534D01*
X1230130Y499592D01*
X1230091Y499631D01*
X1230071Y499661D01*
X1230062Y499670D01*
X1230013Y499719D01*
X1229964Y499768D01*
X1229837Y499885D01*
X1229681Y500022D01*
X1229535Y500158D01*
X1229389Y500285D01*
X1229271Y500382D01*
X1229223Y500421D01*
X1229184Y500451D01*
X1229164Y500470D01*
X1229155Y500480D01*
X1228998Y500616D01*
X1228862Y500734D01*
X1228725Y500851D01*
X1228608Y500958D01*
X1228501Y501065D01*
X1228403Y501153D01*
X1228306Y501241D01*
X1228228Y501319D01*
X1228160Y501387D01*
X1228101Y501446D01*
X1228013Y501533D01*
X1227964Y501592D01*
X1227945Y501611D01*
X1227818Y501767D01*
X1227701Y501904D01*
X1227613Y502041D01*
X1227545Y502158D01*
X1227487Y502255D01*
X1227448Y502323D01*
X1227428Y502372D01*
X1227418Y502392D01*
X1227360Y502528D01*
X1227321Y502665D01*
X1227292Y502792D01*
X1227272Y502909D01*
X1227262Y503006D01*
X1227253Y503084D01*
Y503133D01*
Y503153D01*
X1227262Y503289D01*
X1227272Y503426D01*
X1227340Y503669D01*
X1227428Y503884D01*
X1227526Y504069D01*
X1227623Y504216D01*
X1227672Y504274D01*
X1227711Y504333D01*
X1227750Y504372D01*
X1227779Y504401D01*
X1227789Y504411D01*
X1227799Y504420D01*
X1227906Y504508D01*
X1228013Y504596D01*
X1228130Y504664D01*
X1228257Y504723D01*
X1228501Y504811D01*
X1228735Y504869D01*
X1228842Y504898D01*
X1228940Y504908D01*
X1229028Y504918D01*
X1229106Y504928D01*
X1229174Y504937D01*
X1229262D01*
X1229428Y504928D01*
D02*
G37*
G36*
X1242000Y498500D02*
X1241151D01*
Y501114D01*
X1239513D01*
X1239269Y501124D01*
X1239045Y501133D01*
X1238840Y501163D01*
X1238645Y501202D01*
X1238479Y501241D01*
X1238323Y501289D01*
X1238186Y501338D01*
X1238069Y501397D01*
X1237962Y501446D01*
X1237874Y501494D01*
X1237806Y501543D01*
X1237738Y501582D01*
X1237699Y501621D01*
X1237669Y501650D01*
X1237650Y501660D01*
X1237640Y501670D01*
X1237543Y501777D01*
X1237465Y501894D01*
X1237396Y502011D01*
X1237338Y502128D01*
X1237240Y502353D01*
X1237182Y502577D01*
X1237152Y502674D01*
X1237143Y502762D01*
X1237133Y502850D01*
X1237123Y502918D01*
X1237113Y502977D01*
Y503016D01*
Y503045D01*
Y503055D01*
X1237123Y503231D01*
X1237143Y503396D01*
X1237172Y503543D01*
X1237211Y503669D01*
X1237250Y503777D01*
X1237279Y503855D01*
X1237299Y503904D01*
X1237309Y503923D01*
X1237386Y504069D01*
X1237474Y504186D01*
X1237562Y504294D01*
X1237640Y504381D01*
X1237708Y504450D01*
X1237767Y504498D01*
X1237816Y504528D01*
X1237825Y504538D01*
X1237952Y504616D01*
X1238089Y504684D01*
X1238216Y504733D01*
X1238342Y504772D01*
X1238450Y504801D01*
X1238538Y504820D01*
X1238596Y504840D01*
X1238615D01*
X1238752Y504859D01*
X1238908Y504879D01*
X1239074Y504889D01*
X1239230Y504898D01*
X1239376Y504908D01*
X1242000D01*
Y498500D01*
D02*
G37*
G36*
X1233992Y479781D02*
X1234100Y479625D01*
X1234217Y479479D01*
X1234334Y479342D01*
X1234441Y479235D01*
X1234529Y479147D01*
X1234587Y479089D01*
X1234597Y479079D01*
X1234607Y479069D01*
X1234792Y478913D01*
X1234987Y478767D01*
X1235182Y478640D01*
X1235358Y478533D01*
X1235514Y478445D01*
X1235582Y478416D01*
X1235641Y478386D01*
X1235680Y478357D01*
X1235719Y478338D01*
X1235738Y478328D01*
X1235748D01*
Y477557D01*
X1235611Y477616D01*
X1235465Y477684D01*
X1235329Y477743D01*
X1235202Y477811D01*
X1235094Y477870D01*
X1235007Y477918D01*
X1234948Y477957D01*
X1234938Y477967D01*
X1234929D01*
X1234763Y478065D01*
X1234616Y478172D01*
X1234490Y478260D01*
X1234382Y478348D01*
X1234295Y478416D01*
X1234226Y478465D01*
X1234187Y478504D01*
X1234178Y478513D01*
Y473500D01*
X1233388D01*
Y479937D01*
X1233904D01*
X1233992Y479781D01*
D02*
G37*
G36*
X1229525Y479928D02*
X1229681Y479908D01*
X1229827Y479879D01*
X1229964Y479850D01*
X1230208Y479752D01*
X1230315Y479693D01*
X1230413Y479645D01*
X1230510Y479586D01*
X1230588Y479528D01*
X1230657Y479479D01*
X1230705Y479440D01*
X1230754Y479401D01*
X1230783Y479372D01*
X1230803Y479352D01*
X1230813Y479342D01*
X1230910Y479225D01*
X1230998Y479108D01*
X1231076Y478982D01*
X1231134Y478845D01*
X1231193Y478718D01*
X1231242Y478582D01*
X1231310Y478338D01*
X1231329Y478221D01*
X1231349Y478113D01*
X1231359Y478016D01*
X1231369Y477938D01*
X1231378Y477870D01*
Y477811D01*
Y477782D01*
Y477772D01*
X1231369Y477597D01*
X1231359Y477431D01*
X1231329Y477284D01*
X1231291Y477138D01*
X1231252Y477001D01*
X1231203Y476875D01*
X1231154Y476758D01*
X1231105Y476660D01*
X1231056Y476563D01*
X1231008Y476485D01*
X1230959Y476416D01*
X1230920Y476358D01*
X1230881Y476309D01*
X1230852Y476280D01*
X1230842Y476260D01*
X1230832Y476250D01*
X1230725Y476153D01*
X1230618Y476065D01*
X1230500Y475987D01*
X1230393Y475919D01*
X1230276Y475860D01*
X1230169Y475812D01*
X1229954Y475743D01*
X1229769Y475704D01*
X1229691Y475695D01*
X1229623Y475685D01*
X1229564Y475675D01*
X1229486D01*
X1229311Y475685D01*
X1229145Y475714D01*
X1228998Y475743D01*
X1228872Y475792D01*
X1228764Y475831D01*
X1228677Y475860D01*
X1228628Y475890D01*
X1228608Y475899D01*
X1228462Y475997D01*
X1228335Y476095D01*
X1228218Y476202D01*
X1228130Y476299D01*
X1228052Y476377D01*
X1228004Y476455D01*
X1227964Y476494D01*
X1227955Y476514D01*
Y476446D01*
Y476397D01*
Y476368D01*
Y476358D01*
Y476172D01*
X1227974Y475997D01*
X1227994Y475841D01*
X1228013Y475695D01*
X1228033Y475568D01*
X1228052Y475470D01*
X1228062Y475441D01*
Y475412D01*
X1228072Y475402D01*
Y475392D01*
X1228121Y475226D01*
X1228169Y475080D01*
X1228218Y474953D01*
X1228257Y474846D01*
X1228306Y474758D01*
X1228335Y474690D01*
X1228355Y474651D01*
X1228364Y474641D01*
X1228433Y474544D01*
X1228511Y474456D01*
X1228579Y474378D01*
X1228657Y474319D01*
X1228716Y474271D01*
X1228764Y474231D01*
X1228803Y474212D01*
X1228813Y474202D01*
X1228920Y474144D01*
X1229028Y474105D01*
X1229135Y474076D01*
X1229232Y474056D01*
X1229320Y474046D01*
X1229389Y474036D01*
X1229447D01*
X1229603Y474046D01*
X1229740Y474076D01*
X1229857Y474114D01*
X1229954Y474154D01*
X1230042Y474193D01*
X1230101Y474231D01*
X1230140Y474261D01*
X1230149Y474271D01*
X1230247Y474368D01*
X1230325Y474495D01*
X1230383Y474622D01*
X1230432Y474748D01*
X1230471Y474856D01*
X1230491Y474953D01*
X1230500Y474992D01*
X1230510Y475022D01*
Y475031D01*
Y475041D01*
X1231261Y474982D01*
X1231212Y474709D01*
X1231134Y474475D01*
X1231047Y474271D01*
X1230949Y474105D01*
X1230852Y473978D01*
X1230774Y473880D01*
X1230715Y473822D01*
X1230705Y473812D01*
X1230696Y473802D01*
X1230500Y473666D01*
X1230305Y473568D01*
X1230101Y473490D01*
X1229905Y473442D01*
X1229730Y473412D01*
X1229652Y473402D01*
X1229593D01*
X1229535Y473393D01*
X1229467D01*
X1229213Y473412D01*
X1228969Y473451D01*
X1228764Y473510D01*
X1228579Y473578D01*
X1228433Y473646D01*
X1228374Y473676D01*
X1228325Y473705D01*
X1228277Y473734D01*
X1228247Y473744D01*
X1228238Y473763D01*
X1228228D01*
X1228043Y473919D01*
X1227887Y474095D01*
X1227750Y474280D01*
X1227633Y474466D01*
X1227545Y474622D01*
X1227516Y474690D01*
X1227487Y474758D01*
X1227467Y474807D01*
X1227448Y474846D01*
X1227438Y474865D01*
Y474875D01*
X1227389Y475022D01*
X1227350Y475168D01*
X1227282Y475490D01*
X1227233Y475821D01*
X1227194Y476133D01*
X1227184Y476280D01*
X1227175Y476407D01*
Y476533D01*
X1227165Y476631D01*
Y476719D01*
Y476777D01*
Y476826D01*
Y476836D01*
Y477050D01*
X1227175Y477255D01*
X1227194Y477440D01*
X1227204Y477616D01*
X1227223Y477772D01*
X1227253Y477918D01*
X1227272Y478055D01*
X1227301Y478172D01*
X1227331Y478279D01*
X1227350Y478377D01*
X1227370Y478455D01*
X1227399Y478513D01*
X1227409Y478562D01*
X1227428Y478601D01*
X1227438Y478621D01*
Y478630D01*
X1227545Y478855D01*
X1227672Y479050D01*
X1227809Y479206D01*
X1227935Y479352D01*
X1228052Y479459D01*
X1228140Y479538D01*
X1228179Y479557D01*
X1228208Y479576D01*
X1228218Y479596D01*
X1228228D01*
X1228423Y479713D01*
X1228628Y479791D01*
X1228813Y479850D01*
X1228989Y479898D01*
X1229145Y479918D01*
X1229213Y479928D01*
X1229262D01*
X1229311Y479937D01*
X1229369D01*
X1229525Y479928D01*
D02*
G37*
G36*
X1242000Y473500D02*
X1241151D01*
Y476114D01*
X1239513D01*
X1239269Y476124D01*
X1239045Y476133D01*
X1238840Y476163D01*
X1238645Y476202D01*
X1238479Y476241D01*
X1238323Y476289D01*
X1238186Y476338D01*
X1238069Y476397D01*
X1237962Y476446D01*
X1237874Y476494D01*
X1237806Y476543D01*
X1237738Y476582D01*
X1237699Y476621D01*
X1237669Y476650D01*
X1237650Y476660D01*
X1237640Y476670D01*
X1237543Y476777D01*
X1237465Y476894D01*
X1237396Y477011D01*
X1237338Y477128D01*
X1237240Y477353D01*
X1237182Y477577D01*
X1237152Y477674D01*
X1237143Y477762D01*
X1237133Y477850D01*
X1237123Y477918D01*
X1237113Y477977D01*
Y478016D01*
Y478045D01*
Y478055D01*
X1237123Y478231D01*
X1237143Y478396D01*
X1237172Y478543D01*
X1237211Y478669D01*
X1237250Y478777D01*
X1237279Y478855D01*
X1237299Y478904D01*
X1237309Y478923D01*
X1237386Y479069D01*
X1237474Y479186D01*
X1237562Y479294D01*
X1237640Y479381D01*
X1237708Y479450D01*
X1237767Y479498D01*
X1237816Y479528D01*
X1237825Y479538D01*
X1237952Y479616D01*
X1238089Y479684D01*
X1238216Y479733D01*
X1238342Y479772D01*
X1238450Y479801D01*
X1238538Y479820D01*
X1238596Y479840D01*
X1238615D01*
X1238752Y479859D01*
X1238908Y479879D01*
X1239074Y479889D01*
X1239230Y479898D01*
X1239376Y479908D01*
X1242000D01*
Y473500D01*
D02*
G37*
G36*
X1234402Y454928D02*
X1234558Y454918D01*
X1234851Y454859D01*
X1234977Y454830D01*
X1235104Y454791D01*
X1235211Y454742D01*
X1235309Y454703D01*
X1235397Y454655D01*
X1235475Y454616D01*
X1235543Y454567D01*
X1235602Y454538D01*
X1235641Y454508D01*
X1235670Y454479D01*
X1235689Y454469D01*
X1235699Y454459D01*
X1235797Y454362D01*
X1235875Y454264D01*
X1236021Y454040D01*
X1236128Y453816D01*
X1236206Y453591D01*
X1236265Y453396D01*
X1236275Y453308D01*
X1236294Y453231D01*
X1236304Y453172D01*
X1236314Y453123D01*
Y453094D01*
Y453084D01*
X1235504Y452996D01*
X1235485Y453211D01*
X1235446Y453396D01*
X1235397Y453552D01*
X1235329Y453689D01*
X1235270Y453796D01*
X1235211Y453874D01*
X1235173Y453913D01*
X1235163Y453933D01*
X1235026Y454050D01*
X1234880Y454138D01*
X1234724Y454196D01*
X1234577Y454245D01*
X1234451Y454264D01*
X1234353Y454274D01*
X1234314Y454284D01*
X1234256D01*
X1234061Y454274D01*
X1233885Y454235D01*
X1233739Y454186D01*
X1233612Y454128D01*
X1233514Y454059D01*
X1233436Y454011D01*
X1233397Y453972D01*
X1233378Y453962D01*
X1233261Y453835D01*
X1233183Y453699D01*
X1233124Y453572D01*
X1233075Y453445D01*
X1233056Y453338D01*
X1233046Y453250D01*
X1233036Y453191D01*
Y453182D01*
Y453172D01*
X1233056Y453006D01*
X1233095Y452831D01*
X1233154Y452674D01*
X1233222Y452528D01*
X1233290Y452401D01*
X1233348Y452304D01*
X1233368Y452265D01*
X1233388Y452236D01*
X1233407Y452226D01*
Y452216D01*
X1233485Y452119D01*
X1233573Y452011D01*
X1233670Y451904D01*
X1233787Y451797D01*
X1234022Y451572D01*
X1234256Y451348D01*
X1234470Y451163D01*
X1234568Y451075D01*
X1234656Y451007D01*
X1234724Y450938D01*
X1234773Y450899D01*
X1234812Y450870D01*
X1234821Y450860D01*
X1235055Y450656D01*
X1235270Y450470D01*
X1235446Y450304D01*
X1235592Y450168D01*
X1235709Y450051D01*
X1235787Y449963D01*
X1235836Y449905D01*
X1235855Y449895D01*
Y449885D01*
X1235982Y449729D01*
X1236079Y449583D01*
X1236177Y449436D01*
X1236245Y449310D01*
X1236304Y449193D01*
X1236343Y449114D01*
X1236362Y449056D01*
X1236372Y449046D01*
Y449036D01*
X1236401Y448939D01*
X1236431Y448841D01*
X1236440Y448754D01*
X1236450Y448676D01*
X1236460Y448607D01*
Y448549D01*
Y448510D01*
Y448500D01*
X1232217D01*
Y449251D01*
X1235368D01*
X1235260Y449407D01*
X1235153Y449534D01*
X1235104Y449592D01*
X1235065Y449631D01*
X1235046Y449661D01*
X1235036Y449670D01*
X1234987Y449719D01*
X1234938Y449768D01*
X1234812Y449885D01*
X1234656Y450022D01*
X1234509Y450158D01*
X1234363Y450285D01*
X1234246Y450382D01*
X1234197Y450421D01*
X1234158Y450451D01*
X1234139Y450470D01*
X1234129Y450480D01*
X1233973Y450616D01*
X1233836Y450734D01*
X1233700Y450851D01*
X1233583Y450958D01*
X1233475Y451065D01*
X1233378Y451153D01*
X1233280Y451241D01*
X1233202Y451319D01*
X1233134Y451387D01*
X1233075Y451446D01*
X1232988Y451533D01*
X1232939Y451592D01*
X1232919Y451611D01*
X1232793Y451767D01*
X1232675Y451904D01*
X1232588Y452040D01*
X1232520Y452158D01*
X1232461Y452255D01*
X1232422Y452323D01*
X1232402Y452372D01*
X1232393Y452392D01*
X1232334Y452528D01*
X1232295Y452665D01*
X1232266Y452792D01*
X1232246Y452909D01*
X1232237Y453006D01*
X1232227Y453084D01*
Y453133D01*
Y453153D01*
X1232237Y453289D01*
X1232246Y453426D01*
X1232315Y453669D01*
X1232402Y453884D01*
X1232500Y454069D01*
X1232598Y454216D01*
X1232646Y454274D01*
X1232685Y454333D01*
X1232724Y454372D01*
X1232754Y454401D01*
X1232763Y454411D01*
X1232773Y454420D01*
X1232880Y454508D01*
X1232988Y454596D01*
X1233105Y454664D01*
X1233232Y454723D01*
X1233475Y454811D01*
X1233709Y454869D01*
X1233817Y454898D01*
X1233914Y454908D01*
X1234002Y454918D01*
X1234080Y454928D01*
X1234148Y454937D01*
X1234236D01*
X1234402Y454928D01*
D02*
G37*
G36*
X1229018Y454781D02*
X1229125Y454625D01*
X1229242Y454479D01*
X1229359Y454342D01*
X1229467Y454235D01*
X1229554Y454147D01*
X1229613Y454089D01*
X1229623Y454079D01*
X1229632Y454069D01*
X1229818Y453913D01*
X1230013Y453767D01*
X1230208Y453640D01*
X1230383Y453533D01*
X1230539Y453445D01*
X1230608Y453416D01*
X1230666Y453386D01*
X1230705Y453357D01*
X1230744Y453338D01*
X1230764Y453328D01*
X1230774D01*
Y452557D01*
X1230637Y452616D01*
X1230491Y452684D01*
X1230354Y452743D01*
X1230227Y452811D01*
X1230120Y452870D01*
X1230032Y452918D01*
X1229974Y452957D01*
X1229964Y452967D01*
X1229954D01*
X1229789Y453065D01*
X1229642Y453172D01*
X1229515Y453260D01*
X1229408Y453348D01*
X1229320Y453416D01*
X1229252Y453465D01*
X1229213Y453504D01*
X1229203Y453513D01*
Y448500D01*
X1228413D01*
Y454937D01*
X1228930D01*
X1229018Y454781D01*
D02*
G37*
G36*
X1242000Y448500D02*
X1241151D01*
Y451114D01*
X1239513D01*
X1239269Y451124D01*
X1239045Y451133D01*
X1238840Y451163D01*
X1238645Y451202D01*
X1238479Y451241D01*
X1238323Y451289D01*
X1238186Y451338D01*
X1238069Y451397D01*
X1237962Y451446D01*
X1237874Y451494D01*
X1237806Y451543D01*
X1237738Y451582D01*
X1237699Y451621D01*
X1237669Y451650D01*
X1237650Y451660D01*
X1237640Y451670D01*
X1237543Y451777D01*
X1237465Y451894D01*
X1237396Y452011D01*
X1237338Y452128D01*
X1237240Y452353D01*
X1237182Y452577D01*
X1237152Y452674D01*
X1237143Y452762D01*
X1237133Y452850D01*
X1237123Y452918D01*
X1237113Y452977D01*
Y453016D01*
Y453045D01*
Y453055D01*
X1237123Y453231D01*
X1237143Y453396D01*
X1237172Y453543D01*
X1237211Y453669D01*
X1237250Y453777D01*
X1237279Y453855D01*
X1237299Y453904D01*
X1237309Y453923D01*
X1237386Y454069D01*
X1237474Y454186D01*
X1237562Y454294D01*
X1237640Y454381D01*
X1237708Y454450D01*
X1237767Y454498D01*
X1237816Y454528D01*
X1237825Y454538D01*
X1237952Y454616D01*
X1238089Y454684D01*
X1238216Y454733D01*
X1238342Y454772D01*
X1238450Y454801D01*
X1238538Y454820D01*
X1238596Y454840D01*
X1238615D01*
X1238752Y454859D01*
X1238908Y454879D01*
X1239074Y454889D01*
X1239230Y454898D01*
X1239376Y454908D01*
X1242000D01*
Y448500D01*
D02*
G37*
G36*
X1317000D02*
X1316151D01*
Y451114D01*
X1314513D01*
X1314269Y451124D01*
X1314045Y451133D01*
X1313840Y451163D01*
X1313645Y451202D01*
X1313479Y451241D01*
X1313323Y451289D01*
X1313186Y451338D01*
X1313069Y451397D01*
X1312962Y451446D01*
X1312874Y451494D01*
X1312806Y451543D01*
X1312738Y451582D01*
X1312699Y451621D01*
X1312669Y451650D01*
X1312650Y451660D01*
X1312640Y451670D01*
X1312543Y451777D01*
X1312465Y451894D01*
X1312396Y452011D01*
X1312338Y452128D01*
X1312240Y452353D01*
X1312182Y452577D01*
X1312153Y452674D01*
X1312143Y452762D01*
X1312133Y452850D01*
X1312123Y452918D01*
X1312113Y452977D01*
Y453016D01*
Y453045D01*
Y453055D01*
X1312123Y453231D01*
X1312143Y453396D01*
X1312172Y453543D01*
X1312211Y453669D01*
X1312250Y453777D01*
X1312279Y453855D01*
X1312299Y453904D01*
X1312309Y453923D01*
X1312387Y454069D01*
X1312474Y454186D01*
X1312562Y454294D01*
X1312640Y454381D01*
X1312708Y454450D01*
X1312767Y454498D01*
X1312816Y454528D01*
X1312825Y454538D01*
X1312952Y454616D01*
X1313089Y454684D01*
X1313216Y454733D01*
X1313342Y454772D01*
X1313450Y454801D01*
X1313537Y454820D01*
X1313596Y454840D01*
X1313616D01*
X1313752Y454859D01*
X1313908Y454879D01*
X1314074Y454889D01*
X1314230Y454898D01*
X1314376Y454908D01*
X1317000D01*
Y448500D01*
D02*
G37*
G36*
X1309431Y454928D02*
X1309568Y454918D01*
X1309831Y454859D01*
X1310065Y454791D01*
X1310251Y454703D01*
X1310338Y454655D01*
X1310407Y454616D01*
X1310465Y454567D01*
X1310524Y454538D01*
X1310563Y454508D01*
X1310592Y454479D01*
X1310602Y454469D01*
X1310611Y454459D01*
X1310699Y454372D01*
X1310777Y454274D01*
X1310845Y454177D01*
X1310894Y454069D01*
X1310992Y453874D01*
X1311050Y453689D01*
X1311080Y453523D01*
X1311089Y453455D01*
X1311099Y453396D01*
X1311109Y453348D01*
Y453308D01*
Y453289D01*
Y453279D01*
X1311099Y453113D01*
X1311070Y452967D01*
X1311031Y452831D01*
X1310992Y452714D01*
X1310953Y452616D01*
X1310914Y452548D01*
X1310885Y452509D01*
X1310875Y452489D01*
X1310777Y452372D01*
X1310660Y452275D01*
X1310543Y452187D01*
X1310416Y452109D01*
X1310309Y452060D01*
X1310221Y452011D01*
X1310163Y451992D01*
X1310153Y451982D01*
X1310143D01*
X1310348Y451914D01*
X1310533Y451826D01*
X1310689Y451728D01*
X1310816Y451631D01*
X1310914Y451543D01*
X1310992Y451465D01*
X1311031Y451416D01*
X1311050Y451407D01*
Y451397D01*
X1311158Y451231D01*
X1311226Y451055D01*
X1311284Y450880D01*
X1311323Y450714D01*
X1311343Y450578D01*
X1311353Y450509D01*
Y450461D01*
X1311362Y450412D01*
Y450382D01*
Y450363D01*
Y450353D01*
X1311353Y450197D01*
X1311333Y450051D01*
X1311314Y449914D01*
X1311275Y449778D01*
X1311177Y449544D01*
X1311128Y449436D01*
X1311070Y449339D01*
X1311021Y449251D01*
X1310972Y449173D01*
X1310923Y449105D01*
X1310875Y449046D01*
X1310836Y449007D01*
X1310816Y448978D01*
X1310797Y448958D01*
X1310787Y448949D01*
X1310670Y448851D01*
X1310553Y448763D01*
X1310426Y448695D01*
X1310299Y448627D01*
X1310172Y448578D01*
X1310046Y448529D01*
X1309802Y448461D01*
X1309685Y448442D01*
X1309587Y448422D01*
X1309490Y448412D01*
X1309412Y448402D01*
X1309343Y448393D01*
X1309256D01*
X1309080Y448402D01*
X1308914Y448412D01*
X1308758Y448442D01*
X1308622Y448480D01*
X1308485Y448520D01*
X1308358Y448568D01*
X1308241Y448617D01*
X1308134Y448676D01*
X1308036Y448724D01*
X1307958Y448773D01*
X1307890Y448822D01*
X1307832Y448861D01*
X1307783Y448900D01*
X1307754Y448929D01*
X1307734Y448939D01*
X1307724Y448949D01*
X1307617Y449056D01*
X1307529Y449163D01*
X1307451Y449280D01*
X1307383Y449397D01*
X1307324Y449514D01*
X1307285Y449631D01*
X1307207Y449846D01*
X1307168Y450041D01*
X1307159Y450129D01*
X1307149Y450197D01*
X1307139Y450256D01*
Y450295D01*
Y450324D01*
Y450334D01*
X1307149Y450548D01*
X1307188Y450743D01*
X1307237Y450919D01*
X1307295Y451065D01*
X1307354Y451192D01*
X1307402Y451280D01*
X1307442Y451338D01*
X1307451Y451358D01*
X1307578Y451504D01*
X1307724Y451641D01*
X1307871Y451748D01*
X1308017Y451836D01*
X1308144Y451894D01*
X1308251Y451943D01*
X1308290Y451963D01*
X1308319Y451972D01*
X1308339Y451982D01*
X1308349D01*
X1308183Y452050D01*
X1308036Y452138D01*
X1307910Y452216D01*
X1307812Y452294D01*
X1307734Y452372D01*
X1307676Y452431D01*
X1307646Y452470D01*
X1307637Y452480D01*
X1307558Y452606D01*
X1307500Y452743D01*
X1307461Y452870D01*
X1307432Y452996D01*
X1307412Y453104D01*
X1307402Y453182D01*
Y453240D01*
Y453260D01*
X1307412Y453386D01*
X1307422Y453513D01*
X1307480Y453738D01*
X1307568Y453942D01*
X1307656Y454118D01*
X1307754Y454255D01*
X1307802Y454313D01*
X1307841Y454362D01*
X1307871Y454401D01*
X1307900Y454430D01*
X1307910Y454440D01*
X1307919Y454450D01*
X1308017Y454538D01*
X1308124Y454616D01*
X1308232Y454674D01*
X1308349Y454733D01*
X1308573Y454820D01*
X1308788Y454879D01*
X1308983Y454908D01*
X1309061Y454928D01*
X1309139D01*
X1309197Y454937D01*
X1309275D01*
X1309431Y454928D01*
D02*
G37*
G36*
X1309500Y479928D02*
X1309655Y479908D01*
X1309802Y479879D01*
X1309938Y479850D01*
X1310182Y479752D01*
X1310289Y479693D01*
X1310387Y479645D01*
X1310485Y479586D01*
X1310563Y479528D01*
X1310631Y479479D01*
X1310680Y479440D01*
X1310728Y479401D01*
X1310758Y479372D01*
X1310777Y479352D01*
X1310787Y479342D01*
X1310885Y479225D01*
X1310972Y479108D01*
X1311050Y478982D01*
X1311109Y478845D01*
X1311167Y478718D01*
X1311216Y478582D01*
X1311284Y478338D01*
X1311304Y478221D01*
X1311323Y478113D01*
X1311333Y478016D01*
X1311343Y477938D01*
X1311353Y477870D01*
Y477811D01*
Y477782D01*
Y477772D01*
X1311343Y477597D01*
X1311333Y477431D01*
X1311304Y477284D01*
X1311265Y477138D01*
X1311226Y477001D01*
X1311177Y476875D01*
X1311128Y476758D01*
X1311080Y476660D01*
X1311031Y476563D01*
X1310982Y476485D01*
X1310933Y476416D01*
X1310894Y476358D01*
X1310855Y476309D01*
X1310826Y476280D01*
X1310816Y476260D01*
X1310806Y476250D01*
X1310699Y476153D01*
X1310592Y476065D01*
X1310475Y475987D01*
X1310368Y475919D01*
X1310251Y475860D01*
X1310143Y475812D01*
X1309929Y475743D01*
X1309743Y475704D01*
X1309665Y475695D01*
X1309597Y475685D01*
X1309539Y475675D01*
X1309460D01*
X1309285Y475685D01*
X1309119Y475714D01*
X1308973Y475743D01*
X1308846Y475792D01*
X1308739Y475831D01*
X1308651Y475860D01*
X1308602Y475890D01*
X1308583Y475899D01*
X1308436Y475997D01*
X1308310Y476095D01*
X1308192Y476202D01*
X1308105Y476299D01*
X1308027Y476377D01*
X1307978Y476455D01*
X1307939Y476494D01*
X1307929Y476514D01*
Y476446D01*
Y476397D01*
Y476368D01*
Y476358D01*
Y476172D01*
X1307949Y475997D01*
X1307968Y475841D01*
X1307988Y475695D01*
X1308007Y475568D01*
X1308027Y475470D01*
X1308036Y475441D01*
Y475412D01*
X1308046Y475402D01*
Y475392D01*
X1308095Y475226D01*
X1308144Y475080D01*
X1308192Y474953D01*
X1308232Y474846D01*
X1308280Y474758D01*
X1308310Y474690D01*
X1308329Y474651D01*
X1308339Y474641D01*
X1308407Y474544D01*
X1308485Y474456D01*
X1308553Y474378D01*
X1308631Y474319D01*
X1308690Y474271D01*
X1308739Y474231D01*
X1308778Y474212D01*
X1308788Y474202D01*
X1308895Y474144D01*
X1309002Y474105D01*
X1309109Y474076D01*
X1309207Y474056D01*
X1309295Y474046D01*
X1309363Y474036D01*
X1309422D01*
X1309577Y474046D01*
X1309714Y474076D01*
X1309831Y474114D01*
X1309929Y474154D01*
X1310016Y474193D01*
X1310075Y474231D01*
X1310114Y474261D01*
X1310124Y474271D01*
X1310221Y474368D01*
X1310299Y474495D01*
X1310358Y474622D01*
X1310407Y474748D01*
X1310446Y474856D01*
X1310465Y474953D01*
X1310475Y474992D01*
X1310485Y475022D01*
Y475031D01*
Y475041D01*
X1311236Y474982D01*
X1311187Y474709D01*
X1311109Y474475D01*
X1311021Y474271D01*
X1310923Y474105D01*
X1310826Y473978D01*
X1310748Y473880D01*
X1310689Y473822D01*
X1310680Y473812D01*
X1310670Y473802D01*
X1310475Y473666D01*
X1310280Y473568D01*
X1310075Y473490D01*
X1309880Y473442D01*
X1309704Y473412D01*
X1309626Y473402D01*
X1309568D01*
X1309509Y473393D01*
X1309441D01*
X1309187Y473412D01*
X1308943Y473451D01*
X1308739Y473510D01*
X1308553Y473578D01*
X1308407Y473646D01*
X1308349Y473676D01*
X1308300Y473705D01*
X1308251Y473734D01*
X1308222Y473744D01*
X1308212Y473763D01*
X1308202D01*
X1308017Y473919D01*
X1307861Y474095D01*
X1307724Y474280D01*
X1307607Y474466D01*
X1307520Y474622D01*
X1307490Y474690D01*
X1307461Y474758D01*
X1307442Y474807D01*
X1307422Y474846D01*
X1307412Y474865D01*
Y474875D01*
X1307363Y475022D01*
X1307324Y475168D01*
X1307256Y475490D01*
X1307207Y475821D01*
X1307168Y476133D01*
X1307159Y476280D01*
X1307149Y476407D01*
Y476533D01*
X1307139Y476631D01*
Y476719D01*
Y476777D01*
Y476826D01*
Y476836D01*
Y477050D01*
X1307149Y477255D01*
X1307168Y477440D01*
X1307178Y477616D01*
X1307198Y477772D01*
X1307227Y477918D01*
X1307246Y478055D01*
X1307276Y478172D01*
X1307305Y478279D01*
X1307324Y478377D01*
X1307344Y478455D01*
X1307373Y478513D01*
X1307383Y478562D01*
X1307402Y478601D01*
X1307412Y478621D01*
Y478630D01*
X1307520Y478855D01*
X1307646Y479050D01*
X1307783Y479206D01*
X1307910Y479352D01*
X1308027Y479459D01*
X1308114Y479538D01*
X1308154Y479557D01*
X1308183Y479576D01*
X1308192Y479596D01*
X1308202D01*
X1308397Y479713D01*
X1308602Y479791D01*
X1308788Y479850D01*
X1308963Y479898D01*
X1309119Y479918D01*
X1309187Y479928D01*
X1309236D01*
X1309285Y479937D01*
X1309343D01*
X1309500Y479928D01*
D02*
G37*
G36*
X1317000Y473500D02*
X1316151D01*
Y476114D01*
X1314513D01*
X1314269Y476124D01*
X1314045Y476133D01*
X1313840Y476163D01*
X1313645Y476202D01*
X1313479Y476241D01*
X1313323Y476289D01*
X1313186Y476338D01*
X1313069Y476397D01*
X1312962Y476446D01*
X1312874Y476494D01*
X1312806Y476543D01*
X1312738Y476582D01*
X1312699Y476621D01*
X1312669Y476650D01*
X1312650Y476660D01*
X1312640Y476670D01*
X1312543Y476777D01*
X1312465Y476894D01*
X1312396Y477011D01*
X1312338Y477128D01*
X1312240Y477353D01*
X1312182Y477577D01*
X1312153Y477674D01*
X1312143Y477762D01*
X1312133Y477850D01*
X1312123Y477918D01*
X1312113Y477977D01*
Y478016D01*
Y478045D01*
Y478055D01*
X1312123Y478231D01*
X1312143Y478396D01*
X1312172Y478543D01*
X1312211Y478669D01*
X1312250Y478777D01*
X1312279Y478855D01*
X1312299Y478904D01*
X1312309Y478923D01*
X1312387Y479069D01*
X1312474Y479186D01*
X1312562Y479294D01*
X1312640Y479381D01*
X1312708Y479450D01*
X1312767Y479498D01*
X1312816Y479528D01*
X1312825Y479538D01*
X1312952Y479616D01*
X1313089Y479684D01*
X1313216Y479733D01*
X1313342Y479772D01*
X1313450Y479801D01*
X1313537Y479820D01*
X1313596Y479840D01*
X1313616D01*
X1313752Y479859D01*
X1313908Y479879D01*
X1314074Y479889D01*
X1314230Y479898D01*
X1314376Y479908D01*
X1317000D01*
Y473500D01*
D02*
G37*
G36*
X1308992Y504781D02*
X1309100Y504625D01*
X1309217Y504479D01*
X1309334Y504342D01*
X1309441Y504235D01*
X1309529Y504147D01*
X1309587Y504089D01*
X1309597Y504079D01*
X1309607Y504069D01*
X1309792Y503913D01*
X1309987Y503767D01*
X1310182Y503640D01*
X1310358Y503533D01*
X1310514Y503445D01*
X1310582Y503416D01*
X1310641Y503386D01*
X1310680Y503357D01*
X1310719Y503338D01*
X1310738Y503328D01*
X1310748D01*
Y502557D01*
X1310611Y502616D01*
X1310465Y502684D01*
X1310329Y502743D01*
X1310202Y502811D01*
X1310094Y502870D01*
X1310007Y502918D01*
X1309948Y502957D01*
X1309938Y502967D01*
X1309929D01*
X1309763Y503065D01*
X1309617Y503172D01*
X1309490Y503260D01*
X1309382Y503348D01*
X1309295Y503416D01*
X1309226Y503465D01*
X1309187Y503504D01*
X1309178Y503513D01*
Y498500D01*
X1308388D01*
Y504937D01*
X1308905D01*
X1308992Y504781D01*
D02*
G37*
G36*
X1306242Y501524D02*
X1305500Y501416D01*
X1305432Y501514D01*
X1305354Y501602D01*
X1305276Y501680D01*
X1305208Y501748D01*
X1305140Y501797D01*
X1305081Y501836D01*
X1305042Y501855D01*
X1305032Y501865D01*
X1304915Y501923D01*
X1304798Y501972D01*
X1304681Y502001D01*
X1304574Y502031D01*
X1304476Y502041D01*
X1304408Y502050D01*
X1304340D01*
X1304125Y502031D01*
X1303930Y501992D01*
X1303755Y501923D01*
X1303618Y501855D01*
X1303501Y501787D01*
X1303423Y501719D01*
X1303374Y501680D01*
X1303355Y501660D01*
X1303228Y501504D01*
X1303130Y501329D01*
X1303062Y501153D01*
X1303023Y500987D01*
X1302994Y500831D01*
X1302984Y500763D01*
Y500704D01*
X1302974Y500665D01*
Y500626D01*
Y500607D01*
Y500597D01*
X1302994Y500343D01*
X1303033Y500119D01*
X1303101Y499924D01*
X1303169Y499758D01*
X1303238Y499631D01*
X1303306Y499534D01*
X1303345Y499475D01*
X1303365Y499466D01*
Y499456D01*
X1303443Y499378D01*
X1303521Y499319D01*
X1303677Y499212D01*
X1303842Y499144D01*
X1303989Y499085D01*
X1304125Y499056D01*
X1304232Y499046D01*
X1304272Y499036D01*
X1304330D01*
X1304496Y499046D01*
X1304652Y499085D01*
X1304789Y499134D01*
X1304906Y499183D01*
X1305003Y499241D01*
X1305071Y499280D01*
X1305110Y499319D01*
X1305130Y499329D01*
X1305247Y499456D01*
X1305335Y499602D01*
X1305413Y499748D01*
X1305461Y499895D01*
X1305500Y500031D01*
X1305530Y500139D01*
X1305540Y500178D01*
X1305549Y500207D01*
Y500226D01*
Y500236D01*
X1306378Y500178D01*
X1306359Y500031D01*
X1306330Y499885D01*
X1306252Y499631D01*
X1306144Y499407D01*
X1306037Y499222D01*
X1305978Y499144D01*
X1305930Y499076D01*
X1305881Y499017D01*
X1305842Y498968D01*
X1305803Y498929D01*
X1305774Y498900D01*
X1305764Y498890D01*
X1305754Y498880D01*
X1305647Y498793D01*
X1305530Y498724D01*
X1305413Y498656D01*
X1305296Y498597D01*
X1305062Y498510D01*
X1304837Y498451D01*
X1304730Y498432D01*
X1304632Y498422D01*
X1304545Y498412D01*
X1304476Y498402D01*
X1304418Y498393D01*
X1304330D01*
X1304135Y498402D01*
X1303950Y498422D01*
X1303784Y498461D01*
X1303618Y498510D01*
X1303472Y498568D01*
X1303326Y498637D01*
X1303199Y498705D01*
X1303091Y498783D01*
X1302984Y498851D01*
X1302896Y498919D01*
X1302818Y498988D01*
X1302760Y499046D01*
X1302711Y499095D01*
X1302672Y499134D01*
X1302652Y499154D01*
X1302643Y499163D01*
X1302555Y499280D01*
X1302477Y499407D01*
X1302409Y499534D01*
X1302350Y499670D01*
X1302262Y499914D01*
X1302194Y500148D01*
X1302175Y500256D01*
X1302165Y500353D01*
X1302155Y500441D01*
X1302145Y500519D01*
X1302135Y500578D01*
Y500626D01*
Y500656D01*
Y500665D01*
X1302145Y500831D01*
X1302165Y500997D01*
X1302194Y501143D01*
X1302223Y501289D01*
X1302272Y501416D01*
X1302321Y501543D01*
X1302370Y501650D01*
X1302428Y501758D01*
X1302487Y501846D01*
X1302535Y501923D01*
X1302584Y501992D01*
X1302633Y502050D01*
X1302662Y502099D01*
X1302691Y502128D01*
X1302711Y502148D01*
X1302721Y502158D01*
X1302828Y502265D01*
X1302945Y502353D01*
X1303062Y502431D01*
X1303189Y502499D01*
X1303306Y502557D01*
X1303423Y502597D01*
X1303647Y502674D01*
X1303745Y502694D01*
X1303842Y502714D01*
X1303920Y502723D01*
X1303999Y502733D01*
X1304057Y502743D01*
X1304135D01*
X1304369Y502723D01*
X1304593Y502674D01*
X1304798Y502616D01*
X1304974Y502538D01*
X1305130Y502460D01*
X1305188Y502431D01*
X1305247Y502401D01*
X1305286Y502372D01*
X1305315Y502353D01*
X1305335Y502343D01*
X1305345Y502333D01*
X1304993Y504059D01*
X1302438D01*
Y504811D01*
X1305618D01*
X1306242Y501524D01*
D02*
G37*
G36*
X1317000Y498500D02*
X1316151D01*
Y501114D01*
X1314513D01*
X1314269Y501124D01*
X1314045Y501133D01*
X1313840Y501163D01*
X1313645Y501202D01*
X1313479Y501241D01*
X1313323Y501289D01*
X1313186Y501338D01*
X1313069Y501397D01*
X1312962Y501446D01*
X1312874Y501494D01*
X1312806Y501543D01*
X1312738Y501582D01*
X1312699Y501621D01*
X1312669Y501650D01*
X1312650Y501660D01*
X1312640Y501670D01*
X1312543Y501777D01*
X1312465Y501894D01*
X1312396Y502011D01*
X1312338Y502128D01*
X1312240Y502353D01*
X1312182Y502577D01*
X1312153Y502674D01*
X1312143Y502762D01*
X1312133Y502850D01*
X1312123Y502918D01*
X1312113Y502977D01*
Y503016D01*
Y503045D01*
Y503055D01*
X1312123Y503231D01*
X1312143Y503396D01*
X1312172Y503543D01*
X1312211Y503669D01*
X1312250Y503777D01*
X1312279Y503855D01*
X1312299Y503904D01*
X1312309Y503923D01*
X1312387Y504069D01*
X1312474Y504186D01*
X1312562Y504294D01*
X1312640Y504381D01*
X1312708Y504450D01*
X1312767Y504498D01*
X1312816Y504528D01*
X1312825Y504538D01*
X1312952Y504616D01*
X1313089Y504684D01*
X1313216Y504733D01*
X1313342Y504772D01*
X1313450Y504801D01*
X1313537Y504820D01*
X1313596Y504840D01*
X1313616D01*
X1313752Y504859D01*
X1313908Y504879D01*
X1314074Y504889D01*
X1314230Y504898D01*
X1314376Y504908D01*
X1317000D01*
Y498500D01*
D02*
G37*
G36*
X1309402Y529928D02*
X1309558Y529918D01*
X1309851Y529859D01*
X1309977Y529830D01*
X1310104Y529791D01*
X1310211Y529742D01*
X1310309Y529703D01*
X1310397Y529655D01*
X1310475Y529616D01*
X1310543Y529567D01*
X1310602Y529538D01*
X1310641Y529508D01*
X1310670Y529479D01*
X1310689Y529469D01*
X1310699Y529459D01*
X1310797Y529362D01*
X1310875Y529264D01*
X1311021Y529040D01*
X1311128Y528816D01*
X1311206Y528591D01*
X1311265Y528396D01*
X1311275Y528308D01*
X1311294Y528231D01*
X1311304Y528172D01*
X1311314Y528123D01*
Y528094D01*
Y528084D01*
X1310504Y527996D01*
X1310485Y528211D01*
X1310446Y528396D01*
X1310397Y528552D01*
X1310329Y528689D01*
X1310270Y528796D01*
X1310211Y528874D01*
X1310172Y528913D01*
X1310163Y528933D01*
X1310026Y529050D01*
X1309880Y529138D01*
X1309724Y529196D01*
X1309577Y529245D01*
X1309451Y529264D01*
X1309353Y529274D01*
X1309314Y529284D01*
X1309256D01*
X1309061Y529274D01*
X1308885Y529235D01*
X1308739Y529186D01*
X1308612Y529128D01*
X1308514Y529059D01*
X1308436Y529011D01*
X1308397Y528972D01*
X1308378Y528962D01*
X1308261Y528835D01*
X1308183Y528699D01*
X1308124Y528572D01*
X1308076Y528445D01*
X1308056Y528338D01*
X1308046Y528250D01*
X1308036Y528191D01*
Y528182D01*
Y528172D01*
X1308056Y528006D01*
X1308095Y527831D01*
X1308154Y527674D01*
X1308222Y527528D01*
X1308290Y527401D01*
X1308349Y527304D01*
X1308368Y527265D01*
X1308388Y527236D01*
X1308407Y527226D01*
Y527216D01*
X1308485Y527119D01*
X1308573Y527011D01*
X1308670Y526904D01*
X1308788Y526797D01*
X1309022Y526572D01*
X1309256Y526348D01*
X1309470Y526163D01*
X1309568Y526075D01*
X1309655Y526007D01*
X1309724Y525938D01*
X1309773Y525899D01*
X1309812Y525870D01*
X1309821Y525860D01*
X1310055Y525656D01*
X1310270Y525470D01*
X1310446Y525304D01*
X1310592Y525168D01*
X1310709Y525051D01*
X1310787Y524963D01*
X1310836Y524905D01*
X1310855Y524895D01*
Y524885D01*
X1310982Y524729D01*
X1311080Y524583D01*
X1311177Y524436D01*
X1311245Y524310D01*
X1311304Y524193D01*
X1311343Y524114D01*
X1311362Y524056D01*
X1311372Y524046D01*
Y524036D01*
X1311401Y523939D01*
X1311431Y523841D01*
X1311440Y523754D01*
X1311450Y523676D01*
X1311460Y523607D01*
Y523549D01*
Y523510D01*
Y523500D01*
X1307217D01*
Y524251D01*
X1310368D01*
X1310260Y524407D01*
X1310153Y524534D01*
X1310104Y524592D01*
X1310065Y524631D01*
X1310046Y524661D01*
X1310036Y524670D01*
X1309987Y524719D01*
X1309938Y524768D01*
X1309812Y524885D01*
X1309655Y525022D01*
X1309509Y525158D01*
X1309363Y525285D01*
X1309246Y525382D01*
X1309197Y525421D01*
X1309158Y525451D01*
X1309139Y525470D01*
X1309129Y525480D01*
X1308973Y525616D01*
X1308836Y525734D01*
X1308700Y525851D01*
X1308583Y525958D01*
X1308475Y526065D01*
X1308378Y526153D01*
X1308280Y526241D01*
X1308202Y526319D01*
X1308134Y526387D01*
X1308076Y526446D01*
X1307988Y526533D01*
X1307939Y526592D01*
X1307919Y526611D01*
X1307793Y526768D01*
X1307676Y526904D01*
X1307588Y527041D01*
X1307520Y527158D01*
X1307461Y527255D01*
X1307422Y527323D01*
X1307402Y527372D01*
X1307393Y527392D01*
X1307334Y527528D01*
X1307295Y527665D01*
X1307266Y527792D01*
X1307246Y527909D01*
X1307237Y528006D01*
X1307227Y528084D01*
Y528133D01*
Y528153D01*
X1307237Y528289D01*
X1307246Y528426D01*
X1307315Y528669D01*
X1307402Y528884D01*
X1307500Y529069D01*
X1307598Y529216D01*
X1307646Y529274D01*
X1307685Y529333D01*
X1307724Y529372D01*
X1307754Y529401D01*
X1307763Y529411D01*
X1307773Y529420D01*
X1307880Y529508D01*
X1307988Y529596D01*
X1308105Y529664D01*
X1308232Y529723D01*
X1308475Y529811D01*
X1308709Y529869D01*
X1308817Y529898D01*
X1308914Y529908D01*
X1309002Y529918D01*
X1309080Y529928D01*
X1309148Y529937D01*
X1309236D01*
X1309402Y529928D01*
D02*
G37*
G36*
X1317000Y523500D02*
X1316151D01*
Y526114D01*
X1314513D01*
X1314269Y526124D01*
X1314045Y526133D01*
X1313840Y526163D01*
X1313645Y526202D01*
X1313479Y526241D01*
X1313323Y526289D01*
X1313186Y526338D01*
X1313069Y526397D01*
X1312962Y526446D01*
X1312874Y526494D01*
X1312806Y526543D01*
X1312738Y526582D01*
X1312699Y526621D01*
X1312669Y526650D01*
X1312650Y526660D01*
X1312640Y526670D01*
X1312543Y526777D01*
X1312465Y526894D01*
X1312396Y527011D01*
X1312338Y527128D01*
X1312240Y527353D01*
X1312182Y527577D01*
X1312153Y527674D01*
X1312143Y527762D01*
X1312133Y527850D01*
X1312123Y527918D01*
X1312113Y527977D01*
Y528016D01*
Y528045D01*
Y528055D01*
X1312123Y528231D01*
X1312143Y528396D01*
X1312172Y528543D01*
X1312211Y528669D01*
X1312250Y528777D01*
X1312279Y528855D01*
X1312299Y528904D01*
X1312309Y528923D01*
X1312387Y529069D01*
X1312474Y529186D01*
X1312562Y529294D01*
X1312640Y529381D01*
X1312708Y529450D01*
X1312767Y529498D01*
X1312816Y529528D01*
X1312825Y529538D01*
X1312952Y529616D01*
X1313089Y529684D01*
X1313216Y529733D01*
X1313342Y529772D01*
X1313450Y529801D01*
X1313537Y529820D01*
X1313596Y529840D01*
X1313616D01*
X1313752Y529859D01*
X1313908Y529879D01*
X1314074Y529889D01*
X1314230Y529898D01*
X1314376Y529908D01*
X1317000D01*
Y523500D01*
D02*
G37*
G36*
X1304545Y529918D02*
X1304769Y529879D01*
X1304974Y529820D01*
X1305140Y529752D01*
X1305276Y529674D01*
X1305374Y529616D01*
X1305413Y529596D01*
X1305442Y529576D01*
X1305452Y529557D01*
X1305461D01*
X1305627Y529401D01*
X1305764Y529235D01*
X1305881Y529059D01*
X1305978Y528884D01*
X1306057Y528728D01*
X1306086Y528660D01*
X1306105Y528601D01*
X1306125Y528552D01*
X1306144Y528513D01*
X1306154Y528494D01*
Y528484D01*
X1306193Y528348D01*
X1306232Y528211D01*
X1306281Y527909D01*
X1306320Y527606D01*
X1306349Y527314D01*
X1306359Y527177D01*
X1306369Y527050D01*
Y526943D01*
X1306378Y526846D01*
Y526768D01*
Y526709D01*
Y526670D01*
Y526660D01*
X1306369Y526338D01*
X1306349Y526026D01*
X1306320Y525753D01*
X1306281Y525490D01*
X1306232Y525256D01*
X1306183Y525041D01*
X1306125Y524846D01*
X1306066Y524680D01*
X1306008Y524524D01*
X1305949Y524397D01*
X1305900Y524290D01*
X1305852Y524202D01*
X1305813Y524134D01*
X1305783Y524085D01*
X1305764Y524056D01*
X1305754Y524046D01*
X1305647Y523929D01*
X1305540Y523832D01*
X1305423Y523744D01*
X1305296Y523666D01*
X1305179Y523607D01*
X1305052Y523549D01*
X1304818Y523471D01*
X1304711Y523451D01*
X1304613Y523432D01*
X1304525Y523412D01*
X1304447Y523402D01*
X1304379Y523393D01*
X1304291D01*
X1304037Y523412D01*
X1303813Y523451D01*
X1303618Y523510D01*
X1303443Y523578D01*
X1303316Y523646D01*
X1303208Y523705D01*
X1303179Y523734D01*
X1303150Y523744D01*
X1303140Y523763D01*
X1303130D01*
X1302965Y523919D01*
X1302828Y524095D01*
X1302711Y524271D01*
X1302613Y524446D01*
X1302535Y524602D01*
X1302506Y524661D01*
X1302477Y524719D01*
X1302457Y524768D01*
X1302448Y524807D01*
X1302438Y524827D01*
Y524836D01*
X1302399Y524973D01*
X1302360Y525109D01*
X1302301Y525412D01*
X1302262Y525714D01*
X1302233Y526007D01*
X1302223Y526143D01*
X1302214Y526270D01*
Y526377D01*
X1302204Y526475D01*
Y526553D01*
Y526611D01*
Y526650D01*
Y526660D01*
X1302214Y527001D01*
Y527148D01*
X1302223Y527294D01*
X1302233Y527431D01*
X1302253Y527557D01*
X1302262Y527665D01*
X1302272Y527772D01*
X1302292Y527860D01*
X1302301Y527948D01*
X1302311Y528016D01*
X1302331Y528065D01*
X1302340Y528113D01*
Y528143D01*
X1302350Y528162D01*
Y528172D01*
X1302409Y528377D01*
X1302477Y528562D01*
X1302545Y528728D01*
X1302604Y528865D01*
X1302662Y528972D01*
X1302711Y529059D01*
X1302740Y529108D01*
X1302750Y529128D01*
X1302847Y529264D01*
X1302955Y529381D01*
X1303062Y529489D01*
X1303160Y529576D01*
X1303257Y529635D01*
X1303326Y529684D01*
X1303374Y529713D01*
X1303394Y529723D01*
X1303540Y529791D01*
X1303696Y529850D01*
X1303852Y529889D01*
X1303989Y529908D01*
X1304106Y529928D01*
X1304203Y529937D01*
X1304291D01*
X1304545Y529918D01*
D02*
G37*
G36*
X1364838Y491579D02*
X1361697D01*
X1361921Y491306D01*
X1362126Y491023D01*
X1362321Y490740D01*
X1362497Y490477D01*
X1362565Y490350D01*
X1362633Y490243D01*
X1362692Y490145D01*
X1362741Y490057D01*
X1362780Y489989D01*
X1362809Y489940D01*
X1362829Y489901D01*
X1362838Y489892D01*
X1363024Y489521D01*
X1363189Y489150D01*
X1363326Y488799D01*
X1363385Y488633D01*
X1363443Y488487D01*
X1363492Y488341D01*
X1363531Y488214D01*
X1363570Y488107D01*
X1363599Y488009D01*
X1363619Y487931D01*
X1363638Y487873D01*
X1363648Y487834D01*
Y487824D01*
X1363745Y487434D01*
X1363784Y487258D01*
X1363814Y487083D01*
X1363843Y486927D01*
X1363862Y486780D01*
X1363882Y486634D01*
X1363901Y486507D01*
X1363911Y486400D01*
X1363921Y486293D01*
X1363931Y486205D01*
Y486137D01*
X1363940Y486078D01*
Y486039D01*
Y486010D01*
Y486000D01*
X1363131D01*
X1363102Y486351D01*
X1363063Y486683D01*
X1363014Y486975D01*
X1362985Y487112D01*
X1362965Y487239D01*
X1362936Y487346D01*
X1362916Y487453D01*
X1362897Y487541D01*
X1362877Y487619D01*
X1362858Y487678D01*
X1362848Y487717D01*
X1362838Y487746D01*
Y487756D01*
X1362702Y488185D01*
X1362555Y488585D01*
X1362477Y488780D01*
X1362399Y488965D01*
X1362321Y489141D01*
X1362253Y489297D01*
X1362185Y489443D01*
X1362117Y489580D01*
X1362058Y489697D01*
X1362009Y489794D01*
X1361970Y489872D01*
X1361941Y489931D01*
X1361921Y489970D01*
X1361912Y489980D01*
X1361795Y490174D01*
X1361687Y490370D01*
X1361570Y490545D01*
X1361463Y490711D01*
X1361366Y490867D01*
X1361258Y491004D01*
X1361161Y491140D01*
X1361073Y491257D01*
X1360995Y491355D01*
X1360917Y491452D01*
X1360849Y491530D01*
X1360800Y491599D01*
X1360751Y491647D01*
X1360722Y491686D01*
X1360702Y491706D01*
X1360692Y491716D01*
Y492330D01*
X1364838D01*
Y491579D01*
D02*
G37*
G36*
X1366798Y487990D02*
Y487795D01*
X1366818Y487629D01*
X1366828Y487492D01*
X1366847Y487375D01*
X1366866Y487287D01*
X1366876Y487229D01*
X1366896Y487190D01*
Y487180D01*
X1366935Y487092D01*
X1366983Y487014D01*
X1367032Y486946D01*
X1367091Y486897D01*
X1367140Y486849D01*
X1367179Y486819D01*
X1367208Y486800D01*
X1367218Y486790D01*
X1367305Y486741D01*
X1367393Y486702D01*
X1367491Y486683D01*
X1367578Y486663D01*
X1367647Y486654D01*
X1367705Y486644D01*
X1367764D01*
X1367920Y486654D01*
X1368056Y486683D01*
X1368174Y486731D01*
X1368271Y486780D01*
X1368349Y486819D01*
X1368398Y486868D01*
X1368437Y486897D01*
X1368447Y486907D01*
X1368486Y486966D01*
X1368525Y487034D01*
X1368593Y487180D01*
X1368642Y487346D01*
X1368671Y487522D01*
X1368700Y487678D01*
X1368710Y487746D01*
Y487804D01*
X1368720Y487853D01*
Y487892D01*
Y487912D01*
Y487921D01*
X1369480Y487814D01*
Y487639D01*
X1369471Y487482D01*
X1369451Y487327D01*
X1369422Y487190D01*
X1369393Y487053D01*
X1369354Y486936D01*
X1369315Y486829D01*
X1369276Y486731D01*
X1369237Y486654D01*
X1369188Y486576D01*
X1369159Y486517D01*
X1369120Y486458D01*
X1369090Y486419D01*
X1369071Y486390D01*
X1369051Y486380D01*
Y486371D01*
X1368963Y486283D01*
X1368866Y486215D01*
X1368768Y486146D01*
X1368661Y486097D01*
X1368447Y486010D01*
X1368242Y485951D01*
X1368056Y485922D01*
X1367969Y485912D01*
X1367900Y485902D01*
X1367842Y485893D01*
X1367764D01*
X1367559Y485902D01*
X1367364Y485932D01*
X1367198Y485961D01*
X1367052Y486010D01*
X1366935Y486049D01*
X1366847Y486078D01*
X1366788Y486107D01*
X1366769Y486117D01*
X1366623Y486215D01*
X1366486Y486322D01*
X1366379Y486429D01*
X1366291Y486546D01*
X1366232Y486644D01*
X1366184Y486722D01*
X1366154Y486771D01*
X1366145Y486790D01*
X1366077Y486966D01*
X1366028Y487170D01*
X1365998Y487375D01*
X1365969Y487580D01*
X1365959Y487756D01*
Y487834D01*
X1365950Y487902D01*
Y487961D01*
Y487999D01*
Y488029D01*
Y488038D01*
Y492408D01*
X1366798D01*
Y487990D01*
D02*
G37*
G36*
X1314541Y681500D02*
X1313731D01*
Y686533D01*
X1310366Y681500D01*
X1309498D01*
Y687908D01*
X1310308D01*
Y682875D01*
X1313683Y687908D01*
X1314541D01*
Y681500D01*
D02*
G37*
G36*
X1318852Y687996D02*
X1319164Y687957D01*
X1319457Y687889D01*
X1319583Y687850D01*
X1319700Y687820D01*
X1319808Y687781D01*
X1319905Y687742D01*
X1319993Y687713D01*
X1320061Y687674D01*
X1320110Y687654D01*
X1320159Y687635D01*
X1320178Y687616D01*
X1320188D01*
X1320325Y687538D01*
X1320442Y687450D01*
X1320676Y687264D01*
X1320861Y687069D01*
X1321027Y686874D01*
X1321144Y686689D01*
X1321193Y686621D01*
X1321242Y686552D01*
X1321271Y686494D01*
X1321290Y686455D01*
X1321310Y686426D01*
Y686416D01*
X1321437Y686114D01*
X1321534Y685801D01*
X1321602Y685509D01*
X1321651Y685236D01*
X1321671Y685119D01*
X1321680Y685011D01*
X1321690Y684914D01*
Y684826D01*
X1321700Y684758D01*
Y684709D01*
Y684680D01*
Y684670D01*
X1321680Y684329D01*
X1321642Y684007D01*
X1321573Y683714D01*
X1321544Y683577D01*
X1321505Y683460D01*
X1321466Y683343D01*
X1321437Y683246D01*
X1321398Y683158D01*
X1321368Y683090D01*
X1321349Y683031D01*
X1321329Y682992D01*
X1321310Y682963D01*
Y682953D01*
X1321144Y682690D01*
X1320959Y682456D01*
X1320773Y682251D01*
X1320578Y682085D01*
X1320412Y681958D01*
X1320344Y681910D01*
X1320276Y681871D01*
X1320227Y681832D01*
X1320178Y681812D01*
X1320159Y681802D01*
X1320149Y681793D01*
X1319857Y681656D01*
X1319554Y681559D01*
X1319271Y681490D01*
X1318998Y681441D01*
X1318881Y681422D01*
X1318774Y681412D01*
X1318676Y681403D01*
X1318589D01*
X1318520Y681393D01*
X1318432D01*
X1318179Y681403D01*
X1317925Y681432D01*
X1317701Y681471D01*
X1317496Y681519D01*
X1317408Y681539D01*
X1317321Y681559D01*
X1317252Y681578D01*
X1317194Y681598D01*
X1317145Y681617D01*
X1317106Y681627D01*
X1317086Y681637D01*
X1317077D01*
X1316833Y681744D01*
X1316589Y681861D01*
X1316375Y681988D01*
X1316180Y682105D01*
X1316014Y682222D01*
X1315945Y682261D01*
X1315887Y682310D01*
X1315838Y682339D01*
X1315809Y682368D01*
X1315789Y682378D01*
X1315780Y682388D01*
Y684768D01*
X1318491D01*
Y684016D01*
X1316609D01*
Y682807D01*
X1316726Y682719D01*
X1316853Y682631D01*
X1316979Y682553D01*
X1317106Y682485D01*
X1317223Y682427D01*
X1317321Y682388D01*
X1317360Y682368D01*
X1317389Y682358D01*
X1317399Y682349D01*
X1317408D01*
X1317603Y682280D01*
X1317799Y682232D01*
X1317984Y682193D01*
X1318140Y682173D01*
X1318277Y682153D01*
X1318384Y682144D01*
X1318481D01*
X1318715Y682153D01*
X1318940Y682183D01*
X1319135Y682232D01*
X1319320Y682280D01*
X1319466Y682329D01*
X1319535Y682358D01*
X1319583Y682378D01*
X1319622Y682388D01*
X1319652Y682407D01*
X1319671Y682417D01*
X1319681D01*
X1319876Y682534D01*
X1320052Y682670D01*
X1320198Y682817D01*
X1320315Y682953D01*
X1320403Y683080D01*
X1320471Y683178D01*
X1320500Y683217D01*
X1320520Y683246D01*
X1320530Y683265D01*
Y683275D01*
X1320627Y683509D01*
X1320695Y683743D01*
X1320754Y683987D01*
X1320783Y684221D01*
X1320793Y684319D01*
X1320803Y684416D01*
X1320812Y684504D01*
Y684572D01*
X1320822Y684641D01*
Y684680D01*
Y684709D01*
Y684719D01*
X1320812Y684972D01*
X1320783Y685216D01*
X1320744Y685431D01*
X1320695Y685626D01*
X1320656Y685782D01*
X1320637Y685850D01*
X1320617Y685899D01*
X1320598Y685948D01*
X1320588Y685977D01*
X1320578Y685996D01*
Y686006D01*
X1320520Y686133D01*
X1320461Y686250D01*
X1320393Y686357D01*
X1320325Y686455D01*
X1320266Y686533D01*
X1320217Y686591D01*
X1320188Y686630D01*
X1320178Y686640D01*
X1320071Y686747D01*
X1319964Y686835D01*
X1319847Y686913D01*
X1319740Y686982D01*
X1319642Y687040D01*
X1319564Y687079D01*
X1319515Y687099D01*
X1319496Y687108D01*
X1319330Y687167D01*
X1319164Y687216D01*
X1318988Y687245D01*
X1318832Y687274D01*
X1318696Y687284D01*
X1318589Y687294D01*
X1318491D01*
X1318315Y687284D01*
X1318150Y687264D01*
X1318003Y687235D01*
X1317877Y687206D01*
X1317769Y687177D01*
X1317681Y687147D01*
X1317633Y687128D01*
X1317613Y687118D01*
X1317467Y687050D01*
X1317350Y686982D01*
X1317243Y686904D01*
X1317155Y686835D01*
X1317086Y686767D01*
X1317038Y686718D01*
X1317009Y686679D01*
X1316999Y686669D01*
X1316921Y686552D01*
X1316853Y686426D01*
X1316794Y686299D01*
X1316745Y686182D01*
X1316706Y686065D01*
X1316667Y685977D01*
X1316657Y685918D01*
X1316648Y685909D01*
Y685899D01*
X1315877Y686114D01*
X1315945Y686348D01*
X1316023Y686552D01*
X1316101Y686728D01*
X1316180Y686874D01*
X1316257Y687001D01*
X1316316Y687089D01*
X1316355Y687138D01*
X1316365Y687157D01*
X1316492Y687303D01*
X1316638Y687420D01*
X1316784Y687528D01*
X1316931Y687616D01*
X1317057Y687693D01*
X1317155Y687742D01*
X1317194Y687762D01*
X1317223Y687772D01*
X1317243Y687781D01*
X1317252D01*
X1317467Y687859D01*
X1317681Y687918D01*
X1317896Y687957D01*
X1318081Y687986D01*
X1318247Y688006D01*
X1318325D01*
X1318384Y688015D01*
X1318501D01*
X1318852Y687996D01*
D02*
G37*
G36*
X1308074Y681500D02*
X1305772D01*
X1305558Y681510D01*
X1305363Y681519D01*
X1305187Y681539D01*
X1305041Y681559D01*
X1304914Y681578D01*
X1304826Y681588D01*
X1304768Y681607D01*
X1304748D01*
X1304582Y681656D01*
X1304436Y681705D01*
X1304309Y681754D01*
X1304202Y681802D01*
X1304114Y681851D01*
X1304046Y681890D01*
X1303997Y681910D01*
X1303987Y681919D01*
X1303870Y682007D01*
X1303763Y682105D01*
X1303656Y682202D01*
X1303578Y682290D01*
X1303500Y682378D01*
X1303451Y682446D01*
X1303412Y682485D01*
X1303402Y682505D01*
X1303305Y682651D01*
X1303217Y682807D01*
X1303139Y682963D01*
X1303080Y683109D01*
X1303032Y683246D01*
X1302993Y683343D01*
X1302983Y683382D01*
X1302973Y683412D01*
X1302963Y683431D01*
Y683441D01*
X1302905Y683656D01*
X1302866Y683880D01*
X1302827Y684104D01*
X1302807Y684299D01*
X1302798Y684475D01*
Y684553D01*
X1302788Y684611D01*
Y684670D01*
Y684709D01*
Y684728D01*
Y684738D01*
X1302798Y685050D01*
X1302827Y685333D01*
X1302866Y685587D01*
X1302895Y685704D01*
X1302915Y685811D01*
X1302934Y685909D01*
X1302963Y685996D01*
X1302983Y686074D01*
X1303002Y686133D01*
X1303022Y686182D01*
X1303032Y686221D01*
X1303041Y686240D01*
Y686250D01*
X1303149Y686494D01*
X1303266Y686708D01*
X1303392Y686894D01*
X1303519Y687050D01*
X1303627Y687177D01*
X1303714Y687274D01*
X1303783Y687333D01*
X1303792Y687352D01*
X1303802D01*
X1303958Y687469D01*
X1304114Y687567D01*
X1304270Y687645D01*
X1304417Y687703D01*
X1304543Y687752D01*
X1304651Y687781D01*
X1304690Y687801D01*
X1304709D01*
X1304729Y687811D01*
X1304738D01*
X1304895Y687840D01*
X1305080Y687869D01*
X1305275Y687889D01*
X1305450Y687898D01*
X1305616Y687908D01*
X1308074D01*
Y681500D01*
D02*
G37*
G36*
X1321563Y659524D02*
X1320822Y659416D01*
X1320754Y659514D01*
X1320676Y659602D01*
X1320598Y659680D01*
X1320530Y659748D01*
X1320461Y659797D01*
X1320403Y659836D01*
X1320364Y659855D01*
X1320354Y659865D01*
X1320237Y659923D01*
X1320120Y659972D01*
X1320003Y660002D01*
X1319896Y660031D01*
X1319798Y660041D01*
X1319730Y660050D01*
X1319662D01*
X1319447Y660031D01*
X1319252Y659992D01*
X1319076Y659923D01*
X1318940Y659855D01*
X1318823Y659787D01*
X1318745Y659719D01*
X1318696Y659680D01*
X1318676Y659660D01*
X1318550Y659504D01*
X1318452Y659329D01*
X1318384Y659153D01*
X1318345Y658987D01*
X1318315Y658831D01*
X1318306Y658763D01*
Y658704D01*
X1318296Y658665D01*
Y658626D01*
Y658607D01*
Y658597D01*
X1318315Y658343D01*
X1318354Y658119D01*
X1318423Y657924D01*
X1318491Y657758D01*
X1318559Y657631D01*
X1318628Y657534D01*
X1318667Y657475D01*
X1318686Y657466D01*
Y657456D01*
X1318764Y657378D01*
X1318842Y657319D01*
X1318998Y657212D01*
X1319164Y657144D01*
X1319310Y657085D01*
X1319447Y657056D01*
X1319554Y657046D01*
X1319593Y657037D01*
X1319652D01*
X1319818Y657046D01*
X1319974Y657085D01*
X1320110Y657134D01*
X1320227Y657183D01*
X1320325Y657241D01*
X1320393Y657280D01*
X1320432Y657319D01*
X1320452Y657329D01*
X1320569Y657456D01*
X1320656Y657602D01*
X1320734Y657748D01*
X1320783Y657895D01*
X1320822Y658031D01*
X1320851Y658139D01*
X1320861Y658178D01*
X1320871Y658207D01*
Y658226D01*
Y658236D01*
X1321700Y658178D01*
X1321680Y658031D01*
X1321651Y657885D01*
X1321573Y657631D01*
X1321466Y657407D01*
X1321359Y657222D01*
X1321300Y657144D01*
X1321251Y657076D01*
X1321203Y657017D01*
X1321164Y656968D01*
X1321125Y656929D01*
X1321095Y656900D01*
X1321086Y656890D01*
X1321076Y656880D01*
X1320968Y656793D01*
X1320851Y656724D01*
X1320734Y656656D01*
X1320617Y656598D01*
X1320383Y656510D01*
X1320159Y656451D01*
X1320052Y656432D01*
X1319954Y656422D01*
X1319866Y656412D01*
X1319798Y656403D01*
X1319740Y656393D01*
X1319652D01*
X1319457Y656403D01*
X1319271Y656422D01*
X1319106Y656461D01*
X1318940Y656510D01*
X1318793Y656568D01*
X1318647Y656637D01*
X1318520Y656705D01*
X1318413Y656783D01*
X1318306Y656851D01*
X1318218Y656919D01*
X1318140Y656988D01*
X1318081Y657046D01*
X1318033Y657095D01*
X1317994Y657134D01*
X1317974Y657153D01*
X1317964Y657163D01*
X1317877Y657280D01*
X1317799Y657407D01*
X1317730Y657534D01*
X1317672Y657670D01*
X1317584Y657914D01*
X1317516Y658148D01*
X1317496Y658256D01*
X1317486Y658353D01*
X1317477Y658441D01*
X1317467Y658519D01*
X1317457Y658577D01*
Y658626D01*
Y658656D01*
Y658665D01*
X1317467Y658831D01*
X1317486Y658997D01*
X1317516Y659143D01*
X1317545Y659289D01*
X1317594Y659416D01*
X1317643Y659543D01*
X1317691Y659650D01*
X1317750Y659758D01*
X1317808Y659846D01*
X1317857Y659923D01*
X1317906Y659992D01*
X1317955Y660050D01*
X1317984Y660099D01*
X1318013Y660128D01*
X1318033Y660148D01*
X1318042Y660158D01*
X1318150Y660265D01*
X1318267Y660353D01*
X1318384Y660431D01*
X1318511Y660499D01*
X1318628Y660557D01*
X1318745Y660596D01*
X1318969Y660675D01*
X1319066Y660694D01*
X1319164Y660714D01*
X1319242Y660723D01*
X1319320Y660733D01*
X1319379Y660743D01*
X1319457D01*
X1319691Y660723D01*
X1319915Y660675D01*
X1320120Y660616D01*
X1320296Y660538D01*
X1320452Y660460D01*
X1320510Y660431D01*
X1320569Y660401D01*
X1320608Y660372D01*
X1320637Y660353D01*
X1320656Y660343D01*
X1320666Y660333D01*
X1320315Y662060D01*
X1317760D01*
Y662811D01*
X1320939D01*
X1321563Y659524D01*
D02*
G37*
G36*
X1314580Y656500D02*
X1313712D01*
X1311205Y662908D01*
X1312063D01*
X1313800Y658256D01*
X1313868Y658061D01*
X1313936Y657866D01*
X1313995Y657690D01*
X1314043Y657534D01*
X1314082Y657397D01*
X1314112Y657290D01*
X1314122Y657251D01*
X1314131Y657222D01*
X1314141Y657212D01*
Y657202D01*
X1314248Y657573D01*
X1314307Y657748D01*
X1314365Y657914D01*
X1314414Y658051D01*
X1314443Y658158D01*
X1314463Y658197D01*
X1314473Y658226D01*
X1314482Y658246D01*
Y658256D01*
X1316140Y662908D01*
X1317067D01*
X1314580Y656500D01*
D02*
G37*
G36*
X446877Y330214D02*
X447080Y330189D01*
X447257Y330151D01*
X447434Y330113D01*
X447587Y330062D01*
X447726Y330011D01*
X447853Y329961D01*
X447954Y329910D01*
X448055Y329847D01*
X448131Y329809D01*
X448208Y329758D01*
X448258Y329720D01*
X448296Y329695D01*
X448309Y329669D01*
X448322D01*
X448436Y329555D01*
X448524Y329428D01*
X448613Y329302D01*
X448676Y329162D01*
X448791Y328883D01*
X448867Y328617D01*
X448905Y328376D01*
X448917Y328262D01*
X448930Y328173D01*
X448943Y328097D01*
Y327996D01*
X448930Y327730D01*
X448892Y327476D01*
X448854Y327261D01*
X448791Y327071D01*
X448740Y326919D01*
X448702Y326805D01*
X448664Y326729D01*
X448651Y326703D01*
X448524Y326513D01*
X448385Y326336D01*
X448246Y326196D01*
X448093Y326082D01*
X447967Y326006D01*
X447865Y325943D01*
X447802Y325905D01*
X447777Y325892D01*
X447548Y325803D01*
X447282Y325740D01*
X447016Y325702D01*
X446750Y325664D01*
X446522Y325651D01*
X446420D01*
X446332Y325639D01*
X446256D01*
X446205D01*
X446167D01*
X446154D01*
X440476D01*
Y326741D01*
X446218D01*
X446471D01*
X446687Y326767D01*
X446864Y326779D01*
X447016Y326805D01*
X447130Y326830D01*
X447206Y326843D01*
X447257Y326868D01*
X447270D01*
X447384Y326919D01*
X447485Y326982D01*
X447574Y327046D01*
X447637Y327122D01*
X447701Y327185D01*
X447739Y327236D01*
X447764Y327274D01*
X447777Y327286D01*
X447840Y327400D01*
X447891Y327514D01*
X447916Y327641D01*
X447941Y327755D01*
X447954Y327844D01*
X447967Y327920D01*
Y327996D01*
X447954Y328199D01*
X447916Y328376D01*
X447853Y328528D01*
X447789Y328655D01*
X447739Y328756D01*
X447675Y328820D01*
X447637Y328871D01*
X447625Y328883D01*
X447548Y328934D01*
X447460Y328985D01*
X447270Y329073D01*
X447054Y329137D01*
X446826Y329175D01*
X446623Y329213D01*
X446535Y329226D01*
X446458D01*
X446395Y329238D01*
X446344D01*
X446319D01*
X446306D01*
X446446Y330227D01*
X446674D01*
X446877Y330214D01*
D02*
G37*
G36*
X445305Y324295D02*
X445660Y324270D01*
X446002Y324232D01*
X446306Y324181D01*
X446585Y324118D01*
X446839Y324054D01*
X447067Y323978D01*
X447270Y323902D01*
X447447Y323839D01*
X447599Y323763D01*
X447726Y323699D01*
X447827Y323636D01*
X447903Y323585D01*
X447954Y323547D01*
X447992Y323522D01*
X448005Y323509D01*
X448170Y323357D01*
X448309Y323192D01*
X448436Y323015D01*
X448550Y322837D01*
X448638Y322660D01*
X448714Y322495D01*
X448778Y322318D01*
X448829Y322153D01*
X448867Y322001D01*
X448892Y321862D01*
X448917Y321735D01*
X448930Y321633D01*
Y321545D01*
X448943Y321469D01*
Y321418D01*
X448930Y321152D01*
X448892Y320898D01*
X448829Y320670D01*
X448765Y320467D01*
X448702Y320315D01*
X448638Y320188D01*
X448600Y320112D01*
X448588Y320087D01*
X448436Y319872D01*
X448271Y319694D01*
X448106Y319529D01*
X447941Y319390D01*
X447789Y319289D01*
X447675Y319213D01*
X447625Y319187D01*
X447587Y319162D01*
X447574Y319149D01*
X447561D01*
X447308Y319035D01*
X447054Y318946D01*
X446801Y318896D01*
X446585Y318845D01*
X446382Y318820D01*
X446306D01*
X446230Y318807D01*
X446180D01*
X446142D01*
X446116D01*
X446104D01*
X445888Y318820D01*
X445673Y318832D01*
X445482Y318870D01*
X445292Y318921D01*
X445128Y318972D01*
X444963Y319035D01*
X444823Y319098D01*
X444684Y319162D01*
X444570Y319238D01*
X444468Y319301D01*
X444380Y319365D01*
X444304Y319415D01*
X444240Y319466D01*
X444202Y319504D01*
X444177Y319517D01*
X444164Y319529D01*
X444025Y319669D01*
X443911Y319808D01*
X443810Y319960D01*
X443721Y320112D01*
X443645Y320252D01*
X443594Y320404D01*
X443493Y320670D01*
X443442Y320911D01*
X443429Y321012D01*
X443416Y321101D01*
X443404Y321177D01*
Y321278D01*
X443416Y321494D01*
X443442Y321697D01*
X443493Y321887D01*
X443543Y322052D01*
X443594Y322191D01*
X443645Y322305D01*
X443670Y322369D01*
X443683Y322394D01*
X443797Y322584D01*
X443923Y322761D01*
X444063Y322914D01*
X444202Y323040D01*
X444329Y323154D01*
X444431Y323230D01*
X444494Y323281D01*
X444507Y323294D01*
X444291D01*
X444076Y323281D01*
X443873Y323268D01*
X443683Y323256D01*
X443518Y323230D01*
X443353Y323205D01*
X443214Y323180D01*
X443087Y323154D01*
X442973Y323129D01*
X442872Y323104D01*
X442783Y323078D01*
X442719Y323053D01*
X442669Y323040D01*
X442618Y323028D01*
X442605Y323015D01*
X442593D01*
X442352Y322901D01*
X442136Y322774D01*
X441959Y322647D01*
X441819Y322521D01*
X441706Y322419D01*
X441617Y322331D01*
X441566Y322280D01*
X441553Y322254D01*
X441465Y322102D01*
X441389Y321963D01*
X441338Y321811D01*
X441313Y321671D01*
X441287Y321557D01*
X441274Y321469D01*
Y321380D01*
X441287Y321165D01*
X441338Y320962D01*
X441414Y320784D01*
X441490Y320632D01*
X441579Y320518D01*
X441642Y320429D01*
X441693Y320366D01*
X441718Y320353D01*
X441832Y320265D01*
X441959Y320188D01*
X442251Y320062D01*
X442377Y320024D01*
X442479Y319986D01*
X442555Y319960D01*
X442567D01*
X442580D01*
X442504Y318946D01*
X442162Y319010D01*
X441858Y319124D01*
X441604Y319238D01*
X441389Y319377D01*
X441224Y319504D01*
X441097Y319606D01*
X441021Y319681D01*
X440996Y319694D01*
Y319707D01*
X440894Y319834D01*
X440806Y319960D01*
X440679Y320227D01*
X440577Y320493D01*
X440501Y320746D01*
X440463Y320974D01*
X440451Y321076D01*
Y321152D01*
X440438Y321228D01*
Y321317D01*
X440451Y321557D01*
X440476Y321786D01*
X440527Y322001D01*
X440590Y322204D01*
X440666Y322394D01*
X440742Y322559D01*
X440831Y322723D01*
X440920Y322863D01*
X441008Y322990D01*
X441097Y323104D01*
X441173Y323192D01*
X441249Y323281D01*
X441313Y323344D01*
X441363Y323382D01*
X441389Y323408D01*
X441401Y323420D01*
X441617Y323573D01*
X441870Y323712D01*
X442124Y323826D01*
X442415Y323927D01*
X442694Y324016D01*
X442986Y324092D01*
X443277Y324156D01*
X443569Y324194D01*
X443835Y324232D01*
X444088Y324257D01*
X444316Y324282D01*
X444519Y324295D01*
X444684Y324308D01*
X444811D01*
X444849D01*
X444887D01*
X444899D01*
X444912D01*
X445305Y324295D01*
D02*
G37*
G36*
X606279Y312088D02*
X606523Y312049D01*
X606727Y311990D01*
X606913Y311922D01*
X607059Y311854D01*
X607118Y311824D01*
X607166Y311795D01*
X607215Y311766D01*
X607244Y311756D01*
X607254Y311737D01*
X607264D01*
X607449Y311581D01*
X607605Y311405D01*
X607742Y311220D01*
X607859Y311034D01*
X607947Y310878D01*
X607976Y310810D01*
X608005Y310742D01*
X608025Y310693D01*
X608044Y310654D01*
X608054Y310634D01*
Y310625D01*
X608103Y310478D01*
X608142Y310332D01*
X608210Y310010D01*
X608259Y309679D01*
X608298Y309366D01*
X608307Y309220D01*
X608317Y309093D01*
Y308967D01*
X608327Y308869D01*
Y308781D01*
Y308723D01*
Y308674D01*
Y308664D01*
Y308450D01*
X608317Y308245D01*
X608298Y308060D01*
X608288Y307884D01*
X608269Y307728D01*
X608239Y307582D01*
X608220Y307445D01*
X608190Y307328D01*
X608161Y307221D01*
X608142Y307123D01*
X608122Y307045D01*
X608093Y306987D01*
X608083Y306938D01*
X608064Y306899D01*
X608054Y306879D01*
Y306870D01*
X607947Y306645D01*
X607820Y306450D01*
X607683Y306294D01*
X607556Y306148D01*
X607439Y306041D01*
X607352Y305963D01*
X607313Y305943D01*
X607283Y305924D01*
X607274Y305904D01*
X607264D01*
X607069Y305787D01*
X606864Y305709D01*
X606679Y305650D01*
X606503Y305602D01*
X606347Y305582D01*
X606279Y305572D01*
X606230D01*
X606181Y305563D01*
X606123D01*
X605967Y305572D01*
X605811Y305592D01*
X605664Y305621D01*
X605528Y305650D01*
X605284Y305748D01*
X605177Y305807D01*
X605079Y305855D01*
X604981Y305914D01*
X604903Y305972D01*
X604835Y306021D01*
X604786Y306060D01*
X604738Y306099D01*
X604708Y306128D01*
X604689Y306148D01*
X604679Y306158D01*
X604582Y306275D01*
X604494Y306392D01*
X604416Y306518D01*
X604357Y306655D01*
X604299Y306782D01*
X604250Y306918D01*
X604182Y307162D01*
X604162Y307279D01*
X604143Y307387D01*
X604133Y307484D01*
X604123Y307562D01*
X604113Y307630D01*
Y307689D01*
Y307718D01*
Y307728D01*
X604123Y307903D01*
X604133Y308069D01*
X604162Y308216D01*
X604201Y308362D01*
X604240Y308498D01*
X604289Y308625D01*
X604338Y308742D01*
X604386Y308840D01*
X604435Y308937D01*
X604484Y309015D01*
X604533Y309084D01*
X604572Y309142D01*
X604611Y309191D01*
X604640Y309220D01*
X604650Y309240D01*
X604660Y309249D01*
X604767Y309347D01*
X604874Y309435D01*
X604991Y309513D01*
X605099Y309581D01*
X605216Y309640D01*
X605323Y309688D01*
X605537Y309757D01*
X605723Y309796D01*
X605801Y309806D01*
X605869Y309815D01*
X605928Y309825D01*
X606006D01*
X606181Y309815D01*
X606347Y309786D01*
X606493Y309757D01*
X606620Y309708D01*
X606727Y309669D01*
X606815Y309640D01*
X606864Y309610D01*
X606884Y309601D01*
X607030Y309503D01*
X607157Y309406D01*
X607274Y309298D01*
X607361Y309201D01*
X607439Y309123D01*
X607488Y309045D01*
X607527Y309006D01*
X607537Y308986D01*
Y309054D01*
Y309103D01*
Y309132D01*
Y309142D01*
Y309328D01*
X607518Y309503D01*
X607498Y309659D01*
X607478Y309806D01*
X607459Y309932D01*
X607439Y310030D01*
X607430Y310059D01*
Y310088D01*
X607420Y310098D01*
Y310108D01*
X607371Y310274D01*
X607322Y310420D01*
X607274Y310547D01*
X607235Y310654D01*
X607186Y310742D01*
X607157Y310810D01*
X607137Y310849D01*
X607127Y310859D01*
X607059Y310956D01*
X606981Y311044D01*
X606913Y311122D01*
X606835Y311181D01*
X606776Y311229D01*
X606727Y311269D01*
X606688Y311288D01*
X606679Y311298D01*
X606571Y311356D01*
X606464Y311395D01*
X606357Y311425D01*
X606259Y311444D01*
X606171Y311454D01*
X606103Y311464D01*
X606045D01*
X605889Y311454D01*
X605752Y311425D01*
X605635Y311385D01*
X605537Y311346D01*
X605450Y311308D01*
X605391Y311269D01*
X605352Y311239D01*
X605342Y311229D01*
X605245Y311132D01*
X605167Y311005D01*
X605108Y310878D01*
X605060Y310752D01*
X605020Y310644D01*
X605001Y310547D01*
X604991Y310508D01*
X604981Y310478D01*
Y310469D01*
Y310459D01*
X604230Y310518D01*
X604279Y310791D01*
X604357Y311025D01*
X604445Y311229D01*
X604543Y311395D01*
X604640Y311522D01*
X604718Y311620D01*
X604777Y311678D01*
X604786Y311688D01*
X604796Y311698D01*
X604991Y311834D01*
X605186Y311932D01*
X605391Y312010D01*
X605586Y312059D01*
X605762Y312088D01*
X605840Y312097D01*
X605898D01*
X605957Y312107D01*
X606025D01*
X606279Y312088D01*
D02*
G37*
G36*
X601441Y312097D02*
X601636Y312068D01*
X601802Y312039D01*
X601948Y311990D01*
X602065Y311951D01*
X602153Y311922D01*
X602211Y311893D01*
X602231Y311883D01*
X602377Y311785D01*
X602514Y311678D01*
X602621Y311571D01*
X602709Y311454D01*
X602767Y311356D01*
X602816Y311278D01*
X602845Y311229D01*
X602855Y311210D01*
X602924Y311034D01*
X602972Y310830D01*
X603002Y310625D01*
X603031Y310420D01*
X603041Y310244D01*
Y310166D01*
X603050Y310098D01*
Y310040D01*
Y310000D01*
Y309971D01*
Y309961D01*
Y305592D01*
X602202D01*
Y310010D01*
Y310205D01*
X602182Y310371D01*
X602173Y310508D01*
X602153Y310625D01*
X602133Y310713D01*
X602124Y310771D01*
X602104Y310810D01*
Y310820D01*
X602065Y310908D01*
X602016Y310986D01*
X601968Y311054D01*
X601909Y311103D01*
X601860Y311151D01*
X601821Y311181D01*
X601792Y311200D01*
X601782Y311210D01*
X601695Y311259D01*
X601607Y311298D01*
X601509Y311317D01*
X601422Y311337D01*
X601353Y311346D01*
X601295Y311356D01*
X601236D01*
X601080Y311346D01*
X600943Y311317D01*
X600826Y311269D01*
X600729Y311220D01*
X600651Y311181D01*
X600602Y311132D01*
X600563Y311103D01*
X600553Y311093D01*
X600514Y311034D01*
X600475Y310966D01*
X600407Y310820D01*
X600358Y310654D01*
X600329Y310478D01*
X600300Y310322D01*
X600290Y310254D01*
Y310196D01*
X600280Y310147D01*
Y310108D01*
Y310088D01*
Y310079D01*
X599520Y310186D01*
Y310361D01*
X599529Y310518D01*
X599549Y310674D01*
X599578Y310810D01*
X599607Y310947D01*
X599646Y311064D01*
X599685Y311171D01*
X599724Y311269D01*
X599763Y311346D01*
X599812Y311425D01*
X599841Y311483D01*
X599880Y311542D01*
X599910Y311581D01*
X599929Y311610D01*
X599949Y311620D01*
Y311629D01*
X600036Y311717D01*
X600134Y311785D01*
X600232Y311854D01*
X600339Y311903D01*
X600553Y311990D01*
X600758Y312049D01*
X600943Y312078D01*
X601031Y312088D01*
X601100Y312097D01*
X601158Y312107D01*
X601236D01*
X601441Y312097D01*
D02*
G37*
G36*
X640138Y297098D02*
X640304Y297078D01*
X640460Y297059D01*
X640606Y297020D01*
X640743Y296971D01*
X640870Y296922D01*
X640987Y296873D01*
X641094Y296815D01*
X641182Y296766D01*
X641270Y296717D01*
X641348Y296668D01*
X641406Y296620D01*
X641455Y296581D01*
X641484Y296561D01*
X641504Y296542D01*
X641513Y296532D01*
X641621Y296415D01*
X641718Y296298D01*
X641796Y296181D01*
X641864Y296064D01*
X641933Y295947D01*
X641982Y295820D01*
X642050Y295595D01*
X642079Y295498D01*
X642099Y295400D01*
X642108Y295322D01*
X642118Y295244D01*
X642128Y295186D01*
Y295147D01*
Y295118D01*
Y295108D01*
X642118Y294883D01*
X642079Y294679D01*
X642030Y294503D01*
X641972Y294357D01*
X641904Y294240D01*
X641855Y294152D01*
X641816Y294093D01*
X641806Y294074D01*
X641679Y293928D01*
X641533Y293811D01*
X641387Y293713D01*
X641250Y293645D01*
X641123Y293586D01*
X641026Y293557D01*
X640987Y293538D01*
X640957D01*
X640938Y293528D01*
X640928D01*
X641084Y293450D01*
X641221Y293352D01*
X641328Y293264D01*
X641426Y293177D01*
X641494Y293099D01*
X641552Y293040D01*
X641582Y293001D01*
X641591Y292981D01*
X641669Y292855D01*
X641718Y292718D01*
X641757Y292591D01*
X641786Y292474D01*
X641806Y292377D01*
X641816Y292299D01*
Y292250D01*
Y292230D01*
X641806Y292065D01*
X641777Y291918D01*
X641738Y291782D01*
X641699Y291655D01*
X641660Y291558D01*
X641621Y291479D01*
X641591Y291431D01*
X641582Y291411D01*
X641484Y291275D01*
X641377Y291148D01*
X641260Y291041D01*
X641152Y290953D01*
X641055Y290884D01*
X640977Y290836D01*
X640918Y290807D01*
X640909Y290797D01*
X640899D01*
X640733Y290719D01*
X640567Y290660D01*
X640401Y290621D01*
X640255Y290592D01*
X640128Y290572D01*
X640031Y290563D01*
X639807D01*
X639670Y290582D01*
X639426Y290631D01*
X639202Y290699D01*
X639016Y290777D01*
X638870Y290865D01*
X638812Y290904D01*
X638763Y290933D01*
X638714Y290963D01*
X638685Y290982D01*
X638675Y290992D01*
X638665Y291002D01*
X638490Y291177D01*
X638353Y291372D01*
X638236Y291577D01*
X638158Y291772D01*
X638090Y291948D01*
X638070Y292026D01*
X638051Y292094D01*
X638041Y292143D01*
X638031Y292182D01*
X638022Y292211D01*
Y292221D01*
X638812Y292357D01*
X638851Y292153D01*
X638909Y291977D01*
X638968Y291831D01*
X639036Y291714D01*
X639095Y291616D01*
X639143Y291548D01*
X639182Y291509D01*
X639192Y291499D01*
X639319Y291401D01*
X639446Y291333D01*
X639572Y291275D01*
X639699Y291245D01*
X639797Y291226D01*
X639884Y291206D01*
X639963D01*
X640128Y291216D01*
X640275Y291255D01*
X640401Y291294D01*
X640509Y291353D01*
X640596Y291401D01*
X640665Y291450D01*
X640704Y291489D01*
X640714Y291499D01*
X640811Y291606D01*
X640879Y291733D01*
X640938Y291850D01*
X640967Y291957D01*
X640987Y292065D01*
X641006Y292143D01*
Y292192D01*
Y292201D01*
Y292211D01*
X640987Y292406D01*
X640938Y292572D01*
X640879Y292708D01*
X640801Y292816D01*
X640723Y292903D01*
X640665Y292972D01*
X640616Y293011D01*
X640596Y293020D01*
X640441Y293108D01*
X640284Y293167D01*
X640138Y293216D01*
X640002Y293245D01*
X639875Y293264D01*
X639787Y293274D01*
X639660D01*
X639621Y293264D01*
X639572D01*
X639485Y293957D01*
X639602Y293928D01*
X639709Y293908D01*
X639807Y293898D01*
X639884Y293889D01*
X639953Y293879D01*
X640041D01*
X640236Y293898D01*
X640401Y293937D01*
X640557Y293986D01*
X640684Y294054D01*
X640792Y294123D01*
X640870Y294172D01*
X640909Y294210D01*
X640928Y294230D01*
X641045Y294366D01*
X641133Y294513D01*
X641201Y294669D01*
X641240Y294806D01*
X641270Y294932D01*
X641279Y295030D01*
X641289Y295069D01*
Y295098D01*
Y295108D01*
Y295118D01*
X641270Y295322D01*
X641230Y295508D01*
X641172Y295674D01*
X641104Y295810D01*
X641026Y295927D01*
X640967Y296005D01*
X640928Y296054D01*
X640909Y296073D01*
X640762Y296200D01*
X640606Y296298D01*
X640450Y296356D01*
X640294Y296405D01*
X640167Y296434D01*
X640070Y296444D01*
X640031Y296454D01*
X639972D01*
X639807Y296444D01*
X639650Y296405D01*
X639514Y296356D01*
X639407Y296308D01*
X639309Y296249D01*
X639241Y296210D01*
X639202Y296171D01*
X639182Y296161D01*
X639075Y296034D01*
X638977Y295888D01*
X638899Y295722D01*
X638841Y295566D01*
X638792Y295420D01*
X638763Y295303D01*
X638743Y295264D01*
Y295225D01*
X638734Y295205D01*
Y295196D01*
X637943Y295303D01*
X637963Y295449D01*
X637992Y295586D01*
X638080Y295839D01*
X638178Y296064D01*
X638295Y296259D01*
X638343Y296337D01*
X638402Y296405D01*
X638451Y296464D01*
X638490Y296522D01*
X638529Y296561D01*
X638558Y296590D01*
X638568Y296600D01*
X638577Y296610D01*
X638685Y296698D01*
X638802Y296776D01*
X638909Y296844D01*
X639026Y296893D01*
X639260Y296990D01*
X639485Y297049D01*
X639582Y297068D01*
X639680Y297078D01*
X639758Y297088D01*
X639836Y297098D01*
X639894Y297107D01*
X639972D01*
X640138Y297098D01*
D02*
G37*
G36*
X629195D02*
X629360Y297078D01*
X629516Y297059D01*
X629663Y297020D01*
X629799Y296971D01*
X629926Y296922D01*
X630043Y296873D01*
X630150Y296815D01*
X630238Y296766D01*
X630326Y296717D01*
X630404Y296668D01*
X630462Y296620D01*
X630511Y296581D01*
X630541Y296561D01*
X630560Y296542D01*
X630570Y296532D01*
X630677Y296415D01*
X630775Y296298D01*
X630853Y296181D01*
X630921Y296064D01*
X630989Y295947D01*
X631038Y295820D01*
X631106Y295595D01*
X631135Y295498D01*
X631155Y295400D01*
X631165Y295322D01*
X631175Y295244D01*
X631184Y295186D01*
Y295147D01*
Y295118D01*
Y295108D01*
X631175Y294883D01*
X631135Y294679D01*
X631087Y294503D01*
X631028Y294357D01*
X630960Y294240D01*
X630911Y294152D01*
X630872Y294093D01*
X630862Y294074D01*
X630736Y293928D01*
X630589Y293811D01*
X630443Y293713D01*
X630307Y293645D01*
X630180Y293586D01*
X630082Y293557D01*
X630043Y293538D01*
X630014D01*
X629994Y293528D01*
X629985D01*
X630141Y293450D01*
X630277Y293352D01*
X630384Y293264D01*
X630482Y293177D01*
X630550Y293099D01*
X630609Y293040D01*
X630638Y293001D01*
X630648Y292981D01*
X630726Y292855D01*
X630775Y292718D01*
X630814Y292591D01*
X630843Y292474D01*
X630862Y292377D01*
X630872Y292299D01*
Y292250D01*
Y292230D01*
X630862Y292065D01*
X630833Y291918D01*
X630794Y291782D01*
X630755Y291655D01*
X630716Y291558D01*
X630677Y291479D01*
X630648Y291431D01*
X630638Y291411D01*
X630541Y291275D01*
X630433Y291148D01*
X630316Y291041D01*
X630209Y290953D01*
X630111Y290884D01*
X630033Y290836D01*
X629975Y290807D01*
X629965Y290797D01*
X629955D01*
X629790Y290719D01*
X629624Y290660D01*
X629458Y290621D01*
X629312Y290592D01*
X629185Y290572D01*
X629087Y290563D01*
X628863D01*
X628726Y290582D01*
X628483Y290631D01*
X628258Y290699D01*
X628073Y290777D01*
X627927Y290865D01*
X627868Y290904D01*
X627819Y290933D01*
X627771Y290963D01*
X627741Y290982D01*
X627732Y290992D01*
X627722Y291002D01*
X627546Y291177D01*
X627410Y291372D01*
X627293Y291577D01*
X627215Y291772D01*
X627146Y291948D01*
X627127Y292026D01*
X627107Y292094D01*
X627098Y292143D01*
X627088Y292182D01*
X627078Y292211D01*
Y292221D01*
X627868Y292357D01*
X627907Y292153D01*
X627966Y291977D01*
X628024Y291831D01*
X628092Y291714D01*
X628151Y291616D01*
X628200Y291548D01*
X628239Y291509D01*
X628248Y291499D01*
X628375Y291401D01*
X628502Y291333D01*
X628629Y291275D01*
X628756Y291245D01*
X628853Y291226D01*
X628941Y291206D01*
X629019D01*
X629185Y291216D01*
X629331Y291255D01*
X629458Y291294D01*
X629565Y291353D01*
X629653Y291401D01*
X629721Y291450D01*
X629760Y291489D01*
X629770Y291499D01*
X629868Y291606D01*
X629936Y291733D01*
X629994Y291850D01*
X630024Y291957D01*
X630043Y292065D01*
X630063Y292143D01*
Y292192D01*
Y292201D01*
Y292211D01*
X630043Y292406D01*
X629994Y292572D01*
X629936Y292708D01*
X629858Y292816D01*
X629780Y292903D01*
X629721Y292972D01*
X629673Y293011D01*
X629653Y293020D01*
X629497Y293108D01*
X629341Y293167D01*
X629195Y293216D01*
X629058Y293245D01*
X628931Y293264D01*
X628843Y293274D01*
X628717D01*
X628678Y293264D01*
X628629D01*
X628541Y293957D01*
X628658Y293928D01*
X628765Y293908D01*
X628863Y293898D01*
X628941Y293889D01*
X629009Y293879D01*
X629097D01*
X629292Y293898D01*
X629458Y293937D01*
X629614Y293986D01*
X629741Y294054D01*
X629848Y294123D01*
X629926Y294172D01*
X629965Y294210D01*
X629985Y294230D01*
X630102Y294366D01*
X630189Y294513D01*
X630258Y294669D01*
X630297Y294806D01*
X630326Y294932D01*
X630336Y295030D01*
X630345Y295069D01*
Y295098D01*
Y295108D01*
Y295118D01*
X630326Y295322D01*
X630287Y295508D01*
X630228Y295674D01*
X630160Y295810D01*
X630082Y295927D01*
X630024Y296005D01*
X629985Y296054D01*
X629965Y296073D01*
X629819Y296200D01*
X629663Y296298D01*
X629507Y296356D01*
X629351Y296405D01*
X629224Y296434D01*
X629126Y296444D01*
X629087Y296454D01*
X629029D01*
X628863Y296444D01*
X628707Y296405D01*
X628570Y296356D01*
X628463Y296308D01*
X628366Y296249D01*
X628297Y296210D01*
X628258Y296171D01*
X628239Y296161D01*
X628131Y296034D01*
X628034Y295888D01*
X627956Y295722D01*
X627897Y295566D01*
X627849Y295420D01*
X627819Y295303D01*
X627800Y295264D01*
Y295225D01*
X627790Y295205D01*
Y295196D01*
X627000Y295303D01*
X627020Y295449D01*
X627049Y295586D01*
X627136Y295839D01*
X627234Y296064D01*
X627351Y296259D01*
X627400Y296337D01*
X627458Y296405D01*
X627507Y296464D01*
X627546Y296522D01*
X627585Y296561D01*
X627615Y296590D01*
X627624Y296600D01*
X627634Y296610D01*
X627741Y296698D01*
X627858Y296776D01*
X627966Y296844D01*
X628083Y296893D01*
X628317Y296990D01*
X628541Y297049D01*
X628639Y297068D01*
X628736Y297078D01*
X628814Y297088D01*
X628892Y297098D01*
X628951Y297107D01*
X629029D01*
X629195Y297098D01*
D02*
G37*
G36*
X637485Y290592D02*
X636627D01*
X634891Y295244D01*
X634822Y295439D01*
X634754Y295634D01*
X634696Y295810D01*
X634647Y295966D01*
X634608Y296103D01*
X634579Y296210D01*
X634569Y296249D01*
X634559Y296278D01*
X634549Y296288D01*
Y296298D01*
X634442Y295927D01*
X634384Y295752D01*
X634325Y295586D01*
X634276Y295449D01*
X634247Y295342D01*
X634227Y295303D01*
X634218Y295274D01*
X634208Y295254D01*
Y295244D01*
X632550Y290592D01*
X631623D01*
X634110Y297000D01*
X634978D01*
X637485Y290592D01*
D02*
G37*
G36*
X987360Y263563D02*
X986843D01*
X986756Y263719D01*
X986648Y263875D01*
X986531Y264021D01*
X986414Y264158D01*
X986307Y264265D01*
X986219Y264353D01*
X986161Y264411D01*
X986151Y264421D01*
X986141Y264431D01*
X985956Y264587D01*
X985761Y264733D01*
X985566Y264860D01*
X985390Y264967D01*
X985234Y265055D01*
X985166Y265084D01*
X985107Y265113D01*
X985068Y265143D01*
X985029Y265162D01*
X985010Y265172D01*
X985000D01*
Y265942D01*
X985136Y265884D01*
X985283Y265816D01*
X985419Y265757D01*
X985546Y265689D01*
X985654Y265630D01*
X985741Y265582D01*
X985800Y265543D01*
X985809Y265533D01*
X985819D01*
X985985Y265435D01*
X986131Y265328D01*
X986258Y265240D01*
X986366Y265152D01*
X986453Y265084D01*
X986522Y265035D01*
X986561Y264996D01*
X986570Y264987D01*
Y270000D01*
X987360D01*
Y263563D01*
D02*
G37*
%LPC*%
G36*
X761087Y340838D02*
X761058Y340829D01*
X761223Y337817D01*
X762657Y338259D01*
X761087Y340838D01*
D02*
G37*
G36*
X783086Y341838D02*
X783058Y341829D01*
X783223Y338817D01*
X784657Y339259D01*
X783086Y341838D01*
D02*
G37*
G36*
X808086D02*
X808058Y341829D01*
X808223Y338817D01*
X809657Y339259D01*
X808086Y341838D01*
D02*
G37*
G36*
X1239636Y830017D02*
X1238836Y829848D01*
X1238766Y829818D01*
X1238630Y829744D01*
X1238567Y829685D01*
X1238518Y829629D01*
X1238510Y829597D01*
X1238487Y829561D01*
X1238481Y829515D01*
X1238465Y829450D01*
X1238454Y829357D01*
X1238458Y829267D01*
X1238483Y829150D01*
X1239122Y826127D01*
X1239125Y826112D01*
X1239135Y826069D01*
X1239158Y826028D01*
X1239174Y825955D01*
X1239248Y825819D01*
X1239293Y825753D01*
X1239349Y825704D01*
X1239381Y825695D01*
X1239416Y825673D01*
X1239463Y825667D01*
X1239541Y825654D01*
X1239620Y825640D01*
X1239711Y825644D01*
X1240467Y825804D01*
X1240507Y825827D01*
X1240580Y825843D01*
X1240716Y825917D01*
X1240782Y825962D01*
X1240831Y826018D01*
X1240840Y826050D01*
X1240863Y826085D01*
X1240882Y826135D01*
X1240882Y826210D01*
X1240895Y826289D01*
X1240891Y826380D01*
X1240867Y826496D01*
X1240227Y829520D01*
X1240224Y829534D01*
X1240215Y829578D01*
X1240205Y829621D01*
X1240175Y829691D01*
X1240101Y829827D01*
X1240057Y829894D01*
X1240001Y829943D01*
X1239966Y829966D01*
X1239933Y829974D01*
X1239884Y829994D01*
X1239819Y830011D01*
X1239729Y830006D01*
X1239636Y830017D01*
D02*
G37*
G36*
X1241151Y504157D02*
X1239327D01*
X1239152Y504147D01*
X1239015Y504138D01*
X1238908Y504128D01*
X1238830Y504118D01*
X1238772Y504108D01*
X1238742Y504099D01*
X1238733D01*
X1238615Y504050D01*
X1238508Y504001D01*
X1238420Y503933D01*
X1238342Y503874D01*
X1238274Y503816D01*
X1238235Y503767D01*
X1238206Y503728D01*
X1238196Y503718D01*
X1238128Y503611D01*
X1238079Y503494D01*
X1238040Y503377D01*
X1238020Y503270D01*
X1238001Y503172D01*
X1237991Y503094D01*
Y503045D01*
Y503026D01*
X1238011Y502831D01*
X1238050Y502655D01*
X1238099Y502509D01*
X1238167Y502392D01*
X1238235Y502294D01*
X1238284Y502226D01*
X1238323Y502177D01*
X1238342Y502167D01*
X1238411Y502119D01*
X1238489Y502070D01*
X1238664Y501992D01*
X1238859Y501943D01*
X1239054Y501904D01*
X1239230Y501884D01*
X1239298Y501875D01*
X1239367D01*
X1239425Y501865D01*
X1241151D01*
Y504157D01*
D02*
G37*
G36*
X1229320Y479284D02*
X1229271D01*
X1229086Y479264D01*
X1228920Y479225D01*
X1228774Y479157D01*
X1228647Y479089D01*
X1228540Y479011D01*
X1228472Y478942D01*
X1228423Y478904D01*
X1228403Y478884D01*
X1228286Y478718D01*
X1228199Y478543D01*
X1228130Y478367D01*
X1228091Y478191D01*
X1228062Y478035D01*
X1228052Y477977D01*
Y477918D01*
X1228043Y477870D01*
Y477831D01*
Y477811D01*
Y477801D01*
X1228062Y477567D01*
X1228101Y477353D01*
X1228160Y477177D01*
X1228218Y477021D01*
X1228286Y476904D01*
X1228345Y476816D01*
X1228384Y476767D01*
X1228403Y476748D01*
X1228540Y476621D01*
X1228686Y476524D01*
X1228842Y476465D01*
X1228979Y476416D01*
X1229106Y476387D01*
X1229203Y476377D01*
X1229242Y476368D01*
X1229291D01*
X1229486Y476387D01*
X1229662Y476426D01*
X1229818Y476485D01*
X1229954Y476563D01*
X1230062Y476631D01*
X1230140Y476689D01*
X1230188Y476728D01*
X1230208Y476748D01*
X1230325Y476904D01*
X1230413Y477060D01*
X1230481Y477226D01*
X1230520Y477392D01*
X1230549Y477528D01*
X1230559Y477645D01*
X1230569Y477684D01*
Y477714D01*
Y477733D01*
Y477743D01*
X1230549Y477987D01*
X1230510Y478201D01*
X1230452Y478396D01*
X1230374Y478552D01*
X1230305Y478679D01*
X1230247Y478777D01*
X1230208Y478835D01*
X1230188Y478855D01*
X1230110Y478933D01*
X1230032Y479001D01*
X1229876Y479099D01*
X1229730Y479177D01*
X1229584Y479235D01*
X1229457Y479264D01*
X1229359Y479274D01*
X1229320Y479284D01*
D02*
G37*
G36*
X1241151Y479157D02*
X1239327D01*
X1239152Y479147D01*
X1239015Y479138D01*
X1238908Y479128D01*
X1238830Y479118D01*
X1238772Y479108D01*
X1238742Y479099D01*
X1238733D01*
X1238615Y479050D01*
X1238508Y479001D01*
X1238420Y478933D01*
X1238342Y478874D01*
X1238274Y478816D01*
X1238235Y478767D01*
X1238206Y478728D01*
X1238196Y478718D01*
X1238128Y478611D01*
X1238079Y478494D01*
X1238040Y478377D01*
X1238020Y478270D01*
X1238001Y478172D01*
X1237991Y478094D01*
Y478045D01*
Y478026D01*
X1238011Y477831D01*
X1238050Y477655D01*
X1238099Y477509D01*
X1238167Y477392D01*
X1238235Y477294D01*
X1238284Y477226D01*
X1238323Y477177D01*
X1238342Y477167D01*
X1238411Y477119D01*
X1238489Y477070D01*
X1238664Y476992D01*
X1238859Y476943D01*
X1239054Y476904D01*
X1239230Y476884D01*
X1239298Y476875D01*
X1239367D01*
X1239425Y476865D01*
X1241151D01*
Y479157D01*
D02*
G37*
G36*
Y454157D02*
X1239327D01*
X1239152Y454147D01*
X1239015Y454138D01*
X1238908Y454128D01*
X1238830Y454118D01*
X1238772Y454108D01*
X1238742Y454099D01*
X1238733D01*
X1238615Y454050D01*
X1238508Y454001D01*
X1238420Y453933D01*
X1238342Y453874D01*
X1238274Y453816D01*
X1238235Y453767D01*
X1238206Y453728D01*
X1238196Y453718D01*
X1238128Y453611D01*
X1238079Y453494D01*
X1238040Y453377D01*
X1238020Y453270D01*
X1238001Y453172D01*
X1237991Y453094D01*
Y453045D01*
Y453026D01*
X1238011Y452831D01*
X1238050Y452655D01*
X1238099Y452509D01*
X1238167Y452392D01*
X1238235Y452294D01*
X1238284Y452226D01*
X1238323Y452177D01*
X1238342Y452167D01*
X1238411Y452119D01*
X1238489Y452070D01*
X1238664Y451992D01*
X1238859Y451943D01*
X1239054Y451904D01*
X1239230Y451884D01*
X1239298Y451875D01*
X1239367D01*
X1239425Y451865D01*
X1241151D01*
Y454157D01*
D02*
G37*
G36*
X1316151D02*
X1314328D01*
X1314152Y454147D01*
X1314015Y454138D01*
X1313908Y454128D01*
X1313830Y454118D01*
X1313772Y454108D01*
X1313742Y454099D01*
X1313733D01*
X1313616Y454050D01*
X1313508Y454001D01*
X1313420Y453933D01*
X1313342Y453874D01*
X1313274Y453816D01*
X1313235Y453767D01*
X1313206Y453728D01*
X1313196Y453718D01*
X1313128Y453611D01*
X1313079Y453494D01*
X1313040Y453377D01*
X1313020Y453270D01*
X1313001Y453172D01*
X1312991Y453094D01*
Y453045D01*
Y453026D01*
X1313011Y452831D01*
X1313050Y452655D01*
X1313099Y452509D01*
X1313167Y452392D01*
X1313235Y452294D01*
X1313284Y452226D01*
X1313323Y452177D01*
X1313342Y452167D01*
X1313411Y452119D01*
X1313489Y452070D01*
X1313664Y451992D01*
X1313859Y451943D01*
X1314054Y451904D01*
X1314230Y451884D01*
X1314298Y451875D01*
X1314366D01*
X1314425Y451865D01*
X1316151D01*
Y454157D01*
D02*
G37*
G36*
X1309334Y454294D02*
X1309256D01*
X1309090Y454284D01*
X1308953Y454245D01*
X1308826Y454196D01*
X1308719Y454147D01*
X1308631Y454089D01*
X1308563Y454040D01*
X1308524Y454001D01*
X1308514Y453991D01*
X1308417Y453874D01*
X1308339Y453757D01*
X1308290Y453630D01*
X1308251Y453523D01*
X1308232Y453426D01*
X1308212Y453338D01*
Y453289D01*
Y453279D01*
Y453270D01*
X1308222Y453123D01*
X1308261Y452987D01*
X1308300Y452860D01*
X1308358Y452762D01*
X1308407Y452674D01*
X1308456Y452616D01*
X1308495Y452577D01*
X1308505Y452567D01*
X1308622Y452470D01*
X1308748Y452401D01*
X1308875Y452353D01*
X1308992Y452323D01*
X1309100Y452304D01*
X1309178Y452284D01*
X1309256D01*
X1309422Y452294D01*
X1309568Y452333D01*
X1309704Y452372D01*
X1309812Y452431D01*
X1309899Y452480D01*
X1309968Y452528D01*
X1310007Y452557D01*
X1310016Y452567D01*
X1310114Y452684D01*
X1310182Y452811D01*
X1310231Y452928D01*
X1310260Y453045D01*
X1310280Y453153D01*
X1310299Y453231D01*
Y453289D01*
Y453308D01*
X1310289Y453455D01*
X1310251Y453582D01*
X1310202Y453708D01*
X1310153Y453806D01*
X1310094Y453884D01*
X1310055Y453952D01*
X1310016Y453991D01*
X1310007Y454001D01*
X1309890Y454099D01*
X1309763Y454167D01*
X1309636Y454225D01*
X1309519Y454255D01*
X1309412Y454274D01*
X1309334Y454294D01*
D02*
G37*
G36*
X1309324Y451641D02*
X1309275D01*
X1309070Y451621D01*
X1308885Y451582D01*
X1308719Y451524D01*
X1308583Y451455D01*
X1308475Y451377D01*
X1308397Y451319D01*
X1308349Y451280D01*
X1308329Y451260D01*
X1308202Y451114D01*
X1308105Y450958D01*
X1308036Y450802D01*
X1307997Y450656D01*
X1307968Y450519D01*
X1307958Y450421D01*
X1307949Y450382D01*
Y450353D01*
Y450334D01*
Y450324D01*
X1307968Y450119D01*
X1308007Y449944D01*
X1308066Y449778D01*
X1308134Y449651D01*
X1308202Y449544D01*
X1308261Y449466D01*
X1308300Y449417D01*
X1308319Y449397D01*
X1308466Y449280D01*
X1308612Y449193D01*
X1308768Y449124D01*
X1308914Y449085D01*
X1309051Y449056D01*
X1309148Y449046D01*
X1309187Y449036D01*
X1309246D01*
X1309382Y449046D01*
X1309509Y449066D01*
X1309617Y449085D01*
X1309724Y449124D01*
X1309812Y449154D01*
X1309870Y449173D01*
X1309909Y449193D01*
X1309929Y449202D01*
X1310036Y449271D01*
X1310134Y449349D01*
X1310211Y449436D01*
X1310280Y449514D01*
X1310329Y449583D01*
X1310368Y449641D01*
X1310387Y449680D01*
X1310397Y449690D01*
X1310446Y449807D01*
X1310485Y449924D01*
X1310514Y450041D01*
X1310533Y450139D01*
X1310543Y450226D01*
X1310553Y450285D01*
Y450334D01*
Y450343D01*
X1310533Y450538D01*
X1310494Y450724D01*
X1310436Y450880D01*
X1310368Y451016D01*
X1310309Y451124D01*
X1310251Y451202D01*
X1310211Y451250D01*
X1310192Y451270D01*
X1310046Y451397D01*
X1309899Y451485D01*
X1309743Y451553D01*
X1309597Y451592D01*
X1309470Y451621D01*
X1309363Y451631D01*
X1309324Y451641D01*
D02*
G37*
G36*
X1309295Y479284D02*
X1309246D01*
X1309061Y479264D01*
X1308895Y479225D01*
X1308748Y479157D01*
X1308622Y479089D01*
X1308514Y479011D01*
X1308446Y478942D01*
X1308397Y478904D01*
X1308378Y478884D01*
X1308261Y478718D01*
X1308173Y478543D01*
X1308105Y478367D01*
X1308066Y478191D01*
X1308036Y478035D01*
X1308027Y477977D01*
Y477918D01*
X1308017Y477870D01*
Y477831D01*
Y477811D01*
Y477801D01*
X1308036Y477567D01*
X1308076Y477353D01*
X1308134Y477177D01*
X1308192Y477021D01*
X1308261Y476904D01*
X1308319Y476816D01*
X1308358Y476767D01*
X1308378Y476748D01*
X1308514Y476621D01*
X1308661Y476524D01*
X1308817Y476465D01*
X1308953Y476416D01*
X1309080Y476387D01*
X1309178Y476377D01*
X1309217Y476368D01*
X1309265D01*
X1309460Y476387D01*
X1309636Y476426D01*
X1309792Y476485D01*
X1309929Y476563D01*
X1310036Y476631D01*
X1310114Y476689D01*
X1310163Y476728D01*
X1310182Y476748D01*
X1310299Y476904D01*
X1310387Y477060D01*
X1310455Y477226D01*
X1310494Y477392D01*
X1310524Y477528D01*
X1310533Y477645D01*
X1310543Y477684D01*
Y477714D01*
Y477733D01*
Y477743D01*
X1310524Y477987D01*
X1310485Y478201D01*
X1310426Y478396D01*
X1310348Y478552D01*
X1310280Y478679D01*
X1310221Y478777D01*
X1310182Y478835D01*
X1310163Y478855D01*
X1310085Y478933D01*
X1310007Y479001D01*
X1309851Y479099D01*
X1309704Y479177D01*
X1309558Y479235D01*
X1309431Y479264D01*
X1309334Y479274D01*
X1309295Y479284D01*
D02*
G37*
G36*
X1316151Y479157D02*
X1314328D01*
X1314152Y479147D01*
X1314015Y479138D01*
X1313908Y479128D01*
X1313830Y479118D01*
X1313772Y479108D01*
X1313742Y479099D01*
X1313733D01*
X1313616Y479050D01*
X1313508Y479001D01*
X1313420Y478933D01*
X1313342Y478874D01*
X1313274Y478816D01*
X1313235Y478767D01*
X1313206Y478728D01*
X1313196Y478718D01*
X1313128Y478611D01*
X1313079Y478494D01*
X1313040Y478377D01*
X1313020Y478270D01*
X1313001Y478172D01*
X1312991Y478094D01*
Y478045D01*
Y478026D01*
X1313011Y477831D01*
X1313050Y477655D01*
X1313099Y477509D01*
X1313167Y477392D01*
X1313235Y477294D01*
X1313284Y477226D01*
X1313323Y477177D01*
X1313342Y477167D01*
X1313411Y477119D01*
X1313489Y477070D01*
X1313664Y476992D01*
X1313859Y476943D01*
X1314054Y476904D01*
X1314230Y476884D01*
X1314298Y476875D01*
X1314366D01*
X1314425Y476865D01*
X1316151D01*
Y479157D01*
D02*
G37*
G36*
Y504157D02*
X1314328D01*
X1314152Y504147D01*
X1314015Y504138D01*
X1313908Y504128D01*
X1313830Y504118D01*
X1313772Y504108D01*
X1313742Y504099D01*
X1313733D01*
X1313616Y504050D01*
X1313508Y504001D01*
X1313420Y503933D01*
X1313342Y503874D01*
X1313274Y503816D01*
X1313235Y503767D01*
X1313206Y503728D01*
X1313196Y503718D01*
X1313128Y503611D01*
X1313079Y503494D01*
X1313040Y503377D01*
X1313020Y503270D01*
X1313001Y503172D01*
X1312991Y503094D01*
Y503045D01*
Y503026D01*
X1313011Y502831D01*
X1313050Y502655D01*
X1313099Y502509D01*
X1313167Y502392D01*
X1313235Y502294D01*
X1313284Y502226D01*
X1313323Y502177D01*
X1313342Y502167D01*
X1313411Y502119D01*
X1313489Y502070D01*
X1313664Y501992D01*
X1313859Y501943D01*
X1314054Y501904D01*
X1314230Y501884D01*
X1314298Y501875D01*
X1314366D01*
X1314425Y501865D01*
X1316151D01*
Y504157D01*
D02*
G37*
G36*
Y529157D02*
X1314328D01*
X1314152Y529147D01*
X1314015Y529138D01*
X1313908Y529128D01*
X1313830Y529118D01*
X1313772Y529108D01*
X1313742Y529099D01*
X1313733D01*
X1313616Y529050D01*
X1313508Y529001D01*
X1313420Y528933D01*
X1313342Y528874D01*
X1313274Y528816D01*
X1313235Y528767D01*
X1313206Y528728D01*
X1313196Y528718D01*
X1313128Y528611D01*
X1313079Y528494D01*
X1313040Y528377D01*
X1313020Y528270D01*
X1313001Y528172D01*
X1312991Y528094D01*
Y528045D01*
Y528026D01*
X1313011Y527831D01*
X1313050Y527655D01*
X1313099Y527509D01*
X1313167Y527392D01*
X1313235Y527294D01*
X1313284Y527226D01*
X1313323Y527177D01*
X1313342Y527167D01*
X1313411Y527119D01*
X1313489Y527070D01*
X1313664Y526992D01*
X1313859Y526943D01*
X1314054Y526904D01*
X1314230Y526884D01*
X1314298Y526875D01*
X1314366D01*
X1314425Y526865D01*
X1316151D01*
Y529157D01*
D02*
G37*
G36*
X1304350Y529284D02*
X1304301D01*
X1304203Y529274D01*
X1304106Y529264D01*
X1303930Y529206D01*
X1303774Y529118D01*
X1303638Y529021D01*
X1303530Y528923D01*
X1303452Y528835D01*
X1303403Y528777D01*
X1303384Y528767D01*
Y528757D01*
X1303316Y528650D01*
X1303257Y528523D01*
X1303208Y528377D01*
X1303169Y528211D01*
X1303101Y527870D01*
X1303062Y527519D01*
X1303043Y527343D01*
X1303033Y527187D01*
X1303023Y527041D01*
Y526914D01*
X1303013Y526806D01*
Y526728D01*
Y526680D01*
Y526660D01*
Y526377D01*
X1303033Y526114D01*
X1303043Y525880D01*
X1303072Y525665D01*
X1303101Y525470D01*
X1303130Y525295D01*
X1303160Y525148D01*
X1303199Y525012D01*
X1303238Y524905D01*
X1303267Y524807D01*
X1303296Y524719D01*
X1303326Y524661D01*
X1303345Y524612D01*
X1303365Y524583D01*
X1303384Y524563D01*
Y524553D01*
X1303452Y524466D01*
X1303530Y524388D01*
X1303608Y524310D01*
X1303686Y524251D01*
X1303833Y524163D01*
X1303979Y524105D01*
X1304106Y524066D01*
X1304203Y524046D01*
X1304242Y524036D01*
X1304291D01*
X1304389Y524046D01*
X1304486Y524056D01*
X1304662Y524114D01*
X1304818Y524202D01*
X1304954Y524300D01*
X1305062Y524388D01*
X1305140Y524475D01*
X1305188Y524534D01*
X1305208Y524544D01*
Y524553D01*
X1305266Y524661D01*
X1305325Y524797D01*
X1305374Y524944D01*
X1305413Y525100D01*
X1305481Y525451D01*
X1305520Y525802D01*
X1305540Y525968D01*
X1305549Y526133D01*
X1305559Y526280D01*
Y526407D01*
X1305569Y526514D01*
Y526592D01*
Y526641D01*
Y526660D01*
Y526943D01*
X1305549Y527206D01*
X1305530Y527440D01*
X1305510Y527655D01*
X1305471Y527860D01*
X1305442Y528035D01*
X1305403Y528191D01*
X1305364Y528328D01*
X1305335Y528445D01*
X1305296Y528552D01*
X1305257Y528630D01*
X1305227Y528699D01*
X1305208Y528747D01*
X1305188Y528786D01*
X1305169Y528806D01*
Y528816D01*
X1305110Y528894D01*
X1305042Y528972D01*
X1304896Y529089D01*
X1304749Y529167D01*
X1304613Y529225D01*
X1304486Y529264D01*
X1304389Y529274D01*
X1304350Y529284D01*
D02*
G37*
G36*
X1307226Y687157D02*
X1305889D01*
X1305626Y687147D01*
X1305402Y687138D01*
X1305216Y687118D01*
X1305060Y687089D01*
X1304943Y687060D01*
X1304865Y687040D01*
X1304816Y687030D01*
X1304797Y687020D01*
X1304631Y686933D01*
X1304475Y686825D01*
X1304339Y686708D01*
X1304221Y686582D01*
X1304124Y686474D01*
X1304056Y686377D01*
X1304026Y686338D01*
X1304017Y686309D01*
X1303997Y686299D01*
Y686289D01*
X1303939Y686182D01*
X1303890Y686065D01*
X1303802Y685821D01*
X1303744Y685567D01*
X1303705Y685314D01*
X1303695Y685206D01*
X1303685Y685099D01*
X1303675Y685002D01*
X1303666Y684914D01*
Y684846D01*
Y684797D01*
Y684758D01*
Y684748D01*
X1303675Y684485D01*
X1303695Y684250D01*
X1303724Y684036D01*
X1303753Y683851D01*
X1303783Y683704D01*
X1303802Y683646D01*
X1303812Y683597D01*
X1303822Y683558D01*
X1303831Y683529D01*
X1303841Y683519D01*
Y683509D01*
X1303909Y683334D01*
X1303987Y683168D01*
X1304066Y683031D01*
X1304134Y682914D01*
X1304202Y682827D01*
X1304261Y682758D01*
X1304300Y682710D01*
X1304309Y682700D01*
X1304397Y682622D01*
X1304485Y682553D01*
X1304582Y682505D01*
X1304680Y682456D01*
X1304758Y682417D01*
X1304826Y682388D01*
X1304865Y682378D01*
X1304885Y682368D01*
X1305031Y682329D01*
X1305187Y682300D01*
X1305353Y682280D01*
X1305509Y682271D01*
X1305655Y682261D01*
X1305763Y682251D01*
X1307226D01*
Y687157D01*
D02*
G37*
G36*
X446205Y323129D02*
X446142D01*
X446116D01*
X445825Y323104D01*
X445571Y323053D01*
X445343Y322977D01*
X445153Y322888D01*
X445014Y322799D01*
X444899Y322723D01*
X444836Y322673D01*
X444811Y322647D01*
X444646Y322457D01*
X444519Y322267D01*
X444431Y322064D01*
X444367Y321887D01*
X444329Y321722D01*
X444316Y321595D01*
X444304Y321545D01*
Y321481D01*
X444329Y321228D01*
X444380Y321000D01*
X444468Y320797D01*
X444557Y320632D01*
X444646Y320493D01*
X444735Y320391D01*
X444785Y320341D01*
X444811Y320315D01*
X445014Y320163D01*
X445229Y320049D01*
X445457Y319973D01*
X445673Y319910D01*
X445863Y319884D01*
X445951Y319872D01*
X446027D01*
X446078Y319859D01*
X446129D01*
X446154D01*
X446167D01*
X446484Y319884D01*
X446763Y319935D01*
X447016Y320011D01*
X447219Y320087D01*
X447371Y320176D01*
X447485Y320252D01*
X447561Y320303D01*
X447587Y320328D01*
X447764Y320505D01*
X447891Y320695D01*
X447979Y320886D01*
X448043Y321050D01*
X448081Y321215D01*
X448093Y321329D01*
X448106Y321380D01*
Y321443D01*
X448093Y321608D01*
X448068Y321760D01*
X448030Y321912D01*
X447979Y322039D01*
X447941Y322140D01*
X447903Y322216D01*
X447878Y322280D01*
X447865Y322293D01*
X447764Y322432D01*
X447637Y322559D01*
X447523Y322660D01*
X447396Y322749D01*
X447295Y322825D01*
X447206Y322876D01*
X447155Y322901D01*
X447130Y322914D01*
X446940Y322990D01*
X446763Y323040D01*
X446598Y323078D01*
X446433Y323104D01*
X446306Y323116D01*
X446205Y323129D01*
D02*
G37*
G36*
X606250Y309132D02*
X606201D01*
X606006Y309113D01*
X605830Y309074D01*
X605674Y309015D01*
X605537Y308937D01*
X605430Y308869D01*
X605352Y308811D01*
X605303Y308772D01*
X605284Y308752D01*
X605167Y308596D01*
X605079Y308440D01*
X605011Y308274D01*
X604972Y308108D01*
X604943Y307972D01*
X604933Y307855D01*
X604923Y307816D01*
Y307787D01*
Y307767D01*
Y307757D01*
X604943Y307513D01*
X604981Y307299D01*
X605040Y307104D01*
X605118Y306948D01*
X605186Y306821D01*
X605245Y306723D01*
X605284Y306665D01*
X605303Y306645D01*
X605381Y306567D01*
X605459Y306499D01*
X605616Y306401D01*
X605762Y306323D01*
X605908Y306265D01*
X606035Y306236D01*
X606132Y306226D01*
X606171Y306216D01*
X606220D01*
X606405Y306236D01*
X606571Y306275D01*
X606718Y306343D01*
X606844Y306411D01*
X606952Y306489D01*
X607020Y306558D01*
X607069Y306597D01*
X607088Y306616D01*
X607205Y306782D01*
X607293Y306957D01*
X607361Y307133D01*
X607400Y307309D01*
X607430Y307465D01*
X607439Y307523D01*
Y307582D01*
X607449Y307630D01*
Y307669D01*
Y307689D01*
Y307699D01*
X607430Y307933D01*
X607391Y308147D01*
X607332Y308323D01*
X607274Y308479D01*
X607205Y308596D01*
X607147Y308684D01*
X607108Y308733D01*
X607088Y308752D01*
X606952Y308879D01*
X606805Y308976D01*
X606649Y309035D01*
X606513Y309084D01*
X606386Y309113D01*
X606288Y309123D01*
X606250Y309132D01*
D02*
G37*
%LPD*%
D10*
X373500Y389500D02*
Y403500D01*
X350500D01*
Y389500D01*
X373500D01*
X390500D02*
X413500D01*
Y403500D01*
X390500D01*
Y389500D01*
X425000Y415500D02*
Y438500D01*
X439000D01*
Y415500D01*
X425000D01*
X453000D02*
Y438500D01*
X467000D01*
Y415500D01*
X453000D01*
X477500Y389500D02*
X500500D01*
Y403500D01*
X477500D01*
Y389500D01*
X489599Y375750D02*
X521599D01*
Y359750D01*
X489599D01*
Y375750D01*
Y349750D02*
X521599D01*
Y333750D01*
X489599D01*
Y349750D01*
Y315750D02*
X521599D01*
Y299750D01*
X489599D01*
Y315750D01*
Y286750D02*
X521599D01*
Y270750D01*
X489599D01*
Y286750D01*
X529000Y260957D02*
Y289957D01*
X545000D01*
Y260957D01*
X529000D01*
X548849Y270750D02*
Y286750D01*
X580849D01*
Y270750D01*
X548849D01*
X545000Y298957D02*
Y327957D01*
X529000D01*
Y298957D01*
X545000D01*
X580599Y313750D02*
Y329750D01*
X548599D01*
Y313750D01*
X580599D01*
X592000Y287000D02*
Y362000D01*
X652000D01*
Y287000D01*
X649500D01*
Y262000D01*
X594500D01*
Y287000D01*
X592000D01*
X580599Y359750D02*
Y375750D01*
X548599D01*
Y359750D01*
X580599D01*
X580500Y389500D02*
Y403500D01*
X557500D01*
Y389500D01*
X580500D01*
X545000Y400957D02*
X529000D01*
Y371957D01*
X545000D01*
Y400957D01*
X540500Y403500D02*
X517500D01*
Y389500D01*
X540500D01*
Y403500D01*
X545500Y363956D02*
Y334957D01*
X532500D01*
Y363956D01*
X545500D01*
X592500Y419500D02*
Y442500D01*
X606500D01*
Y419500D01*
X592500D01*
Y459500D02*
Y482500D01*
X606500D01*
Y459500D01*
X592500D01*
X613000Y476000D02*
Y492000D01*
X645000D01*
Y476000D01*
X613000D01*
Y501000D02*
Y517000D01*
X645000D01*
Y501000D01*
X613000D01*
X645000Y526000D02*
Y542000D01*
X613000D01*
Y526000D01*
X645000D01*
X691500Y509000D02*
X731500D01*
Y609000D01*
X691500D01*
Y509000D01*
X645000Y556000D02*
Y572000D01*
X613000D01*
Y556000D01*
X645000D01*
Y581000D02*
Y597000D01*
X613000D01*
Y581000D01*
X645000D01*
X645000Y608500D02*
Y624500D01*
X613000D01*
Y608500D01*
X645000D01*
Y635000D02*
Y651000D01*
X613000D01*
Y635000D01*
X645000D01*
X605500Y658500D02*
Y635500D01*
X591500D01*
Y658500D01*
X605500D01*
Y618500D02*
Y595500D01*
X591500D01*
Y618500D01*
X605500D01*
X566500Y653050D02*
Y553050D01*
X526500D01*
Y653050D01*
X566500D01*
X557500Y670500D02*
X580500D01*
Y684500D01*
X557500D01*
Y670500D01*
X531500Y711500D02*
X631500D01*
Y751500D01*
X531500D01*
Y711500D01*
X540500Y684500D02*
X517500D01*
Y670500D01*
X540500D01*
Y684500D01*
X521500Y711500D02*
Y751500D01*
X421500D01*
Y711500D01*
X521500D01*
X539500Y728000D02*
Y760000D01*
X523500D01*
Y728000D01*
X539500D01*
X553500D02*
X569500D01*
Y760000D01*
X553500D01*
Y728000D01*
X578500Y727750D02*
X594500D01*
Y759750D01*
X578500D01*
Y727750D01*
X606000Y728000D02*
X622000D01*
Y760000D01*
X606000D01*
Y728000D01*
X627500Y742500D02*
G03*
X627500Y742500I-5000J0D01*
G01*
X631500Y784500D02*
Y816500D01*
X615500D01*
Y784500D01*
X631500D01*
X604000Y816500D02*
X588000D01*
Y784500D01*
X604000D01*
Y816500D01*
X576500D02*
X560500D01*
Y784500D01*
X576500D01*
Y816500D01*
X544000D02*
X528000D01*
Y784500D01*
X544000D01*
Y816500D01*
X551500Y790000D02*
Y878000D01*
X511500D01*
Y790000D01*
X551500D01*
X516500Y816500D02*
X500500D01*
Y784500D01*
X516500D01*
Y816500D01*
X491500D02*
X475500D01*
Y784500D01*
X491500D01*
Y816500D01*
X466500D02*
X450500D01*
Y784500D01*
X466500D01*
Y816500D01*
X441500D02*
X425500D01*
Y784500D01*
X441500D01*
Y816500D01*
X429000Y790000D02*
Y878000D01*
X389000D01*
Y790000D01*
X429000D01*
X434500Y760000D02*
X418500D01*
Y728000D01*
X434500D01*
Y760000D01*
X443500D02*
X459500D01*
Y728000D01*
X443500D01*
Y760000D01*
X468500Y728000D02*
X484500D01*
Y760000D01*
X468500D01*
Y728000D01*
X496000D02*
X512000D01*
Y760000D01*
X496000D01*
Y728000D01*
X517500Y742500D02*
G03*
X517500Y742500I-5000J0D01*
G01*
X500500Y684500D02*
X477500D01*
Y670500D01*
X500500D01*
Y684500D01*
X486000Y650000D02*
X502000D01*
Y618000D01*
X486000D01*
Y650000D01*
X467000Y658500D02*
Y635500D01*
X453000D01*
Y658500D01*
X467000D01*
Y618500D02*
Y595500D01*
X453000D01*
Y618500D01*
X467000D01*
X469000Y609000D02*
Y509000D01*
X429000D01*
Y609000D01*
X469000D01*
X465000Y600000D02*
G03*
X465000Y600000I-5000J0D01*
G01*
X467000Y578500D02*
Y555500D01*
X453000D01*
Y578500D01*
X467000D01*
X477500Y544000D02*
X500500D01*
Y530000D01*
X477500D01*
Y544000D01*
X486000Y510000D02*
X502000D01*
Y478000D01*
X486000D01*
Y510000D01*
X517500Y530000D02*
X540500D01*
Y544000D01*
X517500D01*
Y530000D01*
X526500Y544950D02*
X566500D01*
Y444950D01*
X526500D01*
Y544950D01*
X556000Y510000D02*
X572000D01*
Y478000D01*
X556000D01*
Y510000D01*
X557500Y530000D02*
X580500D01*
Y544000D01*
X557500D01*
Y530000D01*
X592500Y522500D02*
X606500D01*
Y499500D01*
X592500D01*
Y522500D01*
X591500Y555500D02*
Y578500D01*
X605500D01*
Y555500D01*
X591500D01*
X572000Y563000D02*
Y595000D01*
X556000D01*
Y563000D01*
X572000D01*
X502000Y595000D02*
X486000D01*
Y563000D01*
X502000D01*
Y595000D01*
X467000Y518500D02*
Y495500D01*
X453000D01*
Y518500D01*
X467000D01*
Y478500D02*
Y455500D01*
X453000D01*
Y478500D01*
X467000D01*
X486000Y455000D02*
X502000D01*
Y423000D01*
X486000D01*
Y455000D01*
X556000Y423000D02*
X572000D01*
Y455000D01*
X556000D01*
Y423000D01*
X443000Y555500D02*
Y578500D01*
X429000D01*
Y555500D01*
X443000D01*
X439000Y518500D02*
Y495500D01*
X425000D01*
Y518500D01*
X439000D01*
Y478500D02*
Y455500D01*
X425000D01*
Y478500D01*
X439000D01*
X407000Y510000D02*
X391000D01*
Y478000D01*
X407000D01*
Y510000D01*
X413500Y530000D02*
Y544000D01*
X390500D01*
Y530000D01*
X413500D01*
X407000Y563000D02*
Y595000D01*
X391000D01*
Y563000D01*
X407000D01*
X429000Y595500D02*
Y618500D01*
X443000D01*
Y595500D01*
X429000D01*
Y635500D02*
Y658500D01*
X443000D01*
Y635500D01*
X429000D01*
X413500Y670500D02*
Y684500D01*
X390500D01*
Y670500D01*
X413500D01*
X409000Y711500D02*
Y751500D01*
X309000D01*
Y711500D01*
X409000D01*
X397000Y728000D02*
Y760000D01*
X381000D01*
Y728000D01*
X397000D01*
X405000Y742500D02*
G03*
X405000Y742500I-5000J0D01*
G01*
X369500Y760000D02*
X353500D01*
Y728000D01*
X369500D01*
Y760000D01*
X404000Y784500D02*
Y816500D01*
X388000D01*
Y784500D01*
X404000D01*
X403000Y799000D02*
G03*
X403000Y799000I-5000J0D01*
G01*
X379000Y816500D02*
X363000D01*
Y784500D01*
X379000D01*
Y816500D01*
X354000D02*
X338000D01*
Y784500D01*
X354000D01*
Y816500D01*
X329000D02*
X313000D01*
Y784500D01*
X329000D01*
Y816500D01*
X298500Y760000D02*
X314500D01*
Y728000D01*
X298500D01*
Y760000D01*
X326000Y728000D02*
X342000D01*
Y760000D01*
X326000D01*
Y728000D01*
X333500Y684500D02*
X310500D01*
Y670500D01*
X333500D01*
Y684500D01*
X321500Y654000D02*
Y554000D01*
X281500D01*
Y654000D01*
X321500D01*
X321000Y650000D02*
X337000D01*
Y618000D01*
X321000D01*
Y650000D01*
X355500Y632000D02*
X387500D01*
Y616000D01*
X355500D01*
Y632000D01*
Y604500D02*
X387500D01*
Y588500D01*
X355500D01*
Y604500D01*
X337000Y595000D02*
X321000D01*
Y563000D01*
X337000D01*
Y595000D01*
X355500Y577000D02*
X387500D01*
Y561000D01*
X355500D01*
Y577000D01*
Y549500D02*
X387500D01*
Y533500D01*
X355500D01*
Y549500D01*
X350500Y544000D02*
X373500D01*
Y530000D01*
X350500D01*
Y544000D01*
X355500Y524500D02*
X387500D01*
Y508500D01*
X355500D01*
Y524500D01*
X337000Y510000D02*
X321000D01*
Y478000D01*
X337000D01*
Y510000D01*
X355500Y497000D02*
X387500D01*
Y481000D01*
X355500D01*
Y497000D01*
X337000Y455000D02*
X321000D01*
Y423000D01*
X337000D01*
Y455000D01*
X321500Y446500D02*
Y546500D01*
X281500D01*
Y446500D01*
X321500D01*
X301000Y478500D02*
Y455500D01*
X287000D01*
Y478500D01*
X301000D01*
Y495500D02*
Y518500D01*
X287000D01*
Y495500D01*
X301000D01*
Y438500D02*
Y415500D01*
X287000D01*
Y438500D01*
X301000D01*
X310500Y403500D02*
X333500D01*
Y389500D01*
X310500D01*
Y403500D01*
X391000Y423000D02*
X407000D01*
Y455000D01*
X391000D01*
Y423000D01*
X333500Y530000D02*
Y544000D01*
X310500D01*
Y530000D01*
X333500D01*
X301000Y578500D02*
Y555500D01*
X287000D01*
Y578500D01*
X301000D01*
Y595500D02*
Y618500D01*
X287000D01*
Y595500D01*
X301000D01*
Y635500D02*
Y658500D01*
X287000D01*
Y635500D01*
X301000D01*
X355500Y641000D02*
Y657000D01*
X387500D01*
Y641000D01*
X355500D01*
X373500Y670500D02*
Y684500D01*
X350500D01*
Y670500D01*
X373500D01*
X547500Y869000D02*
G03*
X547500Y869000I-5000J0D01*
G01*
X678750Y860000D02*
Y888000D01*
X713750D01*
Y860000D01*
X678750D01*
X733750D02*
X768750D01*
Y888000D01*
X733750D01*
Y860000D01*
X788750D02*
X823750D01*
Y888000D01*
X788750D01*
Y860000D01*
X843750D02*
X878750D01*
Y888000D01*
X843750D01*
Y860000D01*
X898750D02*
X933750D01*
Y888000D01*
X898750D01*
Y860000D01*
X947500Y783500D02*
X965500D01*
Y749500D01*
X947500D01*
Y783500D01*
X975000D02*
X993000D01*
Y749500D01*
X975000D01*
Y783500D01*
X1026000Y749750D02*
X1044000D01*
Y783750D01*
X1026000D01*
Y749750D01*
X1018700Y711750D02*
X1099500D01*
Y606250D01*
X1018700D01*
Y711750D01*
X1051250Y749500D02*
X1069250D01*
Y783500D01*
X1051250D01*
Y749500D01*
X1142000Y668000D02*
X1176000D01*
Y650000D01*
X1142000D01*
Y668000D01*
X1141750Y640250D02*
X1175750D01*
Y622250D01*
X1141750D01*
Y640250D01*
X1230000Y583000D02*
Y617000D01*
X1248000D01*
Y583000D01*
X1230000D01*
X1265050Y578750D02*
Y623750D01*
X1292950D01*
Y578750D01*
X1265050D01*
X1303000Y592000D02*
Y626000D01*
X1321000D01*
Y592000D01*
X1303000D01*
X1324000Y718000D02*
Y752000D01*
X1306000D01*
Y718000D01*
X1324000D01*
X1293950Y718250D02*
Y763250D01*
X1266050D01*
Y718250D01*
X1293950D01*
X1248000Y749500D02*
Y783500D01*
X1230000D01*
Y749500D01*
X1248000D01*
X1220500D02*
Y783500D01*
X1202500D01*
Y749500D01*
X1220500D01*
X1193000D02*
Y783500D01*
X1175000D01*
Y749500D01*
X1193000D01*
X1165500D02*
Y783500D01*
X1147500D01*
Y749500D01*
X1165500D01*
X1138000D02*
Y783500D01*
X1120000D01*
Y749500D01*
X1138000D01*
X1228750Y860000D02*
X1263750D01*
Y888000D01*
X1228750D01*
Y860000D01*
X1208750Y888000D02*
X1173750D01*
Y860000D01*
X1208750D01*
Y888000D01*
X1153750D02*
X1118750D01*
Y860000D01*
X1153750D01*
Y888000D01*
X1098750D02*
X1063750D01*
Y860000D01*
X1098750D01*
Y888000D01*
X1043750D02*
X1008750D01*
Y860000D01*
X1043750D01*
Y888000D01*
X988750D02*
X953750D01*
Y860000D01*
X988750D01*
Y888000D01*
X826000Y695000D02*
X842000D01*
Y663000D01*
X826000D01*
Y695000D01*
X818000Y696000D02*
X800000D01*
Y662000D01*
X818000D01*
Y696000D01*
X792000Y695000D02*
X776000D01*
Y663000D01*
X792000D01*
Y695000D01*
X727500Y600000D02*
G03*
X727500Y600000I-5000J0D01*
G01*
X821000Y568000D02*
X921000D01*
Y468000D01*
X821000D01*
Y568000D01*
X835000Y559000D02*
G03*
X835000Y559000I-5000J0D01*
G01*
X870000Y635000D02*
Y669000D01*
X888000D01*
Y635000D01*
X870000D01*
X900500Y646500D02*
X949500D01*
Y685500D01*
X900500D01*
Y646500D01*
X945500Y655500D02*
G03*
X945500Y655500I-5000J0D01*
G01*
X1162000Y398000D02*
X1178000D01*
Y366000D01*
X1162000D01*
Y398000D01*
X1191000Y366000D02*
X1207000D01*
Y398000D01*
X1191000D01*
Y366000D01*
X1221000D02*
X1237000D01*
Y398000D01*
X1221000D01*
Y366000D01*
X1250000D02*
X1266000D01*
Y398000D01*
X1250000D01*
Y366000D01*
X1279000D02*
X1295000D01*
Y398000D01*
X1279000D01*
Y366000D01*
X1309000D02*
X1325000D01*
Y398000D01*
X1309000D01*
Y366000D01*
X1338000D02*
X1354000D01*
Y398000D01*
X1338000D01*
Y366000D01*
X1247000Y300000D02*
X1231000D01*
Y268000D01*
X1247000D01*
Y300000D01*
X1222000D02*
X1206000D01*
Y268000D01*
X1222000D01*
Y300000D01*
X1194500D02*
X1178500D01*
Y268000D01*
X1194500D01*
Y300000D01*
X979000Y351000D02*
Y317000D01*
X961000D01*
Y351000D01*
X979000D01*
X928000Y350000D02*
Y316000D01*
X910000D01*
Y350000D01*
X928000D01*
X841000Y300000D02*
X825000D01*
Y268000D01*
X841000D01*
Y300000D01*
X814500D02*
X798500D01*
Y268000D01*
X814500D01*
Y300000D01*
X788000D02*
X772000D01*
Y268000D01*
X788000D01*
Y300000D01*
X762000D02*
X746000D01*
Y268000D01*
X762000D01*
Y300000D01*
X1318750Y860000D02*
Y888000D01*
X1283750D01*
Y860000D01*
X1318750D01*
D12*
X655900Y295000D02*
X1336900D01*
Y322400D01*
Y325400D01*
Y803000D01*
Y819000D01*
X996900D01*
X656900D01*
X655900D01*
Y295000D01*
X738400Y790000D02*
Y821000D01*
X1258150D01*
Y790000D01*
X738400D01*
D13*
X355303Y265752D02*
X475303D01*
Y370752D01*
X355303D01*
Y265752D01*
X671800Y259350D02*
Y294000D01*
X722600D01*
Y259750D01*
Y259350D02*
X671800D01*
X907500Y257500D02*
X980000D01*
D02*
G03*
X982500Y302500I-74J22573D01*
G01*
X982500Y302500D02*
X905000D01*
D02*
G03*
X907500Y257500I5417J-22269D01*
G01*
X1024000Y257750D02*
X1151000D01*
Y303900D01*
X1024000D01*
Y257750D01*
X1244500Y438500D02*
Y538500D01*
X1374500D01*
Y438500D01*
X1244500D01*
X1378650Y583400D02*
Y634200D01*
X1378250D02*
X1344000D01*
Y583400D01*
X1378650D01*
X1379200Y641500D02*
Y701500D01*
X1246700D01*
Y641500D01*
X1379200D01*
X1379650Y709400D02*
Y760200D01*
X1379250D02*
X1345000D01*
Y709400D01*
X1379650D01*
X1376750Y780000D02*
Y818150D01*
X1269750D01*
Y780000D01*
X1376750D01*
X1256500Y818500D02*
X740900D01*
Y805000D01*
X755600Y792500D02*
X1256500D01*
Y818500D01*
D14*
X719691Y290000D02*
G03*
X719691Y290000I-791J0D01*
G01*
X1348791Y630500D02*
G03*
X1348791Y630500I-791J0D01*
G01*
X1349791Y756500D02*
G03*
X1349791Y756500I-791J0D01*
G01*
D44*
X649500Y292000D02*
G03*
X649500Y292000I-2500J0D01*
G01*
X966036Y265000D02*
G03*
X966036Y265000I-3536J0D01*
G01*
X1307000Y516000D02*
G03*
X1307000Y516000I-2500J0D01*
G01*
D90*
X381132Y328752D02*
G03*
X381132Y328752I-2828J0D01*
G01*
X1042200Y297500D02*
G03*
X1042200Y297500I-2500J0D01*
G01*
X1315235Y676500D02*
G03*
X1315235Y676500I-3535J0D01*
G01*
X1309266Y813250D02*
G03*
X1309266Y813250I-2016J0D01*
G01*
D91*
X1279000Y581776D02*
D03*
X1280000Y760224D02*
D03*
D92*
X1312001Y594286D02*
D03*
D93*
X1314999Y749714D02*
D03*
M02*
