G04*
G04 #@! TF.GenerationSoftware,Altium Limited,Altium Designer,19.1.7 (138)*
G04*
G04 Layer_Color=8421504*
%FSLAX44Y44*%
%MOMM*%
G71*
G01*
G75*
%ADD12C,0.0500*%
%ADD15R,1.6000X2.4000*%
%ADD16R,1.4000X1.9000*%
%ADD17R,1.9000X1.4000*%
%ADD18R,0.6000X1.5200*%
%ADD19R,1.0000X0.8000*%
%ADD20R,0.8000X1.0000*%
D12*
X738400Y790000D02*
Y821000D01*
X1258150D01*
Y790000D01*
X738400D01*
D15*
X875500Y874000D02*
D03*
X902000D02*
D03*
X930500D02*
D03*
X957000D02*
D03*
X985500D02*
D03*
X1012000D02*
D03*
X1040500D02*
D03*
X1067000D02*
D03*
X1095500D02*
D03*
X1122000D02*
D03*
X1150500D02*
D03*
X1177000D02*
D03*
X1205500D02*
D03*
X1232000D02*
D03*
X1260500D02*
D03*
X1287000D02*
D03*
X1315500D02*
D03*
X847000D02*
D03*
X820500D02*
D03*
X792000D02*
D03*
X765500D02*
D03*
X737000D02*
D03*
X710500D02*
D03*
X682000D02*
D03*
D16*
X490349Y278750D02*
D03*
X520849D02*
D03*
X549599D02*
D03*
X580099D02*
D03*
X579849Y321750D02*
D03*
X549349D02*
D03*
X520849Y341750D02*
D03*
Y307750D02*
D03*
X490349Y341750D02*
D03*
Y307750D02*
D03*
X549349Y367750D02*
D03*
X579849D02*
D03*
X520849D02*
D03*
X490349D02*
D03*
D17*
X399000Y423750D02*
D03*
Y454250D02*
D03*
Y478750D02*
D03*
Y509250D02*
D03*
Y563750D02*
D03*
Y594250D02*
D03*
X494000Y509250D02*
D03*
Y478750D02*
D03*
Y454250D02*
D03*
Y423750D02*
D03*
X564000D02*
D03*
Y454250D02*
D03*
Y478750D02*
D03*
Y509250D02*
D03*
Y563750D02*
D03*
Y594250D02*
D03*
X494000Y649250D02*
D03*
Y618750D02*
D03*
Y594250D02*
D03*
Y563750D02*
D03*
X329000Y649250D02*
D03*
Y618750D02*
D03*
Y594250D02*
D03*
Y563750D02*
D03*
Y509250D02*
D03*
Y478750D02*
D03*
Y454250D02*
D03*
Y423750D02*
D03*
X623500Y785250D02*
D03*
Y815750D02*
D03*
X596000D02*
D03*
Y785250D02*
D03*
X568500Y815750D02*
D03*
Y785250D02*
D03*
X536000Y815750D02*
D03*
Y785250D02*
D03*
X508500Y815750D02*
D03*
Y785250D02*
D03*
X483500Y815750D02*
D03*
Y785250D02*
D03*
X458500Y815750D02*
D03*
Y785250D02*
D03*
X433500Y815750D02*
D03*
Y785250D02*
D03*
X396000Y815750D02*
D03*
Y785250D02*
D03*
X371000Y815750D02*
D03*
Y785250D02*
D03*
X346000Y815750D02*
D03*
Y785250D02*
D03*
X321000Y815750D02*
D03*
Y785250D02*
D03*
D18*
X613250Y704000D02*
D03*
X625950D02*
D03*
X600550D02*
D03*
X587850D02*
D03*
X575150D02*
D03*
X562450D02*
D03*
X549750D02*
D03*
X537050D02*
D03*
X515950D02*
D03*
X503250D02*
D03*
X490550D02*
D03*
X477850D02*
D03*
X465150D02*
D03*
X452450D02*
D03*
X439750D02*
D03*
X427050D02*
D03*
X403450D02*
D03*
X390750D02*
D03*
X378050D02*
D03*
X365350D02*
D03*
X352650D02*
D03*
X339950D02*
D03*
X327250D02*
D03*
X314550D02*
D03*
X365350Y759000D02*
D03*
X378050D02*
D03*
X390750D02*
D03*
X403450D02*
D03*
X427050D02*
D03*
X439750D02*
D03*
X452450D02*
D03*
X465150D02*
D03*
X477850D02*
D03*
X490550D02*
D03*
X503250D02*
D03*
X515950D02*
D03*
X537050D02*
D03*
X549750D02*
D03*
X562450D02*
D03*
X575150D02*
D03*
X587850D02*
D03*
X600550D02*
D03*
X613250D02*
D03*
X625950D02*
D03*
X352650D02*
D03*
X339950D02*
D03*
X327250D02*
D03*
X314550D02*
D03*
D19*
X294000Y417000D02*
D03*
Y437000D02*
D03*
Y457000D02*
D03*
Y477000D02*
D03*
Y497000D02*
D03*
Y517000D02*
D03*
Y557000D02*
D03*
Y577000D02*
D03*
Y597000D02*
D03*
Y617000D02*
D03*
Y637000D02*
D03*
Y657000D02*
D03*
X432000Y517000D02*
D03*
Y497000D02*
D03*
Y477000D02*
D03*
Y457000D02*
D03*
Y437000D02*
D03*
Y417000D02*
D03*
X460000D02*
D03*
Y437000D02*
D03*
Y457000D02*
D03*
Y477000D02*
D03*
Y497000D02*
D03*
Y517000D02*
D03*
Y557000D02*
D03*
Y577000D02*
D03*
Y597000D02*
D03*
Y617000D02*
D03*
Y637000D02*
D03*
Y657000D02*
D03*
X436000D02*
D03*
Y637000D02*
D03*
Y617000D02*
D03*
Y597000D02*
D03*
Y577000D02*
D03*
Y557000D02*
D03*
X599500Y441000D02*
D03*
Y421000D02*
D03*
Y461000D02*
D03*
Y481000D02*
D03*
Y501000D02*
D03*
Y521000D02*
D03*
X598500Y557000D02*
D03*
Y577000D02*
D03*
Y597000D02*
D03*
Y617000D02*
D03*
Y637000D02*
D03*
Y657000D02*
D03*
D20*
X392000Y396500D02*
D03*
X412000D02*
D03*
X372000D02*
D03*
X352000D02*
D03*
X332000D02*
D03*
X312000D02*
D03*
X392000Y537000D02*
D03*
X412000D02*
D03*
X372000D02*
D03*
X352000D02*
D03*
X332000D02*
D03*
X312000D02*
D03*
X392000Y677500D02*
D03*
X412000D02*
D03*
X372000D02*
D03*
X352000D02*
D03*
X332000D02*
D03*
X312000D02*
D03*
X479000Y537000D02*
D03*
X499000D02*
D03*
X519000D02*
D03*
X539000D02*
D03*
X559000D02*
D03*
X579000D02*
D03*
X499000Y396500D02*
D03*
X479000D02*
D03*
X519000D02*
D03*
X539000D02*
D03*
X559000D02*
D03*
X579000D02*
D03*
Y677500D02*
D03*
X559000D02*
D03*
X539000D02*
D03*
X519000D02*
D03*
X499000D02*
D03*
X479000D02*
D03*
M02*
