M48
;Layer_Color=9474304
;FILE_FORMAT=2:5
INCH
;TYPE=PLATED
T1F00S00C0.01181
T2F00S00C0.02756
T3F00S00C0.04016
T4F00S00C0.04331
T5F00S00C0.04724
T6F00S00C0.06299
T7F00S00C0.06693
T8F00S00C0.11811
T9F00S00C0.12598
;TYPE=NON_PLATED
%
T01
X0205906Y0108661
X0216142Y0112188
X0228385Y0109744
X0228582Y0118012
X0216142Y0127148
X0206693Y0123408
X0203150Y0134646
X0186063Y0134547
X0192756Y0144783
X0216142Y0141322
X0517323Y0136417
X0503857Y0214492
X0479921Y0208268
X0470079
Y0201969
X0475000Y0197441
X0477953Y0194095
X0517323Y0284055
X0448425Y0207874
X0443307Y0202362
X0437795Y0204331
X0407874Y0201181
X0374803Y0217323
X0363779Y0228740
Y0233071
X0346309Y0238041
X0342126Y0237795
X0336614Y0237402
X0332283Y0237795
X0327362
X0321654Y0248819
X0314567Y0254528
X0317520Y0283071
Y0304724
X0361811Y0279134
X0366732Y0280118
X0371654Y0259449
X0383465
X0385433Y0238189
X0356890Y0259449
X0346362Y0251382
X0342126Y0174803
X0346063Y0166929
X0352225Y0165882
X0357598Y0165325
X0362645Y0166142
X0361811Y0170866
X0314567Y0181693
X0459646Y0187598
X0464961Y0190551
X0281102Y0192520
X0276181Y0188583
X0296144Y0162822
X0290945Y0157480
X0286516Y0246654
X0269291
X0262402Y0253543
X0276181Y0261417
X0281102Y0264567
X0269291Y0270276
X0268898Y0287008
X0253543Y0285039
X0241339Y0285433
X0231496
X0221260
X0211417
X0198031
X0188189
X0178347
X0168110
X0162992Y0273228
X0211221Y0243701
X0219094Y0249606
X0225000Y0239764
X0214173Y0220079
X0215158Y0205315
Y0184646
Y0178740
X0253543Y0300787
X0274803Y0309449
X0303248Y0304085
X0153937Y0285433
X0143701Y0285827
X0133839Y0285807
X0122638Y0286024
X0129527Y0249606
X0121653Y0236399
X0122638Y0227953
X0121653Y0197441
Y0189567
Y0178740
X0134252Y0206988
X0150394Y0315748
X0154134Y0359842
X0165945Y0352953
X0161024Y0346063
X0181693
X0212205Y0333268
X0256496Y0334252
Y0339173
Y0343110
Y0347047
Y0350984
X0281890Y0316929
X0332283Y0359842
X0354921Y0339173
X0376870Y0343012
X0398524
X0420177
X0422638Y0326575
X0426772Y0330315
X0435630Y0326378
X0463189Y0330315
X0506791Y0343996
X0518602
T02
X0361890Y0110236
X0381890
T03
X0145789Y0110532
Y0122343
X0157600
Y0110532
X0169411
X0181222
Y0122343
X0169411
X0269291Y0109055
X0279291
X0408347Y0110236
X0418347
X0428346
X0438346
X0448347
X0535827Y0234488
Y0244488
X0536221Y0284095
Y0294094
X0517323Y0314567
X0505512
T04
X0297480Y0126929
X0307480
X0317480
X0467480
X0477480
X0487480
X0307480Y0316929
X0297480
X0317480
X0327480
X0337480
X0347480
X0357480
X0367480
X0377480
X0387480
X0397480
X0407480
X0417480
X0427480
X0437480
X0447480
X0457480
X0467480
X0477480
X0487480
T05
X0239961Y0108701
X0249803
X0496850Y0177559
X0506693
Y0187402
Y0197244
Y0207087
X0496850
Y0197244
Y0187402
X0497717Y0259449
Y0269291
X0507559
Y0259449
T06
X0239961Y0136969
X0249803
X0534961Y0177559
Y0207087
T07
X0535827Y0259449
Y0269291
T08
X0154293Y0139351
X0172797
X0534350Y0314567
T09
X0125591Y0123622
X0534646
X0125591Y0338189
X0534646
M30
